<?xml version="1.0" encoding="UTF-8"?>
<!-- Generated by jsxcad -->
<!DOCTYPE svg PUBLIC "-//W3C//DTD SVG 1.1 Tiny//EN" "http://www.w3.org/Graphics/SVG/1.1/DTD/svg11-tiny.dtd">
<svg baseProfile="tiny" height="20.75 mm" width="40 mm" viewBox="0 0 40 20.75" version="1.1" stroke="black" stroke-width=".1" fill="none" xmlns="http://www.w3.org/2000/svg">
<path d="M19.625 20.225 L20 20.225 L20.375 20.225 L20.375 20.075 L20.375 20 L20 20 L19.625 20 L19.625 20.075 z"/>
<path d="M19.625 20 L19.625 10 L19.625 0 L20 0 L20.375 0 L20.375 10 L20.375 20 L29.875 20 L39.375 20 L39.375 20.075 L39.375 20.225 L39.6875 20.225 L40 20.225 L40 20.375 L40 20.4875 L40 20.75 L30.1875 20.75 L20.375 20.75 L20 20.75 L19.625 20.75 L9.8125 20.75 L0 20.75 L0 20.4875 L0 20.375 L0 20.225 L0.3125 20.225 L0.625 20.225 L0.625 20.075 L0.625 20 L10.125 20 z"/>
</svg>