<?xml version="1.0" encoding="UTF-8"?>
<!-- Generated by jsxcad -->
<!DOCTYPE svg PUBLIC "-//W3C//DTD SVG 1.1 Tiny//EN" "http://www.w3.org/Graphics/SVG/1.1/DTD/svg11-tiny.dtd">
<svg baseProfile="tiny" height="0.75 mm" width="40 mm" viewBox="0 0 40 0.75" version="1.1" stroke="black" stroke-width=".1" fill="none" xmlns="http://www.w3.org/2000/svg">
<path d="M0.625 0.73828 L0.625 0.75 L19.625 0.75 z"/>
<path d="M0.625 0.73828 L19.625 0.75 L19.625 0.38203 z"/>
<path d="M19.625 0 L0.625 0 L0.625 0.01217 z"/>
<path d="M19.625 0 L0.625 0.01217 L19.625 0.38203 z"/>
<path d="M0.625 0.01217 L0.625 0.73828 L19.625 0.38203 z"/>
<path d="M20.375 0.75 L38.875 0.75 L38.875 0.7281 z"/>
<path d="M20.375 0.75 L38.875 0.7281 L20.375 0.36797 z"/>
<path d="M38.875 0.7281 L38.875 0.02109 L20.375 0.36797 z"/>
<path d="M38.875 0.02109 L38.875 0 L20.375 0 z"/>
<path d="M38.875 0.02109 L20.375 0 L20.375 0.36797 z"/>
<path d="M20.375 0.36797 L19.625 0.38203 L19.625 0.75 z"/>
<path d="M20.375 0.36797 L19.625 0.75 L20.375 0.75 z"/>
<path d="M20.375 0.225 L19.625 0.225 L19.625 0.38203 z"/>
<path d="M20.375 0.225 L19.625 0.38203 L20.375 0.36797 z"/>
<path d="M39.625 0.75 L40 0.75 L39.625 0.7427 z"/>
<path d="M39.625 0.7427 L40 0.75 L40 0 z"/>
<path d="M39.625 0.7427 L40 0 L39.625 0.00703 z"/>
<path d="M39.625 0.00703 L40 0 L39.625 0 z"/>
<path d="M39.625 0.75 L39.625 0.7427 L38.875 0.7281 z"/>
<path d="M39.625 0.75 L38.875 0.7281 L38.875 0.75 z"/>
<path d="M39.625 0.225 L38.875 0.225 L38.875 0.7281 z"/>
<path d="M39.625 0.225 L38.875 0.7281 L39.625 0.7427 z"/>
<path d="M0.625 0.73828 L0 0.75 L0.625 0.75 z"/>
<path d="M0 0.225 L0 0.75 L0.625 0.73828 z"/>
<path d="M0 0.225 L0.625 0.73828 L0.625 0.225 z"/>
<path d="M0 0.225 L0 0.225 L0 0.75 z"/>
<path d="M0 0.225 L0 0.75 L0 0.75 z"/>
<path d="M0 0.225 L0 0.225 L0 0.75 z"/>
<path d="M0.625 0.01172 L19.625 0.36797 L19.625 0.75 z"/>
<path d="M0.625 0.01172 L19.625 0.75 L0.625 0.02389 z"/>
<path d="M0.625 0.02389 L19.625 0.75 L0.625 0.75 z"/>
<path d="M0.625 0.01172 L0.625 0 L19.625 0 z"/>
<path d="M0.625 0.01172 L19.625 0 L19.625 0.36797 z"/>
<path d="M38.875 0.72891 L38.875 0.75 L20.375 0.75 z"/>
<path d="M38.875 0.72891 L20.375 0.75 L20.375 0.38203 z"/>
<path d="M38.875 0 L38.875 0.70701 L20.375 0 z"/>
<path d="M38.875 0.70701 L38.875 0.72891 L20.375 0.38203 z"/>
<path d="M38.875 0.70701 L20.375 0.38203 L20.375 0 z"/>
<path d="M20.375 0.38203 L20.375 0.75 L19.625 0.75 z"/>
<path d="M20.375 0.38203 L19.625 0.75 L19.625 0.36797 z"/>
<path d="M20.375 0.225 L20.375 0.38203 L19.625 0.36797 z"/>
<path d="M20.375 0.225 L19.625 0.36797 L19.625 0.225 z"/>
<path d="M39.625 0.74297 L40 0.75 L39.625 0.75 z"/>
<path d="M39.625 0 L40 0 L40 0.75 z"/>
<path d="M39.625 0 L40 0.75 L39.625 0.73567 z"/>
<path d="M39.625 0.73567 L40 0.75 L39.625 0.74297 z"/>
<path d="M39.625 0.74297 L39.625 0.75 L38.875 0.75 z"/>
<path d="M39.625 0.74297 L38.875 0.75 L38.875 0.72891 z"/>
<path d="M39.625 0.225 L39.625 0.73567 L38.875 0.70701 z"/>
<path d="M39.625 0.225 L38.875 0.70701 L38.875 0.225 z"/>
<path d="M39.625 0.73567 L39.625 0.74297 L38.875 0.72891 z"/>
<path d="M39.625 0.73567 L38.875 0.72891 L38.875 0.70701 z"/>
<path d="M0.625 0.225 L0.625 0.75 L0 0.75 z"/>
<path d="M0.625 0.225 L0 0.75 L0 0.225 z"/>
<path d="M40 0.75 L40 0 L40 0.75 z"/>
<path d="M40 0.75 L40 0 L40 0 z"/>
<path d="M0.625 0 L0.625 0 L19.625 0 z"/>
<path d="M0.625 0 L0.625 0 L19.625 0 z"/>
<path d="M0.625 0 L19.625 0 L19.625 0 z"/>
<path d="M0.625 0 L0.625 0 L19.625 0 z"/>
<path d="M0.625 0 L19.625 0 L19.625 0 z"/>
<path d="M38.875 0 L38.875 0 L20.375 0 z"/>
<path d="M38.875 0 L20.375 0 L20.375 0 z"/>
<path d="M38.875 0 L38.875 0 L20.375 0 z"/>
<path d="M38.875 0 L38.875 0 L20.375 0 z"/>
<path d="M38.875 0 L20.375 0 L20.375 0 z"/>
<path d="M39.625 0 L40 0 L39.625 0 z"/>
<path d="M39.625 0 L40 0 L40 0 z"/>
<path d="M39.625 0 L40 0 L39.625 0 z"/>
<path d="M39.625 0 L40 0 L39.625 0 z"/>
<path d="M0.625 0.75 L0.625 0.75 L19.625 0.75 z"/>
<path d="M0.625 0.75 L0.625 0.75 L19.625 0.75 z"/>
<path d="M0.625 0.75 L19.625 0.75 L19.625 0.75 z"/>
<path d="M0.625 0.75 L0.625 0.75 L19.625 0.75 z"/>
<path d="M0.625 0.75 L19.625 0.75 L19.625 0.75 z"/>
<path d="M38.875 0.75 L38.875 0.75 L20.375 0.75 z"/>
<path d="M38.875 0.75 L20.375 0.75 L20.375 0.75 z"/>
<path d="M38.875 0.75 L38.875 0.75 L20.375 0.75 z"/>
<path d="M38.875 0.75 L38.875 0.75 L20.375 0.75 z"/>
<path d="M38.875 0.75 L20.375 0.75 L20.375 0.75 z"/>
<path d="M19.625 0.75 L20.375 0.75 L20.375 0.75 z"/>
<path d="M19.625 0.75 L20.375 0.75 L19.625 0.75 z"/>
<path d="M19.625 0.75 L20.375 0.75 L20.375 0.75 z"/>
<path d="M19.625 0.75 L20.375 0.75 L19.625 0.75 z"/>
<path d="M39.625 0.75 L40 0.75 L39.625 0.75 z"/>
<path d="M39.625 0.75 L40 0.75 L40 0.75 z"/>
<path d="M39.625 0.75 L40 0.75 L39.625 0.75 z"/>
<path d="M39.625 0.75 L40 0.75 L39.625 0.75 z"/>
<path d="M39.625 0.75 L39.625 0.75 L38.875 0.75 z"/>
<path d="M39.625 0.75 L38.875 0.75 L38.875 0.75 z"/>
<path d="M39.625 0.75 L39.625 0.75 L38.875 0.75 z"/>
<path d="M39.625 0.75 L38.875 0.75 L38.875 0.75 z"/>
<path d="M39.625 0.75 L39.625 0.75 L38.875 0.75 z"/>
<path d="M39.625 0.75 L38.875 0.75 L38.875 0.75 z"/>
<path d="M0.625 0.75 L0 0.75 L0 0.75 z"/>
<path d="M0.625 0.75 L0 0.75 L0.625 0.75 z"/>
<path d="M0.625 0.75 L0 0.75 L0.625 0.75 z"/>
<path d="M0.625 0.75 L0 0.75 L0.625 0.75 z"/>
<path d="M19.625 0 L19.625 0 L19.625 0.225 z"/>
<path d="M19.625 0 L19.625 0.225 L19.625 0.225 z"/>
<path d="M19.625 0 L19.625 0.225 L19.625 0 z"/>
<path d="M20.375 0 L20.375 0 L20.375 0.225 z"/>
<path d="M20.375 0 L20.375 0.225 L20.375 0.225 z"/>
<path d="M20.375 0 L20.375 0.225 L20.375 0 z"/>
<path d="M19.625 0.225 L19.625 0.225 L20.375 0.225 z"/>
<path d="M20.375 0.225 L19.625 0.225 L20.375 0.225 z"/>
<path d="M38.875 0 L38.875 0 L38.875 0.225 z"/>
<path d="M38.875 0 L38.875 0.225 L38.875 0.225 z"/>
<path d="M38.875 0 L38.875 0.225 L38.875 0 z"/>
<path d="M39.625 0 L39.625 0 L39.625 0.225 z"/>
<path d="M39.625 0 L39.625 0.225 L39.625 0.225 z"/>
<path d="M39.625 0 L39.625 0.225 L39.625 0 z"/>
<path d="M38.875 0.225 L38.875 0.225 L39.625 0.225 z"/>
<path d="M39.625 0.225 L38.875 0.225 L39.625 0.225 z"/>
<path d="M0.625 0 L0.625 0 L0.625 0.225 z"/>
<path d="M0.625 0 L0.625 0.225 L0.625 0.225 z"/>
<path d="M0.625 0 L0.625 0.225 L0.625 0 z"/>
<path d="M0 0.225 L0.625 0.225 L0 0.225 z"/>
<path d="M0 0.225 L0 0.225 L0.625 0.225 z"/>
<path d="M0 0.225 L0.625 0.225 L0.625 0.225 z"/>
</svg>