solid JSxCAD
facet normal 0 0 1
outer loop
vertex -19.275 8 0.75
vertex -19.275 -8 0.75
vertex -0.375 -8 0.75
endloop
endfacet
facet normal 0 0 1
outer loop
vertex -19.275 8 0.75
vertex -0.375 -8 0.75
vertex -0.375 8 0.75
endloop
endfacet
facet normal 0 0 1
outer loop
vertex 19.275 -8 0.75
vertex 19.275 8 0.75
vertex 0.375 8 0.75
endloop
endfacet
facet normal 0 0 1
outer loop
vertex 19.275 -8 0.75
vertex 0.375 8 0.75
vertex 0.375 -8 0.75
endloop
endfacet
facet normal 0 0 -1
outer loop
vertex -19.275 -8 0
vertex -19.275 8 0
vertex -0.375 8 0
endloop
endfacet
facet normal 0 0 -1
outer loop
vertex -19.275 -8 0
vertex -0.375 8 0
vertex -0.375 -8 0
endloop
endfacet
facet normal 0 0 -1
outer loop
vertex 19.275 8 0
vertex 19.275 -8 0
vertex 0.375 -8 0
endloop
endfacet
facet normal 0 0 -1
outer loop
vertex 19.275 8 0
vertex 0.375 -8 0
vertex 0.375 8 0
endloop
endfacet
facet normal 0 -1 0
outer loop
vertex -19.275 -8 0.01359
vertex -19.275 -8 0
vertex -0.375 -8 0
endloop
endfacet
facet normal 0 -1 0
outer loop
vertex -19.275 -8 0.01359
vertex -0.375 -8 0
vertex -0.375 -8 0.36797
endloop
endfacet
facet normal 0 -1 0
outer loop
vertex -0.375 -8 0.75
vertex -19.275 -8 0.75
vertex -19.275 -8 0.01359
endloop
endfacet
facet normal 0 -1 0
outer loop
vertex -0.375 -8 0.75
vertex -19.275 -8 0.01359
vertex -0.375 -8 0.36797
endloop
endfacet
facet normal 0 -1 0
outer loop
vertex 0.375 -8 0
vertex 19.275 -8 0
vertex 19.275 -8 0.73641
endloop
endfacet
facet normal 0 -1 0
outer loop
vertex 0.375 -8 0
vertex 19.275 -8 0.73641
vertex 0.375 -8 0.38203
endloop
endfacet
facet normal 0 -1 0
outer loop
vertex 19.275 -8 0.73641
vertex 19.275 -8 0.75
vertex 0.375 -8 0.75
endloop
endfacet
facet normal 0 -1 0
outer loop
vertex 19.275 -8 0.73641
vertex 0.375 -8 0.75
vertex 0.375 -8 0.38203
endloop
endfacet
facet normal -1 0 0
outer loop
vertex 0.375 -7.4 0.75
vertex 0.375 8 0.75
vertex 0.375 8 0
endloop
endfacet
facet normal -1 0 0
outer loop
vertex 0.375 -7.4 0.75
vertex 0.375 8 0
vertex 0.375 -8 0
endloop
endfacet
facet normal -1 0 0
outer loop
vertex 0.375 -7.4 0.75
vertex 0.375 -8 0
vertex 0.375 -8 0.75
endloop
endfacet
facet normal 1 0 0
outer loop
vertex -0.375 7.4 0.75
vertex -0.375 -8 0.75
vertex -0.375 -8 0
endloop
endfacet
facet normal 1 0 0
outer loop
vertex -0.375 7.4 0.75
vertex -0.375 -8 0
vertex -0.375 8 0
endloop
endfacet
facet normal 1 0 0
outer loop
vertex -0.375 7.4 0.75
vertex -0.375 8 0
vertex -0.375 8 0.75
endloop
endfacet
facet normal -1 0 0
outer loop
vertex -19.275 -7.4 0.75
vertex -19.275 8 0.75
vertex -19.275 8 0
endloop
endfacet
facet normal -1 0 0
outer loop
vertex -19.275 -7.4 0.75
vertex -19.275 8 0
vertex -19.275 -8 0
endloop
endfacet
facet normal -1 0 0
outer loop
vertex -19.275 -7.4 0.75
vertex -19.275 -8 0
vertex -19.275 -8 0.75
endloop
endfacet
facet normal 0 1 0
outer loop
vertex -19.275 8 0.73641
vertex -0.375 8 0.38203
vertex -0.375 8 0
endloop
endfacet
facet normal 0 1 0
outer loop
vertex -19.275 8 0.73641
vertex -0.375 8 0
vertex -19.275 8 0
endloop
endfacet
facet normal 0 1 0
outer loop
vertex -19.275 8 0.73641
vertex -19.275 8 0.75
vertex -0.375 8 0.75
endloop
endfacet
facet normal 0 1 0
outer loop
vertex -19.275 8 0.73641
vertex -0.375 8 0.75
vertex -0.375 8 0.38203
endloop
endfacet
facet normal 1 0 0
outer loop
vertex 19.275 7.4 0.75
vertex 19.275 -8 0.75
vertex 19.275 -8 0
endloop
endfacet
facet normal 1 0 0
outer loop
vertex 19.275 7.4 0.75
vertex 19.275 -8 0
vertex 19.275 8 0
endloop
endfacet
facet normal 1 0 0
outer loop
vertex 19.275 7.4 0.75
vertex 19.275 8 0
vertex 19.275 8 0.75
endloop
endfacet
facet normal 0 1 0
outer loop
vertex 19.275 8 0.01359
vertex 19.275 8 0
vertex 0.375 8 0
endloop
endfacet
facet normal 0 1 0
outer loop
vertex 19.275 8 0.01359
vertex 0.375 8 0
vertex 0.375 8 0.36797
endloop
endfacet
facet normal 0 1 0
outer loop
vertex 19.275 8 0.75
vertex 19.275 8 0.01359
vertex 0.375 8 0.36797
endloop
endfacet
facet normal 0 1 0
outer loop
vertex 19.275 8 0.75
vertex 0.375 8 0.36797
vertex 0.375 8 0.75
endloop
endfacet
facet normal 0 0 1
outer loop
vertex -19.275 8 20.75
vertex -19.275 -8 20.75
vertex -0.375 -8 20.75
endloop
endfacet
facet normal 0 0 1
outer loop
vertex -19.275 8 20.75
vertex -0.375 -8 20.75
vertex -0.375 8 20.75
endloop
endfacet
facet normal 0 0 1
outer loop
vertex 19.275 -8 20.75
vertex 19.275 8 20.75
vertex 0.375 8 20.75
endloop
endfacet
facet normal 0 0 1
outer loop
vertex 19.275 -8 20.75
vertex 0.375 8 20.75
vertex 0.375 -8 20.75
endloop
endfacet
facet normal 0 0 1
outer loop
vertex -0.375 -8 20.75
vertex 0.375 -8 20.75
vertex 0.375 8 20.75
endloop
endfacet
facet normal 0 0 1
outer loop
vertex -0.375 -8 20.75
vertex 0.375 8 20.75
vertex -0.375 8 20.75
endloop
endfacet
facet normal 0 0 1
outer loop
vertex -19.275 8 20.75
vertex -20 8 20.75
vertex -20 -8 20.75
endloop
endfacet
facet normal 0 0 1
outer loop
vertex -19.275 8 20.75
vertex -20 -8 20.75
vertex -19.275 -8 20.75
endloop
endfacet
facet normal 0 0 1
outer loop
vertex 19.275 -8 20.75
vertex 20 -8 20.75
vertex 20 8 20.75
endloop
endfacet
facet normal 0 0 1
outer loop
vertex 19.275 -8 20.75
vertex 20 8 20.75
vertex 19.275 8 20.75
endloop
endfacet
facet normal 0 0 -1
outer loop
vertex -19.275 -8 20
vertex -19.275 8 20
vertex -0.375 8 20
endloop
endfacet
facet normal 0 0 -1
outer loop
vertex -19.275 -8 20
vertex -0.375 8 20
vertex -0.375 -8 20
endloop
endfacet
facet normal 0 0 -1
outer loop
vertex 19.275 8 20
vertex 19.275 -8 20
vertex 0.375 -8 20
endloop
endfacet
facet normal 0 0 -1
outer loop
vertex 19.275 8 20
vertex 0.375 -8 20
vertex 0.375 8 20
endloop
endfacet
facet normal 0 0 -1
outer loop
vertex -0.375 8 20
vertex 0.375 8 20
vertex 0.375 -8 20
endloop
endfacet
facet normal 0 0 -1
outer loop
vertex -0.375 8 20
vertex 0.375 -8 20
vertex -0.375 -8 20
endloop
endfacet
facet normal 0 0 -1
outer loop
vertex -19.275 -8 20
vertex -20 -8 20
vertex -20 8 20
endloop
endfacet
facet normal 0 0 -1
outer loop
vertex -19.275 -8 20
vertex -20 8 20
vertex -19.275 8 20
endloop
endfacet
facet normal 0 0 -1
outer loop
vertex 19.275 8 20
vertex 20 8 20
vertex 20 -8 20
endloop
endfacet
facet normal 0 0 -1
outer loop
vertex 19.275 8 20
vertex 20 -8 20
vertex 19.275 -8 20
endloop
endfacet
facet normal 0 -1 0
outer loop
vertex -19.275 -8 20.01359
vertex -19.275 -8 20
vertex -0.375 -8 20
endloop
endfacet
facet normal 0 -1 0
outer loop
vertex -19.275 -8 20.01359
vertex -0.375 -8 20
vertex -0.375 -8 20.36797
endloop
endfacet
facet normal 0 -1 0
outer loop
vertex -0.375 -8 20.75
vertex -19.275 -8 20.75
vertex -19.275 -8 20.01359
endloop
endfacet
facet normal 0 -1 0
outer loop
vertex -0.375 -8 20.75
vertex -19.275 -8 20.01359
vertex -0.375 -8 20.36797
endloop
endfacet
facet normal 0 -1 0
outer loop
vertex 0.375 -8 20
vertex 19.275 -8 20
vertex 19.275 -8 20.73641
endloop
endfacet
facet normal 0 -1 0
outer loop
vertex 0.375 -8 20
vertex 19.275 -8 20.73641
vertex 0.375 -8 20.38203
endloop
endfacet
facet normal 0 -1 0
outer loop
vertex 19.275 -8 20.73641
vertex 19.275 -8 20.75
vertex 0.375 -8 20.75
endloop
endfacet
facet normal 0 -1 0
outer loop
vertex 19.275 -8 20.73641
vertex 0.375 -8 20.75
vertex 0.375 -8 20.38203
endloop
endfacet
facet normal 0 -1 0
outer loop
vertex 0.375 -8 20.38203
vertex -0.375 -8 20.36797
vertex -0.375 -8 20
endloop
endfacet
facet normal 0 -1 0
outer loop
vertex 0.375 -8 20.38203
vertex -0.375 -8 20
vertex 0.375 -8 20
endloop
endfacet
facet normal 0 -1 0
outer loop
vertex 0.375 -8 20.38203
vertex 0.375 -8 20.75
vertex -0.375 -8 20.75
endloop
endfacet
facet normal 0 -1 0
outer loop
vertex 0.375 -8 20.38203
vertex -0.375 -8 20.75
vertex -0.375 -8 20.36797
endloop
endfacet
facet normal 0 -1 0
outer loop
vertex -19.275 -8 20.01359
vertex -20 -8 20
vertex -19.275 -8 20
endloop
endfacet
facet normal 0 -1 0
outer loop
vertex -19.275 -8 20.75
vertex -20 -8 20.75
vertex -20 -8 20
endloop
endfacet
facet normal 0 -1 0
outer loop
vertex -19.275 -8 20.75
vertex -20 -8 20
vertex -19.275 -8 20.01359
endloop
endfacet
facet normal 0 -1 0
outer loop
vertex 19.275 -8 20
vertex 20 -8 20
vertex 20 -8 20.75
endloop
endfacet
facet normal 0 -1 0
outer loop
vertex 19.275 -8 20
vertex 20 -8 20.75
vertex 19.275 -8 20.73641
endloop
endfacet
facet normal 0 -1 0
outer loop
vertex 19.275 -8 20.73641
vertex 20 -8 20.75
vertex 19.275 -8 20.75
endloop
endfacet
facet normal 1 0 0
outer loop
vertex 20 8 20
vertex 20 8 20.75
vertex 20 -8 20
endloop
endfacet
facet normal 1 0 0
outer loop
vertex 20 -8 20
vertex 20 8 20.75
vertex 20 -8 20.75
endloop
endfacet
facet normal -1 0 0
outer loop
vertex -20 -8 20
vertex -20 -8 20.75
vertex -20 8 20
endloop
endfacet
facet normal -1 0 0
outer loop
vertex -20 8 20
vertex -20 -8 20.75
vertex -20 8 20.75
endloop
endfacet
facet normal 0 1 0
outer loop
vertex -19.275 8 20.73641
vertex -0.375 8 20.38203
vertex -0.375 8 20
endloop
endfacet
facet normal 0 1 0
outer loop
vertex -19.275 8 20.73641
vertex -0.375 8 20
vertex -19.275 8 20
endloop
endfacet
facet normal 0 1 0
outer loop
vertex -19.275 8 20.73641
vertex -19.275 8 20.75
vertex -0.375 8 20.75
endloop
endfacet
facet normal 0 1 0
outer loop
vertex -19.275 8 20.73641
vertex -0.375 8 20.75
vertex -0.375 8 20.38203
endloop
endfacet
facet normal 0 1 0
outer loop
vertex 19.275 8 20.01359
vertex 19.275 8 20
vertex 0.375 8 20
endloop
endfacet
facet normal 0 1 0
outer loop
vertex 19.275 8 20.01359
vertex 0.375 8 20
vertex 0.375 8 20.36797
endloop
endfacet
facet normal 0 1 0
outer loop
vertex 19.275 8 20.75
vertex 19.275 8 20.01359
vertex 0.375 8 20.36797
endloop
endfacet
facet normal 0 1 0
outer loop
vertex 19.275 8 20.75
vertex 0.375 8 20.36797
vertex 0.375 8 20.75
endloop
endfacet
facet normal 0 1 0
outer loop
vertex 0.375 8 20.36797
vertex 0.375 8 20
vertex -0.375 8 20
endloop
endfacet
facet normal 0 1 0
outer loop
vertex 0.375 8 20.36797
vertex -0.375 8 20
vertex -0.375 8 20.38203
endloop
endfacet
facet normal 0 1 0
outer loop
vertex -0.375 8 20.75
vertex 0.375 8 20.75
vertex 0.375 8 20.36797
endloop
endfacet
facet normal 0 1 0
outer loop
vertex -0.375 8 20.75
vertex 0.375 8 20.36797
vertex -0.375 8 20.38203
endloop
endfacet
facet normal 0 1 0
outer loop
vertex -19.275 8 20.73641
vertex -19.275 8 20
vertex -20 8 20
endloop
endfacet
facet normal 0 1 0
outer loop
vertex -19.275 8 20.73641
vertex -20 8 20
vertex -20 8 20.75
endloop
endfacet
facet normal 0 1 0
outer loop
vertex -19.275 8 20.73641
vertex -20 8 20.75
vertex -19.275 8 20.75
endloop
endfacet
facet normal 0 1 0
outer loop
vertex 19.275 8 20.01359
vertex 20 8 20
vertex 19.275 8 20
endloop
endfacet
facet normal 0 1 0
outer loop
vertex 19.275 8 20.75
vertex 20 8 20.75
vertex 20 8 20
endloop
endfacet
facet normal 0 1 0
outer loop
vertex 19.275 8 20.75
vertex 20 8 20
vertex 19.275 8 20.01359
endloop
endfacet
facet normal -1 0 0
outer loop
vertex 19.275 -8 0.75
vertex 19.275 -8 20
vertex 19.275 7.4 0.75
endloop
endfacet
facet normal -1 0 0
outer loop
vertex 19.275 7.4 0.75
vertex 19.275 -8 20
vertex 19.275 8 20
endloop
endfacet
facet normal -1 0 0
outer loop
vertex 19.275 7.4 0.75
vertex 19.275 8 20
vertex 19.275 8 0.75
endloop
endfacet
facet normal -1 0 0
outer loop
vertex 19.275 -8 0.75
vertex 19.275 7.4 0.75
vertex 19.275 8 0
endloop
endfacet
facet normal -1 0 0
outer loop
vertex 19.275 -8 0.75
vertex 19.275 8 0
vertex 19.275 -8 0
endloop
endfacet
facet normal -1 0 0
outer loop
vertex 19.275 7.4 0.75
vertex 19.275 8 0.75
vertex 19.275 8 0
endloop
endfacet
facet normal 1 0 0
outer loop
vertex 20.025 8 0.75
vertex 20.025 8 20
vertex 20.025 -7.4 0.75
endloop
endfacet
facet normal 1 0 0
outer loop
vertex 20.025 -7.4 0.75
vertex 20.025 8 20
vertex 20.025 -8 20
endloop
endfacet
facet normal 1 0 0
outer loop
vertex 20.025 -7.4 0.75
vertex 20.025 -8 20
vertex 20.025 -8 0.75
endloop
endfacet
facet normal 1 0 0
outer loop
vertex 20.025 8 0.75
vertex 20.025 -7.4 0.75
vertex 20.025 -8 0
endloop
endfacet
facet normal 1 0 0
outer loop
vertex 20.025 8 0.75
vertex 20.025 -8 0
vertex 20.025 8 0
endloop
endfacet
facet normal 1 0 0
outer loop
vertex 20.025 -7.4 0.75
vertex 20.025 -8 0.75
vertex 20.025 -8 0
endloop
endfacet
facet normal 0 -1 0
outer loop
vertex 20.025 -8 0.75
vertex 20.025 -8 20
vertex 19.30312 -8 0.75
endloop
endfacet
facet normal 0 -1 0
outer loop
vertex 19.30312 -8 0.75
vertex 20.025 -8 20
vertex 19.275 -8 20
endloop
endfacet
facet normal 0 -1 0
outer loop
vertex 19.30312 -8 0.75
vertex 19.275 -8 20
vertex 19.275 -8 0.75
endloop
endfacet
facet normal 0 -1 0
outer loop
vertex 20.025 -8 0.75
vertex 19.30312 -8 0.75
vertex 19.275 -8 0
endloop
endfacet
facet normal 0 -1 0
outer loop
vertex 20.025 -8 0.75
vertex 19.275 -8 0
vertex 20.025 -8 0
endloop
endfacet
facet normal 0 -1 0
outer loop
vertex 19.30312 -8 0.75
vertex 19.275 -8 0.75
vertex 19.275 -8 0
endloop
endfacet
facet normal 0 1 0
outer loop
vertex 19.275 8 0.75
vertex 19.275 8 20
vertex 19.99688 8 0.75
endloop
endfacet
facet normal 0 1 0
outer loop
vertex 19.99688 8 0.75
vertex 19.275 8 20
vertex 20.025 8 20
endloop
endfacet
facet normal 0 1 0
outer loop
vertex 19.99688 8 0.75
vertex 20.025 8 20
vertex 20.025 8 0.75
endloop
endfacet
facet normal 0 1 0
outer loop
vertex 19.275 8 0.75
vertex 19.99688 8 0.75
vertex 20.025 8 0
endloop
endfacet
facet normal 0 1 0
outer loop
vertex 19.275 8 0.75
vertex 20.025 8 0
vertex 19.275 8 0
endloop
endfacet
facet normal 0 1 0
outer loop
vertex 19.99688 8 0.75
vertex 20.025 8 0.75
vertex 20.025 8 0
endloop
endfacet
facet normal 0 0 1
outer loop
vertex 20.025 8 20
vertex 19.275 8 20
vertex 19.275 -8 20
endloop
endfacet
facet normal 0 0 1
outer loop
vertex 20.025 8 20
vertex 19.275 -8 20
vertex 20.025 -8 20
endloop
endfacet
facet normal 0 0 -1
outer loop
vertex 20.025 -8 0
vertex 19.275 -8 0
vertex 19.275 8 0
endloop
endfacet
facet normal 0 0 -1
outer loop
vertex 20.025 -8 0
vertex 19.275 8 0
vertex 20.025 8 0
endloop
endfacet
facet normal -1 0 0
outer loop
vertex -20.025 -8 0.75
vertex -20.025 -8 20
vertex -20.025 7.4 0.75
endloop
endfacet
facet normal -1 0 0
outer loop
vertex -20.025 7.4 0.75
vertex -20.025 -8 20
vertex -20.025 8 20
endloop
endfacet
facet normal -1 0 0
outer loop
vertex -20.025 7.4 0.75
vertex -20.025 8 20
vertex -20.025 8 0.75
endloop
endfacet
facet normal -1 0 0
outer loop
vertex -20.025 -8 0.75
vertex -20.025 7.4 0.75
vertex -20.025 8 0
endloop
endfacet
facet normal -1 0 0
outer loop
vertex -20.025 -8 0.75
vertex -20.025 8 0
vertex -20.025 -8 0
endloop
endfacet
facet normal -1 0 0
outer loop
vertex -20.025 7.4 0.75
vertex -20.025 8 0.75
vertex -20.025 8 0
endloop
endfacet
facet normal 1 0 0
outer loop
vertex -19.275 8 0.75
vertex -19.275 8 20
vertex -19.275 -7.4 0.75
endloop
endfacet
facet normal 1 0 0
outer loop
vertex -19.275 -7.4 0.75
vertex -19.275 8 20
vertex -19.275 -8 20
endloop
endfacet
facet normal 1 0 0
outer loop
vertex -19.275 -7.4 0.75
vertex -19.275 -8 20
vertex -19.275 -8 0.75
endloop
endfacet
facet normal 1 0 0
outer loop
vertex -19.275 8 0.75
vertex -19.275 -7.4 0.75
vertex -19.275 -8 0
endloop
endfacet
facet normal 1 0 0
outer loop
vertex -19.275 8 0.75
vertex -19.275 -8 0
vertex -19.275 8 0
endloop
endfacet
facet normal 1 0 0
outer loop
vertex -19.275 -7.4 0.75
vertex -19.275 -8 0.75
vertex -19.275 -8 0
endloop
endfacet
facet normal 0 -1 0
outer loop
vertex -19.275 -8 0.75
vertex -19.275 -8 20
vertex -19.99687 -8 0.75
endloop
endfacet
facet normal 0 -1 0
outer loop
vertex -19.99687 -8 0.75
vertex -19.275 -8 20
vertex -20.025 -8 20
endloop
endfacet
facet normal 0 -1 0
outer loop
vertex -19.99687 -8 0.75
vertex -20.025 -8 20
vertex -20.025 -8 0.75
endloop
endfacet
facet normal 0 -1 0
outer loop
vertex -19.275 -8 0.75
vertex -19.99687 -8 0.75
vertex -20.025 -8 0
endloop
endfacet
facet normal 0 -1 0
outer loop
vertex -19.275 -8 0.75
vertex -20.025 -8 0
vertex -19.275 -8 0
endloop
endfacet
facet normal 0 -1 0
outer loop
vertex -19.99687 -8 0.75
vertex -20.025 -8 0.75
vertex -20.025 -8 0
endloop
endfacet
facet normal 0 1 0
outer loop
vertex -20.025 8 0.75
vertex -20.025 8 20
vertex -19.30312 8 0.75
endloop
endfacet
facet normal 0 1 0
outer loop
vertex -19.30312 8 0.75
vertex -20.025 8 20
vertex -19.275 8 20
endloop
endfacet
facet normal 0 1 0
outer loop
vertex -19.30312 8 0.75
vertex -19.275 8 20
vertex -19.275 8 0.75
endloop
endfacet
facet normal 0 1 0
outer loop
vertex -20.025 8 0.75
vertex -19.30312 8 0.75
vertex -19.275 8 0
endloop
endfacet
facet normal 0 1 0
outer loop
vertex -20.025 8 0.75
vertex -19.275 8 0
vertex -20.025 8 0
endloop
endfacet
facet normal 0 1 0
outer loop
vertex -19.30312 8 0.75
vertex -19.275 8 0.75
vertex -19.275 8 0
endloop
endfacet
facet normal 0 0 1
outer loop
vertex -19.275 8 20
vertex -20.025 8 20
vertex -20.025 -8 20
endloop
endfacet
facet normal 0 0 1
outer loop
vertex -19.275 8 20
vertex -20.025 -8 20
vertex -19.275 -8 20
endloop
endfacet
facet normal 0 0 -1
outer loop
vertex -19.275 -8 0
vertex -20.025 -8 0
vertex -20.025 8 0
endloop
endfacet
facet normal 0 0 -1
outer loop
vertex -19.275 -8 0
vertex -20.025 8 0
vertex -19.275 8 0
endloop
endfacet
facet normal -1 0 0
outer loop
vertex -0.375 -8 0.75
vertex -0.375 -8 20
vertex -0.375 7.4 0.75
endloop
endfacet
facet normal -1 0 0
outer loop
vertex -0.375 7.4 0.75
vertex -0.375 -8 20
vertex -0.375 8 20
endloop
endfacet
facet normal -1 0 0
outer loop
vertex -0.375 7.4 0.75
vertex -0.375 8 20
vertex -0.375 8 0.75
endloop
endfacet
facet normal -1 0 0
outer loop
vertex -0.375 -8 0.75
vertex -0.375 7.4 0.75
vertex -0.375 8 0
endloop
endfacet
facet normal -1 0 0
outer loop
vertex -0.375 -8 0.75
vertex -0.375 8 0
vertex -0.375 -8 0
endloop
endfacet
facet normal -1 0 0
outer loop
vertex -0.375 7.4 0.75
vertex -0.375 8 0.75
vertex -0.375 8 0
endloop
endfacet
facet normal 1 0 0
outer loop
vertex 0.375 8 0.75
vertex 0.375 8 20
vertex 0.375 -7.4 0.75
endloop
endfacet
facet normal 1 0 0
outer loop
vertex 0.375 -7.4 0.75
vertex 0.375 8 20
vertex 0.375 -8 20
endloop
endfacet
facet normal 1 0 0
outer loop
vertex 0.375 -7.4 0.75
vertex 0.375 -8 20
vertex 0.375 -8 0.75
endloop
endfacet
facet normal 1 0 0
outer loop
vertex 0.375 8 0.75
vertex 0.375 -7.4 0.75
vertex 0.375 -8 0
endloop
endfacet
facet normal 1 0 0
outer loop
vertex 0.375 8 0.75
vertex 0.375 -8 0
vertex 0.375 8 0
endloop
endfacet
facet normal 1 0 0
outer loop
vertex 0.375 -7.4 0.75
vertex 0.375 -8 0.75
vertex 0.375 -8 0
endloop
endfacet
facet normal 0 -1 0
outer loop
vertex 0.375 -8 0.75
vertex 0.375 -8 20
vertex -0.34688 -8 0.75
endloop
endfacet
facet normal 0 -1 0
outer loop
vertex -0.34688 -8 0.75
vertex 0.375 -8 20
vertex -0.375 -8 20
endloop
endfacet
facet normal 0 -1 0
outer loop
vertex -0.34688 -8 0.75
vertex -0.375 -8 20
vertex -0.375 -8 0.75
endloop
endfacet
facet normal 0 -1 0
outer loop
vertex 0.375 -8 0.75
vertex -0.34688 -8 0.75
vertex -0.375 -8 0
endloop
endfacet
facet normal 0 -1 0
outer loop
vertex 0.375 -8 0.75
vertex -0.375 -8 0
vertex 0.375 -8 0
endloop
endfacet
facet normal 0 -1 0
outer loop
vertex -0.34688 -8 0.75
vertex -0.375 -8 0.75
vertex -0.375 -8 0
endloop
endfacet
facet normal 0 1 0
outer loop
vertex -0.375 8 0.75
vertex -0.375 8 20
vertex 0.34688 8 0.75
endloop
endfacet
facet normal 0 1 0
outer loop
vertex 0.34688 8 0.75
vertex -0.375 8 20
vertex 0.375 8 20
endloop
endfacet
facet normal 0 1 0
outer loop
vertex 0.34688 8 0.75
vertex 0.375 8 20
vertex 0.375 8 0.75
endloop
endfacet
facet normal 0 1 0
outer loop
vertex -0.375 8 0.75
vertex 0.34688 8 0.75
vertex 0.375 8 0
endloop
endfacet
facet normal 0 1 0
outer loop
vertex -0.375 8 0.75
vertex 0.375 8 0
vertex -0.375 8 0
endloop
endfacet
facet normal 0 1 0
outer loop
vertex 0.34688 8 0.75
vertex 0.375 8 0.75
vertex 0.375 8 0
endloop
endfacet
facet normal 0 0 -1
outer loop
vertex 0.375 -8 0
vertex -0.375 -8 0
vertex -0.375 8 0
endloop
endfacet
facet normal 0 0 -1
outer loop
vertex 0.375 -8 0
vertex -0.375 8 0
vertex 0.375 8 0
endloop
endfacet
facet normal 0 0 1
outer loop
vertex 0.375 8 20
vertex -0.375 8 20
vertex -0.375 -8 20
endloop
endfacet
facet normal 0 0 1
outer loop
vertex 0.375 8 20
vertex -0.375 -8 20
vertex 0.375 -8 20
endloop
endfacet
facet normal 0 -1 0
outer loop
vertex -0.375 8 9.8125
vertex -18.5 8 0.75
vertex -0.375 8 0.75
endloop
endfacet
facet normal 0 -1 0
outer loop
vertex -0.375 8 20
vertex -19.275 8 20
vertex -19.275 8 0.75
endloop
endfacet
facet normal 0 -1 0
outer loop
vertex -0.375 8 20
vertex -19.275 8 0.75
vertex -18.5 8 0.75
endloop
endfacet
facet normal 0 -1 0
outer loop
vertex -0.375 8 20
vertex -18.5 8 0.75
vertex -0.375 8 9.8125
endloop
endfacet
facet normal 0 -1 0
outer loop
vertex -18.5 8 0.75
vertex -19.275 8 0.3625
vertex -19.275 8 0
endloop
endfacet
facet normal 0 -1 0
outer loop
vertex -18.5 8 0.75
vertex -19.275 8 0
vertex -0.375 8 0
endloop
endfacet
facet normal 0 -1 0
outer loop
vertex -18.5 8 0.75
vertex -0.375 8 0
vertex -0.375 8 0.75
endloop
endfacet
facet normal 0 -1 0
outer loop
vertex -19.275 8 0.3625
vertex -18.5 8 0.75
vertex -19.275 8 0.75
endloop
endfacet
facet normal 0 -1 0
outer loop
vertex -19.275 8 20
vertex -20 8 20
vertex -20 8 0.75
endloop
endfacet
facet normal 0 -1 0
outer loop
vertex -19.275 8 20
vertex -20 8 0.75
vertex -19.275 8 0.75
endloop
endfacet
facet normal 0 -1 0
outer loop
vertex -19.275 8 0.3625
vertex -20 8 0
vertex -19.275 8 0
endloop
endfacet
facet normal 0 -1 0
outer loop
vertex -19.275 8 0.3625
vertex -19.275 8 0.75
vertex -20 8 0.75
endloop
endfacet
facet normal 0 -1 0
outer loop
vertex -19.275 8 0.3625
vertex -20 8 0.75
vertex -20 8 0
endloop
endfacet
facet normal 0 -1 0
outer loop
vertex 0.375 8 0.75
vertex 19.275 8 0.75
vertex 19.275 8 19.6375
endloop
endfacet
facet normal 0 -1 0
outer loop
vertex 0.375 8 0.75
vertex 19.275 8 19.6375
vertex 0.375 8 10.1875
endloop
endfacet
facet normal 0 -1 0
outer loop
vertex 0.375 8 10.1875
vertex 19.275 8 19.6375
vertex 19.275 8 20
endloop
endfacet
facet normal 0 -1 0
outer loop
vertex 0.375 8 10.1875
vertex 19.275 8 20
vertex 0.375 8 20
endloop
endfacet
facet normal 0 -1 0
outer loop
vertex 0.375 8 0
vertex 19.275 8 0
vertex 19.275 8 0.75
endloop
endfacet
facet normal 0 -1 0
outer loop
vertex 0.375 8 0
vertex 19.275 8 0.75
vertex 0.375 8 0.75
endloop
endfacet
facet normal 0 -1 0
outer loop
vertex 20 8 20
vertex 19.275 8 19.6375
vertex 19.275 8 0.75
endloop
endfacet
facet normal 0 -1 0
outer loop
vertex 20 8 20
vertex 19.275 8 0.75
vertex 20 8 0.75
endloop
endfacet
facet normal 0 -1 0
outer loop
vertex 19.275 8 19.6375
vertex 20 8 20
vertex 19.275 8 20
endloop
endfacet
facet normal 0 -1 0
outer loop
vertex 19.275 8 0
vertex 20 8 0
vertex 20 8 0.75
endloop
endfacet
facet normal 0 -1 0
outer loop
vertex 19.275 8 0
vertex 20 8 0.75
vertex 19.275 8 0.75
endloop
endfacet
facet normal 0 -1 0
outer loop
vertex -0.375 8 0.75
vertex 0.375 8 0.75
vertex 0.375 8 10.1875
endloop
endfacet
facet normal 0 -1 0
outer loop
vertex -0.375 8 0.75
vertex 0.375 8 10.1875
vertex -0.375 8 9.8125
endloop
endfacet
facet normal 0 -1 0
outer loop
vertex -0.375 8 9.8125
vertex 0.375 8 10.1875
vertex 0.375 8 20
endloop
endfacet
facet normal 0 -1 0
outer loop
vertex -0.375 8 9.8125
vertex 0.375 8 20
vertex -0.375 8 20
endloop
endfacet
facet normal 0 -1 0
outer loop
vertex -0.375 8 0.75
vertex -0.375 8 0
vertex 0.375 8 0
endloop
endfacet
facet normal 0 -1 0
outer loop
vertex -0.375 8 0.75
vertex 0.375 8 0
vertex 0.375 8 0.75
endloop
endfacet
facet normal 0 1 0
outer loop
vertex -0.375 8.75 10.1875
vertex -0.375 8.75 0.75
vertex -19.275 8.75 0.75
endloop
endfacet
facet normal 0 1 0
outer loop
vertex -0.375 8.75 10.1875
vertex -19.275 8.75 0.75
vertex -19.275 8.75 19.6375
endloop
endfacet
facet normal 0 1 0
outer loop
vertex -0.375 8.75 20
vertex -0.375 8.75 10.1875
vertex -19.275 8.75 19.6375
endloop
endfacet
facet normal 0 1 0
outer loop
vertex -0.375 8.75 20
vertex -19.275 8.75 19.6375
vertex -19.275 8.75 20
endloop
endfacet
facet normal 0 1 0
outer loop
vertex -19.275 8.75 0
vertex -19.275 8.75 0.75
vertex -0.375 8.75 0.75
endloop
endfacet
facet normal 0 1 0
outer loop
vertex -19.275 8.75 0
vertex -0.375 8.75 0.75
vertex -0.375 8.75 0
endloop
endfacet
facet normal 0 1 0
outer loop
vertex -20 8.75 20
vertex -19.275 8.75 19.6375
vertex -19.275 8.75 0.75
endloop
endfacet
facet normal 0 1 0
outer loop
vertex -20 8.75 20
vertex -19.275 8.75 0.75
vertex -20 8.75 0.75
endloop
endfacet
facet normal 0 1 0
outer loop
vertex -19.275 8.75 20
vertex -19.275 8.75 19.6375
vertex -20 8.75 20
endloop
endfacet
facet normal 0 1 0
outer loop
vertex -19.275 8.75 0
vertex -20 8.75 0
vertex -20 8.75 0.75
endloop
endfacet
facet normal 0 1 0
outer loop
vertex -19.275 8.75 0
vertex -20 8.75 0.75
vertex -19.275 8.75 0.75
endloop
endfacet
facet normal 0 1 0
outer loop
vertex 0.375 8.75 9.8125
vertex 18.5 8.75 0.75
vertex 0.375 8.75 0.75
endloop
endfacet
facet normal 0 1 0
outer loop
vertex 0.375 8.75 20
vertex 19.275 8.75 20
vertex 19.275 8.75 0.75
endloop
endfacet
facet normal 0 1 0
outer loop
vertex 0.375 8.75 20
vertex 19.275 8.75 0.75
vertex 18.5 8.75 0.75
endloop
endfacet
facet normal 0 1 0
outer loop
vertex 0.375 8.75 20
vertex 18.5 8.75 0.75
vertex 0.375 8.75 9.8125
endloop
endfacet
facet normal 0 1 0
outer loop
vertex 18.5 8.75 0.75
vertex 19.275 8.75 0.3625
vertex 19.275 8.75 0
endloop
endfacet
facet normal 0 1 0
outer loop
vertex 18.5 8.75 0.75
vertex 19.275 8.75 0
vertex 0.375 8.75 0
endloop
endfacet
facet normal 0 1 0
outer loop
vertex 18.5 8.75 0.75
vertex 0.375 8.75 0
vertex 0.375 8.75 0.75
endloop
endfacet
facet normal 0 1 0
outer loop
vertex 19.275 8.75 0.75
vertex 19.275 8.75 0.3625
vertex 18.5 8.75 0.75
endloop
endfacet
facet normal 0 1 0
outer loop
vertex 19.275 8.75 20
vertex 20 8.75 20
vertex 20 8.75 0.75
endloop
endfacet
facet normal 0 1 0
outer loop
vertex 19.275 8.75 20
vertex 20 8.75 0.75
vertex 19.275 8.75 0.75
endloop
endfacet
facet normal 0 1 0
outer loop
vertex 19.275 8.75 0.3625
vertex 20 8.75 0
vertex 19.275 8.75 0
endloop
endfacet
facet normal 0 1 0
outer loop
vertex 19.275 8.75 0.75
vertex 20 8.75 0.75
vertex 20 8.75 0
endloop
endfacet
facet normal 0 1 0
outer loop
vertex 19.275 8.75 0.75
vertex 20 8.75 0
vertex 19.275 8.75 0.3625
endloop
endfacet
facet normal 0 1 0
outer loop
vertex 0.375 8.75 9.8125
vertex 0.375 8.75 0.75
vertex -0.375 8.75 0.75
endloop
endfacet
facet normal 0 1 0
outer loop
vertex 0.375 8.75 9.8125
vertex -0.375 8.75 0.75
vertex -0.375 8.75 10.1875
endloop
endfacet
facet normal 0 1 0
outer loop
vertex 0.375 8.75 20
vertex 0.375 8.75 9.8125
vertex -0.375 8.75 10.1875
endloop
endfacet
facet normal 0 1 0
outer loop
vertex 0.375 8.75 20
vertex -0.375 8.75 10.1875
vertex -0.375 8.75 20
endloop
endfacet
facet normal 0 1 0
outer loop
vertex 0.375 8.75 0
vertex -0.375 8.75 0
vertex -0.375 8.75 0.75
endloop
endfacet
facet normal 0 1 0
outer loop
vertex 0.375 8.75 0
vertex -0.375 8.75 0.75
vertex 0.375 8.75 0.75
endloop
endfacet
facet normal 0 0 1
outer loop
vertex -19.275 8 20
vertex -0.375 8 20
vertex -0.375 8.75 20
endloop
endfacet
facet normal 0 0 1
outer loop
vertex -19.275 8 20
vertex -0.375 8.75 20
vertex -19.275 8.75 20
endloop
endfacet
facet normal 0 0 1
outer loop
vertex -19.275 8.75 20
vertex -20 8.75 20
vertex -20 8 20
endloop
endfacet
facet normal 0 0 1
outer loop
vertex -19.275 8.75 20
vertex -20 8 20
vertex -19.275 8 20
endloop
endfacet
facet normal 0 0 1
outer loop
vertex 0.375 8 20
vertex 19.275 8 20
vertex 19.275 8.75 20
endloop
endfacet
facet normal 0 0 1
outer loop
vertex 0.375 8 20
vertex 19.275 8.75 20
vertex 0.375 8.75 20
endloop
endfacet
facet normal 0 0 1
outer loop
vertex 19.275 8.75 20
vertex 19.275 8 20
vertex 20 8 20
endloop
endfacet
facet normal 0 0 1
outer loop
vertex 19.275 8.75 20
vertex 20 8 20
vertex 20 8.75 20
endloop
endfacet
facet normal 0 0 1
outer loop
vertex 0.375 8 20
vertex 0.375 8.75 20
vertex -0.375 8.75 20
endloop
endfacet
facet normal 0 0 1
outer loop
vertex 0.375 8 20
vertex -0.375 8.75 20
vertex -0.375 8 20
endloop
endfacet
facet normal 1 0 0
outer loop
vertex 20 8.75 0.75
vertex 20 8.75 20
vertex 20 8.02812 0.75
endloop
endfacet
facet normal 1 0 0
outer loop
vertex 20 8.02812 0.75
vertex 20 8.75 20
vertex 20 8 20
endloop
endfacet
facet normal 1 0 0
outer loop
vertex 20 8.02812 0.75
vertex 20 8 20
vertex 20 8 0.75
endloop
endfacet
facet normal 1 0 0
outer loop
vertex 20 8.75 0.75
vertex 20 8.02812 0.75
vertex 20 8 0
endloop
endfacet
facet normal 1 0 0
outer loop
vertex 20 8.75 0.75
vertex 20 8 0
vertex 20 8.75 0
endloop
endfacet
facet normal 1 0 0
outer loop
vertex 20 8.02812 0.75
vertex 20 8 0.75
vertex 20 8 0
endloop
endfacet
facet normal 0 0 -1
outer loop
vertex -19.275 8 0
vertex -19.275 8.75 0
vertex -0.375 8.75 0
endloop
endfacet
facet normal 0 0 -1
outer loop
vertex -19.275 8 0
vertex -0.375 8.75 0
vertex -0.375 8 0
endloop
endfacet
facet normal 0 0 -1
outer loop
vertex -19.275 8 0
vertex -20 8 0
vertex -20 8.75 0
endloop
endfacet
facet normal 0 0 -1
outer loop
vertex -19.275 8 0
vertex -20 8.75 0
vertex -19.275 8.75 0
endloop
endfacet
facet normal 0 0 -1
outer loop
vertex 0.375 8.75 0
vertex 19.275 8.75 0
vertex 19.275 8 0
endloop
endfacet
facet normal 0 0 -1
outer loop
vertex 0.375 8.75 0
vertex 19.275 8 0
vertex 0.375 8 0
endloop
endfacet
facet normal 0 0 -1
outer loop
vertex 19.275 8.75 0
vertex 20 8.75 0
vertex 20 8 0
endloop
endfacet
facet normal 0 0 -1
outer loop
vertex 19.275 8.75 0
vertex 20 8 0
vertex 19.275 8 0
endloop
endfacet
facet normal 0 0 -1
outer loop
vertex -0.375 8 0
vertex -0.375 8.75 0
vertex 0.375 8.75 0
endloop
endfacet
facet normal 0 0 -1
outer loop
vertex -0.375 8 0
vertex 0.375 8.75 0
vertex 0.375 8 0
endloop
endfacet
facet normal -1 0 0
outer loop
vertex -20 8 0.75
vertex -20 8 20
vertex -20 8.72188 0.75
endloop
endfacet
facet normal -1 0 0
outer loop
vertex -20 8.72188 0.75
vertex -20 8 20
vertex -20 8.75 20
endloop
endfacet
facet normal -1 0 0
outer loop
vertex -20 8.72188 0.75
vertex -20 8.75 20
vertex -20 8.75 0.75
endloop
endfacet
facet normal -1 0 0
outer loop
vertex -20 8 0.75
vertex -20 8.72188 0.75
vertex -20 8.75 0
endloop
endfacet
facet normal -1 0 0
outer loop
vertex -20 8 0.75
vertex -20 8.75 0
vertex -20 8 0
endloop
endfacet
facet normal -1 0 0
outer loop
vertex -20 8.72188 0.75
vertex -20 8.75 0.75
vertex -20 8.75 0
endloop
endfacet
endsolid JSxCAD
