solid JSxCAD
facet normal 0 -1 0
outer loop
vertex 19.975 -8 0.15
vertex 19.975 -8 20.15
vertex 19.225 -8 0.15
endloop
endfacet
facet normal 0 -1 0
outer loop
vertex 19.225 -8 0.15
vertex 19.975 -8 20.15
vertex 19.225 -8 20.15
endloop
endfacet
facet normal -1 0 0
outer loop
vertex 19.225 -8 0.15
vertex 19.225 -8 20.15
vertex 19.225 8 0.15
endloop
endfacet
facet normal -1 0 0
outer loop
vertex 19.225 8 0.15
vertex 19.225 -8 20.15
vertex 19.225 8 20.15
endloop
endfacet
facet normal 0 1 0
outer loop
vertex 19.225 8 0.15
vertex 19.225 8 20.15
vertex 19.975 8 0.15
endloop
endfacet
facet normal 0 1 0
outer loop
vertex 19.975 8 0.15
vertex 19.225 8 20.15
vertex 19.975 8 20.15
endloop
endfacet
facet normal 1 0 0
outer loop
vertex 19.975 8 0.15
vertex 19.975 8 20.15
vertex 19.975 -8 0.15
endloop
endfacet
facet normal 1 0 0
outer loop
vertex 19.975 -8 0.15
vertex 19.975 8 20.15
vertex 19.975 -8 20.15
endloop
endfacet
facet normal 0 0 1
outer loop
vertex 19.975 8 20.15
vertex 19.225 8 20.15
vertex 19.225 -8 20.15
endloop
endfacet
facet normal 0 0 1
outer loop
vertex 19.975 8 20.15
vertex 19.225 -8 20.15
vertex 19.975 -8 20.15
endloop
endfacet
facet normal 0 0 -1
outer loop
vertex 19.975 -8 0.15
vertex 19.225 -8 0.15
vertex 19.225 8 0.15
endloop
endfacet
facet normal 0 0 -1
outer loop
vertex 19.975 -8 0.15
vertex 19.225 8 0.15
vertex 19.975 8 0.15
endloop
endfacet
facet normal 0 0 -1
outer loop
vertex 19.225 -8 -0.375
vertex -20 -8 -0.375
vertex -20 8 -0.375
endloop
endfacet
facet normal 0 0 -1
outer loop
vertex 19.225 -8 -0.375
vertex -20 8 -0.375
vertex 19.225 8 -0.375
endloop
endfacet
facet normal 0 0 -1
outer loop
vertex 19.975 8 -0.375
vertex 20 8 -0.375
vertex 20 -8 -0.375
endloop
endfacet
facet normal 0 0 -1
outer loop
vertex 19.975 8 -0.375
vertex 20 -8 -0.375
vertex 19.975 -8 -0.375
endloop
endfacet
facet normal 0 0 -1
outer loop
vertex 19.225 8 -0.375
vertex 19.975 8 -0.375
vertex 19.975 -8 -0.375
endloop
endfacet
facet normal 0 0 -1
outer loop
vertex 19.225 8 -0.375
vertex 19.975 -8 -0.375
vertex 19.225 -8 -0.375
endloop
endfacet
facet normal 0 0 1
outer loop
vertex -19.975 8 0.375
vertex -20 8 0.375
vertex -20 -8 0.375
endloop
endfacet
facet normal 0 0 1
outer loop
vertex -19.975 8 0.375
vertex -20 -8 0.375
vertex -19.975 -8 0.375
endloop
endfacet
facet normal 0 0 1
outer loop
vertex -19.225 -8 0.375
vertex -0.375 -8 0.375
vertex -0.375 8 0.375
endloop
endfacet
facet normal 0 0 1
outer loop
vertex -19.225 -8 0.375
vertex -0.375 8 0.375
vertex -19.225 8 0.375
endloop
endfacet
facet normal 0 0 1
outer loop
vertex 19.225 8 0.375
vertex 0.375 8 0.375
vertex 0.375 -8 0.375
endloop
endfacet
facet normal 0 0 1
outer loop
vertex 19.225 8 0.375
vertex 0.375 -8 0.375
vertex 19.225 -8 0.375
endloop
endfacet
facet normal 0 -1 0
outer loop
vertex 19.225 -8 0.15
vertex 8 -8 0.15
vertex -20 -8 -0.375
endloop
endfacet
facet normal 0 -1 0
outer loop
vertex 19.225 -8 0.15
vertex -20 -8 -0.375
vertex 19.225 -8 -0.375
endloop
endfacet
facet normal 0 -1 0
outer loop
vertex -20 -8 0.15
vertex -20 -8 -0.375
vertex 8 -8 0.15
endloop
endfacet
facet normal 0 -1 0
outer loop
vertex -19.975 -8 0.375
vertex -20 -8 0.375
vertex -20 -8 0.15
endloop
endfacet
facet normal 0 -1 0
outer loop
vertex -19.975 -8 0.375
vertex -20 -8 0.15
vertex -19.975 -8 0.15
endloop
endfacet
facet normal 0 -1 0
outer loop
vertex -19.225 -8 0.15
vertex -0.375 -8 0.15
vertex -0.375 -8 0.375
endloop
endfacet
facet normal 0 -1 0
outer loop
vertex -19.225 -8 0.15
vertex -0.375 -8 0.375
vertex -19.225 -8 0.375
endloop
endfacet
facet normal 0 -1 0
outer loop
vertex 19.225 -8 0.36047
vertex 8 -8 0.15
vertex 19.225 -8 0.15
endloop
endfacet
facet normal 0 -1 0
outer loop
vertex 8 -8 0.15
vertex 19.225 -8 0.36047
vertex 19.225 -8 0.375
endloop
endfacet
facet normal 0 -1 0
outer loop
vertex 8 -8 0.15
vertex 19.225 -8 0.375
vertex 0.375 -8 0.375
endloop
endfacet
facet normal 0 -1 0
outer loop
vertex 8 -8 0.15
vertex 0.375 -8 0.375
vertex 0.375 -8 0.15
endloop
endfacet
facet normal 0 -1 0
outer loop
vertex 19.975 -8 -0.375
vertex 20 -8 -0.375
vertex 20 -8 0.15
endloop
endfacet
facet normal 0 -1 0
outer loop
vertex 19.975 -8 -0.375
vertex 20 -8 0.15
vertex 19.975 -8 0.15
endloop
endfacet
facet normal 0 -1 0
outer loop
vertex 19.225 -8 -0.375
vertex 19.975 -8 -0.375
vertex 19.975 -8 0.15
endloop
endfacet
facet normal 0 -1 0
outer loop
vertex 19.225 -8 -0.375
vertex 19.975 -8 0.15
vertex 19.225 -8 0.15
endloop
endfacet
facet normal 0 1 0
outer loop
vertex -8 8 0.15
vertex 19.225 8 -0.36047
vertex 19.225 8 -0.375
endloop
endfacet
facet normal 0 1 0
outer loop
vertex -8 8 0.15
vertex 19.225 8 -0.375
vertex -20 8 -0.375
endloop
endfacet
facet normal 0 1 0
outer loop
vertex -8 8 0.15
vertex -20 8 -0.375
vertex -20 8 0.15
endloop
endfacet
facet normal 0 1 0
outer loop
vertex 19.225 8 0.15
vertex 19.225 8 -0.36047
vertex -8 8 0.15
endloop
endfacet
facet normal 0 1 0
outer loop
vertex -20 8 0.375
vertex -19.975 8 0.37453
vertex -19.975 8 0.15
endloop
endfacet
facet normal 0 1 0
outer loop
vertex -20 8 0.375
vertex -19.975 8 0.15
vertex -20 8 0.15
endloop
endfacet
facet normal 0 1 0
outer loop
vertex -19.975 8 0.375
vertex -19.975 8 0.37453
vertex -20 8 0.375
endloop
endfacet
facet normal 0 1 0
outer loop
vertex -19.225 8 0.36047
vertex -8 8 0.15
vertex -19.225 8 0.15
endloop
endfacet
facet normal 0 1 0
outer loop
vertex -19.225 8 0.375
vertex -0.375 8 0.375
vertex -0.375 8 0.15
endloop
endfacet
facet normal 0 1 0
outer loop
vertex -19.225 8 0.375
vertex -0.375 8 0.15
vertex -8 8 0.15
endloop
endfacet
facet normal 0 1 0
outer loop
vertex -19.225 8 0.375
vertex -8 8 0.15
vertex -19.225 8 0.36047
endloop
endfacet
facet normal 0 1 0
outer loop
vertex 19.225 8 0.15
vertex 0.375 8 0.15
vertex 0.375 8 0.375
endloop
endfacet
facet normal 0 1 0
outer loop
vertex 19.225 8 0.15
vertex 0.375 8 0.375
vertex 19.225 8 0.375
endloop
endfacet
facet normal 0 1 0
outer loop
vertex 19.975 8 -0.37453
vertex 20 8 -0.375
vertex 19.975 8 -0.375
endloop
endfacet
facet normal 0 1 0
outer loop
vertex 19.975 8 0.15
vertex 20 8 0.15
vertex 20 8 -0.375
endloop
endfacet
facet normal 0 1 0
outer loop
vertex 19.975 8 0.15
vertex 20 8 -0.375
vertex 19.975 8 -0.37453
endloop
endfacet
facet normal 0 1 0
outer loop
vertex 19.975 8 -0.37453
vertex 19.975 8 -0.375
vertex 19.225 8 -0.375
endloop
endfacet
facet normal 0 1 0
outer loop
vertex 19.975 8 -0.37453
vertex 19.225 8 -0.375
vertex 19.225 8 -0.36047
endloop
endfacet
facet normal 0 1 0
outer loop
vertex 19.975 8 0.15
vertex 19.975 8 -0.37453
vertex 19.225 8 -0.36047
endloop
endfacet
facet normal 0 1 0
outer loop
vertex 19.975 8 0.15
vertex 19.225 8 -0.36047
vertex 19.225 8 0.15
endloop
endfacet
facet normal 0 0 1
outer loop
vertex 0.375 8 0.15
vertex -0.375 8 0.15
vertex -0.375 -8 0.15
endloop
endfacet
facet normal 0 0 1
outer loop
vertex 0.375 8 0.15
vertex -0.375 -8 0.15
vertex 0.375 -8 0.15
endloop
endfacet
facet normal 0 0 1
outer loop
vertex -19.225 8 0.15
vertex -19.975 8 0.15
vertex -19.975 -8 0.15
endloop
endfacet
facet normal 0 0 1
outer loop
vertex -19.225 8 0.15
vertex -19.975 -8 0.15
vertex -19.225 -8 0.15
endloop
endfacet
facet normal 0 0 1
outer loop
vertex 19.975 8 0.15
vertex 19.975 -8 0.15
vertex 20 -8 0.15
endloop
endfacet
facet normal 0 0 1
outer loop
vertex 19.975 8 0.15
vertex 20 -8 0.15
vertex 20 8 0.15
endloop
endfacet
facet normal 0 0 1
outer loop
vertex 19.975 8 0.15
vertex 19.375 8 0.15
vertex 19.375 -8 0.15
endloop
endfacet
facet normal 0 0 1
outer loop
vertex 19.975 8 0.15
vertex 19.375 -8 0.15
vertex 19.975 -8 0.15
endloop
endfacet
facet normal 0 0 1
outer loop
vertex 19.375 8 0.15
vertex 19.225 8 0.15
vertex 19.225 -8 0.15
endloop
endfacet
facet normal 0 0 1
outer loop
vertex 19.375 8 0.15
vertex 19.225 -8 0.15
vertex 19.375 -8 0.15
endloop
endfacet
facet normal 1 0 0
outer loop
vertex -0.375 -4 0.375
vertex -0.375 -8 0.375
vertex -0.375 -8 0.15
endloop
endfacet
facet normal 1 0 0
outer loop
vertex -0.375 -4 0.375
vertex -0.375 -8 0.15
vertex -0.375 8 0.15
endloop
endfacet
facet normal 1 0 0
outer loop
vertex -0.375 -4 0.375
vertex -0.375 8 0.15
vertex -0.375 8 0.375
endloop
endfacet
facet normal -1 0 0
outer loop
vertex 0.375 4 0.375
vertex 0.375 8 0.375
vertex 0.375 8 0.15
endloop
endfacet
facet normal -1 0 0
outer loop
vertex 0.375 4 0.375
vertex 0.375 8 0.15
vertex 0.375 -8 0.15
endloop
endfacet
facet normal -1 0 0
outer loop
vertex 0.375 4 0.375
vertex 0.375 -8 0.15
vertex 0.375 -8 0.375
endloop
endfacet
facet normal 1 0 0
outer loop
vertex 19.225 7.82 0.375
vertex 19.225 -8 0.375
vertex 19.225 -8 0.15
endloop
endfacet
facet normal 1 0 0
outer loop
vertex 19.225 7.82 0.375
vertex 19.225 -8 0.15
vertex 19.225 8 0.15
endloop
endfacet
facet normal 1 0 0
outer loop
vertex 19.225 7.82 0.375
vertex 19.225 8 0.15
vertex 19.225 8 0.375
endloop
endfacet
facet normal 1 0 0
outer loop
vertex -19.975 -4 0.375
vertex -19.975 -8 0.375
vertex -19.975 -8 0.15
endloop
endfacet
facet normal 1 0 0
outer loop
vertex -19.975 -4 0.375
vertex -19.975 -8 0.15
vertex -19.975 8 0.15
endloop
endfacet
facet normal 1 0 0
outer loop
vertex -19.975 -4 0.375
vertex -19.975 8 0.15
vertex -19.975 8 0.375
endloop
endfacet
facet normal -1 0 0
outer loop
vertex -19.225 4 0.375
vertex -19.225 8 0.375
vertex -19.225 8 0.15
endloop
endfacet
facet normal -1 0 0
outer loop
vertex -19.225 4 0.375
vertex -19.225 8 0.15
vertex -19.225 -8 0.15
endloop
endfacet
facet normal -1 0 0
outer loop
vertex -19.225 4 0.375
vertex -19.225 -8 0.15
vertex -19.225 -8 0.375
endloop
endfacet
facet normal -1 0 0
outer loop
vertex -20 -8 0.15
vertex -20 -8 0.375
vertex -20 -3.2 0.15
endloop
endfacet
facet normal -1 0 0
outer loop
vertex -20 -3.2 0.15
vertex -20 -8 0.375
vertex -20 8 0.375
endloop
endfacet
facet normal -1 0 0
outer loop
vertex -20 -3.2 0.15
vertex -20 8 0.375
vertex -20 8 0.15
endloop
endfacet
facet normal 1 0 0
outer loop
vertex 20 8 0.15
vertex 20 3.2 0.15
vertex 20 -8 -0.375
endloop
endfacet
facet normal 1 0 0
outer loop
vertex 20 8 0.15
vertex 20 -8 -0.375
vertex 20 8 -0.375
endloop
endfacet
facet normal 1 0 0
outer loop
vertex 20 3.2 0.15
vertex 20 -8 0.15
vertex 20 -8 -0.375
endloop
endfacet
facet normal -1 0 0
outer loop
vertex -20 -8 0.15
vertex -20 -3.2 0.15
vertex -20 8 -0.375
endloop
endfacet
facet normal -1 0 0
outer loop
vertex -20 -8 0.15
vertex -20 8 -0.375
vertex -20 -8 -0.375
endloop
endfacet
facet normal -1 0 0
outer loop
vertex -20 -3.2 0.15
vertex -20 8 0.15
vertex -20 8 -0.375
endloop
endfacet
facet normal -1 0 0
outer loop
vertex -0.375 -8 0.375
vertex -0.375 -8 20.15
vertex -0.375 7.82 0.375
endloop
endfacet
facet normal -1 0 0
outer loop
vertex -0.375 7.82 0.375
vertex -0.375 -8 20.15
vertex -0.375 8 20.15
endloop
endfacet
facet normal -1 0 0
outer loop
vertex -0.375 7.82 0.375
vertex -0.375 8 20.15
vertex -0.375 8 0.375
endloop
endfacet
facet normal -1 0 0
outer loop
vertex -0.375 -8 0.375
vertex -0.375 7.82 0.375
vertex -0.375 8 0.15
endloop
endfacet
facet normal -1 0 0
outer loop
vertex -0.375 -8 0.375
vertex -0.375 8 0.15
vertex -0.375 -8 0.15
endloop
endfacet
facet normal -1 0 0
outer loop
vertex -0.375 7.82 0.375
vertex -0.375 8 0.375
vertex -0.375 8 0.15
endloop
endfacet
facet normal 1 0 0
outer loop
vertex 0.375 8 0.375
vertex 0.375 8 20.15
vertex 0.375 -7.82 0.375
endloop
endfacet
facet normal 1 0 0
outer loop
vertex 0.375 -7.82 0.375
vertex 0.375 8 20.15
vertex 0.375 -8 20.15
endloop
endfacet
facet normal 1 0 0
outer loop
vertex 0.375 -7.82 0.375
vertex 0.375 -8 20.15
vertex 0.375 -8 0.375
endloop
endfacet
facet normal 1 0 0
outer loop
vertex 0.375 8 0.375
vertex 0.375 -7.82 0.375
vertex 0.375 -8 0.15
endloop
endfacet
facet normal 1 0 0
outer loop
vertex 0.375 8 0.375
vertex 0.375 -8 0.15
vertex 0.375 8 0.15
endloop
endfacet
facet normal 1 0 0
outer loop
vertex 0.375 -7.82 0.375
vertex 0.375 -8 0.375
vertex 0.375 -8 0.15
endloop
endfacet
facet normal 0 -1 0
outer loop
vertex 0.375 -8 0.375
vertex 0.375 -8 20.15
vertex -0.36656 -8 0.375
endloop
endfacet
facet normal 0 -1 0
outer loop
vertex -0.36656 -8 0.375
vertex 0.375 -8 20.15
vertex -0.375 -8 20.15
endloop
endfacet
facet normal 0 -1 0
outer loop
vertex -0.36656 -8 0.375
vertex -0.375 -8 20.15
vertex -0.375 -8 0.375
endloop
endfacet
facet normal 0 -1 0
outer loop
vertex 0.375 -8 0.375
vertex -0.36656 -8 0.375
vertex -0.375 -8 0.15
endloop
endfacet
facet normal 0 -1 0
outer loop
vertex 0.375 -8 0.375
vertex -0.375 -8 0.15
vertex 0.375 -8 0.15
endloop
endfacet
facet normal 0 -1 0
outer loop
vertex -0.36656 -8 0.375
vertex -0.375 -8 0.375
vertex -0.375 -8 0.15
endloop
endfacet
facet normal 0 1 0
outer loop
vertex -0.375 8 0.375
vertex -0.375 8 20.15
vertex 0.36656 8 0.375
endloop
endfacet
facet normal 0 1 0
outer loop
vertex 0.36656 8 0.375
vertex -0.375 8 20.15
vertex 0.375 8 20.15
endloop
endfacet
facet normal 0 1 0
outer loop
vertex 0.36656 8 0.375
vertex 0.375 8 20.15
vertex 0.375 8 0.375
endloop
endfacet
facet normal 0 1 0
outer loop
vertex -0.375 8 0.375
vertex 0.36656 8 0.375
vertex 0.375 8 0.15
endloop
endfacet
facet normal 0 1 0
outer loop
vertex -0.375 8 0.375
vertex 0.375 8 0.15
vertex -0.375 8 0.15
endloop
endfacet
facet normal 0 1 0
outer loop
vertex 0.36656 8 0.375
vertex 0.375 8 0.375
vertex 0.375 8 0.15
endloop
endfacet
facet normal 0 0 -1
outer loop
vertex 0.375 -8 0.15
vertex -0.375 -8 0.15
vertex -0.375 8 0.15
endloop
endfacet
facet normal 0 0 -1
outer loop
vertex 0.375 -8 0.15
vertex -0.375 8 0.15
vertex 0.375 8 0.15
endloop
endfacet
facet normal 0 0 1
outer loop
vertex 0.375 8 20.15
vertex -0.375 8 20.15
vertex -0.375 -8 20.15
endloop
endfacet
facet normal 0 0 1
outer loop
vertex 0.375 8 20.15
vertex -0.375 -8 20.15
vertex 0.375 -8 20.15
endloop
endfacet
endsolid JSxCAD
