<svg viewBox="-250 -250 500 500" width="500" height="500" xmlns="http://www.w3.org/2000/svg"><path d="M-39.045999301547006,31.775121857181496L-116.74548396782805,102.01249157177323L-37.033505036632235,36.46744005059484zM-39.045999301547006,31.775121857181496L-93.40104918963448,-94.95623879641133L-115.85273473532821,94.48000606685274zM-39.045999301547006,31.775121857181496L-115.85273473532821,94.48000606685274L-116.74548396782805,102.01249157177323z" style="fill:rgb(217,127,217)"/><path d="M-122.6118431441316,96.73075088030689L-122.74942711652987,96.71626474642225L-120.43000981845594,101.60596332933238zM-119.06682098207258,97.10400413625295L-122.6118431441316,96.73075088030689L-120.43000981845594,101.60596332933238zM-119.06682098207258,97.10400413625295L-120.43000981845594,101.60596332933238L-116.74548396782805,102.01249157177323z" style="fill:rgb(49,63,205)"/><path d="M-115.85273473532821,94.48000606685274L-119.06682098207258,97.10400413625295L-116.74548396782805,102.01249157177323z" style="fill:rgb(217,127,217)"/><path d="M-93.40104918963448,-94.95623879641133L-97.10274713083949,-94.58542916060676L-185.62307855029508,-35.828347457593zM-95.62964564747982,-100.15243260695408L-99.2069805399539,-99.77358035621867L-188.09051952255254,-41.28863598317684z" style="fill:rgb(82,237,172)"/><path d="M-115.85273473532821,94.48000606685274L-93.40104918963448,-94.95623879641133L-182.00645532736442,-35.97977577290849z" style="fill:rgb(217,127,217)"/><path d="M-122.6118431441316,96.73075088030689L-185.62307855029508,-35.828347457593L-122.74942711652987,96.71626474642225zM-119.06682098207258,97.10400413625295L-182.00645532736442,-35.97977577290849L-122.6118431441316,96.73075088030689z" style="fill:rgb(49,63,205)"/><path d="M-115.85273473532821,94.48000606685274L-182.00645532736442,-35.97977577290849L-119.06682098207258,97.10400413625295z" style="fill:rgb(217,127,217)"/><path d="M-93.40104918963448,-94.95623879641133L-185.62307855029508,-35.828347457593L-182.00645532736442,-35.97977577290849zM-119.06682098207258,97.10400413625295L198.895983091025,39.31856626115694L-39.045999301547006,31.775121857181496zM-95.62964564747982,-100.15243260695408L-188.09051952255254,-41.28863598317684L-184.5971739998225,-41.45768171257742z" style="fill:rgb(82,237,172)"/><path d="M-122.6118431441316,96.73075088030689L-182.00645532736442,-35.97977577290849L-185.62307855029508,-35.828347457593zM-182.0533397893153,-36.078915078938L-188.09051952255254,-41.28863598317684L-185.50308486097776,-35.833375239181706zM-182.0533397893153,-36.078915078938L-185.50308486097776,-35.833375239181706L-182.00645532736442,-35.97977577290849zM-182.0533397893153,-36.078915078938L-184.5971739998225,-41.45768171257742L-188.09051952255254,-41.28863598317684zM120.3461703374252,122.41842519460661L-116.78743736032169,101.92372064814849L-116.74548396782805,102.01249157177323zM120.3461703374252,122.41842519460661L-119.06682098207258,97.10400413625295L-116.78743736032169,101.92372064814849z" style="fill:rgb(49,63,205)"/><path d="M-184.5971739998225,-41.45768171257742L143.6125709063736,-125.48901834373608L-95.62964564747982,-100.15243260695408zM-119.06682098207258,97.10400413625295L120.30407964629727,122.30722260820247L198.895983091025,39.31856626115694z" style="fill:rgb(82,237,172)"/><path d="M196.19165939627152,42.1742209480957L200.83702569013388,45.10490224065029L198.895983091025,39.31856626115694z" style="fill:rgb(217,127,217)"/><path d="M53.86572973649906,-52.86701057085629L-182.0533397893153,-36.078915078938L-182.00645532736442,-35.97977577290849zM53.86572973649906,-52.86701057085629L-184.5971739998225,-41.45768171257742L-182.0533397893153,-36.078915078938zM120.3461703374252,122.41842519460661L-116.74548396782805,102.01249157177323L122.62356132799287,128.4230206937942zM120.3461703374252,122.41842519460661L120.30407964629727,122.30722260820247L-119.06682098207258,97.10400413625295z" style="fill:rgb(49,63,205)"/><path d="M196.19165939627152,42.1742209480957L122.62356132799287,128.4230206937942L200.83702569013388,45.10490224065029zM204.65077253161735,39.50100948110775L128.51590176817913,129.07314581168518L206.5874633064961,45.31371036686796z" style="fill:rgb(217,127,217)"/><path d="M-184.5971739998225,-41.45768171257742L53.81734367159016,-52.994734149107906L143.6125709063736,-125.48901834373608z" style="fill:rgb(82,237,172)"/><path d="M204.65077253161735,39.50100948110775L151.6735641421803,-119.50606148803074L129.40605998788584,119.51809172563293zM196.19165939627152,42.1742209480957L120.30407964629727,122.30722260820247L122.62356132799287,128.4230206937942zM204.65077253161735,39.50100948110775L129.40605998788584,119.51809172563293L128.51590176817913,129.07314581168518z" style="fill:rgb(217,127,217)"/><path d="M53.86572973649906,-52.86701057085629L-182.00645532736442,-35.97977577290849L56.48330545101875,-45.96537278356751zM53.86572973649906,-52.86701057085629L53.81734367159016,-52.994734149107906L-184.5971739998225,-41.45768171257742zM120.52401929397213,122.33038987949593L120.30407964629727,122.30722260820247L122.62356132799287,128.4230206937942zM126.19958974316722,122.9279573281912L120.52401929397213,122.33038987949593L122.62356132799287,128.4230206937942zM126.19958974316722,122.9279573281912L122.62356132799287,128.4230206937942L128.51590176817913,129.07314581168518z" style="fill:rgb(49,63,205)"/><path d="M129.40605998788584,119.51809172563293L126.19958974316722,122.9279573281912L128.51590176817913,129.07314581168518z" style="fill:rgb(217,127,217)"/><path d="M151.6735641421803,-119.50606148803074L145.81628945522638,-118.9193215843503L56.48330545101875,-45.96537278356751zM53.81734367159016,-52.994734149107906L149.27711763731972,-126.08891361295716L143.6125709063736,-125.48901834373608z" style="fill:rgb(82,237,172)"/><path d="M151.4773627384866,-119.48640743407938L149.27711763731972,-126.08891361295716L62.243365630881456,-46.206552139461515zM129.40605998788584,119.51809172563293L151.6735641421803,-119.50606148803074L62.44308891794726,-46.21490989800536z" style="fill:rgb(217,127,217)"/><path d="M120.52401929397213,122.33038987949593L56.48330545101875,-45.96537278356751L120.30407964629727,122.30722260820247zM126.19958974316722,122.9279573281912L62.44308891794726,-46.21490989800536L120.52401929397213,122.33038987949593z" style="fill:rgb(49,63,205)"/><path d="M129.40605998788584,119.51809172563293L62.44308891794726,-46.21490989800536L126.19958974316722,122.9279573281912z" style="fill:rgb(217,127,217)"/><path d="M151.6735641421803,-119.50606148803074L56.48330545101875,-45.96537278356751L62.44308891794726,-46.21490989800536zM53.81734367159016,-52.994734149107906L59.57904571885802,-53.27354686781849L149.27711763731972,-126.08891361295716z" style="fill:rgb(82,237,172)"/><path d="M62.243365630881456,-46.206552139461515L149.27711763731972,-126.08891361295716L59.57904571885802,-53.27354686781849z" style="fill:rgb(217,127,217)"/><path d="M120.52401929397213,122.33038987949593L62.44308891794726,-46.21490989800536L56.48330545101875,-45.96537278356751zM53.86572973649906,-52.86701057085629L56.48330545101875,-45.96537278356751L62.243365630881456,-46.206552139461515zM53.86572973649906,-52.86701057085629L59.57904571885802,-53.27354686781849L53.81734367159016,-52.994734149107906zM53.86572973649906,-52.86701057085629L62.243365630881456,-46.206552139461515L59.57904571885802,-53.27354686781849z" style="fill:rgb(49,63,205)"/></svg>