<svg viewBox="-250 -250 500 500" width="500" height="500" xmlns="http://www.w3.org/2000/svg"><path d="M-45.27422397476952,33.79641443221125L-43.25251921405521,38.47943627712005L-41.50770598615235,37.04971438380785zM-45.27422397476952,33.79641443221125L-41.50770598615235,37.04971438380785L-43.52290451730254,32.371579115329084z" style="fill:rgb(217,127,217)"/><path d="M-43.25251921405521,38.47943627712005L-41.671599517889064,33.91865523429157L-45.27422397476952,33.79641443221125zM-40.625804691381724,36.34905826163493L-43.25251921405521,38.47943627712005L-39.64932103026921,38.618353489263114zM-43.25251921405521,38.47943627712005L-40.625804691381724,36.34905826163493L-41.671599517889064,33.91865523429157zM-39.64932103026921,38.618353489263114L-37.791548717012994,34.05030459112211L-40.625804691381724,36.34905826163493zM-41.671599517889064,33.91865523429157L-40.625804691381724,36.34905826163493L-37.791548717012994,34.05030459112211z" style="fill:rgb(49,63,205)"/><path d="M-99.87474211039314,-92.67600479791653L-45.27422397476952,33.79641443221125L-43.52290451730254,32.371579115329084z" style="fill:rgb(217,127,217)"/><path d="M-96.29776825455791,-93.02811351824928L-45.27422397476952,33.79641443221125L-41.671599517889064,33.91865523429157z" style="fill:rgb(49,63,205)"/><path d="M-99.87474211039314,-92.67600479791653L-43.52290451730254,32.371579115329084L-69.0087383355334,-26.79063946081327zM-116.85522948207038,95.29844335280207L-39.64932103026921,38.618353489263114L-41.671599517889064,33.91865523429157z" style="fill:rgb(217,127,217)"/><path d="M-96.29776825455791,-93.02811351824928L-99.87474211039314,-92.67600479791653L-45.27422397476952,33.79641443221125zM-39.64932103026921,38.618353489263114L62.397985402146375,37.44977706972393L-37.791548717012994,34.05030459112211z" style="fill:rgb(49,63,205)"/><path d="M-97.9431533166462,-93.95824866426426L-99.87474211039314,-92.67600479791653L-69.0087383355334,-26.79063946081327zM-116.85522948207038,95.29844335280207L-41.671599517889064,33.91865523429157L-94.90226623313315,-89.78500810723482z" style="fill:rgb(217,127,217)"/><path d="M-99.99753780219153,-92.66390889764006L-97.9431533166462,-93.95824866426426L-98.06607337883017,-93.94600616191723zM-92.43872274723681,-95.59676743042294L-96.01809226884559,-95.2361592262214L-99.87474211039314,-92.67600479791653zM-99.99753780219153,-92.66390889764006L-99.87474211039314,-92.67600479791653L-97.9431533166462,-93.95824866426426z" style="fill:rgb(82,237,172)"/><path d="M-116.85522948207038,95.29844335280207L-117.7495334716716,102.83809077118553L-39.64932103026921,38.618353489263114z" style="fill:rgb(217,127,217)"/><path d="M-92.43872274723681,-95.59676743042294L-99.87474211039314,-92.67600479791653L-96.29776825455791,-93.02811351824928zM-96.59739884598964,-99.51397736405276L-100.17409663660531,-99.13722173185408L-102.11326425913428,-97.86126065944175zM-96.59739884598964,-99.51397736405276L-102.11326425913428,-97.86126065944175L-98.53784935074123,-98.23380139590579z" style="fill:rgb(82,237,172)"/><path d="M-96.29776825455791,-93.02811351824928L-116.85522948207038,95.29844335280207L-94.90226623313315,-89.78500810723482z" style="fill:rgb(217,127,217)"/><path d="M7.592788030196332,-103.25506827806988L-41.671599517889064,33.91865523429157L-37.791548717012994,34.05030459112211z" style="fill:rgb(49,63,205)"/><path d="M62.397985402146375,37.44977706972393L-41.671599517889064,33.91865523429157L-120.0748948113114,97.92699620243752z" style="fill:rgb(82,237,172)"/><path d="M-96.29776825455791,-93.02811351824928L-120.0748948113114,97.92699620243752L-116.85522948207038,95.29844335280207z" style="fill:rgb(217,127,217)"/><path d="M-123.61910570890848,97.55025303597353L-123.75666523596792,97.53563153516906L-121.43322977529112,102.42791928856195zM-39.64932103026921,38.618353489263114L64.41584006404663,42.63045590128948L62.397985402146375,37.44977706972393zM-120.0748948113114,97.92699620243752L-123.61910570890848,97.55025303597353L-121.43322977529112,102.42791928856195zM-120.0748948113114,97.92699620243752L-121.43322977529112,102.42791928856195L-117.7495334716716,102.83809077118553z" style="fill:rgb(49,63,205)"/><path d="M-120.0748948113114,97.92699620243752L-117.7495334716716,102.83809077118553L-116.85522948207038,95.29844335280207z" style="fill:rgb(217,127,217)"/><path d="M7.592788030196332,-103.25506827806988L-96.29776825455791,-93.02811351824928L-41.671599517889064,33.91865523429157z" style="fill:rgb(49,63,205)"/><path d="M-99.99753780219153,-92.66390889764006L-183.1269112396943,-35.2339957836523L-96.29776825455791,-93.02811351824928zM-98.53784935074123,-98.23380139590579L-102.11326425913428,-97.86126065944175L-189.21432922821472,-40.54917822140817z" style="fill:rgb(82,237,172)"/><path d="M37.33929740147623,-26.8849954135562L-37.791548717012994,34.05030459112211L62.397985402146375,37.44977706972393z" style="fill:rgb(49,63,205)"/><path d="M-96.29776825455791,-93.02811351824928L-183.1269112396943,-35.2339957836523L-120.0748948113114,97.92699620243752z" style="fill:rgb(217,127,217)"/><path d="M-123.61910570890848,97.55025303597353L-186.74209723435106,-35.085570990824436L-123.75666523596792,97.53563153516906z" style="fill:rgb(49,63,205)"/><path d="M7.592788030196332,-103.25506827806988L-92.43872274723681,-95.59676743042294L-96.29776825455791,-93.02811351824928zM7.290658878829519,-110.4571470578136L-96.59739884598964,-99.51397736405276L-98.53784935074123,-98.23380139590579z" style="fill:rgb(82,237,172)"/><path d="M-120.0748948113114,97.92699620243752L-183.1269112396943,-35.2339957836523L-123.61910570890848,97.55025303597353zM7.592788030196332,-103.25506827806988L-37.791548717012994,34.05030459112211L37.33929740147623,-26.8849954135562z" style="fill:rgb(49,63,205)"/><path d="M-99.99753780219153,-92.66390889764006L-186.74209723435106,-35.085570990824436L-183.1269112396943,-35.2339957836523z" style="fill:rgb(82,237,172)"/><path d="M64.41584006404663,42.63045590128948L63.155619257565675,39.39503821703758L61.34611785506288,38.40356578115672zM61.34611785506288,38.40356578115672L63.155619257565675,39.39503821703758L62.397985402146375,37.44977706972393z" style="fill:rgb(217,127,217)"/><path d="M-98.53784935074123,-98.23380139590579L-189.21432922821472,-40.54917822140817L-185.7223668574157,-40.715348809426246z" style="fill:rgb(82,237,172)"/><path d="M64.41584006404663,42.63045590128948L66.97657586200323,37.605130544474704L62.397985402146375,37.44977706972393zM64.41584006404663,42.63045590128948L68.99330289676413,42.80693426810297L66.97657586200323,37.605130544474704zM-123.61910570890848,97.55025303597353L-183.1269112396943,-35.2339957836523L-186.74209723435106,-35.085570990824436zM-117.79155305189138,102.7492736037125L-117.7495334716716,102.83809077118553L-14.087726424179623,114.38060502414697zM-120.0748948113114,97.92699620243752L-117.79155305189138,102.7492736037125L-15.242084389932804,111.71572225558725zM37.33929740147623,-26.8849954135562L62.397985402146375,37.44977706972393L66.97657586200323,37.605130544474704z" style="fill:rgb(49,63,205)"/><path d="M5.333094436528458,-109.05664542580799L-98.53784935074123,-98.23380139590579L-185.7223668574157,-40.715348809426246zM62.397985402146375,37.44977706972393L-120.0748948113114,97.92699620243752L-16.443307314604095,108.94282181440006zM7.592788030196332,-103.25506827806988L11.483536564555404,-106.0665498360777L-92.43872274723681,-95.59676743042294z" style="fill:rgb(82,237,172)"/><path d="M37.33929740147623,-26.8849954135562L66.97657586200323,37.605130544474704L40.864755771079565,-29.7443273306702z" style="fill:rgb(49,63,205)"/><path d="M7.290658878829519,-110.4571470578136L-98.53784935074123,-98.23380139590579L5.333094436528458,-109.05664542580799z" style="fill:rgb(82,237,172)"/><path d="M-183.17388154612553,-35.33319733982205L-186.62215126495067,-35.09049902993024L-183.1269112396943,-35.2339957836523zM-185.7223668574157,-40.715348809426246L-189.21432922821472,-40.54917822140817L-186.62215126495067,-35.09049902993024zM-185.7223668574157,-40.715348809426246L-186.62215126495067,-35.09049902993024L-183.17388154612553,-35.33319733982205z" style="fill:rgb(49,63,205)"/><path d="M64.41584006404663,42.63045590128948L61.34611785506288,38.40356578115672L-16.443307314604095,108.94282181440006zM-8.586264424927021,106.45928922734912L68.99330289676413,42.80693426810297L66.97657586200323,37.605130544474704z" style="fill:rgb(217,127,217)"/><path d="M7.592788030196332,-103.25506827806988L37.33929740147623,-26.8849954135562L40.864755771079565,-29.7443273306702zM-117.79155305189138,102.7492736037125L-14.087726424179623,114.38060502414697L-15.242084389932804,111.71572225558725zM68.99330289676413,42.80693426810297L196.3611500497276,41.995205794095355L66.97657586200323,37.605130544474704zM-120.0748948113114,97.92699620243752L-15.242084389932804,111.71572225558725L-16.443307314604095,108.94282181440006z" style="fill:rgb(49,63,205)"/><path d="M-8.586264424927021,106.45928922734912L66.97657586200323,37.605130544474704L13.595925389025624,-100.07798961584186z" style="fill:rgb(217,127,217)"/><path d="M7.592788030196332,-103.25506827806988L40.864755771079565,-29.7443273306702L12.188699715087038,-103.70748810185651zM40.864755771079565,-29.7443273306702L66.97657586200323,37.605130544474704L196.3611500497276,41.995205794095355z" style="fill:rgb(49,63,205)"/><path d="M64.41584006404663,42.63045590128948L-16.443307314604095,108.94282181440006L-14.087726424179623,114.38060502414697z" style="fill:rgb(217,127,217)"/><path d="M7.592788030196332,-103.25506827806988L16.079056836544904,-106.52953146059339L11.483536564555404,-106.0665498360777z" style="fill:rgb(82,237,172)"/><path d="M-8.586264424927021,106.45928922734912L-9.491990299462154,114.89233013519099L68.99330289676413,42.80693426810297z" style="fill:rgb(217,127,217)"/><path d="M7.592788030196332,-103.25506827806988L12.188699715087038,-103.70748810185651L16.079056836544904,-106.52953146059339zM5.333094436528458,-109.05664542580799L11.886594476039246,-110.94126529279959L7.290658878829519,-110.4571470578136zM5.333094436528458,-109.05664542580799L9.929172912492069,-109.53553431119656L11.886594476039246,-110.94126529279959z" style="fill:rgb(82,237,172)"/><path d="M-183.17388154612553,-35.33319733982205L-183.1269112396943,-35.2339957836523L-80.72168101962978,-39.43832695042925zM-185.7223668574157,-40.715348809426246L-183.17388154612553,-35.33319733982205L-82.02648988697212,-42.450523162874106z" style="fill:rgb(49,63,205)"/><path d="M12.188699715087038,-103.70748810185651L-8.586264424927021,106.45928922734912L13.595925389025624,-100.07798961584186zM12.188699715087038,-103.70748810185651L-11.847830163568602,109.43131163724267L-8.586264424927021,106.45928922734912z" style="fill:rgb(217,127,217)"/><path d="M5.333094436528458,-109.05664542580799L-185.7223668574157,-40.715348809426246L-83.38446440360664,-45.58527734089712z" style="fill:rgb(82,237,172)"/><path d="M-16.271783000756685,108.96106382945011L-16.443307314604095,108.94282181440006L-14.087726424179623,114.38060502414697zM68.99330289676413,42.80693426810297L198.3138601159086,47.792726958831445L196.3611500497276,41.995205794095355zM-11.847830163568602,109.43131163724267L-16.271783000756685,108.96106382945011L-14.087726424179623,114.38060502414697zM-11.847830163568602,109.43131163724267L-14.087726424179623,114.38060502414697L-9.491990299462154,114.89233013519099z" style="fill:rgb(49,63,205)"/><path d="M-11.847830163568602,109.43131163724267L-9.491990299462154,114.89233013519099L-8.586264424927021,106.45928922734912z" style="fill:rgb(217,127,217)"/><path d="M7.592788030196332,-103.25506827806988L-76.15143594280177,-39.62596197813207L12.188699715087038,-103.70748810185651zM-83.38446440360664,-45.58527734089712L9.929172912492069,-109.53553431119656L5.333094436528458,-109.05664542580799z" style="fill:rgb(82,237,172)"/><path d="M12.188699715087038,-103.70748810185651L40.864755771079565,-29.7443273306702L144.01944705350755,-113.40861723542864z" style="fill:rgb(49,63,205)"/><path d="M12.188699715087038,-103.70748810185651L-76.15143594280177,-39.62596197813207L-11.847830163568602,109.43131163724267z" style="fill:rgb(217,127,217)"/><path d="M12.188699715087038,-103.70748810185651L146.7671860332482,-119.69587557753505L16.079056836544904,-106.52953146059339z" style="fill:rgb(82,237,172)"/><path d="M-16.271783000756685,108.96106382945011L-80.72168101962978,-39.43832695042925L-16.443307314604095,108.94282181440006z" style="fill:rgb(49,63,205)"/><path d="M119.29604890560346,123.37163802859051L66.97657586200323,37.605130544474704L-11.847830163568602,109.43131163724267z" style="fill:rgb(82,237,172)"/><path d="M-11.847830163568602,109.43131163724267L-76.15143594280177,-39.62596197813207L-16.271783000756685,108.96106382945011zM-183.17388154612553,-35.33319733982205L-80.72168101962978,-39.43832695042925L-82.02648988697212,-42.450523162874106z" style="fill:rgb(49,63,205)"/><path d="M140.73356228796283,-123.16471156731791L11.886594476039246,-110.94126529279959L9.929172912492069,-109.53553431119656z" style="fill:rgb(82,237,172)"/><path d="M-185.7223668574157,-40.715348809426246L-82.02648988697212,-42.450523162874106L-83.38446440360664,-45.58527734089712zM40.864755771079565,-29.7443273306702L196.3611500497276,41.995205794095355L144.01944705350755,-113.40861723542864z" style="fill:rgb(49,63,205)"/><path d="M119.29604890560346,123.37163802859051L196.3611500497276,41.995205794095355L66.97657586200323,37.605130544474704zM7.592788030196332,-103.25506827806988L-80.72168101962978,-39.43832695042925L-76.15143594280177,-39.62596197813207z" style="fill:rgb(82,237,172)"/><path d="M198.3138601159086,47.792726958831445L197.0944775952475,44.172417774732885L195.342975353366,43.070376960516576z" style="fill:rgb(217,127,217)"/><path d="M196.3611500497276,41.995205794095355L198.3138601159086,47.792726958831445L203.87719335158252,48.00721382589684z" style="fill:rgb(49,63,205)"/><path d="M195.342975353366,43.070376960516576L197.0944775952475,44.172417774732885L196.3611500497276,41.995205794095355zM205.29789991774425,38.60209363722675L203.87719335158252,48.00721382589684L207.23078783512054,44.4101574292192z" style="fill:rgb(217,127,217)"/><path d="M-83.38446440360664,-45.58527734089712L-78.81602061703093,-45.80267474896602L9.929172912492069,-109.53553431119656z" style="fill:rgb(82,237,172)"/><path d="M196.3611500497276,41.995205794095355L203.87719335158252,48.00721382589684L201.92871318323452,42.18411272656327z" style="fill:rgb(49,63,205)"/><path d="M205.29789991774425,38.60209363722675L202.0555388109749,42.04928980933421L203.87719335158252,48.00721382589684zM202.12152108976994,42.190658031725015L204.06994220472,48.01464535252633L205.74996770508147,46.212215465207485zM202.12152108976994,42.190658031725015L205.74996770508147,46.212215465207485L203.8093843767279,40.395755805598135zM202.0555388109749,42.04928980933421L201.92871318323452,42.18411272656327L203.87719335158252,48.00721382589684z" style="fill:rgb(217,127,217)"/><path d="M-16.271783000756685,108.96106382945011L-76.15143594280177,-39.62596197813207L-80.72168101962978,-39.43832695042925zM119.33824124436111,123.48291361923896L-10.690714259416014,112.11367183258726L-9.491990299462154,114.89233013519099zM119.33824124436111,123.48291361923896L-11.847830163568602,109.43131163724267L-10.690714259416014,112.11367183258726z" style="fill:rgb(49,63,205)"/><path d="M12.188699715087038,-103.70748810185651L142.95139775609297,-116.57970989644228L146.7671860332482,-119.69587557753505z" style="fill:rgb(82,237,172)"/><path d="M205.29789991774425,38.60209363722675L152.4267596515121,-120.26605662945148L202.0555388109749,42.04928980933421z" style="fill:rgb(217,127,217)"/><path d="M12.188699715087038,-103.70748810185651L144.01944705350755,-113.40861723542864L142.95139775609297,-116.57970989644228zM-82.02648988697212,-42.450523162874106L-80.72168101962978,-39.43832695042925L-76.15143594280177,-39.62596197813207zM148.61698602572946,-117.13743736110743L196.3611500497276,41.995205794095355L201.92871318323452,42.18411272656327z" style="fill:rgb(49,63,205)"/><path d="M150.19177181720443,-113.03653276391348L202.12152108976994,42.190658031725015L203.8093843767279,40.395755805598135z" style="fill:rgb(217,127,217)"/><path d="M140.73356228796283,-123.16471156731791L142.6549522983112,-124.71590273971458L11.886594476039246,-110.94126529279959z" style="fill:rgb(82,237,172)"/><path d="M202.0555388109749,42.04928980933421L148.61698602572946,-117.13743736110743L201.92871318323452,42.18411272656327z" style="fill:rgb(217,127,217)"/><path d="M-78.81602061703093,-45.80267474896602L-83.38446440360664,-45.58527734089712L-82.02648988697212,-42.450523162874106zM-82.02648988697212,-42.450523162874106L-76.15143594280177,-39.62596197813207L-77.50705994281113,-42.768550637364484zM-78.81602061703093,-45.80267474896602L-82.02648988697212,-42.450523162874106L-77.50705994281113,-42.768550637364484z" style="fill:rgb(49,63,205)"/><path d="M198.3138601159086,47.792726958831445L195.342975353366,43.070376960516576L119.29604890560346,123.37163802859051zM128.40644939135026,120.58110635520482L204.06994220472,48.01464535252633L202.12152108976994,42.190658031725015z" style="fill:rgb(217,127,217)"/><path d="M148.61698602572946,-117.13743736110743L144.01944705350755,-113.40861723542864L196.3611500497276,41.995205794095355z" style="fill:rgb(49,63,205)"/><path d="M150.19177181720443,-113.03653276391348L203.8093843767279,40.395755805598135L150.72220078793663,-118.72463852092162zM202.0555388109749,42.04928980933421L152.4267596515121,-120.26605662945148L148.61698602572946,-117.13743736110743z" style="fill:rgb(217,127,217)"/><path d="M119.33824124436111,123.48291361923896L-9.491990299462154,114.89233013519099L121.62061470155223,129.49143037346656z" style="fill:rgb(49,63,205)"/><path d="M52.65843806249432,-52.05911739759369L9.929172912492069,-109.53553431119656L-78.81602061703093,-45.80267474896602z" style="fill:rgb(82,237,172)"/><path d="M119.33824124436111,123.48291361923896L119.29604890560346,123.37163802859051L-11.847830163568602,109.43131163724267z" style="fill:rgb(49,63,205)"/><path d="M128.40644939135026,120.58110635520482L202.12152108976994,42.190658031725015L150.19177181720443,-113.03653276391348zM198.3138601159086,47.792726958831445L119.29604890560346,123.37163802859051L121.62061470155223,129.49143037346656z" style="fill:rgb(217,127,217)"/><path d="M52.65843806249432,-52.05911739759369L140.73356228796283,-123.16471156731791L9.929172912492069,-109.53553431119656z" style="fill:rgb(82,237,172)"/><path d="M128.40644939135026,120.58110635520482L127.5143269608452,130.1476822727275L204.06994220472,48.01464535252633z" style="fill:rgb(217,127,217)"/><path d="M146.7671860332482,-119.69587557753505L142.95139775609297,-116.57970989644228L148.61698602572946,-117.13743736110743zM146.7671860332482,-119.69587557753505L148.61698602572946,-117.13743736110743L152.4267596515121,-120.26605662945148z" style="fill:rgb(82,237,172)"/><path d="M144.01944705350755,-113.40861723542864L148.61698602572946,-117.13743736110743L142.95139775609297,-116.57970989644228z" style="fill:rgb(49,63,205)"/><path d="M140.73356228796283,-123.16471156731791L148.3209772034043,-125.31274007966897L142.6549522983112,-124.71590273971458zM148.61698602572946,-117.13743736110743L150.72220078793663,-118.72463852092162L150.5259462347432,-118.70509210363709z" style="fill:rgb(82,237,172)"/><path d="M150.72220078793663,-118.72463852092162L148.81333163628875,-117.15675551272167L150.19177181720443,-113.03653276391348z" style="fill:rgb(217,127,217)"/><path d="M148.61698602572946,-117.13743736110743L148.81333163628875,-117.15675551272167L150.72220078793663,-118.72463852092162z" style="fill:rgb(82,237,172)"/><path d="M148.3209772034043,-125.31274007966897L148.61698602572946,-117.13743736110743L150.5259462347432,-118.70509210363709z" style="fill:rgb(217,127,217)"/><path d="M140.73356228796283,-123.16471156731791L146.40254475383517,-123.75539179798996L148.3209772034043,-125.31274007966897z" style="fill:rgb(82,237,172)"/><path d="M148.3209772034043,-125.31274007966897L146.45453610596613,-123.59994736351653L148.61698602572946,-117.13743736110743zM146.45453610596613,-123.59994736351653L148.3209772034043,-125.31274007966897L146.40254475383517,-123.75539179798996z" style="fill:rgb(217,127,217)"/><path d="M52.70693788407846,-51.93128993487472L-77.50705994281113,-42.768550637364484L-76.15143594280177,-39.62596197813207zM52.70693788407846,-51.93128993487472L-78.81602061703093,-45.80267474896602L-77.50705994281113,-42.768550637364484z" style="fill:rgb(49,63,205)"/><path d="M148.81333163628875,-117.15675551272167L128.40644939135026,120.58110635520482L150.19177181720443,-113.03653276391348zM148.81333163628875,-117.15675551272167L125.19293325442368,123.99846477629896L128.40644939135026,120.58110635520482z" style="fill:rgb(217,127,217)"/><path d="M119.51603816540066,123.39503250122264L119.29604890560346,123.37163802859051L121.62061470155223,129.49143037346656zM125.19293325442368,123.99846477629896L119.51603816540066,123.39503250122264L121.62061470155223,129.49143037346656zM125.19293325442368,123.99846477629896L121.62061470155223,129.49143037346656L127.5143269608452,130.1476822727275z" style="fill:rgb(49,63,205)"/><path d="M125.19293325442368,123.99846477629896L127.5143269608452,130.1476822727275L128.40644939135026,120.58110635520482z" style="fill:rgb(217,127,217)"/><path d="M142.95139775609297,-116.57970989644228L61.29118419759652,-45.268772481175425L148.81333163628875,-117.15675551272167zM52.65843806249432,-52.05911739759369L146.40254475383517,-123.75539179798996L140.73356228796283,-123.16471156731791z" style="fill:rgb(82,237,172)"/><path d="M146.45453610596613,-123.59994736351653L61.091434492575125,-45.26057619550796L148.61698602572946,-117.13743736110743zM146.45453610596613,-123.59994736351653L146.40254475383517,-123.75539179798996L58.42083416322257,-52.333331848394835zM148.81333163628875,-117.15675551272167L61.29118419759652,-45.268772481175425L125.19293325442368,123.99846477629896z" style="fill:rgb(217,127,217)"/><path d="M119.51603816540066,123.39503250122264L55.33065358396035,-45.02405883124153L119.29604890560346,123.37163802859051zM125.19293325442368,123.99846477629896L61.29118419759652,-45.268772481175425L119.51603816540066,123.39503250122264zM52.70693788407846,-51.93128993487472L-76.15143594280177,-39.62596197813207L55.33065358396035,-45.02405883124153zM52.70693788407846,-51.93128993487472L52.65843806249432,-52.05911739759369L-78.81602061703093,-45.80267474896602z" style="fill:rgb(49,63,205)"/><path d="M142.95139775609297,-116.57970989644228L55.33065358396035,-45.02405883124153L61.29118419759652,-45.268772481175425zM52.65843806249432,-52.05911739759369L58.42083416322257,-52.333331848394835L146.40254475383517,-123.75539179798996z" style="fill:rgb(82,237,172)"/><path d="M146.45453610596613,-123.59994736351653L58.42083416322257,-52.333331848394835L61.091434492575125,-45.26057619550796z" style="fill:rgb(217,127,217)"/><path d="M119.51603816540066,123.39503250122264L61.29118419759652,-45.268772481175425L55.33065358396035,-45.02405883124153zM52.70693788407846,-51.93128993487472L55.33065358396035,-45.02405883124153L61.091434492575125,-45.26057619550796zM52.70693788407846,-51.93128993487472L58.42083416322257,-52.333331848394835L52.65843806249432,-52.05911739759369zM52.70693788407846,-51.93128993487472L61.091434492575125,-45.26057619550796L58.42083416322257,-52.333331848394835z" style="fill:rgb(49,63,205)"/></svg>