solid JSxCAD
facet normal 0 0 1
outer loop
vertex -19.275 8 0.75
vertex -19.275 -8 0.75
vertex -0.375 -8 0.75
endloop
endfacet
facet normal 0 0 1
outer loop
vertex -19.275 8 0.75
vertex -0.375 -8 0.75
vertex -0.375 8 0.75
endloop
endfacet
facet normal 0 0 1
outer loop
vertex 19.275 -8 0.75
vertex 19.275 8 0.75
vertex 0.375 8 0.75
endloop
endfacet
facet normal 0 0 1
outer loop
vertex 19.275 -8 0.75
vertex 0.375 8 0.75
vertex 0.375 -8 0.75
endloop
endfacet
facet normal 0 0 -1
outer loop
vertex -19.275 -8 0
vertex -19.275 8 0
vertex -0.375 8 0
endloop
endfacet
facet normal 0 0 -1
outer loop
vertex -19.275 -8 0
vertex -0.375 8 0
vertex -0.375 -8 0
endloop
endfacet
facet normal 0 0 -1
outer loop
vertex 19.275 8 0
vertex 19.275 -8 0
vertex 0.375 -8 0
endloop
endfacet
facet normal 0 0 -1
outer loop
vertex 19.275 8 0
vertex 0.375 -8 0
vertex 0.375 8 0
endloop
endfacet
facet normal 0 -1 0
outer loop
vertex -19.275 -8 0.01359
vertex -19.275 -8 0
vertex -0.375 -8 0
endloop
endfacet
facet normal 0 -1 0
outer loop
vertex -19.275 -8 0.01359
vertex -0.375 -8 0
vertex -0.375 -8 0.36797
endloop
endfacet
facet normal 0 -1 0
outer loop
vertex -0.375 -8 0.75
vertex -19.275 -8 0.75
vertex -19.275 -8 0.01359
endloop
endfacet
facet normal 0 -1 0
outer loop
vertex -0.375 -8 0.75
vertex -19.275 -8 0.01359
vertex -0.375 -8 0.36797
endloop
endfacet
facet normal 0 -1 0
outer loop
vertex 0.375 -8 0
vertex 19.275 -8 0
vertex 19.275 -8 0.73641
endloop
endfacet
facet normal 0 -1 0
outer loop
vertex 0.375 -8 0
vertex 19.275 -8 0.73641
vertex 0.375 -8 0.38203
endloop
endfacet
facet normal 0 -1 0
outer loop
vertex 19.275 -8 0.73641
vertex 19.275 -8 0.75
vertex 0.375 -8 0.75
endloop
endfacet
facet normal 0 -1 0
outer loop
vertex 19.275 -8 0.73641
vertex 0.375 -8 0.75
vertex 0.375 -8 0.38203
endloop
endfacet
facet normal -1 0 0
outer loop
vertex 0.375 -7.4 0.75
vertex 0.375 8 0.75
vertex 0.375 8 0
endloop
endfacet
facet normal -1 0 0
outer loop
vertex 0.375 -7.4 0.75
vertex 0.375 8 0
vertex 0.375 -8 0
endloop
endfacet
facet normal -1 0 0
outer loop
vertex 0.375 -7.4 0.75
vertex 0.375 -8 0
vertex 0.375 -8 0.75
endloop
endfacet
facet normal 1 0 0
outer loop
vertex -0.375 7.4 0.75
vertex -0.375 -8 0.75
vertex -0.375 -8 0
endloop
endfacet
facet normal 1 0 0
outer loop
vertex -0.375 7.4 0.75
vertex -0.375 -8 0
vertex -0.375 8 0
endloop
endfacet
facet normal 1 0 0
outer loop
vertex -0.375 7.4 0.75
vertex -0.375 8 0
vertex -0.375 8 0.75
endloop
endfacet
facet normal -1 0 0
outer loop
vertex -19.275 -7.4 0.75
vertex -19.275 8 0.75
vertex -19.275 8 0
endloop
endfacet
facet normal -1 0 0
outer loop
vertex -19.275 -7.4 0.75
vertex -19.275 8 0
vertex -19.275 -8 0
endloop
endfacet
facet normal -1 0 0
outer loop
vertex -19.275 -7.4 0.75
vertex -19.275 -8 0
vertex -19.275 -8 0.75
endloop
endfacet
facet normal 0 1 0
outer loop
vertex -19.275 8 0.73641
vertex -0.375 8 0.38203
vertex -0.375 8 0
endloop
endfacet
facet normal 0 1 0
outer loop
vertex -19.275 8 0.73641
vertex -0.375 8 0
vertex -19.275 8 0
endloop
endfacet
facet normal 0 1 0
outer loop
vertex -19.275 8 0.73641
vertex -19.275 8 0.75
vertex -0.375 8 0.75
endloop
endfacet
facet normal 0 1 0
outer loop
vertex -19.275 8 0.73641
vertex -0.375 8 0.75
vertex -0.375 8 0.38203
endloop
endfacet
facet normal 1 0 0
outer loop
vertex 19.275 7.4 0.75
vertex 19.275 -8 0.75
vertex 19.275 -8 0
endloop
endfacet
facet normal 1 0 0
outer loop
vertex 19.275 7.4 0.75
vertex 19.275 -8 0
vertex 19.275 8 0
endloop
endfacet
facet normal 1 0 0
outer loop
vertex 19.275 7.4 0.75
vertex 19.275 8 0
vertex 19.275 8 0.75
endloop
endfacet
facet normal 0 1 0
outer loop
vertex 19.275 8 0.01359
vertex 19.275 8 0
vertex 0.375 8 0
endloop
endfacet
facet normal 0 1 0
outer loop
vertex 19.275 8 0.01359
vertex 0.375 8 0
vertex 0.375 8 0.36797
endloop
endfacet
facet normal 0 1 0
outer loop
vertex 19.275 8 0.75
vertex 19.275 8 0.01359
vertex 0.375 8 0.36797
endloop
endfacet
facet normal 0 1 0
outer loop
vertex 19.275 8 0.75
vertex 0.375 8 0.36797
vertex 0.375 8 0.75
endloop
endfacet
facet normal 0 0 1
outer loop
vertex -19.275 8 20.75
vertex -19.275 -8 20.75
vertex -0.375 -8 20.75
endloop
endfacet
facet normal 0 0 1
outer loop
vertex -19.275 8 20.75
vertex -0.375 -8 20.75
vertex -0.375 8 20.75
endloop
endfacet
facet normal 0 0 1
outer loop
vertex 19.275 -8 20.75
vertex 19.275 8 20.75
vertex 0.375 8 20.75
endloop
endfacet
facet normal 0 0 1
outer loop
vertex 19.275 -8 20.75
vertex 0.375 8 20.75
vertex 0.375 -8 20.75
endloop
endfacet
facet normal 0 0 1
outer loop
vertex -0.375 -8 20.75
vertex 0.375 -8 20.75
vertex 0.375 8 20.75
endloop
endfacet
facet normal 0 0 1
outer loop
vertex -0.375 -8 20.75
vertex 0.375 8 20.75
vertex -0.375 8 20.75
endloop
endfacet
facet normal 0 0 1
outer loop
vertex -19.275 8 20.75
vertex -20 8 20.75
vertex -20 -8 20.75
endloop
endfacet
facet normal 0 0 1
outer loop
vertex -19.275 8 20.75
vertex -20 -8 20.75
vertex -19.275 -8 20.75
endloop
endfacet
facet normal 0 0 1
outer loop
vertex 19.275 -8 20.75
vertex 20 -8 20.75
vertex 20 8 20.75
endloop
endfacet
facet normal 0 0 1
outer loop
vertex 19.275 -8 20.75
vertex 20 8 20.75
vertex 19.275 8 20.75
endloop
endfacet
facet normal 0 0 -1
outer loop
vertex -19.275 -8 20
vertex -19.275 8 20
vertex -0.375 8 20
endloop
endfacet
facet normal 0 0 -1
outer loop
vertex -19.275 -8 20
vertex -0.375 8 20
vertex -0.375 -8 20
endloop
endfacet
facet normal 0 0 -1
outer loop
vertex 19.275 8 20
vertex 19.275 -8 20
vertex 0.375 -8 20
endloop
endfacet
facet normal 0 0 -1
outer loop
vertex 19.275 8 20
vertex 0.375 -8 20
vertex 0.375 8 20
endloop
endfacet
facet normal 0 0 -1
outer loop
vertex -0.375 8 20
vertex 0.375 8 20
vertex 0.375 -8 20
endloop
endfacet
facet normal 0 0 -1
outer loop
vertex -0.375 8 20
vertex 0.375 -8 20
vertex -0.375 -8 20
endloop
endfacet
facet normal 0 0 -1
outer loop
vertex -19.275 -8 20
vertex -20 -8 20
vertex -20 8 20
endloop
endfacet
facet normal 0 0 -1
outer loop
vertex -19.275 -8 20
vertex -20 8 20
vertex -19.275 8 20
endloop
endfacet
facet normal 0 0 -1
outer loop
vertex 19.275 8 20
vertex 20 8 20
vertex 20 -8 20
endloop
endfacet
facet normal 0 0 -1
outer loop
vertex 19.275 8 20
vertex 20 -8 20
vertex 19.275 -8 20
endloop
endfacet
facet normal 0 -1 0
outer loop
vertex -19.275 -8 20.01359
vertex -19.275 -8 20
vertex -0.375 -8 20
endloop
endfacet
facet normal 0 -1 0
outer loop
vertex -19.275 -8 20.01359
vertex -0.375 -8 20
vertex -0.375 -8 20.36797
endloop
endfacet
facet normal 0 -1 0
outer loop
vertex -0.375 -8 20.75
vertex -19.275 -8 20.75
vertex -19.275 -8 20.01359
endloop
endfacet
facet normal 0 -1 0
outer loop
vertex -0.375 -8 20.75
vertex -19.275 -8 20.01359
vertex -0.375 -8 20.36797
endloop
endfacet
facet normal 0 -1 0
outer loop
vertex 0.375 -8 20
vertex 19.275 -8 20
vertex 19.275 -8 20.73641
endloop
endfacet
facet normal 0 -1 0
outer loop
vertex 0.375 -8 20
vertex 19.275 -8 20.73641
vertex 0.375 -8 20.38203
endloop
endfacet
facet normal 0 -1 0
outer loop
vertex 19.275 -8 20.73641
vertex 19.275 -8 20.75
vertex 0.375 -8 20.75
endloop
endfacet
facet normal 0 -1 0
outer loop
vertex 19.275 -8 20.73641
vertex 0.375 -8 20.75
vertex 0.375 -8 20.38203
endloop
endfacet
facet normal 0 -1 0
outer loop
vertex 0.375 -8 20.38203
vertex -0.375 -8 20.36797
vertex -0.375 -8 20
endloop
endfacet
facet normal 0 -1 0
outer loop
vertex 0.375 -8 20.38203
vertex -0.375 -8 20
vertex 0.375 -8 20
endloop
endfacet
facet normal 0 -1 0
outer loop
vertex 0.375 -8 20.38203
vertex 0.375 -8 20.75
vertex -0.375 -8 20.75
endloop
endfacet
facet normal 0 -1 0
outer loop
vertex 0.375 -8 20.38203
vertex -0.375 -8 20.75
vertex -0.375 -8 20.36797
endloop
endfacet
facet normal 0 -1 0
outer loop
vertex -19.275 -8 20.01359
vertex -20 -8 20
vertex -19.275 -8 20
endloop
endfacet
facet normal 0 -1 0
outer loop
vertex -19.275 -8 20.75
vertex -20 -8 20.75
vertex -20 -8 20
endloop
endfacet
facet normal 0 -1 0
outer loop
vertex -19.275 -8 20.75
vertex -20 -8 20
vertex -19.275 -8 20.01359
endloop
endfacet
facet normal 0 -1 0
outer loop
vertex 19.275 -8 20
vertex 20 -8 20
vertex 20 -8 20.75
endloop
endfacet
facet normal 0 -1 0
outer loop
vertex 19.275 -8 20
vertex 20 -8 20.75
vertex 19.275 -8 20.73641
endloop
endfacet
facet normal 0 -1 0
outer loop
vertex 19.275 -8 20.73641
vertex 20 -8 20.75
vertex 19.275 -8 20.75
endloop
endfacet
facet normal 1 0 0
outer loop
vertex 20 8 20
vertex 20 8 20.75
vertex 20 -8 20
endloop
endfacet
facet normal 1 0 0
outer loop
vertex 20 -8 20
vertex 20 8 20.75
vertex 20 -8 20.75
endloop
endfacet
facet normal -1 0 0
outer loop
vertex -20 -8 20
vertex -20 -8 20.75
vertex -20 8 20
endloop
endfacet
facet normal -1 0 0
outer loop
vertex -20 8 20
vertex -20 -8 20.75
vertex -20 8 20.75
endloop
endfacet
facet normal 0 1 0
outer loop
vertex -19.275 8 20.73641
vertex -0.375 8 20.38203
vertex -0.375 8 20
endloop
endfacet
facet normal 0 1 0
outer loop
vertex -19.275 8 20.73641
vertex -0.375 8 20
vertex -19.275 8 20
endloop
endfacet
facet normal 0 1 0
outer loop
vertex -19.275 8 20.73641
vertex -19.275 8 20.75
vertex -0.375 8 20.75
endloop
endfacet
facet normal 0 1 0
outer loop
vertex -19.275 8 20.73641
vertex -0.375 8 20.75
vertex -0.375 8 20.38203
endloop
endfacet
facet normal 0 1 0
outer loop
vertex 19.275 8 20.01359
vertex 19.275 8 20
vertex 0.375 8 20
endloop
endfacet
facet normal 0 1 0
outer loop
vertex 19.275 8 20.01359
vertex 0.375 8 20
vertex 0.375 8 20.36797
endloop
endfacet
facet normal 0 1 0
outer loop
vertex 19.275 8 20.75
vertex 19.275 8 20.01359
vertex 0.375 8 20.36797
endloop
endfacet
facet normal 0 1 0
outer loop
vertex 19.275 8 20.75
vertex 0.375 8 20.36797
vertex 0.375 8 20.75
endloop
endfacet
facet normal 0 1 0
outer loop
vertex 0.375 8 20.36797
vertex 0.375 8 20
vertex -0.375 8 20
endloop
endfacet
facet normal 0 1 0
outer loop
vertex 0.375 8 20.36797
vertex -0.375 8 20
vertex -0.375 8 20.38203
endloop
endfacet
facet normal 0 1 0
outer loop
vertex -0.375 8 20.75
vertex 0.375 8 20.75
vertex 0.375 8 20.36797
endloop
endfacet
facet normal 0 1 0
outer loop
vertex -0.375 8 20.75
vertex 0.375 8 20.36797
vertex -0.375 8 20.38203
endloop
endfacet
facet normal 0 1 0
outer loop
vertex -19.275 8 20.73641
vertex -19.275 8 20
vertex -20 8 20
endloop
endfacet
facet normal 0 1 0
outer loop
vertex -19.275 8 20.73641
vertex -20 8 20
vertex -20 8 20.75
endloop
endfacet
facet normal 0 1 0
outer loop
vertex -19.275 8 20.73641
vertex -20 8 20.75
vertex -19.275 8 20.75
endloop
endfacet
facet normal 0 1 0
outer loop
vertex 19.275 8 20.01359
vertex 20 8 20
vertex 19.275 8 20
endloop
endfacet
facet normal 0 1 0
outer loop
vertex 19.275 8 20.75
vertex 20 8 20.75
vertex 20 8 20
endloop
endfacet
facet normal 0 1 0
outer loop
vertex 19.275 8 20.75
vertex 20 8 20
vertex 19.275 8 20.01359
endloop
endfacet
facet normal -1 0 0
outer loop
vertex 19.275 -8 0.75
vertex 19.275 -8 20
vertex 19.275 7.4 0.75
endloop
endfacet
facet normal -1 0 0
outer loop
vertex 19.275 7.4 0.75
vertex 19.275 -8 20
vertex 19.275 8 20
endloop
endfacet
facet normal -1 0 0
outer loop
vertex 19.275 7.4 0.75
vertex 19.275 8 20
vertex 19.275 8 0.75
endloop
endfacet
facet normal -1 0 0
outer loop
vertex 19.275 -8 0.75
vertex 19.275 7.4 0.75
vertex 19.275 8 0
endloop
endfacet
facet normal -1 0 0
outer loop
vertex 19.275 -8 0.75
vertex 19.275 8 0
vertex 19.275 -8 0
endloop
endfacet
facet normal -1 0 0
outer loop
vertex 19.275 7.4 0.75
vertex 19.275 8 0.75
vertex 19.275 8 0
endloop
endfacet
facet normal 1 0 0
outer loop
vertex 20.025 8 0.75
vertex 20.025 8 20
vertex 20.025 -7.4 0.75
endloop
endfacet
facet normal 1 0 0
outer loop
vertex 20.025 -7.4 0.75
vertex 20.025 8 20
vertex 20.025 -8 20
endloop
endfacet
facet normal 1 0 0
outer loop
vertex 20.025 -7.4 0.75
vertex 20.025 -8 20
vertex 20.025 -8 0.75
endloop
endfacet
facet normal 1 0 0
outer loop
vertex 20.025 8 0.75
vertex 20.025 -7.4 0.75
vertex 20.025 -8 0
endloop
endfacet
facet normal 1 0 0
outer loop
vertex 20.025 8 0.75
vertex 20.025 -8 0
vertex 20.025 8 0
endloop
endfacet
facet normal 1 0 0
outer loop
vertex 20.025 -7.4 0.75
vertex 20.025 -8 0.75
vertex 20.025 -8 0
endloop
endfacet
facet normal 0 -1 0
outer loop
vertex 20.025 -8 0.75
vertex 20.025 -8 20
vertex 19.30312 -8 0.75
endloop
endfacet
facet normal 0 -1 0
outer loop
vertex 19.30312 -8 0.75
vertex 20.025 -8 20
vertex 19.275 -8 20
endloop
endfacet
facet normal 0 -1 0
outer loop
vertex 19.30312 -8 0.75
vertex 19.275 -8 20
vertex 19.275 -8 0.75
endloop
endfacet
facet normal 0 -1 0
outer loop
vertex 20.025 -8 0.75
vertex 19.30312 -8 0.75
vertex 19.275 -8 0
endloop
endfacet
facet normal 0 -1 0
outer loop
vertex 20.025 -8 0.75
vertex 19.275 -8 0
vertex 20.025 -8 0
endloop
endfacet
facet normal 0 -1 0
outer loop
vertex 19.30312 -8 0.75
vertex 19.275 -8 0.75
vertex 19.275 -8 0
endloop
endfacet
facet normal 0 1 0
outer loop
vertex 19.275 8 0.75
vertex 19.275 8 20
vertex 19.99688 8 0.75
endloop
endfacet
facet normal 0 1 0
outer loop
vertex 19.99688 8 0.75
vertex 19.275 8 20
vertex 20.025 8 20
endloop
endfacet
facet normal 0 1 0
outer loop
vertex 19.99688 8 0.75
vertex 20.025 8 20
vertex 20.025 8 0.75
endloop
endfacet
facet normal 0 1 0
outer loop
vertex 19.275 8 0.75
vertex 19.99688 8 0.75
vertex 20.025 8 0
endloop
endfacet
facet normal 0 1 0
outer loop
vertex 19.275 8 0.75
vertex 20.025 8 0
vertex 19.275 8 0
endloop
endfacet
facet normal 0 1 0
outer loop
vertex 19.99688 8 0.75
vertex 20.025 8 0.75
vertex 20.025 8 0
endloop
endfacet
facet normal 0 0 1
outer loop
vertex 20.025 8 20
vertex 19.275 8 20
vertex 19.275 -8 20
endloop
endfacet
facet normal 0 0 1
outer loop
vertex 20.025 8 20
vertex 19.275 -8 20
vertex 20.025 -8 20
endloop
endfacet
facet normal 0 0 -1
outer loop
vertex 20.025 -8 0
vertex 19.275 -8 0
vertex 19.275 8 0
endloop
endfacet
facet normal 0 0 -1
outer loop
vertex 20.025 -8 0
vertex 19.275 8 0
vertex 20.025 8 0
endloop
endfacet
facet normal -1 0 0
outer loop
vertex -20.025 -8 0.75
vertex -20.025 -8 20
vertex -20.025 7.4 0.75
endloop
endfacet
facet normal -1 0 0
outer loop
vertex -20.025 7.4 0.75
vertex -20.025 -8 20
vertex -20.025 8 20
endloop
endfacet
facet normal -1 0 0
outer loop
vertex -20.025 7.4 0.75
vertex -20.025 8 20
vertex -20.025 8 0.75
endloop
endfacet
facet normal -1 0 0
outer loop
vertex -20.025 -8 0.75
vertex -20.025 7.4 0.75
vertex -20.025 8 0
endloop
endfacet
facet normal -1 0 0
outer loop
vertex -20.025 -8 0.75
vertex -20.025 8 0
vertex -20.025 -8 0
endloop
endfacet
facet normal -1 0 0
outer loop
vertex -20.025 7.4 0.75
vertex -20.025 8 0.75
vertex -20.025 8 0
endloop
endfacet
facet normal 1 0 0
outer loop
vertex -19.275 8 0.75
vertex -19.275 8 20
vertex -19.275 -7.4 0.75
endloop
endfacet
facet normal 1 0 0
outer loop
vertex -19.275 -7.4 0.75
vertex -19.275 8 20
vertex -19.275 -8 20
endloop
endfacet
facet normal 1 0 0
outer loop
vertex -19.275 -7.4 0.75
vertex -19.275 -8 20
vertex -19.275 -8 0.75
endloop
endfacet
facet normal 1 0 0
outer loop
vertex -19.275 8 0.75
vertex -19.275 -7.4 0.75
vertex -19.275 -8 0
endloop
endfacet
facet normal 1 0 0
outer loop
vertex -19.275 8 0.75
vertex -19.275 -8 0
vertex -19.275 8 0
endloop
endfacet
facet normal 1 0 0
outer loop
vertex -19.275 -7.4 0.75
vertex -19.275 -8 0.75
vertex -19.275 -8 0
endloop
endfacet
facet normal 0 -1 0
outer loop
vertex -19.275 -8 0.75
vertex -19.275 -8 20
vertex -19.99687 -8 0.75
endloop
endfacet
facet normal 0 -1 0
outer loop
vertex -19.99687 -8 0.75
vertex -19.275 -8 20
vertex -20.025 -8 20
endloop
endfacet
facet normal 0 -1 0
outer loop
vertex -19.99687 -8 0.75
vertex -20.025 -8 20
vertex -20.025 -8 0.75
endloop
endfacet
facet normal 0 -1 0
outer loop
vertex -19.275 -8 0.75
vertex -19.99687 -8 0.75
vertex -20.025 -8 0
endloop
endfacet
facet normal 0 -1 0
outer loop
vertex -19.275 -8 0.75
vertex -20.025 -8 0
vertex -19.275 -8 0
endloop
endfacet
facet normal 0 -1 0
outer loop
vertex -19.99687 -8 0.75
vertex -20.025 -8 0.75
vertex -20.025 -8 0
endloop
endfacet
facet normal 0 1 0
outer loop
vertex -20.025 8 0.75
vertex -20.025 8 20
vertex -19.30312 8 0.75
endloop
endfacet
facet normal 0 1 0
outer loop
vertex -19.30312 8 0.75
vertex -20.025 8 20
vertex -19.275 8 20
endloop
endfacet
facet normal 0 1 0
outer loop
vertex -19.30312 8 0.75
vertex -19.275 8 20
vertex -19.275 8 0.75
endloop
endfacet
facet normal 0 1 0
outer loop
vertex -20.025 8 0.75
vertex -19.30312 8 0.75
vertex -19.275 8 0
endloop
endfacet
facet normal 0 1 0
outer loop
vertex -20.025 8 0.75
vertex -19.275 8 0
vertex -20.025 8 0
endloop
endfacet
facet normal 0 1 0
outer loop
vertex -19.30312 8 0.75
vertex -19.275 8 0.75
vertex -19.275 8 0
endloop
endfacet
facet normal 0 0 1
outer loop
vertex -19.275 8 20
vertex -20.025 8 20
vertex -20.025 -8 20
endloop
endfacet
facet normal 0 0 1
outer loop
vertex -19.275 8 20
vertex -20.025 -8 20
vertex -19.275 -8 20
endloop
endfacet
facet normal 0 0 -1
outer loop
vertex -19.275 -8 0
vertex -20.025 -8 0
vertex -20.025 8 0
endloop
endfacet
facet normal 0 0 -1
outer loop
vertex -19.275 -8 0
vertex -20.025 8 0
vertex -19.275 8 0
endloop
endfacet
facet normal -1 0 0
outer loop
vertex -0.375 -8 0.75
vertex -0.375 -8 20
vertex -0.375 7.4 0.75
endloop
endfacet
facet normal -1 0 0
outer loop
vertex -0.375 7.4 0.75
vertex -0.375 -8 20
vertex -0.375 8 20
endloop
endfacet
facet normal -1 0 0
outer loop
vertex -0.375 7.4 0.75
vertex -0.375 8 20
vertex -0.375 8 0.75
endloop
endfacet
facet normal -1 0 0
outer loop
vertex -0.375 -8 0.75
vertex -0.375 7.4 0.75
vertex -0.375 8 0
endloop
endfacet
facet normal -1 0 0
outer loop
vertex -0.375 -8 0.75
vertex -0.375 8 0
vertex -0.375 -8 0
endloop
endfacet
facet normal -1 0 0
outer loop
vertex -0.375 7.4 0.75
vertex -0.375 8 0.75
vertex -0.375 8 0
endloop
endfacet
facet normal 1 0 0
outer loop
vertex 0.375 8 0.75
vertex 0.375 8 20
vertex 0.375 -7.4 0.75
endloop
endfacet
facet normal 1 0 0
outer loop
vertex 0.375 -7.4 0.75
vertex 0.375 8 20
vertex 0.375 -8 20
endloop
endfacet
facet normal 1 0 0
outer loop
vertex 0.375 -7.4 0.75
vertex 0.375 -8 20
vertex 0.375 -8 0.75
endloop
endfacet
facet normal 1 0 0
outer loop
vertex 0.375 8 0.75
vertex 0.375 -7.4 0.75
vertex 0.375 -8 0
endloop
endfacet
facet normal 1 0 0
outer loop
vertex 0.375 8 0.75
vertex 0.375 -8 0
vertex 0.375 8 0
endloop
endfacet
facet normal 1 0 0
outer loop
vertex 0.375 -7.4 0.75
vertex 0.375 -8 0.75
vertex 0.375 -8 0
endloop
endfacet
facet normal 0 -1 0
outer loop
vertex 0.375 -8 0.75
vertex 0.375 -8 20
vertex -0.34688 -8 0.75
endloop
endfacet
facet normal 0 -1 0
outer loop
vertex -0.34688 -8 0.75
vertex 0.375 -8 20
vertex -0.375 -8 20
endloop
endfacet
facet normal 0 -1 0
outer loop
vertex -0.34688 -8 0.75
vertex -0.375 -8 20
vertex -0.375 -8 0.75
endloop
endfacet
facet normal 0 -1 0
outer loop
vertex 0.375 -8 0.75
vertex -0.34688 -8 0.75
vertex -0.375 -8 0
endloop
endfacet
facet normal 0 -1 0
outer loop
vertex 0.375 -8 0.75
vertex -0.375 -8 0
vertex 0.375 -8 0
endloop
endfacet
facet normal 0 -1 0
outer loop
vertex -0.34688 -8 0.75
vertex -0.375 -8 0.75
vertex -0.375 -8 0
endloop
endfacet
facet normal 0 1 0
outer loop
vertex -0.375 8 0.75
vertex -0.375 8 20
vertex 0.34688 8 0.75
endloop
endfacet
facet normal 0 1 0
outer loop
vertex 0.34688 8 0.75
vertex -0.375 8 20
vertex 0.375 8 20
endloop
endfacet
facet normal 0 1 0
outer loop
vertex 0.34688 8 0.75
vertex 0.375 8 20
vertex 0.375 8 0.75
endloop
endfacet
facet normal 0 1 0
outer loop
vertex -0.375 8 0.75
vertex 0.34688 8 0.75
vertex 0.375 8 0
endloop
endfacet
facet normal 0 1 0
outer loop
vertex -0.375 8 0.75
vertex 0.375 8 0
vertex -0.375 8 0
endloop
endfacet
facet normal 0 1 0
outer loop
vertex 0.34688 8 0.75
vertex 0.375 8 0.75
vertex 0.375 8 0
endloop
endfacet
facet normal 0 0 -1
outer loop
vertex 0.375 -8 0
vertex -0.375 -8 0
vertex -0.375 8 0
endloop
endfacet
facet normal 0 0 -1
outer loop
vertex 0.375 -8 0
vertex -0.375 8 0
vertex 0.375 8 0
endloop
endfacet
facet normal 0 0 1
outer loop
vertex 0.375 8 20
vertex -0.375 8 20
vertex -0.375 -8 20
endloop
endfacet
facet normal 0 0 1
outer loop
vertex 0.375 8 20
vertex -0.375 -8 20
vertex 0.375 -8 20
endloop
endfacet
facet normal 0 -1 0
outer loop
vertex -0.375 8 10.18047
vertex -18.55422 8 0.75
vertex -0.375 8 0.75
endloop
endfacet
facet normal 0 -1 0
outer loop
vertex -18.55422 8 0.75
vertex -0.375 8 10.18047
vertex -0.375 8 20
endloop
endfacet
facet normal 0 -1 0
outer loop
vertex -18.55422 8 0.75
vertex -0.375 8 20
vertex -19.275 8 20
endloop
endfacet
facet normal 0 -1 0
outer loop
vertex -18.55422 8 0.75
vertex -19.275 8 20
vertex -19.275 8 0.75
endloop
endfacet
facet normal 0 -1 0
outer loop
vertex -18.55422 8 0.75
vertex -19.275 8 0.37609
vertex -19.275 8 0
endloop
endfacet
facet normal 0 -1 0
outer loop
vertex -18.55422 8 0.75
vertex -19.275 8 0
vertex -0.375 8 0
endloop
endfacet
facet normal 0 -1 0
outer loop
vertex -18.55422 8 0.75
vertex -0.375 8 0
vertex -0.375 8 0.75
endloop
endfacet
facet normal 0 -1 0
outer loop
vertex -19.275 8 0.37609
vertex -18.55422 8 0.75
vertex -19.275 8 0.75
endloop
endfacet
facet normal 0 -1 0
outer loop
vertex -0.375 8 20.75
vertex -19.275 8 20.75
vertex -19.275 8 20
endloop
endfacet
facet normal 0 -1 0
outer loop
vertex -0.375 8 20.75
vertex -19.275 8 20
vertex -0.375 8 20
endloop
endfacet
facet normal 0 -1 0
outer loop
vertex -20 8 0.75
vertex -19.275 8 0.75
vertex -19.275 8 20
endloop
endfacet
facet normal 0 -1 0
outer loop
vertex -20 8 0.75
vertex -19.275 8 20
vertex -20 8 20
endloop
endfacet
facet normal 0 -1 0
outer loop
vertex -19.275 8 0.37609
vertex -20 8 0
vertex -19.275 8 0
endloop
endfacet
facet normal 0 -1 0
outer loop
vertex -19.275 8 0.37609
vertex -19.275 8 0.75
vertex -20 8 0.75
endloop
endfacet
facet normal 0 -1 0
outer loop
vertex -19.275 8 0.37609
vertex -20 8 0.75
vertex -20 8 0
endloop
endfacet
facet normal 0 -1 0
outer loop
vertex -19.275 8 20.75
vertex -20 8 20.75
vertex -20 8 20
endloop
endfacet
facet normal 0 -1 0
outer loop
vertex -19.275 8 20.75
vertex -20 8 20
vertex -19.275 8 20
endloop
endfacet
facet normal 0 -1 0
outer loop
vertex 0.375 8 10.56953
vertex 0.375 8 0.75
vertex 19.275 8 0.75
endloop
endfacet
facet normal 0 -1 0
outer loop
vertex 0.375 8 10.56953
vertex 19.275 8 0.75
vertex 19.275 8 20
endloop
endfacet
facet normal 0 -1 0
outer loop
vertex 0.375 8 10.56953
vertex 19.275 8 20
vertex 18.55422 8 20
endloop
endfacet
facet normal 0 -1 0
outer loop
vertex 0.375 8 10.56953
vertex 18.55422 8 20
vertex 0.375 8 20
endloop
endfacet
facet normal 0 -1 0
outer loop
vertex 0.375 8 0
vertex 19.275 8 0
vertex 19.275 8 0.75
endloop
endfacet
facet normal 0 -1 0
outer loop
vertex 0.375 8 0
vertex 19.275 8 0.75
vertex 0.375 8 0.75
endloop
endfacet
facet normal 0 -1 0
outer loop
vertex 19.275 8 20.37391
vertex 18.55422 8 20
vertex 19.275 8 20
endloop
endfacet
facet normal 0 -1 0
outer loop
vertex 0.375 8 20
vertex 18.55422 8 20
vertex 19.275 8 20.37391
endloop
endfacet
facet normal 0 -1 0
outer loop
vertex 0.375 8 20
vertex 19.275 8 20.37391
vertex 19.275 8 20.75
endloop
endfacet
facet normal 0 -1 0
outer loop
vertex 0.375 8 20
vertex 19.275 8 20.75
vertex 0.375 8 20.75
endloop
endfacet
facet normal 0 -1 0
outer loop
vertex 19.275 8 20
vertex 19.275 8 0.75
vertex 20 8 0.75
endloop
endfacet
facet normal 0 -1 0
outer loop
vertex 19.275 8 20
vertex 20 8 0.75
vertex 20 8 20
endloop
endfacet
facet normal 0 -1 0
outer loop
vertex 19.275 8 0
vertex 20 8 0
vertex 20 8 0.75
endloop
endfacet
facet normal 0 -1 0
outer loop
vertex 19.275 8 0
vertex 20 8 0.75
vertex 19.275 8 0.75
endloop
endfacet
facet normal 0 -1 0
outer loop
vertex 20 8 20.75
vertex 19.275 8 20.37391
vertex 19.275 8 20
endloop
endfacet
facet normal 0 -1 0
outer loop
vertex 20 8 20.75
vertex 19.275 8 20
vertex 20 8 20
endloop
endfacet
facet normal 0 -1 0
outer loop
vertex 19.275 8 20.37391
vertex 20 8 20.75
vertex 19.275 8 20.75
endloop
endfacet
facet normal 0 -1 0
outer loop
vertex 0.375 8 10.56953
vertex -0.375 8 10.18047
vertex -0.375 8 0.75
endloop
endfacet
facet normal 0 -1 0
outer loop
vertex 0.375 8 10.56953
vertex -0.375 8 0.75
vertex 0.375 8 0.75
endloop
endfacet
facet normal 0 -1 0
outer loop
vertex 0.375 8 10.56953
vertex 0.375 8 20
vertex -0.375 8 20
endloop
endfacet
facet normal 0 -1 0
outer loop
vertex 0.375 8 10.56953
vertex -0.375 8 20
vertex -0.375 8 10.18047
endloop
endfacet
facet normal 0 -1 0
outer loop
vertex -0.375 8 0.75
vertex -0.375 8 0
vertex 0.375 8 0
endloop
endfacet
facet normal 0 -1 0
outer loop
vertex -0.375 8 0.75
vertex 0.375 8 0
vertex 0.375 8 0.75
endloop
endfacet
facet normal 0 -1 0
outer loop
vertex -0.375 8 20
vertex 0.375 8 20
vertex 0.375 8 20.75
endloop
endfacet
facet normal 0 -1 0
outer loop
vertex -0.375 8 20
vertex 0.375 8 20.75
vertex -0.375 8 20.75
endloop
endfacet
facet normal 0 1 0
outer loop
vertex -18.55422 8.75 20
vertex -0.375 8.75 10.56953
vertex -0.375 8.75 0.75
endloop
endfacet
facet normal 0 1 0
outer loop
vertex -18.55422 8.75 20
vertex -0.375 8.75 0.75
vertex -19.275 8.75 0.75
endloop
endfacet
facet normal 0 1 0
outer loop
vertex -18.55422 8.75 20
vertex -19.275 8.75 0.75
vertex -19.275 8.75 20
endloop
endfacet
facet normal 0 1 0
outer loop
vertex -0.375 8.75 10.56953
vertex -18.55422 8.75 20
vertex -0.375 8.75 20
endloop
endfacet
facet normal 0 1 0
outer loop
vertex -19.275 8.75 0
vertex -19.275 8.75 0.75
vertex -0.375 8.75 0.75
endloop
endfacet
facet normal 0 1 0
outer loop
vertex -19.275 8.75 0
vertex -0.375 8.75 0.75
vertex -0.375 8.75 0
endloop
endfacet
facet normal 0 1 0
outer loop
vertex -19.275 8.75 20.37391
vertex -18.55422 8.75 20
vertex -19.275 8.75 20
endloop
endfacet
facet normal 0 1 0
outer loop
vertex -0.375 8.75 20.75
vertex -0.375 8.75 20
vertex -18.55422 8.75 20
endloop
endfacet
facet normal 0 1 0
outer loop
vertex -0.375 8.75 20.75
vertex -18.55422 8.75 20
vertex -19.275 8.75 20.37391
endloop
endfacet
facet normal 0 1 0
outer loop
vertex -0.375 8.75 20.75
vertex -19.275 8.75 20.37391
vertex -19.275 8.75 20.75
endloop
endfacet
facet normal 0 1 0
outer loop
vertex -19.275 8.75 20
vertex -19.275 8.75 0.75
vertex -20 8.75 0.75
endloop
endfacet
facet normal 0 1 0
outer loop
vertex -19.275 8.75 20
vertex -20 8.75 0.75
vertex -20 8.75 20
endloop
endfacet
facet normal 0 1 0
outer loop
vertex -19.275 8.75 0
vertex -20 8.75 0
vertex -20 8.75 0.75
endloop
endfacet
facet normal 0 1 0
outer loop
vertex -19.275 8.75 0
vertex -20 8.75 0.75
vertex -19.275 8.75 0.75
endloop
endfacet
facet normal 0 1 0
outer loop
vertex -20 8.75 20.75
vertex -19.275 8.75 20.37391
vertex -19.275 8.75 20
endloop
endfacet
facet normal 0 1 0
outer loop
vertex -20 8.75 20.75
vertex -19.275 8.75 20
vertex -20 8.75 20
endloop
endfacet
facet normal 0 1 0
outer loop
vertex -19.275 8.75 20.75
vertex -19.275 8.75 20.37391
vertex -20 8.75 20.75
endloop
endfacet
facet normal 0 1 0
outer loop
vertex 0.375 8.75 10.18047
vertex 18.55422 8.75 0.75
vertex 0.375 8.75 0.75
endloop
endfacet
facet normal 0 1 0
outer loop
vertex 18.55422 8.75 0.75
vertex 0.375 8.75 10.18047
vertex 0.375 8.75 20
endloop
endfacet
facet normal 0 1 0
outer loop
vertex 18.55422 8.75 0.75
vertex 0.375 8.75 20
vertex 19.275 8.75 20
endloop
endfacet
facet normal 0 1 0
outer loop
vertex 18.55422 8.75 0.75
vertex 19.275 8.75 20
vertex 19.275 8.75 0.75
endloop
endfacet
facet normal 0 1 0
outer loop
vertex 18.55422 8.75 0.75
vertex 19.275 8.75 0.37609
vertex 19.275 8.75 0
endloop
endfacet
facet normal 0 1 0
outer loop
vertex 18.55422 8.75 0.75
vertex 19.275 8.75 0
vertex 0.375 8.75 0
endloop
endfacet
facet normal 0 1 0
outer loop
vertex 18.55422 8.75 0.75
vertex 0.375 8.75 0
vertex 0.375 8.75 0.75
endloop
endfacet
facet normal 0 1 0
outer loop
vertex 19.275 8.75 0.75
vertex 19.275 8.75 0.37609
vertex 18.55422 8.75 0.75
endloop
endfacet
facet normal 0 1 0
outer loop
vertex 0.375 8.75 20.75
vertex 19.275 8.75 20.75
vertex 19.275 8.75 20
endloop
endfacet
facet normal 0 1 0
outer loop
vertex 0.375 8.75 20.75
vertex 19.275 8.75 20
vertex 0.375 8.75 20
endloop
endfacet
facet normal 0 1 0
outer loop
vertex 19.275 8.75 20
vertex 20 8.75 20
vertex 20 8.75 0.75
endloop
endfacet
facet normal 0 1 0
outer loop
vertex 19.275 8.75 20
vertex 20 8.75 0.75
vertex 19.275 8.75 0.75
endloop
endfacet
facet normal 0 1 0
outer loop
vertex 19.275 8.75 0.37609
vertex 20 8.75 0
vertex 19.275 8.75 0
endloop
endfacet
facet normal 0 1 0
outer loop
vertex 19.275 8.75 0.75
vertex 20 8.75 0.75
vertex 20 8.75 0
endloop
endfacet
facet normal 0 1 0
outer loop
vertex 19.275 8.75 0.75
vertex 20 8.75 0
vertex 19.275 8.75 0.37609
endloop
endfacet
facet normal 0 1 0
outer loop
vertex 19.275 8.75 20.75
vertex 20 8.75 20.75
vertex 20 8.75 20
endloop
endfacet
facet normal 0 1 0
outer loop
vertex 19.275 8.75 20.75
vertex 20 8.75 20
vertex 19.275 8.75 20
endloop
endfacet
facet normal 0 1 0
outer loop
vertex 0.375 8.75 10.18047
vertex 0.375 8.75 0.75
vertex -0.375 8.75 0.75
endloop
endfacet
facet normal 0 1 0
outer loop
vertex 0.375 8.75 10.18047
vertex -0.375 8.75 0.75
vertex -0.375 8.75 10.56953
endloop
endfacet
facet normal 0 1 0
outer loop
vertex 0.375 8.75 10.18047
vertex -0.375 8.75 10.56953
vertex -0.375 8.75 20
endloop
endfacet
facet normal 0 1 0
outer loop
vertex 0.375 8.75 10.18047
vertex -0.375 8.75 20
vertex 0.375 8.75 20
endloop
endfacet
facet normal 0 1 0
outer loop
vertex 0.375 8.75 0
vertex -0.375 8.75 0
vertex -0.375 8.75 0.75
endloop
endfacet
facet normal 0 1 0
outer loop
vertex 0.375 8.75 0
vertex -0.375 8.75 0.75
vertex 0.375 8.75 0.75
endloop
endfacet
facet normal 0 1 0
outer loop
vertex 0.375 8.75 20.75
vertex 0.375 8.75 20
vertex -0.375 8.75 20
endloop
endfacet
facet normal 0 1 0
outer loop
vertex 0.375 8.75 20.75
vertex -0.375 8.75 20
vertex -0.375 8.75 20.75
endloop
endfacet
facet normal 0 0 1
outer loop
vertex -19.275 8 20.75
vertex -0.375 8 20.75
vertex -0.375 8.75 20.75
endloop
endfacet
facet normal 0 0 1
outer loop
vertex -19.275 8 20.75
vertex -0.375 8.75 20.75
vertex -19.275 8.75 20.75
endloop
endfacet
facet normal 0 0 1
outer loop
vertex -19.275 8.75 20.75
vertex -20 8.75 20.75
vertex -20 8 20.75
endloop
endfacet
facet normal 0 0 1
outer loop
vertex -19.275 8.75 20.75
vertex -20 8 20.75
vertex -19.275 8 20.75
endloop
endfacet
facet normal 0 0 1
outer loop
vertex 0.375 8 20.75
vertex 19.275 8 20.75
vertex 19.275 8.75 20.75
endloop
endfacet
facet normal 0 0 1
outer loop
vertex 0.375 8 20.75
vertex 19.275 8.75 20.75
vertex 0.375 8.75 20.75
endloop
endfacet
facet normal 0 0 1
outer loop
vertex 19.275 8.75 20.75
vertex 19.275 8 20.75
vertex 20 8 20.75
endloop
endfacet
facet normal 0 0 1
outer loop
vertex 19.275 8.75 20.75
vertex 20 8 20.75
vertex 20 8.75 20.75
endloop
endfacet
facet normal 0 0 1
outer loop
vertex 0.375 8 20.75
vertex 0.375 8.75 20.75
vertex -0.375 8.75 20.75
endloop
endfacet
facet normal 0 0 1
outer loop
vertex 0.375 8 20.75
vertex -0.375 8.75 20.75
vertex -0.375 8 20.75
endloop
endfacet
facet normal 1 0 0
outer loop
vertex 20 8.75 20
vertex 20 8.72289 20
vertex 20 8.02711 0.75
endloop
endfacet
facet normal 1 0 0
outer loop
vertex 20 8.75 20
vertex 20 8.02711 0.75
vertex 20 8.75 0.75
endloop
endfacet
facet normal 1 0 0
outer loop
vertex 20 8.72289 20
vertex 20 8 20
vertex 20 8 0.75
endloop
endfacet
facet normal 1 0 0
outer loop
vertex 20 8.72289 20
vertex 20 8 0.75
vertex 20 8.02711 0.75
endloop
endfacet
facet normal 1 0 0
outer loop
vertex 20 8.75 0.75
vertex 20 8.02711 0.75
vertex 20 8 0
endloop
endfacet
facet normal 1 0 0
outer loop
vertex 20 8.75 0.75
vertex 20 8 0
vertex 20 8.75 0
endloop
endfacet
facet normal 1 0 0
outer loop
vertex 20 8.02711 0.75
vertex 20 8 0.75
vertex 20 8 0
endloop
endfacet
facet normal 1 0 0
outer loop
vertex 20 8.75 20
vertex 20 8.75 20.75
vertex 20 8.72289 20
endloop
endfacet
facet normal 1 0 0
outer loop
vertex 20 8.72289 20
vertex 20 8.75 20.75
vertex 20 8 20.75
endloop
endfacet
facet normal 1 0 0
outer loop
vertex 20 8.72289 20
vertex 20 8 20.75
vertex 20 8 20
endloop
endfacet
facet normal 0 0 -1
outer loop
vertex -19.275 8 0
vertex -19.275 8.75 0
vertex -0.375 8.75 0
endloop
endfacet
facet normal 0 0 -1
outer loop
vertex -19.275 8 0
vertex -0.375 8.75 0
vertex -0.375 8 0
endloop
endfacet
facet normal 0 0 -1
outer loop
vertex -19.275 8 0
vertex -20 8 0
vertex -20 8.75 0
endloop
endfacet
facet normal 0 0 -1
outer loop
vertex -19.275 8 0
vertex -20 8.75 0
vertex -19.275 8.75 0
endloop
endfacet
facet normal 0 0 -1
outer loop
vertex 0.375 8.75 0
vertex 19.275 8.75 0
vertex 19.275 8 0
endloop
endfacet
facet normal 0 0 -1
outer loop
vertex 0.375 8.75 0
vertex 19.275 8 0
vertex 0.375 8 0
endloop
endfacet
facet normal 0 0 -1
outer loop
vertex 19.275 8.75 0
vertex 20 8.75 0
vertex 20 8 0
endloop
endfacet
facet normal 0 0 -1
outer loop
vertex 19.275 8.75 0
vertex 20 8 0
vertex 19.275 8 0
endloop
endfacet
facet normal 0 0 -1
outer loop
vertex -0.375 8 0
vertex -0.375 8.75 0
vertex 0.375 8.75 0
endloop
endfacet
facet normal 0 0 -1
outer loop
vertex -0.375 8 0
vertex 0.375 8.75 0
vertex 0.375 8 0
endloop
endfacet
facet normal -1 0 0
outer loop
vertex -20 8 20
vertex -20 8.02711 20
vertex -20 8.72289 0.75
endloop
endfacet
facet normal -1 0 0
outer loop
vertex -20 8 20
vertex -20 8.72289 0.75
vertex -20 8 0.75
endloop
endfacet
facet normal -1 0 0
outer loop
vertex -20 8.02711 20
vertex -20 8.75 20
vertex -20 8.75 0.75
endloop
endfacet
facet normal -1 0 0
outer loop
vertex -20 8.02711 20
vertex -20 8.75 0.75
vertex -20 8.72289 0.75
endloop
endfacet
facet normal -1 0 0
outer loop
vertex -20 8 0.75
vertex -20 8.72289 0.75
vertex -20 8.75 0
endloop
endfacet
facet normal -1 0 0
outer loop
vertex -20 8 0.75
vertex -20 8.75 0
vertex -20 8 0
endloop
endfacet
facet normal -1 0 0
outer loop
vertex -20 8.72289 0.75
vertex -20 8.75 0.75
vertex -20 8.75 0
endloop
endfacet
facet normal -1 0 0
outer loop
vertex -20 8 20
vertex -20 8 20.75
vertex -20 8.02711 20
endloop
endfacet
facet normal -1 0 0
outer loop
vertex -20 8.02711 20
vertex -20 8 20.75
vertex -20 8.75 20.75
endloop
endfacet
facet normal -1 0 0
outer loop
vertex -20 8.02711 20
vertex -20 8.75 20.75
vertex -20 8.75 20
endloop
endfacet
endsolid JSxCAD
