<?xml version="1.0" encoding="UTF-8"?>
<!-- Generated by jsxcad -->
<!DOCTYPE svg PUBLIC "-//W3C//DTD SVG 1.1 Tiny//EN" "http://www.w3.org/Graphics/SVG/1.1/DTD/svg11-tiny.dtd">
<svg baseProfile="tiny" height="0.75 mm" width="40 mm" viewBox="0 0 40 0.75" version="1.1" stroke="black" stroke-width=".1" fill="none" xmlns="http://www.w3.org/2000/svg">
<path d="M19.625 0.24761 L19.625 0.675 L19.625 0.74609 L19.625 0.75 L9.8125 0.75 L0 0.75 L0 0.4875 L0 0.375 L0 0.225 L0.3125 0.225 L0.625 0.225 L0.625 0.075 L0.625 0 L10.125 0 L19.625 0 L19.625 0.075 L19.625 0.225 z"/>
<path d="M20.375 0.24761 L20.375 0.225 L20.375 0.075 L20.375 0 L29.875 0 L39.375 0 L39.375 0.075 L39.375 0.225 L39.6875 0.225 L40 0.225 L40 0.375 L40 0.4875 L40 0.75 L30.1875 0.75 L20.375 0.75 L20.375 0.74609 L20.375 0.675 z"/>
</svg>