solid JSxCAD
facet normal 0 0 1
outer loop
vertex 19.275 8 0.75
vertex -20 8 0.75
vertex -20 -8 0.75
endloop
endfacet
facet normal 0 0 1
outer loop
vertex 19.275 8 0.75
vertex -20 -8 0.75
vertex 19.275 -8 0.75
endloop
endfacet
facet normal 0 0 -1
outer loop
vertex -19.275 8 0
vertex 19.275 8 0
vertex 19.275 -8 0
endloop
endfacet
facet normal 0 0 -1
outer loop
vertex -19.275 8 0
vertex 19.275 -8 0
vertex -19.275 -8 0
endloop
endfacet
facet normal 0 -1 0
outer loop
vertex 19.275 -8 0.73641
vertex -4 -8 0.3
vertex 19.275 -8 0.3
endloop
endfacet
facet normal 0 -1 0
outer loop
vertex 19.275 -8 0.73641
vertex 19.275 -8 0.75
vertex -20 -8 0.75
endloop
endfacet
facet normal 0 -1 0
outer loop
vertex 19.275 -8 0.73641
vertex -20 -8 0.75
vertex -20 -8 0.3
endloop
endfacet
facet normal 0 -1 0
outer loop
vertex 19.275 -8 0.73641
vertex -20 -8 0.3
vertex -4 -8 0.3
endloop
endfacet
facet normal 0 -1 0
outer loop
vertex -19.275 -8 0.01359
vertex -19.275 -8 0
vertex 19.275 -8 0
endloop
endfacet
facet normal 0 -1 0
outer loop
vertex -19.275 -8 0.01359
vertex 19.275 -8 0
vertex 19.275 -8 0.3
endloop
endfacet
facet normal 0 -1 0
outer loop
vertex -19.275 -8 0.01359
vertex 19.275 -8 0.3
vertex -4 -8 0.3
endloop
endfacet
facet normal 0 -1 0
outer loop
vertex -19.275 -8 0.01359
vertex -4 -8 0.3
vertex -19.275 -8 0.3
endloop
endfacet
facet normal 0 1 0
outer loop
vertex -20 8 0.3
vertex -20 8 0.75
vertex 4 8 0.3
endloop
endfacet
facet normal 0 1 0
outer loop
vertex -20 8 0.75
vertex 19.275 8 0.75
vertex 19.275 8 0.3
endloop
endfacet
facet normal 0 1 0
outer loop
vertex -20 8 0.75
vertex 19.275 8 0.3
vertex 4 8 0.3
endloop
endfacet
facet normal 0 1 0
outer loop
vertex 4 8 0.3
vertex 19.275 8 0.01359
vertex 19.275 8 0
endloop
endfacet
facet normal 0 1 0
outer loop
vertex 4 8 0.3
vertex 19.275 8 0
vertex -19.275 8 0
endloop
endfacet
facet normal 0 1 0
outer loop
vertex 4 8 0.3
vertex -19.275 8 0
vertex -19.275 8 0.3
endloop
endfacet
facet normal 0 1 0
outer loop
vertex 19.275 8 0.3
vertex 19.275 8 0.01359
vertex 4 8 0.3
endloop
endfacet
facet normal 0 0 -1
outer loop
vertex -20 -8 0.3
vertex -20 8 0.3
vertex -19.275 8 0.3
endloop
endfacet
facet normal 0 0 -1
outer loop
vertex -20 -8 0.3
vertex -19.275 8 0.3
vertex -19.275 -8 0.3
endloop
endfacet
facet normal -1 0 0
outer loop
vertex -19.275 -8 0
vertex -19.275 8 0.3
vertex -19.275 8 0
endloop
endfacet
facet normal -1 0 0
outer loop
vertex -19.275 -8 0.3
vertex -19.275 8 0.3
vertex -19.275 -8 0
endloop
endfacet
facet normal 1 0 0
outer loop
vertex 19.275 -8 0.3
vertex 19.275 -8 0
vertex 19.275 8 0
endloop
endfacet
facet normal 1 0 0
outer loop
vertex 19.275 -8 0.3
vertex 19.275 8 0
vertex 19.275 7.76 0.3
endloop
endfacet
facet normal 1 0 0
outer loop
vertex 19.275 7.76 0.3
vertex 19.275 8 0
vertex 19.275 8 0.3
endloop
endfacet
facet normal -1 0 0
outer loop
vertex -20 -8 0.3
vertex -20 -8 0.75
vertex -20 1.6 0.3
endloop
endfacet
facet normal -1 0 0
outer loop
vertex -20 1.6 0.3
vertex -20 -8 0.75
vertex -20 8 0.75
endloop
endfacet
facet normal -1 0 0
outer loop
vertex -20 1.6 0.3
vertex -20 8 0.75
vertex -20 8 0.3
endloop
endfacet
facet normal 1 0 0
outer loop
vertex 19.275 -8 0.75
vertex 19.275 -8 0.3
vertex 19.275 7.76 0.3
endloop
endfacet
facet normal 1 0 0
outer loop
vertex 19.275 -8 0.75
vertex 19.275 7.76 0.3
vertex 19.275 7.4 0.75
endloop
endfacet
facet normal 1 0 0
outer loop
vertex 19.275 7.76 0.3
vertex 19.275 8 0.3
vertex 19.275 8 0.75
endloop
endfacet
facet normal 1 0 0
outer loop
vertex 19.275 7.76 0.3
vertex 19.275 8 0.75
vertex 19.275 7.4 0.75
endloop
endfacet
facet normal 0 0 -1
outer loop
vertex 19.275 -8 20
vertex -20 -8 20
vertex -20 8 20
endloop
endfacet
facet normal 0 0 -1
outer loop
vertex 19.275 -8 20
vertex -20 8 20
vertex 19.275 8 20
endloop
endfacet
facet normal 0 0 -1
outer loop
vertex 19.275 -8 20
vertex 19.275 8 20
vertex 20 8 20
endloop
endfacet
facet normal 0 0 -1
outer loop
vertex 19.275 -8 20
vertex 20 8 20
vertex 20 -8 20
endloop
endfacet
facet normal 0 0 1
outer loop
vertex 19.275 8 20.75
vertex -20 8 20.75
vertex -20 -8 20.75
endloop
endfacet
facet normal 0 0 1
outer loop
vertex 19.275 8 20.75
vertex -20 -8 20.75
vertex 19.275 -8 20.75
endloop
endfacet
facet normal 0 0 1
outer loop
vertex 19.275 8 20.75
vertex 19.275 -8 20.75
vertex 20 -8 20.75
endloop
endfacet
facet normal 0 0 1
outer loop
vertex 19.275 8 20.75
vertex 20 -8 20.75
vertex 20 8 20.75
endloop
endfacet
facet normal 0 -1 0
outer loop
vertex 19.275 -8 20.73641
vertex -20 -8 20
vertex 19.275 -8 20
endloop
endfacet
facet normal 0 -1 0
outer loop
vertex 19.275 -8 20.73641
vertex 19.275 -8 20.75
vertex -20 -8 20.75
endloop
endfacet
facet normal 0 -1 0
outer loop
vertex 19.275 -8 20.73641
vertex -20 -8 20.75
vertex -20 -8 20
endloop
endfacet
facet normal 0 -1 0
outer loop
vertex 20 -8 20.75
vertex 19.275 -8 20.73641
vertex 19.275 -8 20
endloop
endfacet
facet normal 0 -1 0
outer loop
vertex 20 -8 20.75
vertex 19.275 -8 20
vertex 20 -8 20
endloop
endfacet
facet normal 0 -1 0
outer loop
vertex 19.275 -8 20.73641
vertex 20 -8 20.75
vertex 19.275 -8 20.75
endloop
endfacet
facet normal 0 1 0
outer loop
vertex -20 8 20.75
vertex 19.275 8 20.01359
vertex 19.275 8 20
endloop
endfacet
facet normal 0 1 0
outer loop
vertex -20 8 20.75
vertex 19.275 8 20
vertex -20 8 20
endloop
endfacet
facet normal 0 1 0
outer loop
vertex 19.275 8 20.01359
vertex -20 8 20.75
vertex 19.275 8 20.75
endloop
endfacet
facet normal 0 1 0
outer loop
vertex 19.275 8 20.01359
vertex 20 8 20
vertex 19.275 8 20
endloop
endfacet
facet normal 0 1 0
outer loop
vertex 19.275 8 20.01359
vertex 19.275 8 20.75
vertex 20 8 20.75
endloop
endfacet
facet normal 0 1 0
outer loop
vertex 19.275 8 20.01359
vertex 20 8 20.75
vertex 20 8 20
endloop
endfacet
facet normal 1 0 0
outer loop
vertex 20 8 20
vertex 20 8 20.75
vertex 20 -8 20
endloop
endfacet
facet normal 1 0 0
outer loop
vertex 20 -8 20
vertex 20 8 20.75
vertex 20 -8 20.75
endloop
endfacet
facet normal -1 0 0
outer loop
vertex -20 -8 20
vertex -20 -8 20.75
vertex -20 8 20
endloop
endfacet
facet normal -1 0 0
outer loop
vertex -20 8 20
vertex -20 -8 20.75
vertex -20 8 20.75
endloop
endfacet
facet normal -1 0 0
outer loop
vertex 19.275 -8 0.75
vertex 19.275 -8 20
vertex 19.275 7.4 0.75
endloop
endfacet
facet normal -1 0 0
outer loop
vertex 19.275 7.4 0.75
vertex 19.275 -8 20
vertex 19.275 8 20
endloop
endfacet
facet normal -1 0 0
outer loop
vertex 19.275 7.4 0.75
vertex 19.275 8 20
vertex 19.275 8 0.75
endloop
endfacet
facet normal -1 0 0
outer loop
vertex 19.275 7.76 0.3
vertex 19.275 8 0
vertex 19.275 -8 0
endloop
endfacet
facet normal -1 0 0
outer loop
vertex 19.275 7.76 0.3
vertex 19.275 -8 0
vertex 19.275 -8 0.3
endloop
endfacet
facet normal -1 0 0
outer loop
vertex 19.275 8 0.3
vertex 19.275 8 0
vertex 19.275 7.76 0.3
endloop
endfacet
facet normal -1 0 0
outer loop
vertex 19.275 7.4 0.75
vertex 19.275 7.76 0.3
vertex 19.275 -8 0.3
endloop
endfacet
facet normal -1 0 0
outer loop
vertex 19.275 7.4 0.75
vertex 19.275 -8 0.3
vertex 19.275 -8 0.75
endloop
endfacet
facet normal -1 0 0
outer loop
vertex 19.275 8 0.75
vertex 19.275 8 0.3
vertex 19.275 7.76 0.3
endloop
endfacet
facet normal -1 0 0
outer loop
vertex 19.275 8 0.75
vertex 19.275 7.76 0.3
vertex 19.275 7.4 0.75
endloop
endfacet
facet normal 1 0 0
outer loop
vertex 20.025 8 0.75
vertex 20.025 8 20
vertex 20.025 -7.4 0.75
endloop
endfacet
facet normal 1 0 0
outer loop
vertex 20.025 -7.4 0.75
vertex 20.025 8 20
vertex 20.025 -8 20
endloop
endfacet
facet normal 1 0 0
outer loop
vertex 20.025 -7.4 0.75
vertex 20.025 -8 20
vertex 20.025 -8 0.75
endloop
endfacet
facet normal 1 0 0
outer loop
vertex 20.025 -7.76 0.3
vertex 20.025 -8 0
vertex 20.025 8 0
endloop
endfacet
facet normal 1 0 0
outer loop
vertex 20.025 -7.76 0.3
vertex 20.025 8 0
vertex 20.025 8 0.3
endloop
endfacet
facet normal 1 0 0
outer loop
vertex 20.025 -8 0.3
vertex 20.025 -8 0
vertex 20.025 -7.76 0.3
endloop
endfacet
facet normal 1 0 0
outer loop
vertex 20.025 -7.4 0.75
vertex 20.025 -7.76 0.3
vertex 20.025 8 0.3
endloop
endfacet
facet normal 1 0 0
outer loop
vertex 20.025 -7.4 0.75
vertex 20.025 8 0.3
vertex 20.025 8 0.75
endloop
endfacet
facet normal 1 0 0
outer loop
vertex 20.025 -8 0.75
vertex 20.025 -8 0.3
vertex 20.025 -7.76 0.3
endloop
endfacet
facet normal 1 0 0
outer loop
vertex 20.025 -8 0.75
vertex 20.025 -7.76 0.3
vertex 20.025 -7.4 0.75
endloop
endfacet
facet normal 0 -1 0
outer loop
vertex 20.025 -8 0.75
vertex 20.025 -8 20
vertex 19.30312 -8 0.75
endloop
endfacet
facet normal 0 -1 0
outer loop
vertex 19.30312 -8 0.75
vertex 20.025 -8 20
vertex 19.275 -8 20
endloop
endfacet
facet normal 0 -1 0
outer loop
vertex 19.30312 -8 0.75
vertex 19.275 -8 20
vertex 19.275 -8 0.75
endloop
endfacet
facet normal 0 -1 0
outer loop
vertex 19.28625 -8 0.3
vertex 19.275 -8 0
vertex 20.025 -8 0
endloop
endfacet
facet normal 0 -1 0
outer loop
vertex 19.28625 -8 0.3
vertex 20.025 -8 0
vertex 20.025 -8 0.3
endloop
endfacet
facet normal 0 -1 0
outer loop
vertex 19.275 -8 0.3
vertex 19.275 -8 0
vertex 19.28625 -8 0.3
endloop
endfacet
facet normal 0 -1 0
outer loop
vertex 19.30312 -8 0.75
vertex 19.28625 -8 0.3
vertex 20.025 -8 0.3
endloop
endfacet
facet normal 0 -1 0
outer loop
vertex 19.30312 -8 0.75
vertex 20.025 -8 0.3
vertex 20.025 -8 0.75
endloop
endfacet
facet normal 0 -1 0
outer loop
vertex 19.275 -8 0.75
vertex 19.275 -8 0.3
vertex 19.28625 -8 0.3
endloop
endfacet
facet normal 0 -1 0
outer loop
vertex 19.275 -8 0.75
vertex 19.28625 -8 0.3
vertex 19.30312 -8 0.75
endloop
endfacet
facet normal 0 1 0
outer loop
vertex 19.275 8 0.75
vertex 19.275 8 20
vertex 19.99688 8 0.75
endloop
endfacet
facet normal 0 1 0
outer loop
vertex 19.99688 8 0.75
vertex 19.275 8 20
vertex 20.025 8 20
endloop
endfacet
facet normal 0 1 0
outer loop
vertex 19.99688 8 0.75
vertex 20.025 8 20
vertex 20.025 8 0.75
endloop
endfacet
facet normal 0 1 0
outer loop
vertex 20.01375 8 0.3
vertex 20.025 8 0
vertex 19.275 8 0
endloop
endfacet
facet normal 0 1 0
outer loop
vertex 20.01375 8 0.3
vertex 19.275 8 0
vertex 19.275 8 0.3
endloop
endfacet
facet normal 0 1 0
outer loop
vertex 20.025 8 0.3
vertex 20.025 8 0
vertex 20.01375 8 0.3
endloop
endfacet
facet normal 0 1 0
outer loop
vertex 19.99688 8 0.75
vertex 20.01375 8 0.3
vertex 19.275 8 0.3
endloop
endfacet
facet normal 0 1 0
outer loop
vertex 19.99688 8 0.75
vertex 19.275 8 0.3
vertex 19.275 8 0.75
endloop
endfacet
facet normal 0 1 0
outer loop
vertex 20.025 8 0.75
vertex 20.025 8 0.3
vertex 20.01375 8 0.3
endloop
endfacet
facet normal 0 1 0
outer loop
vertex 20.025 8 0.75
vertex 20.01375 8 0.3
vertex 19.99688 8 0.75
endloop
endfacet
facet normal 0 0 1
outer loop
vertex 20.025 8 20
vertex 19.275 8 20
vertex 19.275 -8 20
endloop
endfacet
facet normal 0 0 1
outer loop
vertex 20.025 8 20
vertex 19.275 -8 20
vertex 20.025 -8 20
endloop
endfacet
facet normal 0 0 -1
outer loop
vertex 20.025 -8 0
vertex 19.275 -8 0
vertex 19.275 8 0
endloop
endfacet
facet normal 0 0 -1
outer loop
vertex 20.025 -8 0
vertex 19.275 8 0
vertex 20.025 8 0
endloop
endfacet
facet normal 0 0 1
outer loop
vertex -19.275 8 0.3
vertex -20.025 8 0.3
vertex -20.025 -8 0.3
endloop
endfacet
facet normal 0 0 1
outer loop
vertex -19.275 8 0.3
vertex -20.025 -8 0.3
vertex -19.275 -8 0.3
endloop
endfacet
facet normal 0 0 -1
outer loop
vertex -19.275 -8 0
vertex -20.025 -8 0
vertex -20.025 8 0
endloop
endfacet
facet normal 0 0 -1
outer loop
vertex -19.275 -8 0
vertex -20.025 8 0
vertex -19.275 8 0
endloop
endfacet
facet normal 1 0 0
outer loop
vertex -19.275 8 0
vertex -19.275 8 0.3
vertex -19.275 -8 0
endloop
endfacet
facet normal 1 0 0
outer loop
vertex -19.275 -8 0
vertex -19.275 8 0.3
vertex -19.275 -8 0.3
endloop
endfacet
facet normal -1 0 0
outer loop
vertex -20.025 -8 0
vertex -20.025 -8 0.3
vertex -20.025 8 0
endloop
endfacet
facet normal -1 0 0
outer loop
vertex -20.025 8 0
vertex -20.025 -8 0.3
vertex -20.025 8 0.3
endloop
endfacet
facet normal 0 -1 0
outer loop
vertex -19.275 -8 0
vertex -19.275 -8 0.3
vertex -20.025 -8 0
endloop
endfacet
facet normal 0 -1 0
outer loop
vertex -20.025 -8 0
vertex -19.275 -8 0.3
vertex -20.025 -8 0.3
endloop
endfacet
facet normal 0 1 0
outer loop
vertex -20.025 8 0
vertex -20.025 8 0.3
vertex -19.275 8 0
endloop
endfacet
facet normal 0 1 0
outer loop
vertex -19.275 8 0
vertex -20.025 8 0.3
vertex -19.275 8 0.3
endloop
endfacet
endsolid JSxCAD
