<svg viewBox="-250 -250 500 500" width="500" height="500" xmlns="http://www.w3.org/2000/svg"><path d="M-39.78750592032229,35.5469989641074L-44.39785800452068,33.08342219107537L-42.379410579590136,37.764000106341555zM-39.78750592032229,35.5469989641074L-42.379410579590136,37.764000106341555L-38.775973435636146,37.9002238186386zM-39.78750592032229,35.5469989641074L-40.79498242708696,33.20298725857143L-44.39785800452068,33.08342219107537zM-37.187141139667624,33.32271503256991L-39.78750592032229,35.5469989641074L-38.775973435636146,37.9002238186386zM-39.78750592032229,35.5469989641074L-37.187141139667624,33.32271503256991L-40.79498242708696,33.20298725857143zM-44.39785800452068,33.08342219107537L-40.79498242708696,33.20298725857143L-95.33052367386232,-93.67191462484512zM-37.187141139667624,33.32271503256991L-95.33052367386232,-93.67191462484512L-40.79498242708696,33.20298725857143z" style="fill:rgb(49,63,205)"/><path d="M-40.79498242708696,33.20298725857143L-118.75531885003278,103.66512354180968L-38.775973435636146,37.9002238186386z" style="fill:rgb(217,127,217)"/><path d="M-44.39785800452068,33.08342219107537L-95.33052367386232,-93.67191462484512L-98.90812635684499,-93.31767009878007zM-37.187141139667624,33.32271503256991L-38.775973435636146,37.9002238186386L65.28703920772692,41.83420754000492z" style="fill:rgb(49,63,205)"/><path d="M-40.79498242708696,33.20298725857143L-95.33052367386232,-93.67191462484512L-117.85946937591504,96.11829925603723z" style="fill:rgb(217,127,217)"/><path d="M-93.69907570097274,-101.42609006453326L-97.27764967372313,-101.04306889682266L-101.14286090060496,-98.49978228620279z" style="fill:rgb(82,237,172)"/><path d="M-40.79498242708696,33.20298725857143L-117.85946937591504,96.11829925603723L-118.75531885003278,103.66512354180968z" style="fill:rgb(217,127,217)"/><path d="M-97.56679422229686,-98.87443502224154L-101.14286090060496,-98.49978228620279L-98.90812635684499,-93.31767009878007zM-97.56679422229686,-98.87443502224154L-98.90812635684499,-93.31767009878007L-95.33052367386232,-93.67191462484512z" style="fill:rgb(49,63,205)"/><path d="M-93.69907570097274,-101.42609006453326L-101.14286090060496,-98.49978228620279L-97.56679422229686,-98.87443502224154z" style="fill:rgb(82,237,172)"/><path d="M-124.62812152723818,98.37117551045063L-124.7656413241448,98.35641819508984L-122.43819047669247,103.2512953250877zM-37.187141139667624,33.32271503256991L65.28703920772692,41.83420754000492L63.272782263933834,36.65651538189602zM-121.08472832197153,98.75141873472553L-124.62812152723818,98.37117551045063L-122.43819047669247,103.2512953250877zM-121.08472832197153,98.75141873472553L-122.43819047669247,103.2512953250877L-118.75531885003278,103.66512354180968z" style="fill:rgb(49,63,205)"/><path d="M-117.85946937591504,96.11829925603723L-121.08472832197153,98.75141873472553L-118.75531885003278,103.66512354180968z" style="fill:rgb(217,127,217)"/><path d="M-37.187141139667624,33.32271503256991L8.5682286747161,-103.95992834949683L-95.33052367386232,-93.67191462484512z" style="fill:rgb(49,63,205)"/><path d="M-95.33052367386232,-93.67191462484512L-99.03095143190316,-93.3055007644873L-187.86317476123983,-34.341438397647245zM-97.56679422229686,-98.87443502224154L-101.14286090060496,-98.49978228620279L-190.34017953057824,-39.80836734959883z" style="fill:rgb(82,237,172)"/><path d="M37.21671838348905,-30.31977606501069L-37.187141139667624,33.32271503256991L63.272782263933834,36.65651538189602z" style="fill:rgb(49,63,205)"/><path d="M-117.85946937591504,96.11829925603723L-95.33052367386232,-93.67191462484512L-184.2494214897271,-34.48684841890803z" style="fill:rgb(217,127,217)"/><path d="M-97.56679422229686,-98.87443502224154L10.21317376870982,-112.54800383084884L-93.69907570097274,-101.42609006453326z" style="fill:rgb(82,237,172)"/><path d="M-124.62812152723818,98.37117551045063L-187.86317476123983,-34.341438397647245L-124.7656413241448,98.35641819508984z" style="fill:rgb(49,63,205)"/><path d="M-40.79498242708696,33.20298725857143L-121.08472832197153,98.75141873472553L-17.466590369638624,109.87073058936609z" style="fill:rgb(82,237,172)"/><path d="M6.312802264000334,-109.7575584489574L-97.56679422229686,-98.87443502224154L-95.33052367386232,-93.67191462484512zM-121.08472832197153,98.75141873472553L-184.2494214897271,-34.48684841890803L-124.62812152723818,98.37117551045063z" style="fill:rgb(49,63,205)"/><path d="M-117.85946937591504,96.11829925603723L-184.2494214897271,-34.48684841890803L-121.08472832197153,98.75141873472553z" style="fill:rgb(217,127,217)"/><path d="M-40.79498242708696,33.20298725857143L-17.466590369638624,109.87073058936609L63.272782263933834,36.65651538189602z" style="fill:rgb(82,237,172)"/><path d="M-37.187141139667624,33.32271503256991L37.21671838348905,-30.31977606501069L8.5682286747161,-103.95992834949683z" style="fill:rgb(49,63,205)"/><path d="M-95.33052367386232,-93.67191462484512L-187.86317476123983,-34.341438397647245L-184.2494214897271,-34.48684841890803z" style="fill:rgb(82,237,172)"/><path d="M60.46786998871475,39.19995748795039L65.28703920772692,41.83420754000492L63.272782263933834,36.65651538189602z" style="fill:rgb(217,127,217)"/><path d="M65.28703920772692,41.83420754000492L67.85088576923161,36.80844156986123L63.272782263933834,36.65651538189602zM65.28703920772692,41.83420754000492L69.86400630996908,42.00723457641888L67.85088576923161,36.80844156986123z" style="fill:rgb(49,63,205)"/><path d="M-97.56679422229686,-98.87443502224154L-190.34017953057824,-39.80836734959883L-186.849643006229,-39.971651963384524z" style="fill:rgb(82,237,172)"/><path d="M-124.62812152723818,98.37117551045063L-184.2494214897271,-34.48684841890803L-187.86317476123983,-34.341438397647245zM-118.79741810926272,103.57625862053487L-118.75531885003278,103.66512354180968L-15.10645479001673,115.31169418758591zM-17.466590369638624,109.87073058936609L-121.08472832197153,98.75141873472553L-118.79741810926272,103.57625862053487zM40.70200850246356,-33.3009594291071L63.272782263933834,36.65651538189602L67.85088576923161,36.80844156986123zM40.70200850246356,-33.3009594291071L37.21671838348905,-30.31977606501069L63.272782263933834,36.65651538189602zM6.312802264000334,-109.7575584489574L-95.33052367386232,-93.67191462484512L8.5682286747161,-103.95992834949683z" style="fill:rgb(49,63,205)"/><path d="M-97.56679422229686,-98.87443502224154L6.312802264000334,-109.7575584489574L10.21317376870982,-112.54800383084884z" style="fill:rgb(82,237,172)"/><path d="M-184.29646201825528,-34.58611228695344L-187.7432619394362,-34.34626358669431L-184.2494214897271,-34.48684841890803zM-186.849643006229,-39.971651963384524L-190.34017953057824,-39.80836734959883L-187.7432619394362,-34.34626358669431zM-186.849643006229,-39.971651963384524L-187.7432619394362,-34.34626358669431L-184.29646201825528,-34.58611228695344z" style="fill:rgb(49,63,205)"/><path d="M60.46786998871475,39.19995748795039L-15.10645479001673,115.31169418758591L65.28703920772692,41.83420754000492zM67.85088576923161,36.80844156986123L-10.510824891088452,115.82808506909831L69.86400630996908,42.00723457641888z" style="fill:rgb(217,127,217)"/><path d="M40.70200850246356,-33.3009594291071L8.5682286747161,-103.95992834949683L37.21671838348905,-30.31977606501069zM69.86400630996908,42.00723457641888L197.20779341339036,41.10120465226304L67.85088576923161,36.80844156986123z" style="fill:rgb(49,63,205)"/><path d="M-97.56679422229686,-98.87443502224154L-186.849643006229,-39.971651963384524L-84.54143888225217,-44.75754584279073z" style="fill:rgb(82,237,172)"/><path d="M-118.79741810926272,103.57625862053487L-15.10645479001673,115.31169418758591L-16.263043521318505,112.64525570995642zM-17.466590369638624,109.87073058936609L-118.79741810926272,103.57625862053487L-16.263043521318505,112.64525570995642zM40.70200850246356,-33.3009594291071L13.164054540426534,-104.41500486662585L8.5682286747161,-103.95992834949683z" style="fill:rgb(49,63,205)"/><path d="M67.85088576923161,36.80844156986123L13.164054540426534,-104.41500486662585L-9.60334312870539,107.38606750816933z" style="fill:rgb(217,127,217)"/><path d="M40.70200850246356,-33.3009594291071L67.85088576923161,36.80844156986123L197.20779341339036,41.10120465226304z" style="fill:rgb(49,63,205)"/><path d="M-97.56679422229686,-98.87443502224154L-84.54143888225217,-44.75754584279073L6.312802264000334,-109.7575584489574z" style="fill:rgb(82,237,172)"/><path d="M60.46786998871475,39.19995748795039L-17.466590369638624,109.87073058936609L-15.10645479001673,115.31169418758591zM67.85088576923161,36.80844156986123L-9.60334312870539,107.38606750816933L-10.510824891088452,115.82808506909831z" style="fill:rgb(217,127,217)"/><path d="M10.908813293388803,-110.2390673977333L10.21317376870982,-112.54800383084884L6.312802264000334,-109.7575584489574zM10.908813293388803,-110.2390673977333L14.808835611112865,-113.03988573092519L10.21317376870982,-112.54800383084884z" style="fill:rgb(82,237,172)"/><path d="M8.5682286747161,-103.95992834949683L10.908813293388803,-110.2390673977333L6.312802264000334,-109.7575584489574zM8.5682286747161,-103.95992834949683L13.164054540426534,-104.41500486662585L10.908813293388803,-110.2390673977333zM-184.29646201825528,-34.58611228695344L-184.2494214897271,-34.48684841890803L-81.87317126117738,-38.60624850868974zM-84.54143888225217,-44.75754584279073L-186.849643006229,-39.971651963384524L-184.29646201825528,-34.58611228695344zM69.86400630996908,42.00723457641888L199.1565968616734,46.894994095271066L197.20779341339036,41.10120465226304zM-17.295071605883205,109.88914577940223L-17.466590369638624,109.87073058936609L-15.10645479001673,115.31169418758591zM-12.87124037709052,110.36385979999703L-17.295071605883205,109.88914577940223L-15.10645479001673,115.31169418758591zM-12.87124037709052,110.36385979999703L-15.10645479001673,115.31169418758591L-10.510824891088452,115.82808506909831z" style="fill:rgb(49,63,205)"/><path d="M-9.60334312870539,107.38606750816933L-12.87124037709052,110.36385979999703L-10.510824891088452,115.82808506909831z" style="fill:rgb(217,127,217)"/><path d="M13.164054540426534,-104.41500486662585L8.5682286747161,-103.95992834949683L-81.87317126117738,-38.60624850868974zM-84.54143888225217,-44.75754584279073L10.908813293388803,-110.2390673977333L6.312802264000334,-109.7575584489574z" style="fill:rgb(82,237,172)"/><path d="M40.70200850246356,-33.3009594291071L138.3303967022992,-116.80890804416268L13.164054540426534,-104.41500486662585z" style="fill:rgb(49,63,205)"/><path d="M-9.60334312870539,107.38606750816933L13.164054540426534,-104.41500486662585L-77.30369774777252,-38.7901141654079z" style="fill:rgb(217,127,217)"/><path d="M10.908813293388803,-110.2390673977333L145.5217089626807,-127.03031816774416L14.808835611112865,-113.03988573092519z" style="fill:rgb(82,237,172)"/><path d="M-17.295071605883205,109.88914577940223L-81.87317126117738,-38.60624850868974L-17.466590369638624,109.87073058936609z" style="fill:rgb(49,63,205)"/><path d="M118.28581979989049,124.43838705622633L67.85088576923161,36.80844156986123L-12.87124037709052,110.36385979999703z" style="fill:rgb(82,237,172)"/><path d="M13.164054540426534,-104.41500486662585L141.69527795087566,-123.941134844626L10.908813293388803,-110.2390673977333zM-12.87124037709052,110.36385979999703L-77.30369774777252,-38.7901141654079L-17.295071605883205,109.88914577940223zM-184.29646201825528,-34.58611228695344L-81.87317126117738,-38.60624850868974L-83.18067004614538,-41.62057095483587z" style="fill:rgb(49,63,205)"/><path d="M-9.60334312870539,107.38606750816933L-77.30369774777252,-38.7901141654079L-12.87124037709052,110.36385979999703z" style="fill:rgb(217,127,217)"/><path d="M-84.54143888225217,-44.75754584279073L-184.29646201825528,-34.58611228695344L-83.18067004614538,-41.62057095483587zM40.70200850246356,-33.3009594291071L197.20779341339036,41.10120465226304L143.90839412532893,-117.36123777148555z" style="fill:rgb(49,63,205)"/><path d="M118.28581979989049,124.43838705622633L197.20779341339036,41.10120465226304L67.85088576923161,36.80844156986123zM13.164054540426534,-104.41500486662585L-81.87317126117738,-38.60624850868974L-77.30369774777252,-38.7901141654079z" style="fill:rgb(82,237,172)"/><path d="M197.20779341339036,41.10120465226304L199.1565968616734,46.894994095271066L204.71810458225443,47.10524073504577z" style="fill:rgb(49,63,205)"/><path d="M206.1359971584653,37.711080653294744L204.71810458225443,47.10524073504577L208.06498092513223,43.51539025381824zM194.49260249454133,43.968334615210445L199.1565968616734,46.894994095271066L197.20779341339036,41.10120465226304z" style="fill:rgb(217,127,217)"/><path d="M-84.54143888225217,-44.75754584279073L-79.97379650485733,-44.971216398691716L10.908813293388803,-110.2390673977333z" style="fill:rgb(82,237,172)"/><path d="M197.20779341339036,41.10120465226304L204.71810458225443,47.10524073504577L202.7735574971144,41.28590401707492z" style="fill:rgb(49,63,205)"/><path d="M206.1359971584653,37.711080653294744L202.895555414553,41.156228138787526L204.71810458225443,47.10524073504577zM202.895555414553,41.156228138787526L202.7735574971144,41.28590401707492L204.71810458225443,47.10524073504577z" style="fill:rgb(217,127,217)"/><path d="M-17.295071605883205,109.88914577940223L-77.30369774777252,-38.7901141654079L-81.87317126117738,-38.60624850868974zM-10.510824891088452,115.82808506909831L118.32808331340604,124.54972323782638L-11.711875786244512,113.04779810495278zM118.32808331340604,124.54972323782638L-12.87124037709052,110.36385979999703L-11.711875786244512,113.04779810495278zM40.70200850246356,-33.3009594291071L143.90839412532893,-117.36123777148555L138.3303967022992,-116.80890804416268zM143.90839412532893,-117.36123777148555L197.20779341339036,41.10120465226304L202.7735574971144,41.28590401707492zM13.164054540426534,-104.41500486662585L138.3303967022992,-116.80890804416268L142.80646593375883,-120.63761225636433z" style="fill:rgb(49,63,205)"/><path d="M153.3741223049784,-121.04404289462313L202.895555414553,41.156228138787526L206.1359971584653,37.711080653294744zM153.23728651544155,-120.93170823375632L202.7735574971144,41.28590401707492L202.895555414553,41.156228138787526z" style="fill:rgb(217,127,217)"/><path d="M10.908813293388803,-110.2390673977333L141.69527795087566,-123.941134844626L145.5217089626807,-127.03031816774416z" style="fill:rgb(82,237,172)"/><path d="M13.164054540426534,-104.41500486662585L142.80646593375883,-120.63761225636433L141.69527795087566,-123.941134844626zM-78.66212947194539,-41.93493214211827L-83.18067004614538,-41.62057095483587L-81.87317126117738,-38.60624850868974zM-78.66212947194539,-41.93493214211827L-84.54143888225217,-44.75754584279073L-83.18067004614538,-41.62057095483587zM-78.66212947194539,-41.93493214211827L-81.87317126117738,-38.60624850868974L-77.30369774777252,-38.7901141654079zM-78.66212947194539,-41.93493214211827L-79.97379650485733,-44.971216398691716L-84.54143888225217,-44.75754584279073z" style="fill:rgb(49,63,205)"/><path d="M194.49260249454133,43.968334615210445L120.61546527938654,130.56217420590454L199.1565968616734,46.894994095271066zM202.96630226969918,41.29230350730263L126.51056246963869,131.22458055750946L204.91080727155668,47.11252531274991zM153.3741223049784,-121.04404289462313L153.23728651544155,-120.93170823375632L202.895555414553,41.156228138787526z" style="fill:rgb(217,127,217)"/><path d="M143.90839412532893,-117.36123777148555L202.7735574971144,41.28590401707492L149.57248245563474,-117.9221031705989z" style="fill:rgb(49,63,205)"/><path d="M153.23728651544155,-120.93170823375632L149.57248245563474,-117.9221031705989L202.7735574971144,41.28590401707492z" style="fill:rgb(217,127,217)"/><path d="M-10.510824891088452,115.82808506909831L120.61546527938654,130.56217420590454L118.32808331340604,124.54972323782638z" style="fill:rgb(49,63,205)"/><path d="M51.49681019328097,-51.12130307605001L10.908813293388803,-110.2390673977333L-79.97379650485733,-44.971216398691716z" style="fill:rgb(82,237,172)"/><path d="M118.32808331340604,124.54972323782638L118.28581979989049,124.43838705622633L-12.87124037709052,110.36385979999703z" style="fill:rgb(49,63,205)"/><path d="M202.96630226969918,41.29230350730263L149.768776616179,-117.94153095791346L127.40463424688603,121.64645292750146z" style="fill:rgb(217,127,217)"/><path d="M142.80646593375883,-120.63761225636433L138.3303967022992,-116.80890804416268L143.90839412532893,-117.36123777148555z" style="fill:rgb(49,63,205)"/><path d="M51.49681019328097,-51.12130307605001L141.69527795087566,-123.941134844626L10.908813293388803,-110.2390673977333z" style="fill:rgb(82,237,172)"/><path d="M194.49260249454133,43.968334615210445L118.28581979989049,124.43838705622633L120.61546527938654,130.56217420590454zM153.3741223049784,-121.04404289462313L151.18325866304212,-127.63628395014695L153.23728651544155,-120.93170823375632zM202.96630226969918,41.29230350730263L127.40463424688603,121.64645292750146L126.51056246963869,131.22458055750946z" style="fill:rgb(217,127,217)"/><path d="M145.5217089626807,-127.03031816774416L141.69527795087566,-123.941134844626L147.36279550774657,-124.534902005655zM145.5217089626807,-127.03031816774416L147.36279550774657,-124.534902005655L151.18325866304212,-127.63628395014695z" style="fill:rgb(82,237,172)"/><path d="M147.36279550774657,-124.534902005655L142.80646593375883,-120.63761225636433L143.90839412532893,-117.36123777148555z" style="fill:rgb(49,63,205)"/><path d="M153.23728651544155,-120.93170823375632L151.18325866304212,-127.63628395014695L147.36279550774657,-124.534902005655z" style="fill:rgb(217,127,217)"/><path d="M142.80646593375883,-120.63761225636433L147.36279550774657,-124.534902005655L141.69527795087566,-123.941134844626zM147.36279550774657,-124.534902005655L143.90839412532893,-117.36123777148555L149.57248245563474,-117.9221031705989z" style="fill:rgb(49,63,205)"/><path d="M153.23728651544155,-120.93170823375632L147.36279550774657,-124.534902005655L149.57248245563474,-117.9221031705989z" style="fill:rgb(217,127,217)"/><path d="M-77.30369774777252,-38.7901141654079L51.545424173781456,-50.99337159043237L-78.66212947194539,-41.93493214211827zM51.545424173781456,-50.99337159043237L-79.97379650485733,-44.971216398691716L-78.66212947194539,-41.93493214211827zM118.50585836522549,124.46200967137511L118.28581979989049,124.43838705622633L120.61546527938654,130.56217420590454zM124.18404896008425,125.07132885620797L118.50585836522549,124.46200967137511L120.61546527938654,130.56217420590454zM124.18404896008425,125.07132885620797L120.61546527938654,130.56217420590454L126.51056246963869,131.22458055750946z" style="fill:rgb(49,63,205)"/><path d="M127.40463424688603,121.64645292750146L124.18404896008425,125.07132885620797L126.51056246963869,131.22458055750946z" style="fill:rgb(217,127,217)"/><path d="M149.768776616179,-117.94153095791346L143.90839412532893,-117.36123777148555L54.175300431866766,-44.08053887260481zM51.49681019328097,-51.12130307605001L147.36279550774657,-124.534902005655L141.69527795087566,-123.941134844626z" style="fill:rgb(82,237,172)"/><path d="M149.57248245563474,-117.9221031705989L147.36279550774657,-124.534902005655L59.93689775179704,-44.31237256426483zM127.40463424688603,121.64645292750146L149.768776616179,-117.94153095791346L60.136566475516034,-44.320406592852734z" style="fill:rgb(217,127,217)"/><path d="M118.50585836522549,124.46200967137511L54.175300431866766,-44.08053887260481L118.28581979989049,124.43838705622633zM124.18404896008425,125.07132885620797L60.136566475516034,-44.320406592852734L118.50585836522549,124.46200967137511z" style="fill:rgb(49,63,205)"/><path d="M127.40463424688603,121.64645292750146L60.136566475516034,-44.320406592852734L124.18404896008425,125.07132885620797z" style="fill:rgb(217,127,217)"/><path d="M-77.30369774777252,-38.7901141654079L54.175300431866766,-44.08053887260481L51.545424173781456,-50.99337159043237zM51.545424173781456,-50.99337159043237L51.49681019328097,-51.12130307605001L-79.97379650485733,-44.971216398691716z" style="fill:rgb(49,63,205)"/><path d="M149.768776616179,-117.94153095791346L54.175300431866766,-44.08053887260481L60.136566475516034,-44.320406592852734zM51.49681019328097,-51.12130307605001L57.25988545153643,-51.39089475929926L147.36279550774657,-124.534902005655z" style="fill:rgb(82,237,172)"/><path d="M59.93689775179704,-44.31237256426483L147.36279550774657,-124.534902005655L57.25988545153643,-51.39089475929926z" style="fill:rgb(217,127,217)"/><path d="M118.50585836522549,124.46200967137511L60.136566475516034,-44.320406592852734L54.175300431866766,-44.08053887260481zM54.175300431866766,-44.08053887260481L57.25988545153643,-51.39089475929926L51.545424173781456,-50.99337159043237zM54.175300431866766,-44.08053887260481L59.93689775179704,-44.31237256426483L57.25988545153643,-51.39089475929926zM51.545424173781456,-50.99337159043237L57.25988545153643,-51.39089475929926L51.49681019328097,-51.12130307605001z" style="fill:rgb(49,63,205)"/></svg>