<svg viewBox="-250 -250 500 500" width="500" height="500" xmlns="http://www.w3.org/2000/svg"><path d="M-75.75761720266539,61.746435178015176L-37.033505036632235,36.46744005059484L-39.045999301547006,31.775121857181496zM-75.75761720266539,61.746435178015176L-73.60616473451717,66.54016813635378L-37.033505036632235,36.46744005059484zM-75.75761720266539,61.746435178015176L-39.045999301547006,31.775121857181496L-93.40104918963448,-94.95623879641133zM-79.48652402922595,61.630850056603066L-77.19615660368694,66.29332094472575L-79.34650783891445,61.51692602597894zM-79.48652402922595,61.630850056603066L-80.92600565526602,69.34960632659406L-77.19615660368694,66.29332094472575z" style="fill:rgb(217,127,217)"/><path d="M-79.34650783891445,61.51692602597894L-77.19615660368694,66.29332094472575L-73.60616473451717,66.54016813635378z" style="fill:rgb(49,63,205)"/><path d="M-79.48652402922595,61.630850056603066L-83.09073591187185,64.56314852085944L-80.92600565526602,69.34960632659406z" style="fill:rgb(217,127,217)"/><path d="M-79.34650783891445,61.51692602597894L-73.60616473451717,66.54016813635378L-75.75761720266539,61.746435178015176zM-80.92600565526602,69.34960632659406L-79.5038256214988,64.8048303959236L-83.09073591187185,64.56314852085944zM-78.38372427892054,67.28917769399261L-80.92600565526602,69.34960632659406L-77.33793258643878,69.60869809069561zM-80.92600565526602,69.34960632659406L-78.38372427892054,67.28917769399261L-79.5038256214988,64.8048303959236zM-77.33793258643878,69.60869809069561L-75.63967812132925,65.06518099636891L-78.38372427892054,67.28917769399261zM-79.5038256214988,64.8048303959236L-78.38372427892054,67.28917769399261L-75.63967812132925,65.06518099636891z" style="fill:rgb(49,63,205)"/><path d="M-115.85273473532821,94.48000606685274L-77.33793258643878,69.60869809069561L-79.5038256214988,64.8048303959236zM-75.75761720266539,61.746435178015176L-93.40104918963448,-94.95623879641133L-104.40757811520328,-2.088386202132556z" style="fill:rgb(217,127,217)"/><path d="M-137.51657255958582,-67.68824135107576L-79.34650783891445,61.51692602597894L-75.75761720266539,61.746435178015176z" style="fill:rgb(49,63,205)"/><path d="M-141.66030633697224,-64.937512256998L-79.48652402922595,61.630850056603066L-79.34650783891445,61.51692602597894zM-79.48652402922595,61.630850056603066L-141.66030633697224,-64.937512256998L-83.09073591187185,64.56314852085944z" style="fill:rgb(217,127,217)"/><path d="M-138.11642929778432,-65.19330158487793L-83.09073591187185,64.56314852085944L-79.5038256214988,64.8048303959236z" style="fill:rgb(49,63,205)"/><path d="M-115.85273473532821,94.48000606685274L-79.5038256214988,64.8048303959236L-105.50171832968348,7.143580307812878zM-115.85273473532821,94.48000606685274L-116.74548396782805,102.01249157177323L-77.33793258643878,69.60869809069561z" style="fill:rgb(217,127,217)"/><path d="M-39.045999301547006,31.775121857181496L-75.75761720266539,61.746435178015176L28.268054369896984,68.39869950409151zM-137.6384188106233,-67.67911544417005L-93.40104918963448,-94.95623879641133L-97.10274713083949,-94.58542916060676zM-95.62964564747982,-100.15243260695408L-99.2069805399539,-99.77358035621867L-139.9053567384099,-72.99424105437485z" style="fill:rgb(82,237,172)"/><path d="M-93.40104918963448,-94.95623879641133L-133.96889285699987,-67.9539282287207L-104.40757811520328,-2.088386202132556zM-141.66030633697224,-64.937512256998L-79.34650783891445,61.51692602597894L-137.51657255958582,-67.68824135107576z" style="fill:rgb(217,127,217)"/><path d="M-137.51657255958582,-67.68824135107576L-75.75761720266539,61.746435178015176L-132.81673878332253,-65.38679367531296zM-122.6118431441316,96.73075088030689L-122.74942711652987,96.71626474642225L-120.43000981845594,101.60596332933238zM-75.75761720266539,61.746435178015176L-73.60616473451717,66.54016813635378L30.428909808986223,73.69360118321073zM-119.06682098207258,97.10400413625295L-122.6118431441316,96.73075088030689L-120.43000981845594,101.60596332933238zM-138.11642929778432,-65.19330158487793L-141.66030633697224,-64.937512256998L-83.09073591187185,64.56314852085944zM-119.06682098207258,97.10400413625295L-120.43000981845594,101.60596332933238L-116.74548396782805,102.01249157177323z" style="fill:rgb(49,63,205)"/><path d="M-119.06682098207258,97.10400413625295L-116.74548396782805,102.01249157177323L-115.85273473532821,94.48000606685274z" style="fill:rgb(217,127,217)"/><path d="M-137.6384188106233,-67.67911544417005L-133.96889285699987,-67.9539282287207L-93.40104918963448,-94.95623879641133z" style="fill:rgb(82,237,172)"/><path d="M-138.11642929778432,-65.19330158487793L-115.85273473532821,94.48000606685274L-105.50171832968348,7.143580307812878z" style="fill:rgb(217,127,217)"/><path d="M-77.33793258643878,69.60869809069561L24.503328222384916,71.81253718098952L-75.63967812132925,65.06518099636891z" style="fill:rgb(49,63,205)"/><path d="M-95.62964564747982,-100.15243260695408L-139.9053567384099,-72.99424105437485L-136.3599466573566,-73.28133767638565z" style="fill:rgb(82,237,172)"/><path d="M-138.11642929778432,-65.19330158487793L-119.06682098207258,97.10400413625295L-115.85273473532821,94.48000606685274z" style="fill:rgb(217,127,217)"/><path d="M-39.045999301547006,31.775121857181496L28.268054369896984,68.39869950409151L65.01769343498228,35.074237426200796zM-141.7819442027177,-64.92872644002037L-137.51657255958582,-67.68824135107576L-137.6384188106233,-67.67911544417005z" style="fill:rgb(82,237,172)"/><path d="M-133.96889285699987,-67.9539282287207L-137.51657255958582,-67.68824135107576L-132.81673878332253,-65.38679367531296z" style="fill:rgb(49,63,205)"/><path d="M-141.7819442027177,-64.92872644002037L-141.66030633697224,-64.937512256998L-137.51657255958582,-67.68824135107576zM-133.96889285699987,-67.9539282287207L-137.51657255958582,-67.68824135107576L-141.66030633697224,-64.937512256998zM24.503328222384916,71.81253718098952L-79.5038256214988,64.8048303959236L-119.06682098207258,97.10400413625295zM-136.3599466573566,-73.28133767638565L-139.9053567384099,-72.99424105437485L-144.06593074810445,-70.25660728981119zM-133.96889285699987,-67.9539282287207L-141.66030633697224,-64.937512256998L-138.11642929778432,-65.19330158487793z" style="fill:rgb(82,237,172)"/><path d="M-122.6118431441316,96.73075088030689L-185.62307855029508,-35.828347457593L-122.74942711652987,96.71626474642225z" style="fill:rgb(49,63,205)"/><path d="M-136.3599466573566,-73.28133767638565L-144.06593074810445,-70.25660728981119L-140.52440558868358,-70.53391355151187z" style="fill:rgb(82,237,172)"/><path d="M-119.06682098207258,97.10400413625295L-182.00645532736442,-35.97977577290849L-122.6118431441316,96.73075088030689zM-34.755482927322575,-72.6538682312278L-79.5038256214988,64.8048303959236L-75.63967812132925,65.06518099636891z" style="fill:rgb(49,63,205)"/><path d="M-138.11642929778432,-65.19330158487793L-182.00645532736442,-35.97977577290849L-119.06682098207258,97.10400413625295z" style="fill:rgb(217,127,217)"/><path d="M-141.7819442027177,-64.92872644002037L-182.00645532736442,-35.97977577290849L-138.11642929778432,-65.19330158487793z" style="fill:rgb(82,237,172)"/><path d="M62.2227948381962,37.608599243760565L67.02477702329152,40.24596405422073L65.01769343498228,35.074237426200796z" style="fill:rgb(217,127,217)"/><path d="M-140.52440558868358,-70.53391355151187L-144.06593074810445,-70.25660728981119L-188.09051952255254,-41.28863598317684z" style="fill:rgb(82,237,172)"/><path d="M-75.75761720266539,61.746435178015176L30.428909808986223,73.69360118321073L28.268054369896984,68.39869950409151zM-122.6118431441316,96.73075088030689L-182.00645532736442,-35.97977577290849L-185.62307855029508,-35.828347457593zM-77.33793258643878,69.60869809069561L26.680256607067864,77.1197649333136L24.503328222384916,71.81253718098952zM-116.78743736032169,101.92372064814849L-116.74548396782805,102.01249157177323L-13.07096090084821,113.4513097929614zM-119.06682098207258,97.10400413625295L-116.78743736032169,101.92372064814849L-14.223094555241055,110.78798174973319zM-34.755482927322575,-72.6538682312278L-138.11642929778432,-65.19330158487793L-79.5038256214988,64.8048303959236z" style="fill:rgb(49,63,205)"/><path d="M-141.7819442027177,-64.92872644002037L-185.62307855029508,-35.828347457593L-182.00645532736442,-35.97977577290849z" style="fill:rgb(82,237,172)"/><path d="M67.02477702329152,40.24596405422073L62.2227948381962,37.608599243760565L28.268054369896984,68.39869950409151z" style="fill:rgb(217,127,217)"/><path d="M-95.62964564747982,-100.15243260695408L-136.3599466573566,-73.28133767638565L-32.96975401650829,-81.65356367233622zM-140.52440558868358,-70.53391355151187L-188.09051952255254,-41.28863598317684L-184.5971739998225,-41.45768171257742z" style="fill:rgb(82,237,172)"/><path d="M32.86041994039,68.6923736713511L71.60073611595999,40.41212450151401L69.59481448713083,35.21934530263419z" style="fill:rgb(217,127,217)"/><path d="M-2.559794195206698,5.835635340294996L-75.63967812132925,65.06518099636891L24.503328222384916,71.81253718098952z" style="fill:rgb(49,63,205)"/><path d="M67.02477702329152,40.24596405422073L28.268054369896984,68.39869950409151L30.428909808986223,73.69360118321073z" style="fill:rgb(217,127,217)"/><path d="M-182.0533397893153,-36.078915078938L-185.50308486097776,-35.833375239181706L-182.00645532736442,-35.97977577290849zM-184.5971739998225,-41.45768171257742L-188.09051952255254,-41.28863598317684L-185.50308486097776,-35.833375239181706zM-184.5971739998225,-41.45768171257742L-185.50308486097776,-35.833375239181706L-182.0533397893153,-36.078915078938z" style="fill:rgb(49,63,205)"/><path d="M-34.755482927322575,-72.6538682312278L-133.96889285699987,-67.9539282287207L-138.11642929778432,-65.19330158487793zM-32.96975401650829,-81.65356367233622L-136.3599466573566,-73.28133767638565L-140.52440558868358,-70.53391355151187z" style="fill:rgb(82,237,172)"/><path d="M32.86041994039,68.6923736713511L35.02069576890442,74.00933155591966L71.60073611595999,40.41212450151401z" style="fill:rgb(217,127,217)"/><path d="M24.503328222384916,71.81253718098952L-119.06682098207258,97.10400413625295L-15.422001324519224,108.01670488705072z" style="fill:rgb(82,237,172)"/><path d="M32.86041994039,68.6923736713511L69.59481448713083,35.21934530263419L15.109228380378532,-105.82602275099194z" style="fill:rgb(217,127,217)"/><path d="M-95.62964564747982,-100.15243260695408L-32.96975401650829,-81.65356367233622L8.26666901278509,-111.15541500266553z" style="fill:rgb(82,237,172)"/><path d="M35.02069576890442,74.00933155591966L28.268054369896984,68.39869950409151L30.428909808986223,73.69360118321073zM-34.755482927322575,-72.6538682312278L-75.63967812132925,65.06518099636891L-2.559794195206698,5.835635340294996zM35.02069576890442,74.00933155591966L32.86041994039,68.6923736713511L28.268054369896984,68.39869950409151z" style="fill:rgb(49,63,205)"/><path d="M-37.204332209950785,-78.62401638198429L-140.52440558868358,-70.53391355151187L-184.5971739998225,-41.45768171257742z" style="fill:rgb(82,237,172)"/><path d="M26.680256607067864,77.1197649333136L29.096609089602442,72.12201963901178L24.503328222384916,71.81253718098952zM26.680256607067864,77.1197649333136L31.273022855970382,77.451404754728L29.096609089602442,72.12201963901178zM-116.78743736032169,101.92372064814849L-13.07096090084821,113.4513097929614L-14.223094555241055,110.78798174973319zM-119.06682098207258,97.10400413625295L-14.223094555241055,110.78798174973319L-15.422001324519224,108.01670488705072zM32.86041994039,68.6923736713511L0.265440117379764,-0.21669988886398625L28.268054369896984,68.39869950409151zM-2.559794195206698,5.835635340294996L24.503328222384916,71.81253718098952L29.096609089602442,72.12201963901178z" style="fill:rgb(49,63,205)"/><path d="M26.680256607067864,77.1197649333136L24.503328222384916,71.81253718098952L-15.422001324519224,108.01670488705072zM-7.571152978179612,105.5343030661581L31.273022855970382,77.451404754728L29.096609089602442,72.12201963901178zM32.86041994039,68.6923736713511L15.109228380378532,-105.82602275099194L4.003437258400319,-2.3300340563513524z" style="fill:rgb(217,127,217)"/><path d="M32.86041994039,68.6923736713511L6.003874665840805,2.593416321928582L0.265440117379764,-0.21669988886398625z" style="fill:rgb(49,63,205)"/><path d="M-34.755482927322575,-72.6538682312278L-30.540074924734274,-75.69995103950691L-133.96889285699987,-67.9539282287207z" style="fill:rgb(82,237,172)"/><path d="M-2.559794195206698,5.835635340294996L29.096609089602442,72.12201963901178L0.885619659033077,3.0432195691790067z" style="fill:rgb(49,63,205)"/><path d="M-32.96975401650829,-81.65356367233622L-140.52440558868358,-70.53391355151187L-37.204332209950785,-78.62401638198429z" style="fill:rgb(82,237,172)"/><path d="M-182.0533397893153,-36.078915078938L-182.00645532736442,-35.97977577290849L-79.57253981538844,-40.26870072171824z" style="fill:rgb(49,63,205)"/><path d="M26.680256607067864,77.1197649333136L-15.422001324519224,108.01670488705072L-13.07096090084821,113.4513097929614zM-7.571152978179612,105.5343030661581L29.096609089602442,72.12201963901178L2.8980888670472775,7.971046502400549z" style="fill:rgb(217,127,217)"/><path d="M-184.5971739998225,-41.45768171257742L-182.0533397893153,-36.078915078938L-80.87468473529789,-43.278773054704594z" style="fill:rgb(49,63,205)"/><path d="M-7.571152978179612,105.5343030661581L-8.475127012419396,113.95838623861809L31.273022855970382,77.451404754728z" style="fill:rgb(217,127,217)"/><path d="M-30.540074924734274,-75.69995103950691L15.109228380378532,-105.82602275099194L10.513597749585225,-105.36566532874593zM163.18580339235442,77.02647215119559L69.59481448713083,35.21934530263419L32.86041994039,68.6923736713511zM12.86252175444008,-111.64213184869911L8.26666901278509,-111.15541500266553L-32.96975401650829,-81.65356367233622z" style="fill:rgb(82,237,172)"/><path d="M15.109228380378532,-105.82602275099194L-25.947130882356557,-76.04392694405468L4.003437258400319,-2.3300340563513524z" style="fill:rgb(217,127,217)"/><path d="M0.265440117379764,-0.21669988886398625L6.003874665840805,2.593416321928582L-25.947130882356557,-76.04392694405468zM35.02069576890442,74.00933155591966L157.22313697547307,76.6451637484224L32.86041994039,68.6923736713511zM-15.250470757990369,108.0347743613295L-15.422001324519224,108.01670488705072L-13.07096090084821,113.4513097929614zM-34.755482927322575,-72.6538682312278L-2.559794195206698,5.835635340294996L0.885619659033077,3.0432195691790067zM-10.826405080390513,108.50057245711771L-15.250470757990369,108.0347743613295L-13.07096090084821,113.4513097929614zM-10.826405080390513,108.50057245711771L-13.07096090084821,113.4513097929614L-8.475127012419396,113.95838623861809z" style="fill:rgb(49,63,205)"/><path d="M-10.826405080390513,108.50057245711771L-8.475127012419396,113.95838623861809L-7.571152978179612,105.5343030661581z" style="fill:rgb(217,127,217)"/><path d="M-30.540074924734274,-75.69995103950691L-25.947130882356557,-76.04392694405468L15.109228380378532,-105.82602275099194z" style="fill:rgb(82,237,172)"/><path d="M31.273022855970382,77.451404754728L159.50909927463914,80.90885617384842L29.096609089602442,72.12201963901178z" style="fill:rgb(49,63,205)"/><path d="M-30.163623678494922,-72.98530719315977L-7.571152978179612,105.5343030661581L2.8980888670472775,7.971046502400549z" style="fill:rgb(217,127,217)"/><path d="M0.265440117379764,-0.21669988886398625L-25.947130882356557,-76.04392694405468L-30.540074924734274,-75.69995103950691z" style="fill:rgb(49,63,205)"/><path d="M12.86252175444008,-111.64213184869911L-32.96975401650829,-81.65356367233622L-28.377416829909382,-82.0254372949893z" style="fill:rgb(82,237,172)"/><path d="M-30.163623678494922,-72.98530719315977L-10.826405080390513,108.50057245711771L-7.571152978179612,105.5343030661581z" style="fill:rgb(217,127,217)"/><path d="M-37.204332209950785,-78.62401638198429L-184.5971739998225,-41.45768171257742L-82.22987494809911,-46.411309777104165z" style="fill:rgb(82,237,172)"/><path d="M-34.755482927322575,-72.6538682312278L0.885619659033077,3.0432195691790067L-30.163623678494922,-72.98530719315977z" style="fill:rgb(49,63,205)"/><path d="M163.18580339235442,77.02647215119559L198.895983091025,39.31856626115694L69.59481448713083,35.21934530263419z" style="fill:rgb(82,237,172)"/><path d="M0.885619659033077,3.0432195691790067L29.096609089602442,72.12201963901178L159.50909927463914,80.90885617384842z" style="fill:rgb(49,63,205)"/><path d="M-34.755482927322575,-72.6538682312278L-25.947130882356557,-76.04392694405468L-30.540074924734274,-75.69995103950691zM-37.204332209950785,-78.62401638198429L-28.377416829909382,-82.0254372949893L-32.96975401650829,-81.65356367233622zM-34.755482927322575,-72.6538682312278L-30.163623678494922,-72.98530719315977L-25.947130882356557,-76.04392694405468z" style="fill:rgb(82,237,172)"/><path d="M-15.250470757990369,108.0347743613295L-79.57253981538844,-40.26870072171824L-15.422001324519224,108.01670488705072z" style="fill:rgb(49,63,205)"/><path d="M-37.204332209950785,-78.62401638198429L-32.613172352095475,-78.98351047479444L-28.377416829909382,-82.0254372949893z" style="fill:rgb(82,237,172)"/><path d="M-10.826405080390513,108.50057245711771L-75.00153596656509,-40.460089259420826L-15.250470757990369,108.0347743613295zM-182.0533397893153,-36.078915078938L-79.57253981538844,-40.26870072171824L-80.87468473529789,-43.278773054704594zM-184.5971739998225,-41.45768171257742L-80.87468473529789,-43.278773054704594L-82.22987494809911,-46.411309777104165z" style="fill:rgb(49,63,205)"/><path d="M-30.163623678494922,-72.98530719315977L-75.00153596656509,-40.460089259420826L-10.826405080390513,108.50057245711771z" style="fill:rgb(217,127,217)"/><path d="M120.30407964629727,122.30722260820247L29.096609089602442,72.12201963901178L-10.826405080390513,108.50057245711771zM-34.755482927322575,-72.6538682312278L-75.00153596656509,-40.460089259420826L-30.163623678494922,-72.98530719315977z" style="fill:rgb(82,237,172)"/><path d="M196.19165939627152,42.1742209480957L200.83702569013388,45.10490224065029L198.895983091025,39.31856626115694z" style="fill:rgb(217,127,217)"/><path d="M-82.22987494809911,-46.411309777104165L-32.613172352095475,-78.98351047479444L-37.204332209950785,-78.62401638198429z" style="fill:rgb(82,237,172)"/><path d="M35.02069576890442,74.00933155591966L164.27670863919192,80.099322370582L157.22313697547307,76.6451637484224zM35.02069576890442,74.00933155591966L165.29468398752644,82.96694728619833L164.27670863919192,80.099322370582zM-15.250470757990369,108.0347743613295L-75.00153596656509,-40.460089259420826L-79.57253981538844,-40.26870072171824zM31.273022855970382,77.451404754728L161.63565446046005,86.86478152432991L159.50909927463914,80.90885617384842zM120.3461703374252,122.41842519460661L-9.671531325816144,111.18135561766813L-8.475127012419396,113.95838623861809zM120.3461703374252,122.41842519460661L-10.826405080390513,108.50057245711771L-9.671531325816144,111.18135561766813z" style="fill:rgb(49,63,205)"/><path d="M-34.755482927322575,-72.6538682312278L-79.57253981538844,-40.26870072171824L-75.00153596656509,-40.460089259420826z" style="fill:rgb(82,237,172)"/><path d="M200.83702569013388,45.10490224065029L196.19165939627152,42.1742209480957L163.18580339235442,77.02647215119559z" style="fill:rgb(217,127,217)"/><path d="M102.94861717312624,-92.659823866501L12.86252175444008,-111.64213184869911L-28.377416829909382,-82.0254372949893zM-82.22987494809911,-46.411309777104165L-77.66064272895721,-46.63241825647776L-32.613172352095475,-78.98351047479444z" style="fill:rgb(82,237,172)"/><path d="M169.0129573784787,77.39910844187534L206.5874633064961,45.31371036686796L204.65077253161735,39.50100948110775z" style="fill:rgb(217,127,217)"/><path d="M-30.163623678494922,-72.98530719315977L0.885619659033077,3.0432195691790067L102.34787136761805,-79.18959279012088z" style="fill:rgb(49,63,205)"/><path d="M120.30407964629727,122.30722260820247L159.50909927463914,80.90885617384842L29.096609089602442,72.12201963901178z" style="fill:rgb(82,237,172)"/><path d="M-80.87468473529789,-43.278773054704594L-79.57253981538844,-40.26870072171824L-75.00153596656509,-40.460089259420826z" style="fill:rgb(49,63,205)"/><path d="M200.83702569013388,45.10490224065029L163.18580339235442,77.02647215119559L165.29468398752644,82.96694728619833z" style="fill:rgb(217,127,217)"/><path d="M-30.163623678494922,-72.98530719315977L105.35621306933987,-85.87752181410872L-25.947130882356557,-76.04392694405468z" style="fill:rgb(82,237,172)"/><path d="M-77.66064272895721,-46.63241825647776L-82.22987494809911,-46.411309777104165L-80.87468473529789,-43.278773054704594zM-80.87468473529789,-43.278773054704594L-75.00153596656509,-40.460089259420826L-76.35437869991779,-43.60045108276636zM-77.66064272895721,-46.63241825647776L-80.87468473529789,-43.278773054704594L-76.35437869991779,-43.60045108276636z" style="fill:rgb(49,63,205)"/><path d="M169.0129573784787,77.39910844187534L171.11793663553797,83.36735370646537L206.5874633064961,45.31371036686796z" style="fill:rgb(217,127,217)"/><path d="M98.74898840614935,-89.26934741865041L-28.377416829909382,-82.0254372949893L-32.613172352095475,-78.98351047479444z" style="fill:rgb(82,237,172)"/><path d="M169.0129573784787,77.39910844187534L204.65077253161735,39.50100948110775L151.6735641421803,-119.50606148803074z" style="fill:rgb(217,127,217)"/><path d="M0.885619659033077,3.0432195691790067L159.50909927463914,80.90885617384842L102.34787136761805,-79.18959279012088zM164.27670863919192,80.099322370582L163.18580339235442,77.02647215119559L157.22313697547307,76.6451637484224zM164.27670863919192,80.099322370582L165.29468398752644,82.96694728619833L170.92290383473448,83.35394266495659z" style="fill:rgb(49,63,205)"/><path d="M102.94861717312624,-92.659823866501L143.6125709063736,-125.48901834373608L12.86252175444008,-111.64213184869911z" style="fill:rgb(82,237,172)"/><path d="M163.18580339235442,77.02647215119559L164.27670863919192,80.099322370582L170.92290383473448,83.35394266495659zM163.18580339235442,77.02647215119559L170.92290383473448,83.35394266495659L168.81788291800834,77.38662738107791zM159.50909927463914,80.90885617384842L161.63565446046005,86.86478152432991L167.2703535476387,87.27165844647571z" style="fill:rgb(49,63,205)"/><path d="M168.81788291800834,77.38662738107791L167.2703535476387,87.27165844647571L170.92290383473448,83.35394266495659zM165.34299874624293,81.30192134384315L171.11793663553797,83.36735370646537L169.0129573784787,77.39910844187534zM165.34299874624293,81.30192134384315L167.4656147800457,87.28575875254501L171.11793663553797,83.36735370646537z" style="fill:rgb(217,127,217)"/><path d="M159.50909927463914,80.90885617384842L167.2703535476387,87.27165844647571L165.14760702263595,81.28875578146872z" style="fill:rgb(49,63,205)"/><path d="M168.81788291800834,77.38662738107791L165.28577180998673,81.1418598081089L167.2703535476387,87.27165844647571z" style="fill:rgb(217,127,217)"/><path d="M120.3461703374252,122.41842519460661L-8.475127012419396,113.95838623861809L122.62356132799287,128.4230206937942z" style="fill:rgb(49,63,205)"/><path d="M165.28577180998673,81.1418598081089L165.14760702263595,81.28875578146872L167.2703535476387,87.27165844647571z" style="fill:rgb(217,127,217)"/><path d="M120.3461703374252,122.41842519460661L120.30407964629727,122.30722260820247L-10.826405080390513,108.50057245711771z" style="fill:rgb(49,63,205)"/><path d="M139.70045918259805,9.015324174108908L165.34299874624293,81.30192134384315L169.0129573784787,77.39910844187534zM161.63565446046005,86.86478152432991L159.50909927463914,80.90885617384842L120.30407964629727,122.30722260820247z" style="fill:rgb(217,127,217)"/><path d="M53.81734367159016,-52.994734149107906L-32.613172352095475,-78.98351047479444L-77.66064272895721,-46.63241825647776z" style="fill:rgb(82,237,172)"/><path d="M129.40605998788584,119.51809172563293L167.4656147800457,87.28575875254501L165.34299874624293,81.30192134384315zM169.0129573784787,77.39910844187534L151.6735641421803,-119.50606148803074L140.78586448532633,-2.634921704443587z" style="fill:rgb(217,127,217)"/><path d="M163.18580339235442,77.02647215119559L168.81788291800834,77.38662738107791L111.07264564995711,-86.305646941302z" style="fill:rgb(49,63,205)"/><path d="M139.70045918259805,9.015324174108908L169.0129573784787,77.39910844187534L140.78586448532633,-2.634921704443587z" style="fill:rgb(217,127,217)"/><path d="M-30.163623678494922,-72.98530719315977L101.17815515760947,-82.46550815025756L105.35621306933987,-85.87752181410872z" style="fill:rgb(82,237,172)"/><path d="M168.81788291800834,77.38662738107791L111.07264564995711,-86.305646941302L165.28577180998673,81.1418598081089z" style="fill:rgb(217,127,217)"/><path d="M-30.163623678494922,-72.98530719315977L102.34787136761805,-79.18959279012088L101.17815515760947,-82.46550815025756z" style="fill:rgb(49,63,205)"/><path d="M98.74898840614935,-89.26934741865041L102.94861717312624,-92.659823866501L-28.377416829909382,-82.0254372949893z" style="fill:rgb(82,237,172)"/><path d="M106.89931071453374,-82.87846773048454L159.50909927463914,80.90885617384842L165.14760702263595,81.28875578146872z" style="fill:rgb(49,63,205)"/><path d="M165.28577180998673,81.1418598081089L106.89931071453374,-82.87846773048454L165.14760702263595,81.28875578146872zM161.63565446046005,86.86478152432991L120.30407964629727,122.30722260820247L122.62356132799287,128.4230206937942zM129.40605998788584,119.51809172563293L165.34299874624293,81.30192134384315L139.70045918259805,9.015324174108908z" style="fill:rgb(217,127,217)"/><path d="M53.86572973649906,-52.86701057085629L-76.35437869991779,-43.60045108276636L-75.00153596656509,-40.460089259420826zM53.86572973649906,-52.86701057085629L-77.66064272895721,-46.63241825647776L-76.35437869991779,-43.60045108276636z" style="fill:rgb(49,63,205)"/><path d="M129.40605998788584,119.51809172563293L128.51590176817913,129.07314581168518L167.4656147800457,87.28575875254501z" style="fill:rgb(217,127,217)"/><path d="M145.81628945522638,-118.9193215843503L111.07264564995711,-86.305646941302L151.4773627384866,-119.48640743407938zM102.94861717312624,-92.659823866501L149.27711763731972,-126.08891361295716L143.6125709063736,-125.48901834373608zM111.07264564995711,-86.305646941302L151.6735641421803,-119.50606148803074L151.4773627384866,-119.48640743407938z" style="fill:rgb(82,237,172)"/><path d="M109.81544821836246,-89.86974822724835L151.4773627384866,-119.48640743407938L149.27711763731972,-126.08891361295716zM151.6735641421803,-119.50606148803074L111.2708084338109,-86.32048707445483L140.78586448532633,-2.634921704443587z" style="fill:rgb(217,127,217)"/><path d="M163.18580339235442,77.02647215119559L111.07264564995711,-86.305646941302L105.35621306933987,-85.87752181410872zM120.30407964629727,122.30722260820247L122.62356132799287,128.4230206937942L120.52401929397213,122.33038987949593zM128.31850173891144,129.05136588932632L120.52401929397213,122.33038987949593L122.62356132799287,128.4230206937942z" style="fill:rgb(49,63,205)"/><path d="M111.2708084338109,-86.32048707445483L139.70045918259805,9.015324174108908L140.78586448532633,-2.634921704443587z" style="fill:rgb(217,127,217)"/><path d="M53.81734367159016,-52.994734149107906L98.74898840614935,-89.26934741865041L-32.613172352095475,-78.98351047479444z" style="fill:rgb(82,237,172)"/><path d="M106.89931071453374,-82.87846773048454L102.34787136761805,-79.18959279012088L159.50909927463914,80.90885617384842zM128.31850173891144,129.05136588932632L126.0020807336342,122.90716172310981L120.52401929397213,122.33038987949593z" style="fill:rgb(49,63,205)"/><path d="M165.28577180998673,81.1418598081089L111.07264564995711,-86.305646941302L106.89931071453374,-82.87846773048454zM126.19958974316722,122.9279573281912L128.51590176817913,129.07314581168518L129.40605998788584,119.51809172563293z" style="fill:rgb(217,127,217)"/><path d="M128.51590176817913,129.07314581168518L126.0020807336342,122.90716172310981L128.31850173891144,129.05136588932632z" style="fill:rgb(49,63,205)"/><path d="M145.81628945522638,-118.9193215843503L105.35621306933987,-85.87752181410872L111.07264564995711,-86.305646941302z" style="fill:rgb(82,237,172)"/><path d="M128.51590176817913,129.07314581168518L126.19958974316722,122.9279573281912L126.0020807336342,122.90716172310981z" style="fill:rgb(49,63,205)"/><path d="M107.09763186046027,-82.89277478556465L129.40605998788584,119.51809172563293L139.70045918259805,9.015324174108908z" style="fill:rgb(217,127,217)"/><path d="M111.07264564995711,-86.305646941302L111.2708084338109,-86.32048707445483L151.6735641421803,-119.50606148803074z" style="fill:rgb(82,237,172)"/><path d="M109.81544821836246,-89.86974822724835L111.07264564995711,-86.305646941302L151.4773627384866,-119.48640743407938z" style="fill:rgb(217,127,217)"/><path d="M102.94861717312624,-92.659823866501L108.66778261967286,-93.12294464601223L149.27711763731972,-126.08891361295716z" style="fill:rgb(82,237,172)"/><path d="M109.81544821836246,-89.86974822724835L149.27711763731972,-126.08891361295716L108.66778261967286,-93.12294464601223zM107.09763186046027,-82.89277478556465L126.19958974316722,122.9279573281912L129.40605998788584,119.51809172563293zM111.2708084338109,-86.32048707445483L107.09763186046027,-82.89277478556465L139.70045918259805,9.015324174108908z" style="fill:rgb(217,127,217)"/><path d="M105.35621306933987,-85.87752181410872L101.17815515760947,-82.46550815025756L106.89931071453374,-82.87846773048454zM105.35621306933987,-85.87752181410872L106.89931071453374,-82.87846773048454L111.07264564995711,-86.305646941302z" style="fill:rgb(82,237,172)"/><path d="M102.34787136761805,-79.18959279012088L106.89931071453374,-82.87846773048454L101.17815515760947,-82.46550815025756z" style="fill:rgb(49,63,205)"/><path d="M98.74898840614935,-89.26934741865041L108.66778261967286,-93.12294464601223L102.94861717312624,-92.659823866501zM106.89931071453374,-82.87846773048454L111.2708084338109,-86.32048707445483L111.07264564995711,-86.305646941302z" style="fill:rgb(82,237,172)"/><path d="M109.81544821836246,-89.86974822724835L106.89931071453374,-82.87846773048454L111.07264564995711,-86.305646941302z" style="fill:rgb(217,127,217)"/><path d="M120.30407964629727,122.30722260820247L120.52401929397213,122.33038987949593L64.59966128921828,-39.956907369235985z" style="fill:rgb(49,63,205)"/><path d="M106.89931071453374,-82.87846773048454L107.09763186046027,-82.89277478556465L111.2708084338109,-86.32048707445483z" style="fill:rgb(82,237,172)"/><path d="M109.81544821836246,-89.86974822724835L108.66778261967286,-93.12294464601223L104.47279355633155,-89.71752918708364zM109.81544821836246,-89.86974822724835L105.74454078015508,-86.13330956062565L106.89931071453374,-82.87846773048454z" style="fill:rgb(217,127,217)"/><path d="M98.74898840614935,-89.26934741865041L104.47279355633155,-89.71752918708364L108.66778261967286,-93.12294464601223z" style="fill:rgb(82,237,172)"/><path d="M126.0020807336342,122.90716172310981L64.59966128921828,-39.956907369235985L120.52401929397213,122.33038987949593z" style="fill:rgb(49,63,205)"/><path d="M109.81544821836246,-89.86974822724835L104.47279355633155,-89.71752918708364L105.74454078015508,-86.13330956062565z" style="fill:rgb(217,127,217)"/><path d="M126.19958974316722,122.9279573281912L64.59966128921828,-39.956907369235985L126.0020807336342,122.90716172310981zM53.86572973649906,-52.86701057085629L-75.00153596656509,-40.460089259420826L56.48330545101875,-45.96537278356751zM53.86572973649906,-52.86701057085629L53.81734367159016,-52.994734149107906L-77.66064272895721,-46.63241825647776z" style="fill:rgb(49,63,205)"/><path d="M107.09763186046027,-82.89277478556465L62.44308891794726,-46.21490989800536L126.19958974316722,122.9279573281912z" style="fill:rgb(217,127,217)"/><path d="M106.89931071453374,-82.87846773048454L101.17815515760947,-82.46550815025756L56.48330545101875,-45.96537278356751zM53.81734367159016,-52.994734149107906L104.47279355633155,-89.71752918708364L98.74898840614935,-89.26934741865041zM107.09763186046027,-82.89277478556465L106.89931071453374,-82.87846773048454L62.243365630881456,-46.206552139461515z" style="fill:rgb(82,237,172)"/><path d="M105.74454078015508,-86.13330956062565L62.243365630881456,-46.206552139461515L106.89931071453374,-82.87846773048454zM105.74454078015508,-86.13330956062565L104.47279355633155,-89.71752918708364L59.57904571885802,-53.27354686781849z" style="fill:rgb(217,127,217)"/><path d="M120.30407964629727,122.30722260820247L62.243365630881456,-46.206552139461515L56.48330545101875,-45.96537278356751zM120.30407964629727,122.30722260820247L64.59966128921828,-39.956907369235985L62.243365630881456,-46.206552139461515zM126.19958974316722,122.9279573281912L62.44308891794726,-46.21490989800536L64.59966128921828,-39.956907369235985z" style="fill:rgb(49,63,205)"/><path d="M106.89931071453374,-82.87846773048454L56.48330545101875,-45.96537278356751L62.243365630881456,-46.206552139461515zM107.09763186046027,-82.89277478556465L62.243365630881456,-46.206552139461515L62.44308891794726,-46.21490989800536zM53.81734367159016,-52.994734149107906L59.57904571885802,-53.27354686781849L104.47279355633155,-89.71752918708364z" style="fill:rgb(82,237,172)"/><path d="M105.74454078015508,-86.13330956062565L59.57904571885802,-53.27354686781849L62.243365630881456,-46.206552139461515z" style="fill:rgb(217,127,217)"/><path d="M53.86572973649906,-52.86701057085629L56.48330545101875,-45.96537278356751L62.243365630881456,-46.206552139461515zM53.86572973649906,-52.86701057085629L59.57904571885802,-53.27354686781849L53.81734367159016,-52.994734149107906zM62.44308891794726,-46.21490989800536L62.243365630881456,-46.206552139461515L64.59966128921828,-39.956907369235985zM53.86572973649906,-52.86701057085629L62.243365630881456,-46.206552139461515L59.57904571885802,-53.27354686781849z" style="fill:rgb(49,63,205)"/></svg>