solid JSxCAD
facet normal 0 -1 0
outer loop
vertex -19.625 -8 -0.36797
vertex -19.625 -8 -0.375
vertex -0.375 -8 -0.375
endloop
endfacet
facet normal 0 -1 0
outer loop
vertex -19.625 -8 -0.36797
vertex -0.375 -8 -0.375
vertex -0.375 -8 -0.00703
endloop
endfacet
facet normal 0 -1 0
outer loop
vertex -0.375 -8 0.375
vertex -19.625 -8 0.375
vertex -19.625 -8 0.3677
endloop
endfacet
facet normal 0 -1 0
outer loop
vertex -0.375 -8 0.375
vertex -19.625 -8 0.3677
vertex -0.375 -8 -0.00703
endloop
endfacet
facet normal 0 -1 0
outer loop
vertex -19.625 -8 0.3677
vertex -19.625 -8 -0.36797
vertex -0.375 -8 -0.00703
endloop
endfacet
facet normal 0 -1 0
outer loop
vertex 0.375 -8 -0.375
vertex 18.875 -8 -0.375
vertex 18.875 -8 -0.3531
endloop
endfacet
facet normal 0 -1 0
outer loop
vertex 0.375 -8 -0.375
vertex 18.875 -8 -0.3531
vertex 0.375 -8 0.00703
endloop
endfacet
facet normal 0 -1 0
outer loop
vertex 18.875 -8 -0.3531
vertex 18.875 -8 0.35391
vertex 0.375 -8 0.00703
endloop
endfacet
facet normal 0 -1 0
outer loop
vertex 18.875 -8 0.35391
vertex 18.875 -8 0.375
vertex 0.375 -8 0.375
endloop
endfacet
facet normal 0 -1 0
outer loop
vertex 18.875 -8 0.35391
vertex 0.375 -8 0.375
vertex 0.375 -8 0.00703
endloop
endfacet
facet normal 0 -1 0
outer loop
vertex 0.375 -8 0.00703
vertex -0.375 -8 -0.00703
vertex -0.375 -8 -0.375
endloop
endfacet
facet normal 0 -1 0
outer loop
vertex 0.375 -8 0.00703
vertex -0.375 -8 -0.375
vertex 0.375 -8 -0.375
endloop
endfacet
facet normal 0 -1 0
outer loop
vertex 0.375 -8 0.15
vertex -0.375 -8 0.15
vertex -0.375 -8 -0.00703
endloop
endfacet
facet normal 0 -1 0
outer loop
vertex 0.375 -8 0.15
vertex -0.375 -8 -0.00703
vertex 0.375 -8 0.00703
endloop
endfacet
facet normal 0 -1 0
outer loop
vertex 19.625 -8 -0.375
vertex 20 -8 -0.375
vertex 19.625 -8 -0.3677
endloop
endfacet
facet normal 0 -1 0
outer loop
vertex 19.625 -8 -0.3677
vertex 20 -8 -0.375
vertex 20 -8 0.375
endloop
endfacet
facet normal 0 -1 0
outer loop
vertex 19.625 -8 -0.3677
vertex 20 -8 0.375
vertex 19.625 -8 0.36797
endloop
endfacet
facet normal 0 -1 0
outer loop
vertex 19.625 -8 0.36797
vertex 20 -8 0.375
vertex 19.625 -8 0.375
endloop
endfacet
facet normal 0 -1 0
outer loop
vertex 19.625 -8 -0.375
vertex 19.625 -8 -0.3677
vertex 18.875 -8 -0.3531
endloop
endfacet
facet normal 0 -1 0
outer loop
vertex 19.625 -8 -0.375
vertex 18.875 -8 -0.3531
vertex 18.875 -8 -0.375
endloop
endfacet
facet normal 0 -1 0
outer loop
vertex 19.625 -8 0.15
vertex 18.875 -8 0.15
vertex 18.875 -8 -0.3531
endloop
endfacet
facet normal 0 -1 0
outer loop
vertex 19.625 -8 0.15
vertex 18.875 -8 -0.3531
vertex 19.625 -8 -0.3677
endloop
endfacet
facet normal 0 -1 0
outer loop
vertex -19.625 -8 -0.36797
vertex -20 -8 -0.375
vertex -19.625 -8 -0.375
endloop
endfacet
facet normal 0 -1 0
outer loop
vertex -20 -8 0.15
vertex -20 -8 -0.375
vertex -19.625 -8 -0.36797
endloop
endfacet
facet normal 0 -1 0
outer loop
vertex -20 -8 0.15
vertex -19.625 -8 -0.36797
vertex -19.625 -8 0.15
endloop
endfacet
facet normal -1 0 0
outer loop
vertex -20 -8 0.15
vertex -20 -3.2 0.15
vertex -20 8 -0.375
endloop
endfacet
facet normal -1 0 0
outer loop
vertex -20 -8 0.15
vertex -20 8 -0.375
vertex -20 -8 -0.375
endloop
endfacet
facet normal -1 0 0
outer loop
vertex -20 -3.2 0.15
vertex -20 8 0.15
vertex -20 8 -0.375
endloop
endfacet
facet normal 0 1 0
outer loop
vertex -19.625 8 0.36797
vertex -0.375 8 0.00703
vertex -0.375 8 -0.375
endloop
endfacet
facet normal 0 1 0
outer loop
vertex -19.625 8 0.36797
vertex -0.375 8 -0.375
vertex -19.625 8 0.36067
endloop
endfacet
facet normal 0 1 0
outer loop
vertex -19.625 8 0.36067
vertex -0.375 8 -0.375
vertex -19.625 8 -0.375
endloop
endfacet
facet normal 0 1 0
outer loop
vertex -19.625 8 0.36797
vertex -19.625 8 0.375
vertex -0.375 8 0.375
endloop
endfacet
facet normal 0 1 0
outer loop
vertex -19.625 8 0.36797
vertex -0.375 8 0.375
vertex -0.375 8 0.00703
endloop
endfacet
facet normal 0 1 0
outer loop
vertex 18.875 8 -0.35391
vertex 18.875 8 -0.375
vertex 0.375 8 -0.375
endloop
endfacet
facet normal 0 1 0
outer loop
vertex 18.875 8 -0.35391
vertex 0.375 8 -0.375
vertex 0.375 8 -0.00703
endloop
endfacet
facet normal 0 1 0
outer loop
vertex 18.875 8 0.375
vertex 18.875 8 -0.33201
vertex 0.375 8 0.375
endloop
endfacet
facet normal 0 1 0
outer loop
vertex 18.875 8 -0.33201
vertex 18.875 8 -0.35391
vertex 0.375 8 -0.00703
endloop
endfacet
facet normal 0 1 0
outer loop
vertex 18.875 8 -0.33201
vertex 0.375 8 -0.00703
vertex 0.375 8 0.375
endloop
endfacet
facet normal 0 1 0
outer loop
vertex 0.375 8 -0.00703
vertex 0.375 8 -0.375
vertex -0.375 8 -0.375
endloop
endfacet
facet normal 0 1 0
outer loop
vertex 0.375 8 -0.00703
vertex -0.375 8 -0.375
vertex -0.375 8 0.00703
endloop
endfacet
facet normal 0 1 0
outer loop
vertex 0.375 8 0.15
vertex 0.375 8 -0.00703
vertex -0.375 8 0.00703
endloop
endfacet
facet normal 0 1 0
outer loop
vertex 0.375 8 0.15
vertex -0.375 8 0.00703
vertex -0.375 8 0.15
endloop
endfacet
facet normal 0 1 0
outer loop
vertex 19.625 8 -0.36797
vertex 20 8 -0.375
vertex 19.625 8 -0.375
endloop
endfacet
facet normal 0 1 0
outer loop
vertex 19.625 8 0.375
vertex 20 8 0.375
vertex 20 8 -0.375
endloop
endfacet
facet normal 0 1 0
outer loop
vertex 19.625 8 0.375
vertex 20 8 -0.375
vertex 19.625 8 -0.36067
endloop
endfacet
facet normal 0 1 0
outer loop
vertex 19.625 8 -0.36067
vertex 20 8 -0.375
vertex 19.625 8 -0.36797
endloop
endfacet
facet normal 0 1 0
outer loop
vertex 19.625 8 -0.36797
vertex 19.625 8 -0.375
vertex 18.875 8 -0.375
endloop
endfacet
facet normal 0 1 0
outer loop
vertex 19.625 8 -0.36797
vertex 18.875 8 -0.375
vertex 18.875 8 -0.35391
endloop
endfacet
facet normal 0 1 0
outer loop
vertex 19.625 8 0.15
vertex 19.625 8 -0.36067
vertex 18.875 8 -0.33201
endloop
endfacet
facet normal 0 1 0
outer loop
vertex 19.625 8 0.15
vertex 18.875 8 -0.33201
vertex 18.875 8 0.15
endloop
endfacet
facet normal 0 1 0
outer loop
vertex 19.625 8 -0.36067
vertex 19.625 8 -0.36797
vertex 18.875 8 -0.35391
endloop
endfacet
facet normal 0 1 0
outer loop
vertex 19.625 8 -0.36067
vertex 18.875 8 -0.35391
vertex 18.875 8 -0.33201
endloop
endfacet
facet normal 0 1 0
outer loop
vertex -19.625 8 0.15
vertex -19.625 8 -0.375
vertex -20 8 -0.375
endloop
endfacet
facet normal 0 1 0
outer loop
vertex -19.625 8 0.15
vertex -20 8 -0.375
vertex -20 8 0.15
endloop
endfacet
facet normal 1 0 0
outer loop
vertex 20 8 -0.375
vertex 20 8 0.375
vertex 20 -8 -0.375
endloop
endfacet
facet normal 1 0 0
outer loop
vertex 20 -8 -0.375
vertex 20 8 0.375
vertex 20 -8 0.375
endloop
endfacet
facet normal 0 0 1
outer loop
vertex -19.625 8 0.375
vertex -19.625 -7.69427 0.375
vertex -0.375 8 0.375
endloop
endfacet
facet normal 0 0 1
outer loop
vertex -19.625 -7.69427 0.375
vertex -19.625 -7.85 0.375
vertex -0.375 -0.15 0.375
endloop
endfacet
facet normal 0 0 1
outer loop
vertex -19.625 -7.69427 0.375
vertex -0.375 -0.15 0.375
vertex -0.375 8 0.375
endloop
endfacet
facet normal 0 0 1
outer loop
vertex -19.625 -7.85 0.375
vertex -19.625 -8 0.375
vertex -0.375 -8 0.375
endloop
endfacet
facet normal 0 0 1
outer loop
vertex -19.625 -7.85 0.375
vertex -0.375 -8 0.375
vertex -0.375 -0.15 0.375
endloop
endfacet
facet normal 0 0 1
outer loop
vertex 18.875 7.55 0.375
vertex 18.875 8 0.375
vertex 0.375 8 0.375
endloop
endfacet
facet normal 0 0 1
outer loop
vertex 18.875 7.55 0.375
vertex 0.375 8 0.375
vertex 0.375 0.15 0.375
endloop
endfacet
facet normal 0 0 1
outer loop
vertex 18.875 -8 0.375
vertex 18.875 7.0828 0.375
vertex 0.375 -8 0.375
endloop
endfacet
facet normal 0 0 1
outer loop
vertex 18.875 7.0828 0.375
vertex 18.875 7.55 0.375
vertex 0.375 0.15 0.375
endloop
endfacet
facet normal 0 0 1
outer loop
vertex 18.875 7.0828 0.375
vertex 0.375 0.15 0.375
vertex 0.375 -8 0.375
endloop
endfacet
facet normal 0 0 1
outer loop
vertex 19.625 7.85 0.375
vertex 20 8 0.375
vertex 19.625 8 0.375
endloop
endfacet
facet normal 0 0 1
outer loop
vertex 19.625 -8 0.375
vertex 20 -8 0.375
vertex 20 8 0.375
endloop
endfacet
facet normal 0 0 1
outer loop
vertex 19.625 -8 0.375
vertex 20 8 0.375
vertex 19.625 7.69427 0.375
endloop
endfacet
facet normal 0 0 1
outer loop
vertex 19.625 7.69427 0.375
vertex 20 8 0.375
vertex 19.625 7.85 0.375
endloop
endfacet
facet normal 0 0 -1
outer loop
vertex -19.625 -8 -0.375
vertex -19.625 7.69427 -0.375
vertex -0.375 -8 -0.375
endloop
endfacet
facet normal 0 0 -1
outer loop
vertex -19.625 7.69427 -0.375
vertex -19.625 7.85 -0.375
vertex -0.375 0.15 -0.375
endloop
endfacet
facet normal 0 0 -1
outer loop
vertex -19.625 7.69427 -0.375
vertex -0.375 0.15 -0.375
vertex -0.375 -8 -0.375
endloop
endfacet
facet normal 0 0 -1
outer loop
vertex -19.625 7.85 -0.375
vertex -19.625 8 -0.375
vertex -0.375 8 -0.375
endloop
endfacet
facet normal 0 0 -1
outer loop
vertex -19.625 7.85 -0.375
vertex -0.375 8 -0.375
vertex -0.375 0.15 -0.375
endloop
endfacet
facet normal 0 0 -1
outer loop
vertex 18.875 -7.55 -0.375
vertex 18.875 -8 -0.375
vertex 0.375 -8 -0.375
endloop
endfacet
facet normal 0 0 -1
outer loop
vertex 18.875 -7.55 -0.375
vertex 0.375 -8 -0.375
vertex 0.375 -0.15 -0.375
endloop
endfacet
facet normal 0 0 -1
outer loop
vertex 18.875 8 -0.375
vertex 18.875 -7.0828 -0.375
vertex 0.375 8 -0.375
endloop
endfacet
facet normal 0 0 -1
outer loop
vertex 18.875 -7.0828 -0.375
vertex 18.875 -7.55 -0.375
vertex 0.375 -0.15 -0.375
endloop
endfacet
facet normal 0 0 -1
outer loop
vertex 18.875 -7.0828 -0.375
vertex 0.375 -0.15 -0.375
vertex 0.375 8 -0.375
endloop
endfacet
facet normal 0 0 -1
outer loop
vertex -0.375 0.15 -0.375
vertex 0.375 -0.15 -0.375
vertex 0.375 -8 -0.375
endloop
endfacet
facet normal 0 0 -1
outer loop
vertex -0.375 0.15 -0.375
vertex 0.375 -8 -0.375
vertex -0.375 -8 -0.375
endloop
endfacet
facet normal 0 0 -1
outer loop
vertex -0.375 8 -0.375
vertex 0.375 8 -0.375
vertex 0.375 -0.15 -0.375
endloop
endfacet
facet normal 0 0 -1
outer loop
vertex -0.375 8 -0.375
vertex 0.375 -0.15 -0.375
vertex -0.375 0.15 -0.375
endloop
endfacet
facet normal 0 0 -1
outer loop
vertex 19.625 -7.85 -0.375
vertex 20 -8 -0.375
vertex 19.625 -8 -0.375
endloop
endfacet
facet normal 0 0 -1
outer loop
vertex 19.625 8 -0.375
vertex 20 8 -0.375
vertex 20 -8 -0.375
endloop
endfacet
facet normal 0 0 -1
outer loop
vertex 19.625 8 -0.375
vertex 20 -8 -0.375
vertex 19.625 -7.69427 -0.375
endloop
endfacet
facet normal 0 0 -1
outer loop
vertex 19.625 -7.69427 -0.375
vertex 20 -8 -0.375
vertex 19.625 -7.85 -0.375
endloop
endfacet
facet normal 0 0 -1
outer loop
vertex 19.625 -7.85 -0.375
vertex 19.625 -8 -0.375
vertex 18.875 -8 -0.375
endloop
endfacet
facet normal 0 0 -1
outer loop
vertex 19.625 -7.85 -0.375
vertex 18.875 -8 -0.375
vertex 18.875 -7.55 -0.375
endloop
endfacet
facet normal 0 0 -1
outer loop
vertex 19.625 8 -0.375
vertex 19.625 -7.69427 -0.375
vertex 18.875 -7.0828 -0.375
endloop
endfacet
facet normal 0 0 -1
outer loop
vertex 19.625 8 -0.375
vertex 18.875 -7.0828 -0.375
vertex 18.875 8 -0.375
endloop
endfacet
facet normal 0 0 -1
outer loop
vertex 19.625 -7.69427 -0.375
vertex 19.625 -7.85 -0.375
vertex 18.875 -7.55 -0.375
endloop
endfacet
facet normal 0 0 -1
outer loop
vertex 19.625 -7.69427 -0.375
vertex 18.875 -7.55 -0.375
vertex 18.875 -7.0828 -0.375
endloop
endfacet
facet normal 0 0 -1
outer loop
vertex -19.625 -8 -0.375
vertex -20 -8 -0.375
vertex -20 8 -0.375
endloop
endfacet
facet normal 0 0 -1
outer loop
vertex -19.625 -8 -0.375
vertex -20 8 -0.375
vertex -19.625 7.69427 -0.375
endloop
endfacet
facet normal 0 0 -1
outer loop
vertex -19.625 7.69427 -0.375
vertex -20 8 -0.375
vertex -19.625 7.85 -0.375
endloop
endfacet
facet normal 0 0 -1
outer loop
vertex -19.625 7.85 -0.375
vertex -20 8 -0.375
vertex -19.625 8 -0.375
endloop
endfacet
facet normal 1 0 0
outer loop
vertex -0.375 -4 0.375
vertex -0.375 -8 0.375
vertex -0.375 -8 0.15
endloop
endfacet
facet normal 1 0 0
outer loop
vertex -0.375 -4 0.375
vertex -0.375 -8 0.15
vertex -0.375 8 0.15
endloop
endfacet
facet normal 1 0 0
outer loop
vertex -0.375 -4 0.375
vertex -0.375 8 0.15
vertex -0.375 8 0.375
endloop
endfacet
facet normal -1 0 0
outer loop
vertex 0.375 4 0.375
vertex 0.375 8 0.375
vertex 0.375 8 0.15
endloop
endfacet
facet normal -1 0 0
outer loop
vertex 0.375 4 0.375
vertex 0.375 8 0.15
vertex 0.375 -8 0.15
endloop
endfacet
facet normal -1 0 0
outer loop
vertex 0.375 4 0.375
vertex 0.375 -8 0.15
vertex 0.375 -8 0.375
endloop
endfacet
facet normal 0 0 1
outer loop
vertex -0.375 8 0.15
vertex -0.375 -8 0.15
vertex 0.375 -8 0.15
endloop
endfacet
facet normal 0 0 1
outer loop
vertex 0.375 8 0.15
vertex -0.375 8 0.15
vertex 0.375 -8 0.15
endloop
endfacet
facet normal 1 0 0
outer loop
vertex 18.875 -4 0.375
vertex 18.875 -8 0.375
vertex 18.875 -8 0.15
endloop
endfacet
facet normal 1 0 0
outer loop
vertex 18.875 -4 0.375
vertex 18.875 -8 0.15
vertex 18.875 8 0.15
endloop
endfacet
facet normal 1 0 0
outer loop
vertex 18.875 -4 0.375
vertex 18.875 8 0.15
vertex 18.875 8 0.375
endloop
endfacet
facet normal -1 0 0
outer loop
vertex 19.625 4 0.375
vertex 19.625 8 0.375
vertex 19.625 8 0.15
endloop
endfacet
facet normal -1 0 0
outer loop
vertex 19.625 4 0.375
vertex 19.625 8 0.15
vertex 19.625 -8 0.15
endloop
endfacet
facet normal -1 0 0
outer loop
vertex 19.625 4 0.375
vertex 19.625 -8 0.15
vertex 19.625 -8 0.375
endloop
endfacet
facet normal 0 0 1
outer loop
vertex 18.875 8 0.15
vertex 18.875 -8 0.15
vertex 19.625 -8 0.15
endloop
endfacet
facet normal 0 0 1
outer loop
vertex 19.625 8 0.15
vertex 18.875 8 0.15
vertex 19.625 -8 0.15
endloop
endfacet
facet normal -1 0 0
outer loop
vertex -19.625 4 0.375
vertex -19.625 8 0.375
vertex -19.625 8 0.15
endloop
endfacet
facet normal -1 0 0
outer loop
vertex -19.625 4 0.375
vertex -19.625 8 0.15
vertex -19.625 -8 0.15
endloop
endfacet
facet normal -1 0 0
outer loop
vertex -19.625 4 0.375
vertex -19.625 -8 0.15
vertex -19.625 -8 0.375
endloop
endfacet
facet normal 0 0 1
outer loop
vertex -20 -8 0.15
vertex -19.625 -8 0.15
vertex -20 0 0.15
endloop
endfacet
facet normal 0 0 1
outer loop
vertex -20 8 0.15
vertex -20 0 0.15
vertex -19.625 -8 0.15
endloop
endfacet
facet normal 0 0 1
outer loop
vertex -20 8 0.15
vertex -19.625 -8 0.15
vertex -19.625 8 0.15
endloop
endfacet
endsolid JSxCAD
