solid JSxCAD
facet normal 0 -1 0
outer loop
vertex 20.025 -8 0.15
vertex 20.025 -8 20.15
vertex 19.275 -8 0.15
endloop
endfacet
facet normal 0 -1 0
outer loop
vertex 19.275 -8 0.15
vertex 20.025 -8 20.15
vertex 19.275 -8 20.15
endloop
endfacet
facet normal -1 0 0
outer loop
vertex 19.275 -8 0.15
vertex 19.275 -8 20.15
vertex 19.275 8 0.15
endloop
endfacet
facet normal -1 0 0
outer loop
vertex 19.275 8 0.15
vertex 19.275 -8 20.15
vertex 19.275 8 20.15
endloop
endfacet
facet normal 0 1 0
outer loop
vertex 19.275 8 0.15
vertex 19.275 8 20.15
vertex 20.025 8 0.15
endloop
endfacet
facet normal 0 1 0
outer loop
vertex 20.025 8 0.15
vertex 19.275 8 20.15
vertex 20.025 8 20.15
endloop
endfacet
facet normal 1 0 0
outer loop
vertex 20.025 8 0.15
vertex 20.025 8 20.15
vertex 20.025 -8 0.15
endloop
endfacet
facet normal 1 0 0
outer loop
vertex 20.025 -8 0.15
vertex 20.025 8 20.15
vertex 20.025 -8 20.15
endloop
endfacet
facet normal 0 0 1
outer loop
vertex 20.025 8 20.15
vertex 19.275 8 20.15
vertex 19.275 -8 20.15
endloop
endfacet
facet normal 0 0 1
outer loop
vertex 20.025 8 20.15
vertex 19.275 -8 20.15
vertex 20.025 -8 20.15
endloop
endfacet
facet normal 0 0 -1
outer loop
vertex 20.025 -8 0.15
vertex 19.275 -8 0.15
vertex 19.275 8 0.15
endloop
endfacet
facet normal 0 0 -1
outer loop
vertex 20.025 -8 0.15
vertex 19.275 8 0.15
vertex 20.025 8 0.15
endloop
endfacet
facet normal 0 0 -1
outer loop
vertex 19.275 -8 -0.375
vertex -20 -8 -0.375
vertex -20 8 -0.375
endloop
endfacet
facet normal 0 0 -1
outer loop
vertex 19.275 -8 -0.375
vertex -20 8 -0.375
vertex 19.275 8 -0.375
endloop
endfacet
facet normal 0 0 -1
outer loop
vertex 19.275 -8 -0.375
vertex 19.275 8 -0.375
vertex 20 8 -0.375
endloop
endfacet
facet normal 0 0 -1
outer loop
vertex 19.275 -8 -0.375
vertex 20 8 -0.375
vertex 20 -8 -0.375
endloop
endfacet
facet normal 0 0 1
outer loop
vertex -19.275 8 0.375
vertex -19.275 -8 0.375
vertex -0.375 -8 0.375
endloop
endfacet
facet normal 0 0 1
outer loop
vertex -19.275 8 0.375
vertex -0.375 -8 0.375
vertex -0.375 8 0.375
endloop
endfacet
facet normal 0 0 1
outer loop
vertex 19.275 8 0.375
vertex 0.375 8 0.375
vertex 0.375 -8 0.375
endloop
endfacet
facet normal 0 0 1
outer loop
vertex 19.275 8 0.375
vertex 0.375 -8 0.375
vertex 19.275 -8 0.375
endloop
endfacet
facet normal 0 -1 0
outer loop
vertex 19.275 -8 0.15
vertex 8 -8 0.15
vertex -20 -8 -0.375
endloop
endfacet
facet normal 0 -1 0
outer loop
vertex 19.275 -8 0.15
vertex -20 -8 -0.375
vertex 19.275 -8 -0.375
endloop
endfacet
facet normal 0 -1 0
outer loop
vertex -20 -8 0.15
vertex -20 -8 -0.375
vertex 8 -8 0.15
endloop
endfacet
facet normal 0 -1 0
outer loop
vertex -19.275 -8 0.375
vertex -19.275 -8 0.15
vertex -0.375 -8 0.15
endloop
endfacet
facet normal 0 -1 0
outer loop
vertex -19.275 -8 0.375
vertex -0.375 -8 0.15
vertex -0.375 -8 0.375
endloop
endfacet
facet normal 0 -1 0
outer loop
vertex 19.275 -8 0.36141
vertex 8 -8 0.15
vertex 19.275 -8 0.15
endloop
endfacet
facet normal 0 -1 0
outer loop
vertex 8 -8 0.15
vertex 19.275 -8 0.36141
vertex 19.275 -8 0.375
endloop
endfacet
facet normal 0 -1 0
outer loop
vertex 8 -8 0.15
vertex 19.275 -8 0.375
vertex 0.375 -8 0.375
endloop
endfacet
facet normal 0 -1 0
outer loop
vertex 8 -8 0.15
vertex 0.375 -8 0.375
vertex 0.375 -8 0.15
endloop
endfacet
facet normal 0 -1 0
outer loop
vertex 19.275 -8 0.15
vertex 19.275 -8 -0.375
vertex 20 -8 -0.375
endloop
endfacet
facet normal 0 -1 0
outer loop
vertex 19.275 -8 0.15
vertex 20 -8 -0.375
vertex 20 -8 0.15
endloop
endfacet
facet normal 0 1 0
outer loop
vertex -8 8 0.15
vertex 19.275 8 -0.36141
vertex 19.275 8 -0.375
endloop
endfacet
facet normal 0 1 0
outer loop
vertex -8 8 0.15
vertex 19.275 8 -0.375
vertex -20 8 -0.375
endloop
endfacet
facet normal 0 1 0
outer loop
vertex -8 8 0.15
vertex -20 8 -0.375
vertex -20 8 0.15
endloop
endfacet
facet normal 0 1 0
outer loop
vertex 19.275 8 0.15
vertex 19.275 8 -0.36141
vertex -8 8 0.15
endloop
endfacet
facet normal 0 1 0
outer loop
vertex -19.275 8 0.36141
vertex -8 8 0.15
vertex -19.275 8 0.15
endloop
endfacet
facet normal 0 1 0
outer loop
vertex -19.275 8 0.375
vertex -0.375 8 0.375
vertex -0.375 8 0.15
endloop
endfacet
facet normal 0 1 0
outer loop
vertex -19.275 8 0.375
vertex -0.375 8 0.15
vertex -8 8 0.15
endloop
endfacet
facet normal 0 1 0
outer loop
vertex -19.275 8 0.375
vertex -8 8 0.15
vertex -19.275 8 0.36141
endloop
endfacet
facet normal 0 1 0
outer loop
vertex 19.275 8 0.15
vertex 0.375 8 0.15
vertex 0.375 8 0.375
endloop
endfacet
facet normal 0 1 0
outer loop
vertex 19.275 8 0.15
vertex 0.375 8 0.375
vertex 19.275 8 0.375
endloop
endfacet
facet normal 0 1 0
outer loop
vertex 19.275 8 -0.36141
vertex 20 8 -0.375
vertex 19.275 8 -0.375
endloop
endfacet
facet normal 0 1 0
outer loop
vertex 19.275 8 0.15
vertex 20 8 0.15
vertex 20 8 -0.375
endloop
endfacet
facet normal 0 1 0
outer loop
vertex 19.275 8 0.15
vertex 20 8 -0.375
vertex 19.275 8 -0.36141
endloop
endfacet
facet normal 0 0 1
outer loop
vertex 0.375 8 0.15
vertex -0.375 8 0.15
vertex -0.375 -8 0.15
endloop
endfacet
facet normal 0 0 1
outer loop
vertex 0.375 8 0.15
vertex -0.375 -8 0.15
vertex 0.375 -8 0.15
endloop
endfacet
facet normal 0 0 1
outer loop
vertex -20 8 0.15
vertex -20 -8 0.15
vertex -19.275 -8 0.15
endloop
endfacet
facet normal 0 0 1
outer loop
vertex -20 8 0.15
vertex -19.275 -8 0.15
vertex -19.275 8 0.15
endloop
endfacet
facet normal 0 0 1
outer loop
vertex 20 8 0.15
vertex 19.375 8 0.15
vertex 19.375 -8 0.15
endloop
endfacet
facet normal 0 0 1
outer loop
vertex 20 8 0.15
vertex 19.375 -8 0.15
vertex 20 -8 0.15
endloop
endfacet
facet normal 0 0 1
outer loop
vertex 19.375 8 0.15
vertex 19.275 8 0.15
vertex 19.275 -8 0.15
endloop
endfacet
facet normal 0 0 1
outer loop
vertex 19.375 8 0.15
vertex 19.275 -8 0.15
vertex 19.375 -8 0.15
endloop
endfacet
facet normal 1 0 0
outer loop
vertex -0.375 -4 0.375
vertex -0.375 -8 0.375
vertex -0.375 -8 0.15
endloop
endfacet
facet normal 1 0 0
outer loop
vertex -0.375 -4 0.375
vertex -0.375 -8 0.15
vertex -0.375 8 0.15
endloop
endfacet
facet normal 1 0 0
outer loop
vertex -0.375 -4 0.375
vertex -0.375 8 0.15
vertex -0.375 8 0.375
endloop
endfacet
facet normal -1 0 0
outer loop
vertex 0.375 4 0.375
vertex 0.375 8 0.375
vertex 0.375 8 0.15
endloop
endfacet
facet normal -1 0 0
outer loop
vertex 0.375 4 0.375
vertex 0.375 8 0.15
vertex 0.375 -8 0.15
endloop
endfacet
facet normal -1 0 0
outer loop
vertex 0.375 4 0.375
vertex 0.375 -8 0.15
vertex 0.375 -8 0.375
endloop
endfacet
facet normal 1 0 0
outer loop
vertex 19.275 7.82 0.375
vertex 19.275 -8 0.375
vertex 19.275 -8 0.15
endloop
endfacet
facet normal 1 0 0
outer loop
vertex 19.275 7.82 0.375
vertex 19.275 -8 0.15
vertex 19.275 8 0.15
endloop
endfacet
facet normal 1 0 0
outer loop
vertex 19.275 7.82 0.375
vertex 19.275 8 0.15
vertex 19.275 8 0.375
endloop
endfacet
facet normal -1 0 0
outer loop
vertex -19.275 4 0.375
vertex -19.275 8 0.375
vertex -19.275 8 0.15
endloop
endfacet
facet normal -1 0 0
outer loop
vertex -19.275 4 0.375
vertex -19.275 8 0.15
vertex -19.275 -8 0.15
endloop
endfacet
facet normal -1 0 0
outer loop
vertex -19.275 4 0.375
vertex -19.275 -8 0.15
vertex -19.275 -8 0.375
endloop
endfacet
facet normal 1 0 0
outer loop
vertex 20 8 0.15
vertex 20 3.2 0.15
vertex 20 -8 -0.375
endloop
endfacet
facet normal 1 0 0
outer loop
vertex 20 8 0.15
vertex 20 -8 -0.375
vertex 20 8 -0.375
endloop
endfacet
facet normal 1 0 0
outer loop
vertex 20 3.2 0.15
vertex 20 -8 0.15
vertex 20 -8 -0.375
endloop
endfacet
facet normal -1 0 0
outer loop
vertex -20 -8 0.15
vertex -20 -3.2 0.15
vertex -20 8 -0.375
endloop
endfacet
facet normal -1 0 0
outer loop
vertex -20 -8 0.15
vertex -20 8 -0.375
vertex -20 -8 -0.375
endloop
endfacet
facet normal -1 0 0
outer loop
vertex -20 -3.2 0.15
vertex -20 8 0.15
vertex -20 8 -0.375
endloop
endfacet
facet normal -1 0 0
outer loop
vertex -0.375 -8 0.375
vertex -0.375 -8 20.15
vertex -0.375 7.82 0.375
endloop
endfacet
facet normal -1 0 0
outer loop
vertex -0.375 7.82 0.375
vertex -0.375 -8 20.15
vertex -0.375 8 20.15
endloop
endfacet
facet normal -1 0 0
outer loop
vertex -0.375 7.82 0.375
vertex -0.375 8 20.15
vertex -0.375 8 0.375
endloop
endfacet
facet normal -1 0 0
outer loop
vertex -0.375 -8 0.375
vertex -0.375 7.82 0.375
vertex -0.375 8 0.15
endloop
endfacet
facet normal -1 0 0
outer loop
vertex -0.375 -8 0.375
vertex -0.375 8 0.15
vertex -0.375 -8 0.15
endloop
endfacet
facet normal -1 0 0
outer loop
vertex -0.375 7.82 0.375
vertex -0.375 8 0.375
vertex -0.375 8 0.15
endloop
endfacet
facet normal 1 0 0
outer loop
vertex 0.375 8 0.375
vertex 0.375 8 20.15
vertex 0.375 -7.82 0.375
endloop
endfacet
facet normal 1 0 0
outer loop
vertex 0.375 -7.82 0.375
vertex 0.375 8 20.15
vertex 0.375 -8 20.15
endloop
endfacet
facet normal 1 0 0
outer loop
vertex 0.375 -7.82 0.375
vertex 0.375 -8 20.15
vertex 0.375 -8 0.375
endloop
endfacet
facet normal 1 0 0
outer loop
vertex 0.375 8 0.375
vertex 0.375 -7.82 0.375
vertex 0.375 -8 0.15
endloop
endfacet
facet normal 1 0 0
outer loop
vertex 0.375 8 0.375
vertex 0.375 -8 0.15
vertex 0.375 8 0.15
endloop
endfacet
facet normal 1 0 0
outer loop
vertex 0.375 -7.82 0.375
vertex 0.375 -8 0.375
vertex 0.375 -8 0.15
endloop
endfacet
facet normal 0 -1 0
outer loop
vertex 0.375 -8 0.375
vertex 0.375 -8 20.15
vertex -0.36656 -8 0.375
endloop
endfacet
facet normal 0 -1 0
outer loop
vertex -0.36656 -8 0.375
vertex 0.375 -8 20.15
vertex -0.375 -8 20.15
endloop
endfacet
facet normal 0 -1 0
outer loop
vertex -0.36656 -8 0.375
vertex -0.375 -8 20.15
vertex -0.375 -8 0.375
endloop
endfacet
facet normal 0 -1 0
outer loop
vertex 0.375 -8 0.375
vertex -0.36656 -8 0.375
vertex -0.375 -8 0.15
endloop
endfacet
facet normal 0 -1 0
outer loop
vertex 0.375 -8 0.375
vertex -0.375 -8 0.15
vertex 0.375 -8 0.15
endloop
endfacet
facet normal 0 -1 0
outer loop
vertex -0.36656 -8 0.375
vertex -0.375 -8 0.375
vertex -0.375 -8 0.15
endloop
endfacet
facet normal 0 1 0
outer loop
vertex -0.375 8 0.375
vertex -0.375 8 20.15
vertex 0.36656 8 0.375
endloop
endfacet
facet normal 0 1 0
outer loop
vertex 0.36656 8 0.375
vertex -0.375 8 20.15
vertex 0.375 8 20.15
endloop
endfacet
facet normal 0 1 0
outer loop
vertex 0.36656 8 0.375
vertex 0.375 8 20.15
vertex 0.375 8 0.375
endloop
endfacet
facet normal 0 1 0
outer loop
vertex -0.375 8 0.375
vertex 0.36656 8 0.375
vertex 0.375 8 0.15
endloop
endfacet
facet normal 0 1 0
outer loop
vertex -0.375 8 0.375
vertex 0.375 8 0.15
vertex -0.375 8 0.15
endloop
endfacet
facet normal 0 1 0
outer loop
vertex 0.36656 8 0.375
vertex 0.375 8 0.375
vertex 0.375 8 0.15
endloop
endfacet
facet normal 0 0 -1
outer loop
vertex 0.375 -8 0.15
vertex -0.375 -8 0.15
vertex -0.375 8 0.15
endloop
endfacet
facet normal 0 0 -1
outer loop
vertex 0.375 -8 0.15
vertex -0.375 8 0.15
vertex 0.375 8 0.15
endloop
endfacet
facet normal 0 0 1
outer loop
vertex 0.375 8 20.15
vertex -0.375 8 20.15
vertex -0.375 -8 20.15
endloop
endfacet
facet normal 0 0 1
outer loop
vertex 0.375 8 20.15
vertex -0.375 -8 20.15
vertex 0.375 -8 20.15
endloop
endfacet
endsolid JSxCAD
