<?xml version="1.0" encoding="UTF-8"?>
<!-- Generated by jsxcad -->
<!DOCTYPE svg PUBLIC "-//W3C//DTD SVG 1.1 Tiny//EN" "http://www.w3.org/Graphics/SVG/1.1/DTD/svg11-tiny.dtd">
<svg baseProfile="tiny" height="20.525 mm" width="40.05 mm" viewBox="0 0 40.05 20.525" version="1.1" stroke="black" stroke-width=".1" fill="none" xmlns="http://www.w3.org/2000/svg">
<path d="M19.65 19.775 L19.65 10 L19.65 0 L20.025 0 L20.4 0 L20.4 10 L20.4 19.775 L29.85 19.775 L39.3 19.775 L39.3 10 L39.3 0 L39.675 0 L40.05 0 L40.05 10 L40.05 19.775 L40.05 19.8875 L40.05 20 L40.0375 20 L40.025 20 L40.025 20.15 L40.025 20.2625 L40.025 20.525 L39.6625 20.525 L39.3 20.525 L29.85 20.525 L20.4 20.525 L20.025 20.525 L19.65 20.525 L10.2 20.525 L0.75 20.525 L0.3875 20.525 L0.025 20.525 L0.025 20.2625 L0.025 20.15 L0.025 20 L0.0125 20 L0 20 L0 19.8875 L0 19.775 L0 10 L0 0 L0.375 0 L0.75 0 L0.75 10 L0.75 19.775 L10.2 19.775 z"/>
</svg>