<?xml version="1.0" encoding="UTF-8"?>
<!-- Generated by jsxcad -->
<!DOCTYPE svg PUBLIC "-//W3C//DTD SVG 1.1 Tiny//EN" "http://www.w3.org/Graphics/SVG/1.1/DTD/svg11-tiny.dtd">
<svg baseProfile="tiny" height="0.75 mm" width="41.125 mm" viewBox="0 0 41.125 0.75" version="1.1" stroke="black" stroke-width=".1" fill="none" xmlns="http://www.w3.org/2000/svg">
<path d="M41.125 0.75 L41.125 0 L0 0.75 z"/>
<path d="M0 0.75 L41.125 0 L0 0 z"/>
<path d="M0 0 L0 0.3572 L0 0.75 z"/>
<path d="M0 0 L0 0.75 L0 0.75 z"/>
<path d="M0 0.3572 L0 0 L0 0 z"/>
<path d="M0 0.3572 L0 0.75 L0 0.75 z"/>
<path d="M0 0.3572 L0 0 L0 0 z"/>
<path d="M0 0.3572 L0 0 L0 0.75 z"/>
<path d="M0 0 L33.0125 0.60205 L33.0125 0.75 z"/>
<path d="M0 0 L33.0125 0.75 L0 0.75 z"/>
<path d="M33.0125 0.60205 L0 0 L33.0125 0 z"/>
<path d="M33.0125 0.60205 L41.125 0.75 L33.0125 0.75 z"/>
<path d="M33.0125 0.60205 L33.0125 0 L41.125 0 z"/>
<path d="M33.0125 0.60205 L41.125 0 L41.125 0.75 z"/>
<path d="M41.125 0.3928 L41.125 0.75 L41.125 0.75 z"/>
<path d="M41.125 0.3928 L41.125 0 L41.125 0 z"/>
<path d="M41.125 0.3928 L41.125 0 L41.125 0.75 z"/>
<path d="M41.125 0.3572 L41.125 0.75 L41.125 0.75 z"/>
<path d="M41.125 0.3572 L41.125 0.75 L41.125 0 z"/>
<path d="M41.125 0.3572 L41.125 0 L41.125 0 z"/>
<path d="M41.125 0.3572 L41.125 0.3928 L41.125 0.75 z"/>
<path d="M41.125 0.3572 L41.125 0.75 L41.125 0.75 z"/>
<path d="M41.125 0.225 L41.125 0.225 L41.125 0.3928 z"/>
<path d="M41.125 0.225 L41.125 0.3928 L41.125 0.3572 z"/>
<path d="M0 0 L0 0 L19.58643 0 z"/>
<path d="M19.58643 0 L0 0 L41.125 0 z"/>
<path d="M19.58643 0 L41.125 0 L41.125 0 z"/>
<path d="M0 0 L19.58643 0 L33.0125 0 z"/>
<path d="M0 0 L33.0125 0 L33.0125 0 z"/>
<path d="M0 0 L33.0125 0 L0 0 z"/>
<path d="M33.0125 0 L33.0125 0 L19.58643 0 z"/>
<path d="M33.0125 0 L41.125 0 L33.0125 0 z"/>
<path d="M41.125 0 L41.125 0 L33.0125 0 z"/>
<path d="M41.125 0 L33.0125 0 L33.0125 0 z"/>
<path d="M0 0.75 L0 0.75 L21.53857 0.75 z"/>
<path d="M0 0.75 L21.53857 0.75 L41.125 0.75 z"/>
<path d="M21.53857 0.75 L41.125 0.75 L41.125 0.75 z"/>
<path d="M0 0.75 L0 0.75 L21.53857 0.75 z"/>
<path d="M0 0.75 L33.0125 0.75 L33.0125 0.75 z"/>
<path d="M0 0.75 L33.0125 0.75 L21.53857 0.75 z"/>
<path d="M41.125 0.75 L41.125 0.75 L33.0125 0.75 z"/>
<path d="M41.125 0.75 L33.0125 0.75 L33.0125 0.75 z"/>
<path d="M41.125 0.75 L41.125 0.75 L33.0125 0.75 z"/>
<path d="M41.125 0.75 L33.0125 0.75 L33.0125 0.75 z"/>
<path d="M41.125 0.07193 L41.125 0.225 L33.0125 0.225 z"/>
<path d="M41.125 0 L41.125 0.07193 L33.0125 0.225 z"/>
<path d="M41.125 0 L33.0125 0.225 L33.0125 0 z"/>
<path d="M33.0125 0 L33.0125 0 L33.0125 0.225 z"/>
<path d="M33.0125 0 L33.0125 0.225 L33.0125 0.225 z"/>
<path d="M33.0125 0 L33.0125 0.225 L33.0125 0 z"/>
<path d="M36.9875 0 L33.0125 0 L33.0125 0.225 z"/>
<path d="M36.9875 0 L33.0125 0.225 L41.125 0.225 z"/>
<path d="M36.9875 0 L41.125 0.225 L41.125 0.07807 z"/>
<path d="M36.9875 0 L41.125 0.07807 L41.125 0 z"/>
<path d="M33.0125 0.225 L41.125 0.225 L41.125 0.225 z"/>
<path d="M33.0125 0.225 L41.125 0.225 L33.0125 0.225 z"/>
<path d="M41.125 0.225 L33.0125 0.225 L41.125 0.225 z"/>
</svg>