<?xml version="1.0" encoding="UTF-8"?>
<!-- Generated by jsxcad -->
<!DOCTYPE svg PUBLIC "-//W3C//DTD SVG 1.1 Tiny//EN" "http://www.w3.org/Graphics/SVG/1.1/DTD/svg11-tiny.dtd">
<svg baseProfile="tiny" height="0.75 mm" width="40 mm" viewBox="0 0 40 0.75" version="1.1" stroke="black" stroke-width=".1" fill="none" xmlns="http://www.w3.org/2000/svg">
<path d="M40 0.75 L40 0 L0 0.75 z"/>
<path d="M0 0.75 L40 0 L0 0 z"/>
<path d="M0 0 L0 0.00234 L0 0.75 z"/>
<path d="M0 0 L0 0.75 L0 0.75 z"/>
<path d="M0 0.00234 L0 0 L0 0 z"/>
<path d="M0 0.74766 L0 0.75 L0 0.75 z"/>
<path d="M0 0 L0 0 L0 0.00001 z"/>
<path d="M0 0.00001 L0 0 L0 0.75 z"/>
<path d="M0 0.00001 L0 0.75 L0 0.74766 z"/>
<path d="M0 0.74766 L0 0.75 L0 0.75 z"/>
<path d="M0 0.74766 L0 0.75 L0 0.00234 z"/>
<path d="M0 0 L0 0 L0 0.00001 z"/>
<path d="M0 0 L0 0.00001 L0 0.00234 z"/>
<path d="M0 0.00001 L0 0.74766 L0 0.00234 z"/>
<path d="M0 0 L19.625 0.36797 L19.625 0.75 z"/>
<path d="M0 0 L19.625 0.75 L0 0.75 z"/>
<path d="M19.625 0.36797 L0 0 L19.625 0 z"/>
<path d="M19.625 0.36797 L40 0.75 L19.625 0.75 z"/>
<path d="M19.625 0.36797 L19.625 0 L40 0 z"/>
<path d="M19.625 0.36797 L40 0 L40 0.75 z"/>
<path d="M40 0.74766 L40 0.75 L40 0.75 z"/>
<path d="M40 0.74766 L40 0 L40 0 z"/>
<path d="M40 0.74766 L40 0 L40 0.75 z"/>
<path d="M40 0.00234 L40 0.75 L40 0.75 z"/>
<path d="M40 0.00234 L40 0.75 L40 0 z"/>
<path d="M40 0.00234 L40 0 L40 0 z"/>
<path d="M40 0.00234 L40 0.74766 L40 0.75 z"/>
<path d="M40 0.00234 L40 0.75 L40 0.75 z"/>
<path d="M40 0.00234 L40 0 L40 0 z"/>
<path d="M40 0.00234 L40 0 L40 0.74766 z"/>
<path d="M0 0 L0 0 L0.125 0 z"/>
<path d="M0.125 0 L0 0 L40 0 z"/>
<path d="M0.125 0 L40 0 L40 0 z"/>
<path d="M19.625 0 L19.625 0 L19.56348 0 z"/>
<path d="M19.56348 0 L19.625 0 L0 0 z"/>
<path d="M19.56348 0 L0 0 L0 0 z"/>
<path d="M39.875 0 L40 0 L19.625 0 z"/>
<path d="M39.875 0 L19.625 0 L19.625 0 z"/>
<path d="M40 0 L40 0 L39.875 0 z"/>
<path d="M0 0 L0.125 0 L19.625 0 z"/>
<path d="M19.625 0 L19.625 0 L19.56348 0 z"/>
<path d="M19.625 0 L19.56348 0 L0 0 z"/>
<path d="M19.56348 0 L0 0 L0 0 z"/>
<path d="M19.625 0 L19.625 0 L0.125 0 z"/>
<path d="M20.375 0 L20.375 0 L39.875 0 z"/>
<path d="M40 0 L39.875 0 L20.375 0 z"/>
<path d="M40 0 L20.375 0 L20.375 0 z"/>
<path d="M40 0 L20.375 0 L40 0 z"/>
<path d="M0 0.75 L0 0.75 L39.875 0.75 z"/>
<path d="M0 0.75 L39.875 0.75 L40 0.75 z"/>
<path d="M39.875 0.75 L40 0.75 L40 0.75 z"/>
<path d="M0.125 0.75 L0.06152 0.75 L0 0.75 z"/>
<path d="M0.06152 0.75 L0 0.75 L0 0.75 z"/>
<path d="M0.125 0.75 L0 0.75 L19.625 0.75 z"/>
<path d="M0.125 0.75 L19.625 0.75 L19.625 0.75 z"/>
<path d="M19.625 0.75 L19.625 0.75 L40 0.75 z"/>
<path d="M19.625 0.75 L40 0.75 L40 0.75 z"/>
<path d="M0.125 0.75 L19.625 0.75 L19.625 0.75 z"/>
<path d="M0.125 0.75 L19.625 0.75 L0.06152 0.75 z"/>
<path d="M0.06152 0.75 L19.625 0.75 L0 0.75 z"/>
<path d="M0.06152 0.75 L0 0.75 L0 0.75 z"/>
<path d="M0.125 0.75 L19.625 0.75 L19.625 0.75 z"/>
<path d="M20.375 0.75 L39.875 0.75 L20.375 0.75 z"/>
<path d="M20.375 0.75 L40 0.75 L40 0.75 z"/>
<path d="M20.375 0.75 L40 0.75 L39.875 0.75 z"/>
<path d="M20.375 0.75 L39.875 0.75 L20.375 0.75 z"/>
<path d="M20.375 0.75 L20.375 0.75 L19.625 0.75 z"/>
<path d="M20.375 0.75 L19.625 0.75 L19.625 0.75 z"/>
<path d="M20.375 0.75 L20.375 0.75 L19.625 0.75 z"/>
<path d="M20.375 0.75 L19.625 0.75 L19.625 0.75 z"/>
<path d="M20.1875 0 L20.375 0 L20.375 0.225 z"/>
<path d="M20.1875 0 L20.375 0.225 L19.625 0.225 z"/>
<path d="M20.1875 0 L19.625 0.225 L19.625 0 z"/>
<path d="M19.625 0 L19.625 0 L19.625 0.225 z"/>
<path d="M19.625 0 L19.625 0.225 L19.625 0.225 z"/>
<path d="M19.625 0 L19.625 0.225 L19.625 0 z"/>
<path d="M19.8125 0 L19.625 0 L19.625 0.225 z"/>
<path d="M19.8125 0 L19.625 0.225 L20.375 0.225 z"/>
<path d="M19.8125 0 L20.375 0.225 L20.375 0 z"/>
<path d="M20.375 0 L20.375 0 L20.375 0.225 z"/>
<path d="M20.375 0 L20.375 0.225 L20.375 0.225 z"/>
<path d="M20.375 0 L20.375 0.225 L20.375 0 z"/>
<path d="M19.625 0.225 L19.625 0.225 L20.375 0.225 z"/>
<path d="M20.375 0.225 L19.625 0.225 L20.375 0.225 z"/>
</svg>