solid JSxCAD
facet normal -1 0 0
outer loop
vertex -0.375 -8 0.375
vertex -0.375 -8 19.7
vertex -0.375 7.46 0.375
endloop
endfacet
facet normal -1 0 0
outer loop
vertex -0.375 7.46 0.375
vertex -0.375 -8 19.7
vertex -0.375 8 19.7
endloop
endfacet
facet normal -1 0 0
outer loop
vertex -0.375 7.46 0.375
vertex -0.375 8 19.7
vertex -0.375 8 0.375
endloop
endfacet
facet normal -1 0 0
outer loop
vertex -0.375 7.46 0.375
vertex -0.375 7.64 0.15
vertex -0.375 -8 0.15
endloop
endfacet
facet normal -1 0 0
outer loop
vertex -0.375 7.46 0.375
vertex -0.375 -8 0.15
vertex -0.375 -8 0.375
endloop
endfacet
facet normal -1 0 0
outer loop
vertex -0.375 8 0.375
vertex -0.375 8 0.15
vertex -0.375 7.64 0.15
endloop
endfacet
facet normal -1 0 0
outer loop
vertex -0.375 8 0.375
vertex -0.375 7.64 0.15
vertex -0.375 7.46 0.375
endloop
endfacet
facet normal 1 0 0
outer loop
vertex 0.375 8 0.375
vertex 0.375 8 19.7
vertex 0.375 -7.46 0.375
endloop
endfacet
facet normal 1 0 0
outer loop
vertex 0.375 -7.46 0.375
vertex 0.375 8 19.7
vertex 0.375 -8 19.7
endloop
endfacet
facet normal 1 0 0
outer loop
vertex 0.375 -7.46 0.375
vertex 0.375 -8 19.7
vertex 0.375 -8 0.375
endloop
endfacet
facet normal 1 0 0
outer loop
vertex 0.375 -7.46 0.375
vertex 0.375 -7.64 0.15
vertex 0.375 8 0.15
endloop
endfacet
facet normal 1 0 0
outer loop
vertex 0.375 -7.46 0.375
vertex 0.375 8 0.15
vertex 0.375 8 0.375
endloop
endfacet
facet normal 1 0 0
outer loop
vertex 0.375 -8 0.375
vertex 0.375 -8 0.15
vertex 0.375 -7.64 0.15
endloop
endfacet
facet normal 1 0 0
outer loop
vertex 0.375 -8 0.375
vertex 0.375 -7.64 0.15
vertex 0.375 -7.46 0.375
endloop
endfacet
facet normal 0 -1 0
outer loop
vertex 0.375 -8 0.375
vertex 0.375 -8 19.7
vertex -0.34969 -8 0.375
endloop
endfacet
facet normal 0 -1 0
outer loop
vertex -0.34969 -8 0.375
vertex 0.375 -8 19.7
vertex -0.375 -8 19.7
endloop
endfacet
facet normal 0 -1 0
outer loop
vertex -0.34969 -8 0.375
vertex -0.375 -8 19.7
vertex -0.375 -8 0.375
endloop
endfacet
facet normal 0 -1 0
outer loop
vertex -0.34969 -8 0.375
vertex -0.35813 -8 0.15
vertex 0.375 -8 0.15
endloop
endfacet
facet normal 0 -1 0
outer loop
vertex -0.34969 -8 0.375
vertex 0.375 -8 0.15
vertex 0.375 -8 0.375
endloop
endfacet
facet normal 0 -1 0
outer loop
vertex -0.375 -8 0.375
vertex -0.375 -8 0.15
vertex -0.35812 -8 0.15
endloop
endfacet
facet normal 0 -1 0
outer loop
vertex -0.375 -8 0.375
vertex -0.35812 -8 0.15
vertex -0.34969 -8 0.375
endloop
endfacet
facet normal 0 1 0
outer loop
vertex -0.375 8 0.375
vertex -0.375 8 19.7
vertex 0.34969 8 0.375
endloop
endfacet
facet normal 0 1 0
outer loop
vertex 0.34969 8 0.375
vertex -0.375 8 19.7
vertex 0.375 8 19.7
endloop
endfacet
facet normal 0 1 0
outer loop
vertex 0.34969 8 0.375
vertex 0.375 8 19.7
vertex 0.375 8 0.375
endloop
endfacet
facet normal 0 1 0
outer loop
vertex 0.34969 8 0.375
vertex 0.35813 8 0.15
vertex -0.375 8 0.15
endloop
endfacet
facet normal 0 1 0
outer loop
vertex 0.34969 8 0.375
vertex -0.375 8 0.15
vertex -0.375 8 0.375
endloop
endfacet
facet normal 0 1 0
outer loop
vertex 0.375 8 0.375
vertex 0.375 8 0.15
vertex 0.35813 8 0.15
endloop
endfacet
facet normal 0 1 0
outer loop
vertex 0.375 8 0.375
vertex 0.35813 8 0.15
vertex 0.34969 8 0.375
endloop
endfacet
facet normal 0 0 1
outer loop
vertex 0.375 8 19.7
vertex -0.375 8 19.7
vertex -0.375 -8 19.7
endloop
endfacet
facet normal 0 0 1
outer loop
vertex 0.375 8 19.7
vertex -0.375 -8 19.7
vertex 0.375 -8 19.7
endloop
endfacet
facet normal 0 0 -1
outer loop
vertex 0.375 -8 0.15
vertex -0.375 -8 0.15
vertex -0.375 8 0.15
endloop
endfacet
facet normal 0 0 -1
outer loop
vertex 0.375 -8 0.15
vertex -0.375 8 0.15
vertex 0.375 8 0.15
endloop
endfacet
endsolid JSxCAD
