solid JSxCAD
facet normal 1 0 0
outer loop
vertex 0.375 8 20.75
vertex 0.375 8 30.15
vertex 0.375 0.48 20.75
endloop
endfacet
facet normal 1 0 0
outer loop
vertex 0.375 0.48 20.75
vertex 0.375 8 30.15
vertex 0.375 -8 30.15
endloop
endfacet
facet normal 1 0 0
outer loop
vertex 0.375 0.48 20.75
vertex 0.375 -8 30.15
vertex 0.375 -8 20.75
endloop
endfacet
facet normal 1 0 0
outer loop
vertex 0.375 -0.12 20
vertex 0.375 -8 10.15
vertex 0.375 8 10.15
endloop
endfacet
facet normal 1 0 0
outer loop
vertex 0.375 -0.12 20
vertex 0.375 8 10.15
vertex 0.375 8 20
endloop
endfacet
facet normal 1 0 0
outer loop
vertex 0.375 -8 20
vertex 0.375 -8 10.15
vertex 0.375 -0.12 20
endloop
endfacet
facet normal -1 0 0
outer loop
vertex -0.375 -8 20.75
vertex -0.375 -8 30.15
vertex -0.375 -0.48 20.75
endloop
endfacet
facet normal -1 0 0
outer loop
vertex -0.375 -0.48 20.75
vertex -0.375 -8 30.15
vertex -0.375 8 30.15
endloop
endfacet
facet normal -1 0 0
outer loop
vertex -0.375 -0.48 20.75
vertex -0.375 8 30.15
vertex -0.375 8 20.75
endloop
endfacet
facet normal -1 0 0
outer loop
vertex -0.375 0.12 20
vertex -0.375 8 10.15
vertex -0.375 -8 10.15
endloop
endfacet
facet normal -1 0 0
outer loop
vertex -0.375 0.12 20
vertex -0.375 -8 10.15
vertex -0.375 -8 20
endloop
endfacet
facet normal -1 0 0
outer loop
vertex -0.375 8 20
vertex -0.375 8 10.15
vertex -0.375 0.12 20
endloop
endfacet
facet normal 0 0 -1
outer loop
vertex -0.375 8 20.75
vertex 0.375 8 20.75
vertex 0.375 -8 20.75
endloop
endfacet
facet normal 0 0 -1
outer loop
vertex -0.375 8 20.75
vertex 0.375 -8 20.75
vertex -0.375 -8 20.75
endloop
endfacet
facet normal 0 0 -1
outer loop
vertex 0.375 -8 10.15
vertex -0.375 -8 10.15
vertex -0.375 8 10.15
endloop
endfacet
facet normal 0 0 -1
outer loop
vertex 0.375 -8 10.15
vertex -0.375 8 10.15
vertex 0.375 8 10.15
endloop
endfacet
facet normal 0 0 1
outer loop
vertex -0.375 -8 20
vertex 0.375 -8 20
vertex 0.375 8 20
endloop
endfacet
facet normal 0 0 1
outer loop
vertex -0.375 -8 20
vertex 0.375 8 20
vertex -0.375 8 20
endloop
endfacet
facet normal 0 -1 0
outer loop
vertex -0.00563 -8 20
vertex -0.375 -8 10.15
vertex 0.375 -8 10.15
endloop
endfacet
facet normal 0 -1 0
outer loop
vertex -0.00563 -8 20
vertex 0.375 -8 10.15
vertex 0.375 -8 20
endloop
endfacet
facet normal 0 -1 0
outer loop
vertex -0.375 -8 20
vertex -0.375 -8 10.15
vertex -0.00562 -8 20
endloop
endfacet
facet normal 0 1 0
outer loop
vertex 0.00563 8 20
vertex 0.375 8 10.15
vertex -0.375 8 10.15
endloop
endfacet
facet normal 0 1 0
outer loop
vertex 0.00563 8 20
vertex -0.375 8 10.15
vertex -0.375 8 20
endloop
endfacet
facet normal 0 1 0
outer loop
vertex 0.375 8 20
vertex 0.375 8 10.15
vertex 0.00562 8 20
endloop
endfacet
facet normal 0 0 1
outer loop
vertex 0.375 8 30.15
vertex -0.375 8 30.15
vertex -0.375 -8 30.15
endloop
endfacet
facet normal 0 0 1
outer loop
vertex 0.375 8 30.15
vertex -0.375 -8 30.15
vertex 0.375 -8 30.15
endloop
endfacet
facet normal 0 -1 0
outer loop
vertex 0.375 -8 20.75
vertex 0.375 -8 30.15
vertex 0.0225 -8 20.75
endloop
endfacet
facet normal 0 -1 0
outer loop
vertex 0.0225 -8 20.75
vertex 0.375 -8 30.15
vertex -0.375 -8 30.15
endloop
endfacet
facet normal 0 -1 0
outer loop
vertex 0.0225 -8 20.75
vertex -0.375 -8 30.15
vertex -0.375 -8 20.75
endloop
endfacet
facet normal 0 1 0
outer loop
vertex -0.375 8 20.75
vertex -0.375 8 30.15
vertex -0.0225 8 20.75
endloop
endfacet
facet normal 0 1 0
outer loop
vertex -0.0225 8 20.75
vertex -0.375 8 30.15
vertex 0.375 8 30.15
endloop
endfacet
facet normal 0 1 0
outer loop
vertex -0.0225 8 20.75
vertex 0.375 8 30.15
vertex 0.375 8 20.75
endloop
endfacet
facet normal 0 0 1
outer loop
vertex 0.375 -8 0.75
vertex 19.275 -8 0.75
vertex 19.275 8 0.75
endloop
endfacet
facet normal 0 0 1
outer loop
vertex 0.375 -8 0.75
vertex 19.275 8 0.75
vertex 0.375 8 0.75
endloop
endfacet
facet normal 0 0 1
outer loop
vertex 19.275 -8 0.75
vertex 20 -8 0.75
vertex 20 8 0.75
endloop
endfacet
facet normal 0 0 1
outer loop
vertex 19.275 -8 0.75
vertex 20 8 0.75
vertex 19.275 8 0.75
endloop
endfacet
facet normal 0 0 1
outer loop
vertex -0.375 8 0.75
vertex -19.275 8 0.75
vertex -19.275 -8 0.75
endloop
endfacet
facet normal 0 0 1
outer loop
vertex -0.375 8 0.75
vertex -19.275 -8 0.75
vertex -0.375 -8 0.75
endloop
endfacet
facet normal 0 0 1
outer loop
vertex -19.275 8 0.75
vertex -20 8 0.75
vertex -20 -8 0.75
endloop
endfacet
facet normal 0 0 1
outer loop
vertex -19.275 8 0.75
vertex -20 -8 0.75
vertex -19.275 -8 0.75
endloop
endfacet
facet normal 0 0 1
outer loop
vertex 0.375 8 0.75
vertex -0.375 8 0.75
vertex -0.375 -8 0.75
endloop
endfacet
facet normal 0 0 1
outer loop
vertex 0.375 8 0.75
vertex -0.375 -8 0.75
vertex 0.375 -8 0.75
endloop
endfacet
facet normal 0 0 -1
outer loop
vertex 0.375 8 0
vertex 19.275 8 0
vertex 19.275 -8 0
endloop
endfacet
facet normal 0 0 -1
outer loop
vertex 0.375 8 0
vertex 19.275 -8 0
vertex 0.375 -8 0
endloop
endfacet
facet normal 0 0 -1
outer loop
vertex 19.275 8 0
vertex 20 8 0
vertex 20 -8 0
endloop
endfacet
facet normal 0 0 -1
outer loop
vertex 19.275 8 0
vertex 20 -8 0
vertex 19.275 -8 0
endloop
endfacet
facet normal 0 0 -1
outer loop
vertex -0.375 -8 0
vertex -19.275 -8 0
vertex -19.275 8 0
endloop
endfacet
facet normal 0 0 -1
outer loop
vertex -0.375 -8 0
vertex -19.275 8 0
vertex -0.375 8 0
endloop
endfacet
facet normal 0 0 -1
outer loop
vertex -19.275 -8 0
vertex -20 -8 0
vertex -20 8 0
endloop
endfacet
facet normal 0 0 -1
outer loop
vertex -19.275 -8 0
vertex -20 8 0
vertex -19.275 8 0
endloop
endfacet
facet normal 0 0 -1
outer loop
vertex 0.375 -8 0
vertex -0.375 -8 0
vertex -0.375 8 0
endloop
endfacet
facet normal 0 0 -1
outer loop
vertex 0.375 -8 0
vertex -0.375 8 0
vertex 0.375 8 0
endloop
endfacet
facet normal 0 0 -1
outer loop
vertex 20 -8 0.6
vertex 19.375 -8 0.6
vertex 19.375 8 0.6
endloop
endfacet
facet normal 0 0 -1
outer loop
vertex 20 -8 0.6
vertex 19.375 8 0.6
vertex 20 8 0.6
endloop
endfacet
facet normal 0 0 -1
outer loop
vertex -20 -8 0.6
vertex -20 8 0.6
vertex -19.275 8 0.6
endloop
endfacet
facet normal 0 0 -1
outer loop
vertex -20 -8 0.6
vertex -19.275 8 0.6
vertex -19.275 -8 0.6
endloop
endfacet
facet normal 0 0 -1
outer loop
vertex 0.375 -8 0.6
vertex -0.375 -8 0.6
vertex -0.375 8 0.6
endloop
endfacet
facet normal 0 0 -1
outer loop
vertex 0.375 -8 0.6
vertex -0.375 8 0.6
vertex 0.375 8 0.6
endloop
endfacet
facet normal 0 0 1
outer loop
vertex 20 8 0.3
vertex 19.375 8 0.3
vertex 19.375 -8 0.3
endloop
endfacet
facet normal 0 0 1
outer loop
vertex 20 8 0.3
vertex 19.375 -8 0.3
vertex 20 -8 0.3
endloop
endfacet
facet normal 0 0 1
outer loop
vertex -20 8 0.3
vertex -20 -8 0.3
vertex -19.275 -8 0.3
endloop
endfacet
facet normal 0 0 1
outer loop
vertex -20 8 0.3
vertex -19.275 -8 0.3
vertex -19.275 8 0.3
endloop
endfacet
facet normal 0 0 1
outer loop
vertex 0.375 8 0.3
vertex -0.375 8 0.3
vertex -0.375 -8 0.3
endloop
endfacet
facet normal 0 0 1
outer loop
vertex 0.375 8 0.3
vertex -0.375 -8 0.3
vertex 0.375 -8 0.3
endloop
endfacet
facet normal 0 -1 0
outer loop
vertex 0.375 -8 0.3
vertex 19.275 -8 0.3
vertex 19.275 -8 0.6
endloop
endfacet
facet normal 0 -1 0
outer loop
vertex 0.375 -8 0.3
vertex 19.275 -8 0.6
vertex 12 -8 0.6
endloop
endfacet
facet normal 0 -1 0
outer loop
vertex 0.375 -8 0.3
vertex 12 -8 0.6
vertex 0.375 -8 0.38203
endloop
endfacet
facet normal 0 -1 0
outer loop
vertex 12 -8 0.6
vertex 0.375 -8 0.6
vertex 0.375 -8 0.38203
endloop
endfacet
facet normal 0 -1 0
outer loop
vertex 19.275 -8 0.3
vertex 19.375 -8 0.3
vertex 19.375 -8 0.6
endloop
endfacet
facet normal 0 -1 0
outer loop
vertex 19.275 -8 0.3
vertex 19.375 -8 0.6
vertex 19.275 -8 0.6
endloop
endfacet
facet normal 0 -1 0
outer loop
vertex -0.375 -8 0.36797
vertex -4 -8 0.3
vertex -0.375 -8 0.3
endloop
endfacet
facet normal 0 -1 0
outer loop
vertex -19.275 -8 0.6
vertex -19.275 -8 0.3
vertex -4 -8 0.3
endloop
endfacet
facet normal 0 -1 0
outer loop
vertex -19.275 -8 0.6
vertex -4 -8 0.3
vertex -0.375 -8 0.36797
endloop
endfacet
facet normal 0 -1 0
outer loop
vertex -19.275 -8 0.6
vertex -0.375 -8 0.36797
vertex -0.375 -8 0.6
endloop
endfacet
facet normal 0 1 0
outer loop
vertex 0.375 8 0.36797
vertex 4 8 0.3
vertex 0.375 8 0.3
endloop
endfacet
facet normal 0 1 0
outer loop
vertex 19.275 8 0.3
vertex 4 8 0.3
vertex 0.375 8 0.36797
endloop
endfacet
facet normal 0 1 0
outer loop
vertex 19.275 8 0.3
vertex 0.375 8 0.36797
vertex 0.375 8 0.6
endloop
endfacet
facet normal 0 1 0
outer loop
vertex 19.275 8 0.3
vertex 0.375 8 0.6
vertex 19.275 8 0.6
endloop
endfacet
facet normal 0 1 0
outer loop
vertex 19.375 8 0.3
vertex 19.275 8 0.3
vertex 19.275 8 0.6
endloop
endfacet
facet normal 0 1 0
outer loop
vertex 19.375 8 0.3
vertex 19.275 8 0.6
vertex 19.375 8 0.6
endloop
endfacet
facet normal 0 1 0
outer loop
vertex -0.375 8 0.3
vertex -19.275 8 0.3
vertex -19.275 8 0.6
endloop
endfacet
facet normal 0 1 0
outer loop
vertex -0.375 8 0.3
vertex -19.275 8 0.6
vertex -12 8 0.6
endloop
endfacet
facet normal 0 1 0
outer loop
vertex -0.375 8 0.3
vertex -12 8 0.6
vertex -0.375 8 0.38203
endloop
endfacet
facet normal 0 1 0
outer loop
vertex -0.375 8 0.38203
vertex -12 8 0.6
vertex -0.375 8 0.6
endloop
endfacet
facet normal -1 0 0
outer loop
vertex 0.375 -8 0.3
vertex 0.375 8 0.6
vertex 0.375 8 0.3
endloop
endfacet
facet normal -1 0 0
outer loop
vertex 0.375 -8 0.6
vertex 0.375 8 0.6
vertex 0.375 -8 0.3
endloop
endfacet
facet normal -1 0 0
outer loop
vertex -19.275 -8 0.3
vertex -19.275 8 0.6
vertex -19.275 8 0.3
endloop
endfacet
facet normal -1 0 0
outer loop
vertex -19.275 -8 0.6
vertex -19.275 8 0.6
vertex -19.275 -8 0.3
endloop
endfacet
facet normal 1 0 0
outer loop
vertex -0.375 8 0.3
vertex -0.375 -8 0.6
vertex -0.375 -8 0.3
endloop
endfacet
facet normal 1 0 0
outer loop
vertex -0.375 8 0.6
vertex -0.375 -8 0.6
vertex -0.375 8 0.3
endloop
endfacet
facet normal 1 0 0
outer loop
vertex 19.375 8 0.3
vertex 19.375 -8 0.6
vertex 19.375 -8 0.3
endloop
endfacet
facet normal 1 0 0
outer loop
vertex 19.375 8 0.6
vertex 19.375 -8 0.6
vertex 19.375 8 0.3
endloop
endfacet
facet normal 0 -1 0
outer loop
vertex 0.375 -8 0
vertex 19.275 -8 0
vertex 19.275 -8 0.3
endloop
endfacet
facet normal 0 -1 0
outer loop
vertex 0.375 -8 0
vertex 19.275 -8 0.3
vertex 0.375 -8 0.3
endloop
endfacet
facet normal 0 -1 0
outer loop
vertex 19.275 -8 0
vertex 20 -8 0
vertex 20 -8 0.3
endloop
endfacet
facet normal 0 -1 0
outer loop
vertex 19.275 -8 0
vertex 20 -8 0.3
vertex 19.275 -8 0.3
endloop
endfacet
facet normal 0 -1 0
outer loop
vertex -0.375 -8 0
vertex -0.375 -8 0.3
vertex -4 -8 0.3
endloop
endfacet
facet normal 0 -1 0
outer loop
vertex -0.375 -8 0
vertex -4 -8 0.3
vertex -19.275 -8 0.01359
endloop
endfacet
facet normal 0 -1 0
outer loop
vertex -0.375 -8 0
vertex -19.275 -8 0.01359
vertex -19.275 -8 0
endloop
endfacet
facet normal 0 -1 0
outer loop
vertex -19.275 -8 0.3
vertex -19.275 -8 0.01359
vertex -4 -8 0.3
endloop
endfacet
facet normal 0 -1 0
outer loop
vertex -19.275 -8 0.01359
vertex -20 -8 0
vertex -19.275 -8 0
endloop
endfacet
facet normal 0 -1 0
outer loop
vertex -19.275 -8 0.3
vertex -20 -8 0.3
vertex -20 -8 0
endloop
endfacet
facet normal 0 -1 0
outer loop
vertex -19.275 -8 0.3
vertex -20 -8 0
vertex -19.275 -8 0.01359
endloop
endfacet
facet normal 0 -1 0
outer loop
vertex -0.375 -8 0
vertex 0.375 -8 0
vertex 0.375 -8 0.3
endloop
endfacet
facet normal 0 -1 0
outer loop
vertex -0.375 -8 0
vertex 0.375 -8 0.3
vertex -0.375 -8 0.3
endloop
endfacet
facet normal 0 1 0
outer loop
vertex 19.275 8 0.01359
vertex 19.275 8 0
vertex 0.375 8 0
endloop
endfacet
facet normal 0 1 0
outer loop
vertex 19.275 8 0.01359
vertex 0.375 8 0
vertex 0.375 8 0.3
endloop
endfacet
facet normal 0 1 0
outer loop
vertex 19.275 8 0.01359
vertex 0.375 8 0.3
vertex 4 8 0.3
endloop
endfacet
facet normal 0 1 0
outer loop
vertex 19.275 8 0.3
vertex 19.275 8 0.01359
vertex 4 8 0.3
endloop
endfacet
facet normal 0 1 0
outer loop
vertex 19.275 8 0.01359
vertex 20 8 0
vertex 19.275 8 0
endloop
endfacet
facet normal 0 1 0
outer loop
vertex 19.275 8 0.3
vertex 20 8 0.3
vertex 20 8 0
endloop
endfacet
facet normal 0 1 0
outer loop
vertex 19.275 8 0.3
vertex 20 8 0
vertex 19.275 8 0.01359
endloop
endfacet
facet normal 0 1 0
outer loop
vertex -0.375 8 0
vertex -19.275 8 0
vertex -19.275 8 0.3
endloop
endfacet
facet normal 0 1 0
outer loop
vertex -0.375 8 0
vertex -19.275 8 0.3
vertex -0.375 8 0.3
endloop
endfacet
facet normal 0 1 0
outer loop
vertex -19.275 8 0.3
vertex -19.275 8 0
vertex -20 8 0
endloop
endfacet
facet normal 0 1 0
outer loop
vertex -19.275 8 0.3
vertex -20 8 0
vertex -20 8 0.3
endloop
endfacet
facet normal 0 1 0
outer loop
vertex -0.375 8 0
vertex -0.375 8 0.3
vertex 0.375 8 0.3
endloop
endfacet
facet normal 0 1 0
outer loop
vertex -0.375 8 0
vertex 0.375 8 0.3
vertex 0.375 8 0
endloop
endfacet
facet normal -1 0 0
outer loop
vertex -20 -8 0.3
vertex -20 1.6 0.3
vertex -20 8 0
endloop
endfacet
facet normal -1 0 0
outer loop
vertex -20 -8 0.3
vertex -20 8 0
vertex -20 -8 0
endloop
endfacet
facet normal -1 0 0
outer loop
vertex -20 1.6 0.3
vertex -20 8 0.3
vertex -20 8 0
endloop
endfacet
facet normal 1 0 0
outer loop
vertex 20 8 0.3
vertex 20 -1.6 0.3
vertex 20 -8 0
endloop
endfacet
facet normal 1 0 0
outer loop
vertex 20 8 0.3
vertex 20 -8 0
vertex 20 8 0
endloop
endfacet
facet normal 1 0 0
outer loop
vertex 20 -1.6 0.3
vertex 20 -8 0.3
vertex 20 -8 0
endloop
endfacet
facet normal 0 -1 0
outer loop
vertex 19.275 -8 0.73641
vertex 12 -8 0.6
vertex 19.275 -8 0.6
endloop
endfacet
facet normal 0 -1 0
outer loop
vertex 0.375 -8 0.75
vertex 0.375 -8 0.6
vertex 12 -8 0.6
endloop
endfacet
facet normal 0 -1 0
outer loop
vertex 0.375 -8 0.75
vertex 12 -8 0.6
vertex 19.275 -8 0.73641
endloop
endfacet
facet normal 0 -1 0
outer loop
vertex 0.375 -8 0.75
vertex 19.275 -8 0.73641
vertex 19.275 -8 0.75
endloop
endfacet
facet normal 0 -1 0
outer loop
vertex 20 -8 0.75
vertex 19.275 -8 0.73641
vertex 19.275 -8 0.6
endloop
endfacet
facet normal 0 -1 0
outer loop
vertex 20 -8 0.75
vertex 19.275 -8 0.6
vertex 20 -8 0.6
endloop
endfacet
facet normal 0 -1 0
outer loop
vertex 19.275 -8 0.75
vertex 19.275 -8 0.73641
vertex 20 -8 0.75
endloop
endfacet
facet normal 0 -1 0
outer loop
vertex -0.375 -8 0.75
vertex -19.275 -8 0.75
vertex -19.275 -8 0.6
endloop
endfacet
facet normal 0 -1 0
outer loop
vertex -0.375 -8 0.75
vertex -19.275 -8 0.6
vertex -0.375 -8 0.6
endloop
endfacet
facet normal 0 -1 0
outer loop
vertex -19.275 -8 0.75
vertex -20 -8 0.75
vertex -20 -8 0.6
endloop
endfacet
facet normal 0 -1 0
outer loop
vertex -19.275 -8 0.75
vertex -20 -8 0.6
vertex -19.275 -8 0.6
endloop
endfacet
facet normal 0 -1 0
outer loop
vertex -0.375 -8 0.75
vertex -0.375 -8 0.6
vertex 0.375 -8 0.6
endloop
endfacet
facet normal 0 -1 0
outer loop
vertex -0.375 -8 0.75
vertex 0.375 -8 0.6
vertex 0.375 -8 0.75
endloop
endfacet
facet normal 0 1 0
outer loop
vertex 0.375 8 0.75
vertex 19.275 8 0.75
vertex 19.275 8 0.6
endloop
endfacet
facet normal 0 1 0
outer loop
vertex 0.375 8 0.75
vertex 19.275 8 0.6
vertex 0.375 8 0.6
endloop
endfacet
facet normal 0 1 0
outer loop
vertex 19.275 8 0.75
vertex 20 8 0.75
vertex 20 8 0.6
endloop
endfacet
facet normal 0 1 0
outer loop
vertex 19.275 8 0.75
vertex 20 8 0.6
vertex 19.275 8 0.6
endloop
endfacet
facet normal 0 1 0
outer loop
vertex -19.275 8 0.73641
vertex -12 8 0.6
vertex -19.275 8 0.6
endloop
endfacet
facet normal 0 1 0
outer loop
vertex -0.375 8 0.6
vertex -12 8 0.6
vertex -19.275 8 0.73641
endloop
endfacet
facet normal 0 1 0
outer loop
vertex -0.375 8 0.6
vertex -19.275 8 0.73641
vertex -19.275 8 0.75
endloop
endfacet
facet normal 0 1 0
outer loop
vertex -0.375 8 0.6
vertex -19.275 8 0.75
vertex -0.375 8 0.75
endloop
endfacet
facet normal 0 1 0
outer loop
vertex -20 8 0.75
vertex -19.275 8 0.73641
vertex -19.275 8 0.6
endloop
endfacet
facet normal 0 1 0
outer loop
vertex -20 8 0.75
vertex -19.275 8 0.6
vertex -20 8 0.6
endloop
endfacet
facet normal 0 1 0
outer loop
vertex -19.275 8 0.73641
vertex -20 8 0.75
vertex -19.275 8 0.75
endloop
endfacet
facet normal 0 1 0
outer loop
vertex 0.375 8 0.6
vertex -0.375 8 0.6
vertex -0.375 8 0.75
endloop
endfacet
facet normal 0 1 0
outer loop
vertex 0.375 8 0.6
vertex -0.375 8 0.75
vertex 0.375 8 0.75
endloop
endfacet
facet normal 1 0 0
outer loop
vertex 20 8 0.6
vertex 20 8 0.75
vertex 20 4.8 0.6
endloop
endfacet
facet normal 1 0 0
outer loop
vertex 20 4.8 0.6
vertex 20 8 0.75
vertex 20 -8 0.75
endloop
endfacet
facet normal 1 0 0
outer loop
vertex 20 4.8 0.6
vertex 20 -8 0.75
vertex 20 -8 0.6
endloop
endfacet
facet normal -1 0 0
outer loop
vertex -20 -8 0.6
vertex -20 -8 0.75
vertex -20 -4.8 0.6
endloop
endfacet
facet normal -1 0 0
outer loop
vertex -20 -4.8 0.6
vertex -20 -8 0.75
vertex -20 8 0.75
endloop
endfacet
facet normal -1 0 0
outer loop
vertex -20 -4.8 0.6
vertex -20 8 0.75
vertex -20 8 0.6
endloop
endfacet
facet normal 1 0 0
outer loop
vertex 20.025 8 20.75
vertex 20.025 8 30.15
vertex 20.025 0.48 20.75
endloop
endfacet
facet normal 1 0 0
outer loop
vertex 20.025 0.48 20.75
vertex 20.025 8 30.15
vertex 20.025 -8 30.15
endloop
endfacet
facet normal 1 0 0
outer loop
vertex 20.025 0.48 20.75
vertex 20.025 -8 30.15
vertex 20.025 -8 20.75
endloop
endfacet
facet normal 1 0 0
outer loop
vertex 20.025 -0.12 20
vertex 20.025 -8 10.15
vertex 20.025 8 10.15
endloop
endfacet
facet normal 1 0 0
outer loop
vertex 20.025 -0.12 20
vertex 20.025 8 10.15
vertex 20.025 8 20
endloop
endfacet
facet normal 1 0 0
outer loop
vertex 20.025 -8 20
vertex 20.025 -8 10.15
vertex 20.025 -0.12 20
endloop
endfacet
facet normal 1 0 0
outer loop
vertex 20.025 0.48 20.75
vertex 20.025 -0.12 20
vertex 20.025 8 20
endloop
endfacet
facet normal 1 0 0
outer loop
vertex 20.025 0.48 20.75
vertex 20.025 8 20
vertex 20.025 8 20.75
endloop
endfacet
facet normal 1 0 0
outer loop
vertex 20.025 -8 20.75
vertex 20.025 -8 20
vertex 20.025 -0.12 20
endloop
endfacet
facet normal 1 0 0
outer loop
vertex 20.025 -8 20.75
vertex 20.025 -0.12 20
vertex 20.025 0.48 20.75
endloop
endfacet
facet normal -1 0 0
outer loop
vertex 19.275 -8 20.75
vertex 19.275 -8 30.15
vertex 19.275 -0.48 20.75
endloop
endfacet
facet normal -1 0 0
outer loop
vertex 19.275 -0.48 20.75
vertex 19.275 -8 30.15
vertex 19.275 8 30.15
endloop
endfacet
facet normal -1 0 0
outer loop
vertex 19.275 -0.48 20.75
vertex 19.275 8 30.15
vertex 19.275 8 20.75
endloop
endfacet
facet normal -1 0 0
outer loop
vertex 19.275 0.12 20
vertex 19.275 8 10.15
vertex 19.275 -8 10.15
endloop
endfacet
facet normal -1 0 0
outer loop
vertex 19.275 0.12 20
vertex 19.275 -8 10.15
vertex 19.275 -8 20
endloop
endfacet
facet normal -1 0 0
outer loop
vertex 19.275 8 20
vertex 19.275 8 10.15
vertex 19.275 0.12 20
endloop
endfacet
facet normal -1 0 0
outer loop
vertex 20 -8 20
vertex 20 8 20.75
vertex 20 8 20
endloop
endfacet
facet normal -1 0 0
outer loop
vertex 20 -8 20.75
vertex 20 8 20.75
vertex 20 -8 20
endloop
endfacet
facet normal 0 0 1
outer loop
vertex 20 8 30.15
vertex 19.275 8 30.15
vertex 19.275 -8 30.15
endloop
endfacet
facet normal 0 0 1
outer loop
vertex 20 8 30.15
vertex 19.275 -8 30.15
vertex 20 -8 30.15
endloop
endfacet
facet normal 0 0 -1
outer loop
vertex 20 -8 10.15
vertex 19.275 -8 10.15
vertex 19.275 8 10.15
endloop
endfacet
facet normal 0 0 -1
outer loop
vertex 20 -8 10.15
vertex 19.275 8 10.15
vertex 20 8 10.15
endloop
endfacet
facet normal 0 0 1
outer loop
vertex 19.275 8 20
vertex 19.275 -8 20
vertex 20 -8 20
endloop
endfacet
facet normal 0 0 1
outer loop
vertex 19.275 8 20
vertex 20 -8 20
vertex 20 8 20
endloop
endfacet
facet normal 0 0 -1
outer loop
vertex 19.275 -8 20.75
vertex 19.275 8 20.75
vertex 20 8 20.75
endloop
endfacet
facet normal 0 0 -1
outer loop
vertex 19.275 -8 20.75
vertex 20 8 20.75
vertex 20 -8 20.75
endloop
endfacet
facet normal 0 1 0
outer loop
vertex 19.275 8 20.75
vertex 19.275 8 30.15
vertex 19.6275 8 20.75
endloop
endfacet
facet normal 0 1 0
outer loop
vertex 20 8 20.75
vertex 19.6275 8 20.75
vertex 19.275 8 30.15
endloop
endfacet
facet normal 0 1 0
outer loop
vertex 20 8 20.75
vertex 19.275 8 30.15
vertex 20 8 30.15
endloop
endfacet
facet normal 0 -1 0
outer loop
vertex 19.6725 -8 20.75
vertex 20 -8 20.75
vertex 20 -8 29.48333
endloop
endfacet
facet normal 0 -1 0
outer loop
vertex 19.275 -8 20.75
vertex 19.6725 -8 20.75
vertex 20 -8 29.48333
endloop
endfacet
facet normal 0 -1 0
outer loop
vertex 19.275 -8 20.75
vertex 20 -8 29.48333
vertex 20 -8 30.15
endloop
endfacet
facet normal 0 -1 0
outer loop
vertex 19.275 -8 20.75
vertex 20 -8 30.15
vertex 19.275 -8 30.15
endloop
endfacet
facet normal 0 1 0
outer loop
vertex 19.275 8 20
vertex 19.65562 8 20
vertex 20 8 10.81667
endloop
endfacet
facet normal 0 1 0
outer loop
vertex 19.275 8 20
vertex 20 8 10.81667
vertex 20 8 10.15
endloop
endfacet
facet normal 0 1 0
outer loop
vertex 19.275 8 20
vertex 20 8 10.15
vertex 19.275 8 10.15
endloop
endfacet
facet normal 0 1 0
outer loop
vertex 19.65562 8 20
vertex 20 8 20
vertex 20 8 10.81667
endloop
endfacet
facet normal 0 -1 0
outer loop
vertex 20 -8 20
vertex 19.64438 -8 20
vertex 19.275 -8 10.15
endloop
endfacet
facet normal 0 -1 0
outer loop
vertex 20 -8 20
vertex 19.275 -8 10.15
vertex 20 -8 10.15
endloop
endfacet
facet normal 0 -1 0
outer loop
vertex 19.64438 -8 20
vertex 19.275 -8 20
vertex 19.275 -8 10.15
endloop
endfacet
facet normal 0 0 1
outer loop
vertex 20.025 -8 30.15
vertex 20.025 8 30.15
vertex 20 8 30.15
endloop
endfacet
facet normal 0 0 1
outer loop
vertex 20.025 -8 30.15
vertex 20 8 30.15
vertex 20 -8 30.15
endloop
endfacet
facet normal 0 0 -1
outer loop
vertex 20.025 8 10.15
vertex 20.025 -8 10.15
vertex 20 -8 10.15
endloop
endfacet
facet normal 0 0 -1
outer loop
vertex 20.025 8 10.15
vertex 20 -8 10.15
vertex 20 8 10.15
endloop
endfacet
facet normal 0 -1 0
outer loop
vertex 20 -8 20.75
vertex 20.025 -8 20.75
vertex 20.025 -8 30.15
endloop
endfacet
facet normal 0 -1 0
outer loop
vertex 20 -8 20.75
vertex 20.025 -8 30.15
vertex 20 -8 29.48333
endloop
endfacet
facet normal 0 -1 0
outer loop
vertex 20 -8 29.48333
vertex 20.025 -8 30.15
vertex 20 -8 30.15
endloop
endfacet
facet normal 0 -1 0
outer loop
vertex 20.025 -8 20
vertex 20 -8 20
vertex 20 -8 10.15
endloop
endfacet
facet normal 0 -1 0
outer loop
vertex 20.025 -8 20
vertex 20 -8 10.15
vertex 20.025 -8 10.15
endloop
endfacet
facet normal 0 -1 0
outer loop
vertex 20 -8 20
vertex 20.025 -8 20
vertex 20.025 -8 20.75
endloop
endfacet
facet normal 0 -1 0
outer loop
vertex 20 -8 20
vertex 20.025 -8 20.75
vertex 20 -8 20.75
endloop
endfacet
facet normal 0 1 0
outer loop
vertex 20.025 8 20.75
vertex 20 8 20.75
vertex 20 8 30.15
endloop
endfacet
facet normal 0 1 0
outer loop
vertex 20.025 8 20.75
vertex 20 8 30.15
vertex 20.025 8 30.15
endloop
endfacet
facet normal 0 1 0
outer loop
vertex 20 8 10.81667
vertex 20.025 8 10.15
vertex 20 8 10.15
endloop
endfacet
facet normal 0 1 0
outer loop
vertex 20 8 20
vertex 20.025 8 20
vertex 20.025 8 10.15
endloop
endfacet
facet normal 0 1 0
outer loop
vertex 20 8 20
vertex 20.025 8 10.15
vertex 20 8 10.81667
endloop
endfacet
facet normal 0 1 0
outer loop
vertex 20.025 8 20
vertex 20 8 20
vertex 20 8 20.75
endloop
endfacet
facet normal 0 1 0
outer loop
vertex 20.025 8 20
vertex 20 8 20.75
vertex 20.025 8 20.75
endloop
endfacet
facet normal 1 0 0
outer loop
vertex -19.275 8 20.75
vertex -19.275 8 30.15
vertex -19.275 0.48 20.75
endloop
endfacet
facet normal 1 0 0
outer loop
vertex -19.275 0.48 20.75
vertex -19.275 8 30.15
vertex -19.275 -8 30.15
endloop
endfacet
facet normal 1 0 0
outer loop
vertex -19.275 0.48 20.75
vertex -19.275 -8 30.15
vertex -19.275 -8 20.75
endloop
endfacet
facet normal 1 0 0
outer loop
vertex -19.275 -0.12 20
vertex -19.275 -8 10.15
vertex -19.275 8 10.15
endloop
endfacet
facet normal 1 0 0
outer loop
vertex -19.275 -0.12 20
vertex -19.275 8 10.15
vertex -19.275 8 20
endloop
endfacet
facet normal 1 0 0
outer loop
vertex -19.275 -8 20
vertex -19.275 -8 10.15
vertex -19.275 -0.12 20
endloop
endfacet
facet normal -1 0 0
outer loop
vertex -20.025 -8 20.75
vertex -20.025 -8 30.15
vertex -20.025 -0.48 20.75
endloop
endfacet
facet normal -1 0 0
outer loop
vertex -20.025 -0.48 20.75
vertex -20.025 -8 30.15
vertex -20.025 8 30.15
endloop
endfacet
facet normal -1 0 0
outer loop
vertex -20.025 -0.48 20.75
vertex -20.025 8 30.15
vertex -20.025 8 20.75
endloop
endfacet
facet normal -1 0 0
outer loop
vertex -20.025 0.12 20
vertex -20.025 8 10.15
vertex -20.025 -8 10.15
endloop
endfacet
facet normal -1 0 0
outer loop
vertex -20.025 0.12 20
vertex -20.025 -8 10.15
vertex -20.025 -8 20
endloop
endfacet
facet normal -1 0 0
outer loop
vertex -20.025 8 20
vertex -20.025 8 10.15
vertex -20.025 0.12 20
endloop
endfacet
facet normal -1 0 0
outer loop
vertex -20.025 -0.48 20.75
vertex -20.025 0.12 20
vertex -20.025 -8 20
endloop
endfacet
facet normal -1 0 0
outer loop
vertex -20.025 -0.48 20.75
vertex -20.025 -8 20
vertex -20.025 -8 20.75
endloop
endfacet
facet normal -1 0 0
outer loop
vertex -20.025 8 20.75
vertex -20.025 8 20
vertex -20.025 0.12 20
endloop
endfacet
facet normal -1 0 0
outer loop
vertex -20.025 8 20.75
vertex -20.025 0.12 20
vertex -20.025 -0.48 20.75
endloop
endfacet
facet normal 0 0 1
outer loop
vertex -19.275 8 30.15
vertex -20.025 8 30.15
vertex -20.025 -8 30.15
endloop
endfacet
facet normal 0 0 1
outer loop
vertex -19.275 8 30.15
vertex -20.025 -8 30.15
vertex -19.275 -8 30.15
endloop
endfacet
facet normal 0 0 -1
outer loop
vertex -19.275 -8 10.15
vertex -20.025 -8 10.15
vertex -20.025 8 10.15
endloop
endfacet
facet normal 0 0 -1
outer loop
vertex -19.275 -8 10.15
vertex -20.025 8 10.15
vertex -19.275 8 10.15
endloop
endfacet
facet normal 1 0 0
outer loop
vertex -20 8 20
vertex -20 -8 20.75
vertex -20 -8 20
endloop
endfacet
facet normal 1 0 0
outer loop
vertex -20 8 20.75
vertex -20 -8 20.75
vertex -20 8 20
endloop
endfacet
facet normal 0 0 1
outer loop
vertex -19.275 8 20
vertex -20 8 20
vertex -20 -8 20
endloop
endfacet
facet normal 0 0 1
outer loop
vertex -19.275 8 20
vertex -20 -8 20
vertex -19.275 -8 20
endloop
endfacet
facet normal 0 0 -1
outer loop
vertex -19.275 -8 20.75
vertex -20 -8 20.75
vertex -20 8 20.75
endloop
endfacet
facet normal 0 0 -1
outer loop
vertex -19.275 -8 20.75
vertex -20 8 20.75
vertex -19.275 8 20.75
endloop
endfacet
facet normal 0 -1 0
outer loop
vertex -19.275 -8 20.75
vertex -19.275 -8 30.15
vertex -19.6275 -8 20.75
endloop
endfacet
facet normal 0 -1 0
outer loop
vertex -20 -8 20.75
vertex -19.6275 -8 20.75
vertex -19.275 -8 30.15
endloop
endfacet
facet normal 0 -1 0
outer loop
vertex -20 -8 20.75
vertex -19.275 -8 30.15
vertex -20 -8 30.15
endloop
endfacet
facet normal 0 1 0
outer loop
vertex -19.6725 8 20.75
vertex -20 8 20.75
vertex -20 8 29.48333
endloop
endfacet
facet normal 0 1 0
outer loop
vertex -19.275 8 20.75
vertex -19.6725 8 20.75
vertex -20 8 29.48333
endloop
endfacet
facet normal 0 1 0
outer loop
vertex -19.275 8 20.75
vertex -20 8 29.48333
vertex -20 8 30.15
endloop
endfacet
facet normal 0 1 0
outer loop
vertex -19.275 8 20.75
vertex -20 8 30.15
vertex -19.275 8 30.15
endloop
endfacet
facet normal 0 -1 0
outer loop
vertex -19.275 -8 20
vertex -19.65562 -8 20
vertex -20 -8 10.81667
endloop
endfacet
facet normal 0 -1 0
outer loop
vertex -19.275 -8 20
vertex -20 -8 10.81667
vertex -20 -8 10.15
endloop
endfacet
facet normal 0 -1 0
outer loop
vertex -19.275 -8 20
vertex -20 -8 10.15
vertex -19.275 -8 10.15
endloop
endfacet
facet normal 0 -1 0
outer loop
vertex -19.65562 -8 20
vertex -20 -8 20
vertex -20 -8 10.81667
endloop
endfacet
facet normal 0 1 0
outer loop
vertex -20 8 20
vertex -19.64437 8 20
vertex -19.275 8 10.15
endloop
endfacet
facet normal 0 1 0
outer loop
vertex -20 8 20
vertex -19.275 8 10.15
vertex -20 8 10.15
endloop
endfacet
facet normal 0 1 0
outer loop
vertex -19.64437 8 20
vertex -19.275 8 20
vertex -19.275 8 10.15
endloop
endfacet
facet normal 0 1 0
outer loop
vertex -20 8 20.75
vertex -20.025 8 20.75
vertex -20.025 8 30.15
endloop
endfacet
facet normal 0 1 0
outer loop
vertex -20 8 20.75
vertex -20.025 8 30.15
vertex -20 8 29.48333
endloop
endfacet
facet normal 0 1 0
outer loop
vertex -20 8 29.48333
vertex -20.025 8 30.15
vertex -20 8 30.15
endloop
endfacet
facet normal 0 1 0
outer loop
vertex -20.025 8 20
vertex -20 8 20
vertex -20 8 10.15
endloop
endfacet
facet normal 0 1 0
outer loop
vertex -20.025 8 20
vertex -20 8 10.15
vertex -20.025 8 10.15
endloop
endfacet
facet normal 0 1 0
outer loop
vertex -20 8 20
vertex -20.025 8 20
vertex -20.025 8 20.75
endloop
endfacet
facet normal 0 1 0
outer loop
vertex -20 8 20
vertex -20.025 8 20.75
vertex -20 8 20.75
endloop
endfacet
facet normal 0 -1 0
outer loop
vertex -20.025 -8 20.75
vertex -20 -8 20.75
vertex -20 -8 30.15
endloop
endfacet
facet normal 0 -1 0
outer loop
vertex -20.025 -8 20.75
vertex -20 -8 30.15
vertex -20.025 -8 30.15
endloop
endfacet
facet normal 0 -1 0
outer loop
vertex -20 -8 10.81667
vertex -20.025 -8 10.15
vertex -20 -8 10.15
endloop
endfacet
facet normal 0 -1 0
outer loop
vertex -20 -8 20
vertex -20.025 -8 20
vertex -20.025 -8 10.15
endloop
endfacet
facet normal 0 -1 0
outer loop
vertex -20 -8 20
vertex -20.025 -8 10.15
vertex -20 -8 10.81667
endloop
endfacet
facet normal 0 -1 0
outer loop
vertex -20.025 -8 20
vertex -20 -8 20
vertex -20 -8 20.75
endloop
endfacet
facet normal 0 -1 0
outer loop
vertex -20.025 -8 20
vertex -20 -8 20.75
vertex -20.025 -8 20.75
endloop
endfacet
facet normal 0 0 1
outer loop
vertex 0.375 -8 20.75
vertex 19.275 -8 20.75
vertex 19.275 8 20.75
endloop
endfacet
facet normal 0 0 1
outer loop
vertex 0.375 -8 20.75
vertex 19.275 8 20.75
vertex 0.375 8 20.75
endloop
endfacet
facet normal 0 0 1
outer loop
vertex -19.275 8 20.75
vertex -19.275 -8 20.75
vertex -0.375 -8 20.75
endloop
endfacet
facet normal 0 0 1
outer loop
vertex -19.275 8 20.75
vertex -0.375 -8 20.75
vertex -0.375 8 20.75
endloop
endfacet
facet normal 0 0 1
outer loop
vertex -0.375 8 20.75
vertex -0.375 -8 20.75
vertex 0.375 -8 20.75
endloop
endfacet
facet normal 0 0 1
outer loop
vertex -0.375 8 20.75
vertex 0.375 -8 20.75
vertex 0.375 8 20.75
endloop
endfacet
facet normal 0 0 1
outer loop
vertex 19.275 -8 20.75
vertex 20 -8 20.75
vertex 20 8 20.75
endloop
endfacet
facet normal 0 0 1
outer loop
vertex 19.275 -8 20.75
vertex 20 8 20.75
vertex 19.275 8 20.75
endloop
endfacet
facet normal 0 0 1
outer loop
vertex -19.275 8 20.75
vertex -20 8 20.75
vertex -20 -8 20.75
endloop
endfacet
facet normal 0 0 1
outer loop
vertex -19.275 8 20.75
vertex -20 -8 20.75
vertex -19.275 -8 20.75
endloop
endfacet
facet normal 0 0 -1
outer loop
vertex 0.375 8 20
vertex 19.275 8 20
vertex 19.275 -8 20
endloop
endfacet
facet normal 0 0 -1
outer loop
vertex 0.375 8 20
vertex 19.275 -8 20
vertex 0.375 -8 20
endloop
endfacet
facet normal 0 0 -1
outer loop
vertex -19.275 -8 20
vertex -19.275 8 20
vertex -0.375 8 20
endloop
endfacet
facet normal 0 0 -1
outer loop
vertex -19.275 -8 20
vertex -0.375 8 20
vertex -0.375 -8 20
endloop
endfacet
facet normal 0 0 -1
outer loop
vertex -0.375 -8 20
vertex -0.375 8 20
vertex 0.375 8 20
endloop
endfacet
facet normal 0 0 -1
outer loop
vertex -0.375 -8 20
vertex 0.375 8 20
vertex 0.375 -8 20
endloop
endfacet
facet normal 0 0 -1
outer loop
vertex 19.275 8 20
vertex 20 8 20
vertex 20 -8 20
endloop
endfacet
facet normal 0 0 -1
outer loop
vertex 19.275 8 20
vertex 20 -8 20
vertex 19.275 -8 20
endloop
endfacet
facet normal 0 0 -1
outer loop
vertex -19.275 -8 20
vertex -20 -8 20
vertex -20 8 20
endloop
endfacet
facet normal 0 0 -1
outer loop
vertex -19.275 -8 20
vertex -20 8 20
vertex -19.275 8 20
endloop
endfacet
facet normal 0 -1 0
outer loop
vertex 19.275 -8 20.73641
vertex 0.375 -8 20.38203
vertex 0.375 -8 20
endloop
endfacet
facet normal 0 -1 0
outer loop
vertex 19.275 -8 20.73641
vertex 0.375 -8 20
vertex 19.275 -8 20
endloop
endfacet
facet normal 0 -1 0
outer loop
vertex 19.275 -8 20.73641
vertex 19.275 -8 20.75
vertex 0.375 -8 20.75
endloop
endfacet
facet normal 0 -1 0
outer loop
vertex 19.275 -8 20.73641
vertex 0.375 -8 20.75
vertex 0.375 -8 20.38203
endloop
endfacet
facet normal 0 -1 0
outer loop
vertex -19.275 -8 20.01359
vertex -19.275 -8 20
vertex -0.375 -8 20
endloop
endfacet
facet normal 0 -1 0
outer loop
vertex -19.275 -8 20.01359
vertex -0.375 -8 20
vertex -0.375 -8 20.36797
endloop
endfacet
facet normal 0 -1 0
outer loop
vertex -19.275 -8 20.75
vertex -19.275 -8 20.01359
vertex -0.375 -8 20.36797
endloop
endfacet
facet normal 0 -1 0
outer loop
vertex -19.275 -8 20.75
vertex -0.375 -8 20.36797
vertex -0.375 -8 20.75
endloop
endfacet
facet normal 0 -1 0
outer loop
vertex -0.375 -8 20.36797
vertex -0.375 -8 20
vertex 0.375 -8 20
endloop
endfacet
facet normal 0 -1 0
outer loop
vertex -0.375 -8 20.36797
vertex 0.375 -8 20
vertex 0.375 -8 20.38203
endloop
endfacet
facet normal 0 -1 0
outer loop
vertex 0.375 -8 20.75
vertex -0.375 -8 20.75
vertex -0.375 -8 20.36797
endloop
endfacet
facet normal 0 -1 0
outer loop
vertex 0.375 -8 20.75
vertex -0.375 -8 20.36797
vertex 0.375 -8 20.38203
endloop
endfacet
facet normal 0 -1 0
outer loop
vertex 19.275 -8 20.73641
vertex 19.275 -8 20
vertex 20 -8 20
endloop
endfacet
facet normal 0 -1 0
outer loop
vertex 19.275 -8 20.73641
vertex 20 -8 20
vertex 20 -8 20.75
endloop
endfacet
facet normal 0 -1 0
outer loop
vertex 19.275 -8 20.73641
vertex 20 -8 20.75
vertex 19.275 -8 20.75
endloop
endfacet
facet normal 0 -1 0
outer loop
vertex -19.275 -8 20.01359
vertex -20 -8 20
vertex -19.275 -8 20
endloop
endfacet
facet normal 0 -1 0
outer loop
vertex -19.275 -8 20.75
vertex -20 -8 20.75
vertex -20 -8 20
endloop
endfacet
facet normal 0 -1 0
outer loop
vertex -19.275 -8 20.75
vertex -20 -8 20
vertex -19.275 -8 20.01359
endloop
endfacet
facet normal 1 0 0
outer loop
vertex 20 8 20
vertex 20 8 20.75
vertex 20 -8 20
endloop
endfacet
facet normal 1 0 0
outer loop
vertex 20 -8 20
vertex 20 8 20.75
vertex 20 -8 20.75
endloop
endfacet
facet normal -1 0 0
outer loop
vertex -20 -8 20
vertex -20 -8 20.75
vertex -20 8 20
endloop
endfacet
facet normal -1 0 0
outer loop
vertex -20 8 20
vertex -20 -8 20.75
vertex -20 8 20.75
endloop
endfacet
facet normal 0 1 0
outer loop
vertex 19.275 8 20.01359
vertex 19.275 8 20
vertex 0.375 8 20
endloop
endfacet
facet normal 0 1 0
outer loop
vertex 19.275 8 20.01359
vertex 0.375 8 20
vertex 0.375 8 20.36797
endloop
endfacet
facet normal 0 1 0
outer loop
vertex 0.375 8 20.75
vertex 19.275 8 20.75
vertex 19.275 8 20.01359
endloop
endfacet
facet normal 0 1 0
outer loop
vertex 0.375 8 20.75
vertex 19.275 8 20.01359
vertex 0.375 8 20.36797
endloop
endfacet
facet normal 0 1 0
outer loop
vertex -0.375 8 20
vertex -19.275 8 20
vertex -19.275 8 20.73641
endloop
endfacet
facet normal 0 1 0
outer loop
vertex -0.375 8 20
vertex -19.275 8 20.73641
vertex -0.375 8 20.38203
endloop
endfacet
facet normal 0 1 0
outer loop
vertex -19.275 8 20.73641
vertex -19.275 8 20.75
vertex -0.375 8 20.75
endloop
endfacet
facet normal 0 1 0
outer loop
vertex -19.275 8 20.73641
vertex -0.375 8 20.75
vertex -0.375 8 20.38203
endloop
endfacet
facet normal 0 1 0
outer loop
vertex -0.375 8 20.38203
vertex 0.375 8 20.36797
vertex 0.375 8 20
endloop
endfacet
facet normal 0 1 0
outer loop
vertex -0.375 8 20.38203
vertex 0.375 8 20
vertex -0.375 8 20
endloop
endfacet
facet normal 0 1 0
outer loop
vertex -0.375 8 20.38203
vertex -0.375 8 20.75
vertex 0.375 8 20.75
endloop
endfacet
facet normal 0 1 0
outer loop
vertex -0.375 8 20.38203
vertex 0.375 8 20.75
vertex 0.375 8 20.36797
endloop
endfacet
facet normal 0 1 0
outer loop
vertex 19.275 8 20.01359
vertex 20 8 20
vertex 19.275 8 20
endloop
endfacet
facet normal 0 1 0
outer loop
vertex 19.275 8 20.75
vertex 20 8 20.75
vertex 20 8 20
endloop
endfacet
facet normal 0 1 0
outer loop
vertex 19.275 8 20.75
vertex 20 8 20
vertex 19.275 8 20.01359
endloop
endfacet
facet normal 0 1 0
outer loop
vertex -19.275 8 20
vertex -20 8 20
vertex -20 8 20.75
endloop
endfacet
facet normal 0 1 0
outer loop
vertex -19.275 8 20
vertex -20 8 20.75
vertex -19.275 8 20.73641
endloop
endfacet
facet normal 0 1 0
outer loop
vertex -19.275 8 20.73641
vertex -20 8 20.75
vertex -19.275 8 20.75
endloop
endfacet
endsolid JSxCAD
