<?xml version="1.0" encoding="UTF-8"?>
<!-- Generated by jsxcad -->
<!DOCTYPE svg PUBLIC "-//W3C//DTD SVG 1.1 Tiny//EN" "http://www.w3.org/Graphics/SVG/1.1/DTD/svg11-tiny.dtd">
<svg baseProfile="tiny" height="20.525 mm" width="40.025 mm" viewBox="0 0 40.025 20.525" version="1.1" stroke="black" stroke-width=".1" fill="none" xmlns="http://www.w3.org/2000/svg">
<path d="M19.625 19.775 L19.625 10 L19.625 0 L20 0 L20.375 0 L20.375 10 L20.375 19.775 L29.825 19.775 L39.275 19.775 L39.275 10 L39.275 0 L39.65 0 L40.025 0 L40.025 10 L40.025 19.775 L40.025 19.8875 L40.025 20 L40.0125 20 L40 20 L40 20.15 L40 20.2625 L40 20.525 L39.6375 20.525 L39.275 20.525 L29.825 20.525 L20.375 20.525 L20 20.525 L19.625 20.525 L9.8125 20.525 L0 20.525 L0 20.2625 L0 20.15 L0 20 L0.3625 20 L0.725 20 L0.725 19.85 L0.725 19.775 L10.175 19.775 z"/>
</svg>