<?xml version="1.0" encoding="UTF-8"?>
<!-- Generated by jsxcad -->
<!DOCTYPE svg PUBLIC "-//W3C//DTD SVG 1.1 Tiny//EN" "http://www.w3.org/Graphics/SVG/1.1/DTD/svg11-tiny.dtd">
<svg baseProfile="tiny" height="0.75 mm" width="41.125 mm" viewBox="0 0 41.125 0.75" version="1.1" stroke="black" stroke-width=".1" fill="none" xmlns="http://www.w3.org/2000/svg">
<path d="M7.9875 0.60433 L0 0.75 L7.9875 0.75 z"/>
<path d="M7.9875 0.60433 L7.9875 0 L0 0 z"/>
<path d="M7.9875 0.60433 L0 0 L0 0.75 z"/>
<path d="M8.7375 0.59065 L8.7375 0.75 L41.125 0.75 z"/>
<path d="M8.7375 0.59065 L41.125 0.75 L41.125 0 z"/>
<path d="M8.7375 0.59065 L41.125 0 L8.7375 0 z"/>
<path d="M8.7375 0.59065 L7.9875 0.60433 L7.9875 0.75 z"/>
<path d="M8.7375 0.59065 L7.9875 0.75 L8.7375 0.75 z"/>
<path d="M8.7375 0.225 L7.9875 0.225 L7.9875 0.60433 z"/>
<path d="M8.7375 0.225 L7.9875 0.60433 L8.7375 0.59065 z"/>
<path d="M0 0.75 L0 0 L0 0.75 z"/>
<path d="M0 0.75 L0 0 L0 0 z"/>
<path d="M0 0 L7.9875 0.14567 L7.9875 0.75 z"/>
<path d="M0 0 L7.9875 0.75 L0 0.75 z"/>
<path d="M7.9875 0.14567 L0 0 L7.9875 0 z"/>
<path d="M8.7375 0.15935 L41.125 0.75 L8.7375 0.75 z"/>
<path d="M8.7375 0 L41.125 0 L41.125 0.75 z"/>
<path d="M8.7375 0 L41.125 0.75 L8.7375 0.15935 z"/>
<path d="M8.7375 0.225 L8.7375 0.75 L7.9875 0.75 z"/>
<path d="M8.7375 0.225 L7.9875 0.75 L7.9875 0.225 z"/>
<path d="M41.125 0.75 L41.125 0 L41.125 0.75 z"/>
<path d="M41.125 0.75 L41.125 0 L41.125 0 z"/>
<path d="M7.9875 0 L0 0 L0 0 z"/>
<path d="M7.9875 0 L0 0 L7.9875 0 z"/>
<path d="M7.9875 0 L0 0 L7.9875 0 z"/>
<path d="M8.7375 0 L41.125 0 L8.7375 0 z"/>
<path d="M8.7375 0 L41.125 0 L41.125 0 z"/>
<path d="M8.7375 0 L41.125 0 L8.7375 0 z"/>
<path d="M7.9875 0.75 L0 0.75 L0 0.75 z"/>
<path d="M7.9875 0.75 L0 0.75 L7.9875 0.75 z"/>
<path d="M7.9875 0.75 L0 0.75 L7.9875 0.75 z"/>
<path d="M8.7375 0.75 L41.125 0.75 L8.7375 0.75 z"/>
<path d="M8.7375 0.75 L41.125 0.75 L41.125 0.75 z"/>
<path d="M8.7375 0.75 L41.125 0.75 L8.7375 0.75 z"/>
<path d="M7.9875 0.75 L8.7375 0.75 L8.7375 0.75 z"/>
<path d="M7.9875 0.75 L8.7375 0.75 L7.9875 0.75 z"/>
<path d="M7.9875 0.75 L8.7375 0.75 L8.7375 0.75 z"/>
<path d="M7.9875 0.75 L8.7375 0.75 L7.9875 0.75 z"/>
<path d="M7.9875 0.225 L7.9875 0.22406 L7.9875 0 z"/>
<path d="M7.9875 0.225 L7.9875 0 L7.9875 0 z"/>
<path d="M7.9875 0.225 L7.9875 0 L7.9875 0.225 z"/>
<path d="M7.9875 0 L7.9875 0.22406 L7.9875 0 z"/>
<path d="M8.7375 0 L8.7375 0.225 L8.7375 0.225 z"/>
<path d="M8.7375 0 L8.7375 0.225 L8.7375 0.22406 z"/>
<path d="M8.7375 0 L8.7375 0.22406 L8.7375 0 z"/>
<path d="M8.7375 0 L8.7375 0.22406 L8.7375 0 z"/>
<path d="M8.73514 0.225 L7.98986 0.225 L7.9875 0.225 z"/>
<path d="M8.73514 0.225 L7.9875 0.225 L7.9875 0.225 z"/>
<path d="M7.98986 0.225 L8.73514 0.225 L8.7375 0.225 z"/>
<path d="M7.98986 0.225 L8.7375 0.225 L8.7375 0.225 z"/>
</svg>