<?xml version="1.0" encoding="UTF-8"?>
<!-- Generated by jsxcad -->
<!DOCTYPE svg PUBLIC "-//W3C//DTD SVG 1.1 Tiny//EN" "http://www.w3.org/Graphics/SVG/1.1/DTD/svg11-tiny.dtd">
<svg baseProfile="tiny" height="0.75 mm" width="40 mm" viewBox="0 0 40 0.75" version="1.1" stroke="black" stroke-width=".1" fill="none" xmlns="http://www.w3.org/2000/svg">
<path d="M19.625 0.38203 L0 0.75 L19.625 0.75 z"/>
<path d="M19.625 0.38203 L19.625 0 L0 0 z"/>
<path d="M19.625 0.38203 L0 0 L0 0.75 z"/>
<path d="M20.375 0.75 L38.875 0.75 L38.875 0.7281 z"/>
<path d="M20.375 0.75 L38.875 0.7281 L20.375 0.36797 z"/>
<path d="M38.875 0.7281 L38.875 0.02109 L20.375 0.36797 z"/>
<path d="M38.875 0.02109 L38.875 0 L20.375 0 z"/>
<path d="M38.875 0.02109 L20.375 0 L20.375 0.36797 z"/>
<path d="M20.375 0.36797 L19.625 0.38203 L19.625 0.75 z"/>
<path d="M20.375 0.36797 L19.625 0.75 L20.375 0.75 z"/>
<path d="M20.375 0.225 L19.625 0.225 L19.625 0.38203 z"/>
<path d="M20.375 0.225 L19.625 0.38203 L20.375 0.36797 z"/>
<path d="M39.625 0.75 L40 0.75 L39.625 0.7427 z"/>
<path d="M39.625 0.7427 L40 0.75 L40 0 z"/>
<path d="M39.625 0.7427 L40 0 L39.625 0.00703 z"/>
<path d="M39.625 0.00703 L40 0 L39.625 0 z"/>
<path d="M39.625 0.75 L39.625 0.7427 L38.875 0.7281 z"/>
<path d="M39.625 0.75 L38.875 0.7281 L38.875 0.75 z"/>
<path d="M39.625 0.225 L38.875 0.225 L38.875 0.7281 z"/>
<path d="M39.625 0.225 L38.875 0.7281 L39.625 0.7427 z"/>
<path d="M0 0 L0 0.00234 L0 0.75 z"/>
<path d="M0 0 L0 0.75 L0 0.75 z"/>
<path d="M0 0.00234 L0 0 L0 0 z"/>
<path d="M0 0.74766 L0 0.75 L0 0.75 z"/>
<path d="M0 0 L0 0 L0 0.75 z"/>
<path d="M0 0 L0 0.75 L0 0.74766 z"/>
<path d="M0 0.74766 L0 0.75 L0 0.75 z"/>
<path d="M0 0.74766 L0 0.75 L0 0.00234 z"/>
<path d="M0 0 L0 0 L0 0.74766 z"/>
<path d="M0 0 L0 0.74766 L0 0.00234 z"/>
<path d="M0 0 L19.625 0.36797 L19.625 0.75 z"/>
<path d="M0 0 L19.625 0.75 L0 0.75 z"/>
<path d="M19.625 0.36797 L0 0 L19.625 0 z"/>
<path d="M38.875 0.72891 L38.875 0.75 L20.375 0.75 z"/>
<path d="M38.875 0.72891 L20.375 0.75 L20.375 0.38203 z"/>
<path d="M38.875 0 L38.875 0.70701 L20.375 0 z"/>
<path d="M38.875 0.70701 L38.875 0.72891 L20.375 0.38203 z"/>
<path d="M38.875 0.70701 L20.375 0.38203 L20.375 0 z"/>
<path d="M20.375 0.38203 L20.375 0.75 L19.625 0.75 z"/>
<path d="M20.375 0.38203 L19.625 0.75 L19.625 0.36797 z"/>
<path d="M20.375 0.225 L20.375 0.38203 L19.625 0.36797 z"/>
<path d="M20.375 0.225 L19.625 0.36797 L19.625 0.225 z"/>
<path d="M39.625 0.74297 L40 0.75 L39.625 0.75 z"/>
<path d="M39.625 0 L40 0 L40 0.75 z"/>
<path d="M39.625 0 L40 0.75 L39.625 0.73567 z"/>
<path d="M39.625 0.73567 L40 0.75 L39.625 0.74297 z"/>
<path d="M39.625 0.74297 L39.625 0.75 L38.875 0.75 z"/>
<path d="M39.625 0.74297 L38.875 0.75 L38.875 0.72891 z"/>
<path d="M39.625 0.225 L39.625 0.73567 L38.875 0.70701 z"/>
<path d="M39.625 0.225 L38.875 0.70701 L38.875 0.225 z"/>
<path d="M39.625 0.73567 L39.625 0.74297 L38.875 0.72891 z"/>
<path d="M39.625 0.73567 L38.875 0.72891 L38.875 0.70701 z"/>
<path d="M40 0.74766 L40 0.75 L40 0.75 z"/>
<path d="M40 0.74766 L40 0 L40 0 z"/>
<path d="M40 0.74766 L40 0 L40 0.75 z"/>
<path d="M40 0.00234 L40 0.75 L40 0.75 z"/>
<path d="M40 0.00234 L40 0.75 L40 0 z"/>
<path d="M40 0.00234 L40 0 L40 0 z"/>
<path d="M40 0.00234 L40 0.74766 L40 0.75 z"/>
<path d="M40 0.00234 L40 0.75 L40 0.75 z"/>
<path d="M40 0.00234 L40 0 L40 0 z"/>
<path d="M40 0.00234 L40 0 L40 0.74766 z"/>
<path d="M0 0 L0 0 L0.06133 0 z"/>
<path d="M0.06133 0 L0 0 L0.125 0 z"/>
<path d="M0.125 0 L0 0 L19.625 0 z"/>
<path d="M0.125 0 L19.625 0 L19.625 0 z"/>
<path d="M38.875 0 L20.43633 0 L20.375 0 z"/>
<path d="M38.875 0 L20.375 0 L38.875 0 z"/>
<path d="M20.375 0 L20.375 0 L20.43633 0 z"/>
<path d="M40 0 L40 0 L39.62617 0 z"/>
<path d="M40 0 L39.62617 0 L39.625 0 z"/>
<path d="M39.62617 0 L39.625 0 L39.625 0 z"/>
<path d="M0 0 L19.56367 0 L19.625 0 z"/>
<path d="M0 0 L19.625 0 L0 0 z"/>
<path d="M19.625 0 L19.625 0 L19.56367 0 z"/>
<path d="M38.875 0 L38.875 0 L20.375 0 z"/>
<path d="M38.875 0 L20.375 0 L22.43056 0 z"/>
<path d="M22.43056 0 L20.375 0 L20.375 0 z"/>
<path d="M39.875 0 L40 0 L39.625 0 z"/>
<path d="M39.875 0 L39.625 0 L39.625 0 z"/>
<path d="M40 0 L40 0 L39.99883 0 z"/>
<path d="M39.99883 0 L40 0 L39.93867 0 z"/>
<path d="M39.93867 0 L40 0 L39.875 0 z"/>
<path d="M0 0 L0 0 L0.06133 0 z"/>
<path d="M0 0 L0.06133 0 L19.56367 0 z"/>
<path d="M0.125 0 L19.625 0 L19.625 0 z"/>
<path d="M0.125 0 L19.625 0 L19.56367 0 z"/>
<path d="M0.125 0 L19.56367 0 L0.06133 0 z"/>
<path d="M0.125 0 L19.625 0 L19.625 0 z"/>
<path d="M38.875 0 L22.43056 0 L38.875 0 z"/>
<path d="M22.43056 0 L20.375 0 L20.375 0 z"/>
<path d="M22.43056 0 L20.375 0 L38.875 0 z"/>
<path d="M38.875 0 L38.875 0 L20.43633 0 z"/>
<path d="M38.875 0 L38.875 0 L20.375 0 z"/>
<path d="M20.375 0 L20.375 0 L20.43633 0 z"/>
<path d="M20.375 0 L20.43633 0 L38.875 0 z"/>
<path d="M39.875 0 L39.625 0 L39.625 0 z"/>
<path d="M40 0 L39.99883 0 L39.62617 0 z"/>
<path d="M40 0 L39.62617 0 L40 0 z"/>
<path d="M39.99883 0 L39.93867 0 L39.625 0 z"/>
<path d="M39.99883 0 L39.625 0 L39.625 0 z"/>
<path d="M39.99883 0 L39.625 0 L39.62617 0 z"/>
<path d="M39.93867 0 L39.875 0 L39.625 0 z"/>
<path d="M39.93867 0 L39.625 0 L39.625 0 z"/>
<path d="M0 0.75 L0 0.75 L19.56367 0.75 z"/>
<path d="M0 0.75 L19.56367 0.75 L19.625 0.75 z"/>
<path d="M19.56367 0.75 L19.625 0.75 L19.625 0.75 z"/>
<path d="M38.875 0.75 L38.875 0.75 L20.375 0.75 z"/>
<path d="M38.875 0.75 L20.375 0.75 L22.43056 0.75 z"/>
<path d="M22.43056 0.75 L20.375 0.75 L20.375 0.75 z"/>
<path d="M20.375 0.75 L20.375 0.75 L20.3704 0.75 z"/>
<path d="M20.3704 0.75 L20.375 0.75 L19.625 0.75 z"/>
<path d="M20.3704 0.75 L19.625 0.75 L19.625 0.75 z"/>
<path d="M39.875 0.75 L40 0.75 L39.625 0.75 z"/>
<path d="M39.875 0.75 L39.625 0.75 L39.625 0.75 z"/>
<path d="M40 0.75 L40 0.75 L39.99883 0.75 z"/>
<path d="M39.99883 0.75 L40 0.75 L39.93867 0.75 z"/>
<path d="M39.93867 0.75 L40 0.75 L39.875 0.75 z"/>
<path d="M39.625 0.75 L39.625 0.75 L38.875 0.75 z"/>
<path d="M39.625 0.75 L38.875 0.75 L39.125 0.75 z"/>
<path d="M39.125 0.75 L38.875 0.75 L38.875 0.75 z"/>
<path d="M0 0.75 L0 0.75 L0.06133 0.75 z"/>
<path d="M0.06133 0.75 L0 0.75 L0.125 0.75 z"/>
<path d="M0.125 0.75 L0 0.75 L19.625 0.75 z"/>
<path d="M0.125 0.75 L19.625 0.75 L19.625 0.75 z"/>
<path d="M38.875 0.75 L20.43633 0.75 L20.375 0.75 z"/>
<path d="M38.875 0.75 L20.375 0.75 L38.875 0.75 z"/>
<path d="M20.375 0.75 L20.375 0.75 L20.43633 0.75 z"/>
<path d="M20.375 0.75 L20.375 0.75 L19.6296 0.75 z"/>
<path d="M20.375 0.75 L19.6296 0.75 L19.625 0.75 z"/>
<path d="M19.6296 0.75 L19.625 0.75 L19.625 0.75 z"/>
<path d="M40 0.75 L39.62617 0.75 L39.625 0.75 z"/>
<path d="M40 0.75 L39.625 0.75 L40 0.75 z"/>
<path d="M39.625 0.75 L39.625 0.75 L39.62617 0.75 z"/>
<path d="M39.625 0.75 L39.62251 0.75 L39.625 0.75 z"/>
<path d="M39.62251 0.75 L38.875 0.75 L38.875 0.75 z"/>
<path d="M39.62251 0.75 L38.875 0.75 L39.625 0.75 z"/>
<path d="M0 0.75 L0.06133 0.75 L19.56367 0.75 z"/>
<path d="M0 0.75 L19.56367 0.75 L0 0.75 z"/>
<path d="M0.06133 0.75 L0.125 0.75 L19.625 0.75 z"/>
<path d="M0.06133 0.75 L19.625 0.75 L19.625 0.75 z"/>
<path d="M0.06133 0.75 L19.625 0.75 L19.56367 0.75 z"/>
<path d="M0.125 0.75 L19.625 0.75 L19.625 0.75 z"/>
<path d="M38.875 0.75 L22.43056 0.75 L38.875 0.75 z"/>
<path d="M22.43056 0.75 L20.375 0.75 L20.375 0.75 z"/>
<path d="M22.43056 0.75 L20.375 0.75 L38.875 0.75 z"/>
<path d="M38.875 0.75 L38.875 0.75 L20.43633 0.75 z"/>
<path d="M38.875 0.75 L38.875 0.75 L20.375 0.75 z"/>
<path d="M20.375 0.75 L20.375 0.75 L20.43633 0.75 z"/>
<path d="M20.375 0.75 L20.43633 0.75 L38.875 0.75 z"/>
<path d="M20.375 0.75 L20.375 0.75 L20.3704 0.75 z"/>
<path d="M20.375 0.75 L20.3704 0.75 L19.625 0.75 z"/>
<path d="M20.3704 0.75 L19.625 0.75 L19.625 0.75 z"/>
<path d="M20.375 0.75 L20.375 0.75 L19.6296 0.75 z"/>
<path d="M19.6296 0.75 L20.375 0.75 L19.625 0.75 z"/>
<path d="M19.6296 0.75 L19.625 0.75 L19.625 0.75 z"/>
<path d="M39.875 0.75 L39.625 0.75 L39.625 0.75 z"/>
<path d="M40 0.75 L40 0.75 L39.99883 0.75 z"/>
<path d="M40 0.75 L39.99883 0.75 L39.62617 0.75 z"/>
<path d="M39.93867 0.75 L39.625 0.75 L39.625 0.75 z"/>
<path d="M39.93867 0.75 L39.625 0.75 L39.62617 0.75 z"/>
<path d="M39.93867 0.75 L39.62617 0.75 L39.99883 0.75 z"/>
<path d="M39.93867 0.75 L39.875 0.75 L39.625 0.75 z"/>
<path d="M39.93867 0.75 L39.625 0.75 L39.625 0.75 z"/>
<path d="M39.625 0.75 L39.125 0.75 L39.625 0.75 z"/>
<path d="M39.125 0.75 L38.875 0.75 L38.875 0.75 z"/>
<path d="M39.125 0.75 L38.875 0.75 L39.625 0.75 z"/>
<path d="M39.625 0.75 L39.625 0.75 L38.875 0.75 z"/>
<path d="M39.625 0.75 L38.875 0.75 L39.62251 0.75 z"/>
<path d="M39.62251 0.75 L38.875 0.75 L38.875 0.75 z"/>
<path d="M39.625 0.75 L39.625 0.75 L38.875 0.75 z"/>
<path d="M39.625 0.75 L38.875 0.75 L38.875 0.75 z"/>
<path d="M19.625 0 L19.625 0 L19.625 0.225 z"/>
<path d="M19.625 0 L19.625 0.225 L19.625 0.22219 z"/>
<path d="M19.625 0.22219 L19.625 0.225 L19.625 0.225 z"/>
<path d="M19.625 0.225 L19.625 0.225 L19.625 0.22406 z"/>
<path d="M19.625 0.22406 L19.625 0.225 L19.625 0 z"/>
<path d="M19.625 0.22406 L19.625 0 L19.625 0 z"/>
<path d="M19.625 0 L19.625 0.22219 L19.625 0 z"/>
<path d="M19.625 0.225 L19.625 0.225 L19.625 0.22406 z"/>
<path d="M19.625 0.225 L19.625 0.22406 L19.625 0 z"/>
<path d="M19.625 0.225 L19.625 0 L19.625 0.22219 z"/>
<path d="M19.625 0.22406 L19.625 0 L19.625 0 z"/>
<path d="M20.375 0.225 L20.375 0.225 L20.375 0.22406 z"/>
<path d="M20.375 0.22406 L20.375 0.225 L20.375 0 z"/>
<path d="M20.375 0.22406 L20.375 0 L20.375 0 z"/>
<path d="M20.375 0 L20.375 0 L20.375 0.225 z"/>
<path d="M20.375 0 L20.375 0.225 L20.375 0.22219 z"/>
<path d="M20.375 0.225 L20.375 0.22219 L20.375 0.225 z"/>
<path d="M20.375 0 L20.375 0.22219 L20.375 0 z"/>
<path d="M20.375 0.225 L20.375 0.225 L20.375 0.22406 z"/>
<path d="M20.375 0.225 L20.375 0.22406 L20.375 0 z"/>
<path d="M20.375 0.225 L20.375 0 L20.375 0.22219 z"/>
<path d="M20.375 0.22406 L20.375 0 L20.375 0 z"/>
<path d="M19.625 0.225 L19.625 0.225 L20.375 0.225 z"/>
<path d="M19.625 0.225 L20.375 0.225 L20.37266 0.225 z"/>
<path d="M20.37266 0.225 L20.375 0.225 L20.375 0.225 z"/>
<path d="M19.62734 0.225 L19.625 0.225 L19.625 0.225 z"/>
<path d="M19.62734 0.225 L20.375 0.225 L20.375 0.225 z"/>
<path d="M19.62734 0.225 L20.375 0.225 L19.625 0.225 z"/>
<path d="M20.37266 0.225 L19.62734 0.225 L19.625 0.225 z"/>
<path d="M20.37266 0.225 L19.625 0.225 L19.625 0.225 z"/>
<path d="M19.62734 0.225 L20.37266 0.225 L20.375 0.225 z"/>
<path d="M19.62734 0.225 L20.375 0.225 L20.375 0.225 z"/>
<path d="M38.875 0 L38.875 0 L38.875 0.225 z"/>
<path d="M38.875 0 L38.875 0.225 L38.875 0.22219 z"/>
<path d="M38.875 0.22219 L38.875 0.225 L38.875 0.225 z"/>
<path d="M38.875 0.225 L38.875 0.225 L38.875 0.22406 z"/>
<path d="M38.875 0.22406 L38.875 0.225 L38.875 0 z"/>
<path d="M38.875 0.22406 L38.875 0 L38.875 0 z"/>
<path d="M38.875 0 L38.875 0.22219 L38.875 0 z"/>
<path d="M38.875 0.225 L38.875 0.225 L38.875 0.22406 z"/>
<path d="M38.875 0.225 L38.875 0.22406 L38.875 0 z"/>
<path d="M38.875 0.225 L38.875 0 L38.875 0.22219 z"/>
<path d="M38.875 0.22406 L38.875 0 L38.875 0 z"/>
<path d="M39.625 0.225 L39.625 0.225 L39.625 0.22406 z"/>
<path d="M39.625 0.22406 L39.625 0.225 L39.625 0 z"/>
<path d="M39.625 0.22406 L39.625 0 L39.625 0 z"/>
<path d="M39.625 0 L39.625 0 L39.625 0.225 z"/>
<path d="M39.625 0 L39.625 0.225 L39.625 0.22219 z"/>
<path d="M39.625 0.225 L39.625 0.22219 L39.625 0.225 z"/>
<path d="M39.625 0 L39.625 0.22219 L39.625 0 z"/>
<path d="M39.625 0.225 L39.625 0.225 L39.625 0.22406 z"/>
<path d="M39.625 0.225 L39.625 0.22406 L39.625 0 z"/>
<path d="M39.625 0.225 L39.625 0 L39.625 0.22219 z"/>
<path d="M39.625 0.22406 L39.625 0 L39.625 0 z"/>
<path d="M38.875 0.225 L38.875 0.225 L39.625 0.225 z"/>
<path d="M38.875 0.225 L39.625 0.225 L39.62266 0.225 z"/>
<path d="M39.62266 0.225 L39.625 0.225 L39.625 0.225 z"/>
<path d="M38.87734 0.225 L38.875 0.225 L38.875 0.225 z"/>
<path d="M38.87734 0.225 L39.625 0.225 L39.625 0.225 z"/>
<path d="M38.87734 0.225 L39.625 0.225 L38.875 0.225 z"/>
<path d="M39.62266 0.225 L38.87734 0.225 L38.875 0.225 z"/>
<path d="M39.62266 0.225 L38.875 0.225 L38.875 0.225 z"/>
<path d="M38.87734 0.225 L39.62266 0.225 L39.625 0.225 z"/>
<path d="M38.87734 0.225 L39.625 0.225 L39.625 0.225 z"/>
</svg>