<?xml version="1.0" encoding="UTF-8"?>
<!-- Generated by jsxcad -->
<!DOCTYPE svg PUBLIC "-//W3C//DTD SVG 1.1 Tiny//EN" "http://www.w3.org/Graphics/SVG/1.1/DTD/svg11-tiny.dtd">
<svg baseProfile="tiny" height="20.75 mm" width="40.05 mm" viewBox="0 0 40.05 20.75" version="1.1" stroke="black" stroke-width=".1" fill="none" xmlns="http://www.w3.org/2000/svg">
<path d="M19.65 20 L19.65 10.225 L19.65 0.75 L10.2 0.75 L0.75 0.75 L0.75 10.225 L0.75 20 L10.2 20 z"/>
<path d="M19.65 0 L20.025 0 L20.4 0 L29.85 0 L39.3 0 L39.6625 0 L40.025 0 L40.025 0.16071 L40.025 0.225 L40.0375 0.225 L40.05 0.225 L40.05 0.49458 L40.05 0.75 L40.05 10.225 L40.05 20 L40.05 20.11122 L40.05 20.225 L40.0375 20.225 L40.025 20.225 L40.025 20.375 L40.025 20.4875 L40.025 20.75 L39.6625 20.75 L39.3 20.75 L29.85 20.75 L20.4 20.75 L20.025 20.75 L19.65 20.75 L10.2 20.75 L0.75 20.75 L0.3875 20.75 L0.025 20.75 L0.025 20.4875 L0.025 20.375 L0.025 20.225 L0.0125 20.225 L0 20.225 L0 20.11122 L0 20 L0 10.225 L0 0.75 L0 0.49458 L0 0.225 L0.0125 0.225 L0.025 0.225 L0.025 0.16071 L0.025 0 L0.3875 0 L0.75 0 L10.2 0 z"/>
<path d="M20.4 20 L29.85 20 L39.3 20 L39.3 10.225 L39.3 0.75 L29.85 0.75 L20.4 0.75 L20.4 10.225 z"/>
</svg>