<svg viewBox="-250 -250 500 500" width="500" height="500" xmlns="http://www.w3.org/2000/svg"><path d="M-39.045999301547006,31.775121857181496L-116.74548396782805,102.01249157177323L-37.033505036632235,36.46744005059484zM-39.045999301547006,31.775121857181496L-93.40104918963448,-94.95623879641133L-115.85273473532821,94.48000606685274zM-39.045999301547006,31.775121857181496L-115.85273473532821,94.48000606685274L-116.74548396782805,102.01249157177323z" style="fill:rgb(217,127,217)"/><path d="M-122.6118431441316,96.73075088030689L-122.74942711652987,96.71626474642225L-120.43000981845594,101.60596332933238zM-119.06682098207258,97.10400413625295L-122.6118431441316,96.73075088030689L-120.43000981845594,101.60596332933238zM-119.06682098207258,97.10400413625295L-120.43000981845594,101.60596332933238L-116.74548396782805,102.01249157177323z" style="fill:rgb(49,63,205)"/><path d="M-115.85273473532821,94.48000606685274L-119.06682098207258,97.10400413625295L-116.74548396782805,102.01249157177323z" style="fill:rgb(217,127,217)"/><path d="M-93.40104918963448,-94.95623879641133L-97.10274713083949,-94.58542916060676L-185.62307855029508,-35.828347457593zM-95.62964564747982,-100.15243260695408L-99.2069805399539,-99.77358035621867L-188.09051952255254,-41.28863598317684z" style="fill:rgb(82,237,172)"/><path d="M-115.85273473532821,94.48000606685274L-93.40104918963448,-94.95623879641133L-182.00645532736442,-35.97977577290849z" style="fill:rgb(217,127,217)"/><path d="M-122.6118431441316,96.73075088030689L-185.62307855029508,-35.828347457593L-122.74942711652987,96.71626474642225z" style="fill:rgb(49,63,205)"/><path d="M-39.045999301547006,31.775121857181496L-119.06682098207258,97.10400413625295L-15.422001324519224,108.01670488705072z" style="fill:rgb(82,237,172)"/><path d="M-119.06682098207258,97.10400413625295L-182.00645532736442,-35.97977577290849L-122.6118431441316,96.73075088030689z" style="fill:rgb(49,63,205)"/><path d="M-115.85273473532821,94.48000606685274L-182.00645532736442,-35.97977577290849L-119.06682098207258,97.10400413625295z" style="fill:rgb(217,127,217)"/><path d="M-39.045999301547006,31.775121857181496L-15.422001324519224,108.01670488705072L65.01769343498228,35.074237426200796zM-93.40104918963448,-94.95623879641133L-185.62307855029508,-35.828347457593L-182.00645532736442,-35.97977577290849z" style="fill:rgb(82,237,172)"/><path d="M62.2227948381962,37.608599243760565L67.02477702329152,40.24596405422073L65.01769343498228,35.074237426200796z" style="fill:rgb(217,127,217)"/><path d="M-95.62964564747982,-100.15243260695408L-188.09051952255254,-41.28863598317684L-184.5971739998225,-41.45768171257742z" style="fill:rgb(82,237,172)"/><path d="M-122.6118431441316,96.73075088030689L-182.00645532736442,-35.97977577290849L-185.62307855029508,-35.828347457593zM-116.78743736032169,101.92372064814849L-116.74548396782805,102.01249157177323L-13.07096090084821,113.4513097929614zM-15.422001324519224,108.01670488705072L-119.06682098207258,97.10400413625295L-116.78743736032169,101.92372064814849zM-182.0533397893153,-36.078915078938L-185.50308486097776,-35.833375239181706L-182.00645532736442,-35.97977577290849zM-184.5971739998225,-41.45768171257742L-188.09051952255254,-41.28863598317684L-185.50308486097776,-35.833375239181706zM-184.5971739998225,-41.45768171257742L-185.50308486097776,-35.833375239181706L-182.0533397893153,-36.078915078938z" style="fill:rgb(49,63,205)"/><path d="M62.2227948381962,37.608599243760565L-13.07096090084821,113.4513097929614L67.02477702329152,40.24596405422073zM69.59481448713083,35.21934530263419L-8.475127012419396,113.95838623861809L71.60073611595999,40.41212450151401z" style="fill:rgb(217,127,217)"/><path d="M-95.62964564747982,-100.15243260695408L-184.5971739998225,-41.45768171257742L-82.22987494809911,-46.411309777104165z" style="fill:rgb(82,237,172)"/><path d="M-116.78743736032169,101.92372064814849L-13.07096090084821,113.4513097929614L-14.223094555241055,110.78798174973319zM-15.422001324519224,108.01670488705072L-116.78743736032169,101.92372064814849L-14.223094555241055,110.78798174973319z" style="fill:rgb(49,63,205)"/><path d="M69.59481448713083,35.21934530263419L15.109228380378532,-105.82602275099194L-7.571152978179612,105.5343030661581z" style="fill:rgb(217,127,217)"/><path d="M-95.62964564747982,-100.15243260695408L-82.22987494809911,-46.411309777104165L8.26666901278509,-111.15541500266553z" style="fill:rgb(82,237,172)"/><path d="M62.2227948381962,37.608599243760565L-15.422001324519224,108.01670488705072L-13.07096090084821,113.4513097929614zM69.59481448713083,35.21934530263419L-7.571152978179612,105.5343030661581L-8.475127012419396,113.95838623861809z" style="fill:rgb(217,127,217)"/><path d="M-182.0533397893153,-36.078915078938L-182.00645532736442,-35.97977577290849L-79.57253981538844,-40.26870072171824zM-82.22987494809911,-46.411309777104165L-184.5971739998225,-41.45768171257742L-182.0533397893153,-36.078915078938zM-15.250470757990369,108.0347743613295L-15.422001324519224,108.01670488705072L-13.07096090084821,113.4513097929614zM-10.826405080390513,108.50057245711771L-15.250470757990369,108.0347743613295L-13.07096090084821,113.4513097929614zM-10.826405080390513,108.50057245711771L-13.07096090084821,113.4513097929614L-8.475127012419396,113.95838623861809z" style="fill:rgb(49,63,205)"/><path d="M-7.571152978179612,105.5343030661581L-10.826405080390513,108.50057245711771L-8.475127012419396,113.95838623861809z" style="fill:rgb(217,127,217)"/><path d="M15.109228380378532,-105.82602275099194L10.513597749585225,-105.36566532874593L-79.57253981538844,-40.26870072171824zM-82.22987494809911,-46.411309777104165L12.86252175444008,-111.64213184869911L8.26666901278509,-111.15541500266553z" style="fill:rgb(82,237,172)"/><path d="M-7.571152978179612,105.5343030661581L15.109228380378532,-105.82602275099194L-75.00153596656509,-40.460089259420826z" style="fill:rgb(217,127,217)"/><path d="M-15.250470757990369,108.0347743613295L-79.57253981538844,-40.26870072171824L-15.422001324519224,108.01670488705072z" style="fill:rgb(49,63,205)"/><path d="M120.30407964629727,122.30722260820247L69.59481448713083,35.21934530263419L-10.826405080390513,108.50057245711771z" style="fill:rgb(82,237,172)"/><path d="M-10.826405080390513,108.50057245711771L-75.00153596656509,-40.460089259420826L-15.250470757990369,108.0347743613295zM-182.0533397893153,-36.078915078938L-79.57253981538844,-40.26870072171824L-80.87468473529789,-43.278773054704594z" style="fill:rgb(49,63,205)"/><path d="M-7.571152978179612,105.5343030661581L-75.00153596656509,-40.460089259420826L-10.826405080390513,108.50057245711771z" style="fill:rgb(217,127,217)"/><path d="M-82.22987494809911,-46.411309777104165L-182.0533397893153,-36.078915078938L-80.87468473529789,-43.278773054704594z" style="fill:rgb(49,63,205)"/><path d="M120.30407964629727,122.30722260820247L198.895983091025,39.31856626115694L69.59481448713083,35.21934530263419zM15.109228380378532,-105.82602275099194L-79.57253981538844,-40.26870072171824L-75.00153596656509,-40.460089259420826z" style="fill:rgb(82,237,172)"/><path d="M196.19165939627152,42.1742209480957L200.83702569013388,45.10490224065029L198.895983091025,39.31856626115694z" style="fill:rgb(217,127,217)"/><path d="M-82.22987494809911,-46.411309777104165L-77.66064272895721,-46.63241825647776L12.86252175444008,-111.64213184869911z" style="fill:rgb(82,237,172)"/><path d="M-15.250470757990369,108.0347743613295L-75.00153596656509,-40.460089259420826L-79.57253981538844,-40.26870072171824zM-8.475127012419396,113.95838623861809L120.3461703374252,122.41842519460661L-9.671531325816144,111.18135561766813zM120.3461703374252,122.41842519460661L-10.826405080390513,108.50057245711771L-9.671531325816144,111.18135561766813zM-76.35437869991779,-43.60045108276636L-80.87468473529789,-43.278773054704594L-79.57253981538844,-40.26870072171824zM-76.35437869991779,-43.60045108276636L-82.22987494809911,-46.411309777104165L-80.87468473529789,-43.278773054704594zM-76.35437869991779,-43.60045108276636L-79.57253981538844,-40.26870072171824L-75.00153596656509,-40.460089259420826zM-76.35437869991779,-43.60045108276636L-77.66064272895721,-46.63241825647776L-82.22987494809911,-46.411309777104165z" style="fill:rgb(49,63,205)"/><path d="M196.19165939627152,42.1742209480957L122.62356132799287,128.4230206937942L200.83702569013388,45.10490224065029zM204.65077253161735,39.50100948110775L128.51590176817913,129.07314581168518L206.5874633064961,45.31371036686796z" style="fill:rgb(217,127,217)"/><path d="M-8.475127012419396,113.95838623861809L122.62356132799287,128.4230206937942L120.3461703374252,122.41842519460661z" style="fill:rgb(49,63,205)"/><path d="M53.81734367159016,-52.994734149107906L12.86252175444008,-111.64213184869911L-77.66064272895721,-46.63241825647776z" style="fill:rgb(82,237,172)"/><path d="M120.3461703374252,122.41842519460661L120.30407964629727,122.30722260820247L-10.826405080390513,108.50057245711771z" style="fill:rgb(49,63,205)"/><path d="M204.65077253161735,39.50100948110775L151.6735641421803,-119.50606148803074L129.40605998788584,119.51809172563293z" style="fill:rgb(217,127,217)"/><path d="M53.81734367159016,-52.994734149107906L143.6125709063736,-125.48901834373608L12.86252175444008,-111.64213184869911z" style="fill:rgb(82,237,172)"/><path d="M196.19165939627152,42.1742209480957L120.30407964629727,122.30722260820247L122.62356132799287,128.4230206937942zM204.65077253161735,39.50100948110775L129.40605998788584,119.51809172563293L128.51590176817913,129.07314581168518z" style="fill:rgb(217,127,217)"/><path d="M-75.00153596656509,-40.460089259420826L53.86572973649906,-52.86701057085629L-76.35437869991779,-43.60045108276636zM53.86572973649906,-52.86701057085629L-77.66064272895721,-46.63241825647776L-76.35437869991779,-43.60045108276636zM120.52401929397213,122.33038987949593L120.30407964629727,122.30722260820247L122.62356132799287,128.4230206937942zM126.19958974316722,122.9279573281912L120.52401929397213,122.33038987949593L122.62356132799287,128.4230206937942zM126.19958974316722,122.9279573281912L122.62356132799287,128.4230206937942L128.51590176817913,129.07314581168518z" style="fill:rgb(49,63,205)"/><path d="M129.40605998788584,119.51809172563293L126.19958974316722,122.9279573281912L128.51590176817913,129.07314581168518z" style="fill:rgb(217,127,217)"/><path d="M151.6735641421803,-119.50606148803074L145.81628945522638,-118.9193215843503L56.48330545101875,-45.96537278356751zM53.81734367159016,-52.994734149107906L149.27711763731972,-126.08891361295716L143.6125709063736,-125.48901834373608z" style="fill:rgb(82,237,172)"/><path d="M151.4773627384866,-119.48640743407938L149.27711763731972,-126.08891361295716L62.243365630881456,-46.206552139461515zM129.40605998788584,119.51809172563293L151.6735641421803,-119.50606148803074L62.44308891794726,-46.21490989800536z" style="fill:rgb(217,127,217)"/><path d="M120.52401929397213,122.33038987949593L56.48330545101875,-45.96537278356751L120.30407964629727,122.30722260820247zM126.19958974316722,122.9279573281912L62.44308891794726,-46.21490989800536L120.52401929397213,122.33038987949593z" style="fill:rgb(49,63,205)"/><path d="M129.40605998788584,119.51809172563293L62.44308891794726,-46.21490989800536L126.19958974316722,122.9279573281912z" style="fill:rgb(217,127,217)"/><path d="M-75.00153596656509,-40.460089259420826L56.48330545101875,-45.96537278356751L53.86572973649906,-52.86701057085629zM53.86572973649906,-52.86701057085629L53.81734367159016,-52.994734149107906L-77.66064272895721,-46.63241825647776z" style="fill:rgb(49,63,205)"/><path d="M151.6735641421803,-119.50606148803074L56.48330545101875,-45.96537278356751L62.44308891794726,-46.21490989800536zM53.81734367159016,-52.994734149107906L59.57904571885802,-53.27354686781849L149.27711763731972,-126.08891361295716z" style="fill:rgb(82,237,172)"/><path d="M62.243365630881456,-46.206552139461515L149.27711763731972,-126.08891361295716L59.57904571885802,-53.27354686781849z" style="fill:rgb(217,127,217)"/><path d="M120.52401929397213,122.33038987949593L62.44308891794726,-46.21490989800536L56.48330545101875,-45.96537278356751zM56.48330545101875,-45.96537278356751L59.57904571885802,-53.27354686781849L53.86572973649906,-52.86701057085629zM56.48330545101875,-45.96537278356751L62.243365630881456,-46.206552139461515L59.57904571885802,-53.27354686781849zM53.86572973649906,-52.86701057085629L59.57904571885802,-53.27354686781849L53.81734367159016,-52.994734149107906z" style="fill:rgb(49,63,205)"/></svg>