solid JSxCAD
facet normal 0 -1 0
outer loop
vertex 20.5625 -7.9 -0.375
vertex 20.5625 -7.9 0.375
vertex -20.5625 -7.9 -0.375
endloop
endfacet
facet normal 0 -1 0
outer loop
vertex -20.5625 -7.9 -0.375
vertex 20.5625 -7.9 0.375
vertex -20.5625 -7.9 0.375
endloop
endfacet
facet normal -1 0 0
outer loop
vertex -20.5625 -7.9 -0.375
vertex -20.5625 -7.9 0.375
vertex -20.5625 7.9 -0.375
endloop
endfacet
facet normal -1 0 0
outer loop
vertex -20.5625 7.9 -0.375
vertex -20.5625 -7.9 0.375
vertex -20.5625 7.9 0.375
endloop
endfacet
facet normal 0 1 0
outer loop
vertex -20.5625 7.9 -0.375
vertex -20.5625 7.9 0.375
vertex 20.5625 7.9 -0.375
endloop
endfacet
facet normal 0 1 0
outer loop
vertex 20.5625 7.9 -0.375
vertex -20.5625 7.9 0.375
vertex 20.5625 7.9 0.375
endloop
endfacet
facet normal 1 0 0
outer loop
vertex 20.5625 7.9 -0.375
vertex 20.5625 7.9 0.375
vertex 20.5625 -7.9 -0.375
endloop
endfacet
facet normal 1 0 0
outer loop
vertex 20.5625 -7.9 -0.375
vertex 20.5625 7.9 0.375
vertex 20.5625 -7.9 0.375
endloop
endfacet
facet normal 0 0 1
outer loop
vertex 20.5625 7.9 0.375
vertex -20.5625 7.9 0.375
vertex -20.5625 -7.9 0.375
endloop
endfacet
facet normal 0 0 1
outer loop
vertex 20.5625 7.9 0.375
vertex -20.5625 -7.9 0.375
vertex 20.5625 -7.9 0.375
endloop
endfacet
facet normal 0 0 -1
outer loop
vertex 20.5625 -7.9 -0.375
vertex -20.5625 -7.9 -0.375
vertex -20.5625 7.9 -0.375
endloop
endfacet
facet normal 0 0 -1
outer loop
vertex 20.5625 -7.9 -0.375
vertex -20.5625 7.9 -0.375
vertex 20.5625 7.9 -0.375
endloop
endfacet
endsolid JSxCAD
