solid JSxCAD
facet normal 0 -1 0
outer loop
vertex -0.375 -7.9 -0.00684
vertex -20.5625 -7.9 -0.375
vertex -0.375 -7.9 -0.375
endloop
endfacet
facet normal 0 -1 0
outer loop
vertex -0.375 -7.9 -0.00684
vertex -0.375 -7.9 0.375
vertex -20.5625 -7.9 0.375
endloop
endfacet
facet normal 0 -1 0
outer loop
vertex -0.375 -7.9 -0.00684
vertex -20.5625 -7.9 0.375
vertex -20.5625 -7.9 -0.375
endloop
endfacet
facet normal 0 -1 0
outer loop
vertex 0.375 -7.9 0.00684
vertex 0.375 -7.9 -0.375
vertex 20.5625 -7.9 -0.375
endloop
endfacet
facet normal 0 -1 0
outer loop
vertex 0.375 -7.9 0.00684
vertex 20.5625 -7.9 -0.375
vertex 20.5625 -7.9 0.375
endloop
endfacet
facet normal 0 -1 0
outer loop
vertex 0.375 -7.9 0.00684
vertex 20.5625 -7.9 0.375
vertex 0.375 -7.9 0.375
endloop
endfacet
facet normal 0 -1 0
outer loop
vertex 0.375 -7.9 0.00684
vertex -0.375 -7.9 -0.00684
vertex -0.375 -7.9 -0.375
endloop
endfacet
facet normal 0 -1 0
outer loop
vertex 0.375 -7.9 0.00684
vertex -0.375 -7.9 -0.375
vertex 0.375 -7.9 -0.375
endloop
endfacet
facet normal 0 -1 0
outer loop
vertex 0.375 -7.9 0.15
vertex -0.375 -7.9 0.15
vertex -0.375 -7.9 -0.00684
endloop
endfacet
facet normal 0 -1 0
outer loop
vertex 0.375 -7.9 0.15
vertex -0.375 -7.9 -0.00684
vertex 0.375 -7.9 0.00684
endloop
endfacet
facet normal -1 0 0
outer loop
vertex -20.5625 -7.9 -0.375
vertex -20.5625 -7.9 0.375
vertex -20.5625 7.9 -0.375
endloop
endfacet
facet normal -1 0 0
outer loop
vertex -20.5625 7.9 -0.375
vertex -20.5625 -7.9 0.375
vertex -20.5625 7.9 0.375
endloop
endfacet
facet normal 0 1 0
outer loop
vertex -20.5625 7.9 0.375
vertex -0.375 7.9 0.00684
vertex -0.375 7.9 -0.375
endloop
endfacet
facet normal 0 1 0
outer loop
vertex -20.5625 7.9 0.375
vertex -0.375 7.9 -0.375
vertex -20.5625 7.9 -0.375
endloop
endfacet
facet normal 0 1 0
outer loop
vertex -0.375 7.9 0.00684
vertex -20.5625 7.9 0.375
vertex -0.375 7.9 0.375
endloop
endfacet
facet normal 0 1 0
outer loop
vertex 0.375 7.9 -0.00684
vertex 20.5625 7.9 -0.375
vertex 0.375 7.9 -0.375
endloop
endfacet
facet normal 0 1 0
outer loop
vertex 0.375 7.9 0.375
vertex 20.5625 7.9 0.375
vertex 20.5625 7.9 -0.375
endloop
endfacet
facet normal 0 1 0
outer loop
vertex 0.375 7.9 0.375
vertex 20.5625 7.9 -0.375
vertex 0.375 7.9 -0.00684
endloop
endfacet
facet normal 0 1 0
outer loop
vertex 0.375 7.9 -0.00684
vertex 0.375 7.9 -0.375
vertex -0.375 7.9 -0.375
endloop
endfacet
facet normal 0 1 0
outer loop
vertex 0.375 7.9 -0.00684
vertex -0.375 7.9 -0.375
vertex -0.375 7.9 0.00684
endloop
endfacet
facet normal 0 1 0
outer loop
vertex 0.375 7.9 0.15
vertex 0.375 7.9 -0.00684
vertex -0.375 7.9 0.00684
endloop
endfacet
facet normal 0 1 0
outer loop
vertex 0.375 7.9 0.15
vertex -0.375 7.9 0.00684
vertex -0.375 7.9 0.15
endloop
endfacet
facet normal 1 0 0
outer loop
vertex 20.5625 7.9 -0.375
vertex 20.5625 7.9 0.375
vertex 20.5625 -7.9 -0.375
endloop
endfacet
facet normal 1 0 0
outer loop
vertex 20.5625 -7.9 -0.375
vertex 20.5625 7.9 0.375
vertex 20.5625 -7.9 0.375
endloop
endfacet
facet normal 0 0 1
outer loop
vertex -0.375 7.9 0.375
vertex -20.5625 7.9 0.375
vertex -20.5625 -7.9 0.375
endloop
endfacet
facet normal 0 0 1
outer loop
vertex -0.375 7.9 0.375
vertex -20.5625 -7.9 0.375
vertex -0.375 -0.14407 0.375
endloop
endfacet
facet normal 0 0 1
outer loop
vertex -0.375 -0.14407 0.375
vertex -20.5625 -7.9 0.375
vertex -0.375 -7.9 0.375
endloop
endfacet
facet normal 0 0 1
outer loop
vertex 0.375 0.14407 0.375
vertex 20.5625 7.9 0.375
vertex 0.375 7.9 0.375
endloop
endfacet
facet normal 0 0 1
outer loop
vertex 0.375 -7.9 0.375
vertex 20.5625 -7.9 0.375
vertex 20.5625 7.9 0.375
endloop
endfacet
facet normal 0 0 1
outer loop
vertex 0.375 -7.9 0.375
vertex 20.5625 7.9 0.375
vertex 0.375 0.14407 0.375
endloop
endfacet
facet normal 0 0 -1
outer loop
vertex -0.375 -7.9 -0.375
vertex -20.5625 -7.9 -0.375
vertex -20.5625 7.9 -0.375
endloop
endfacet
facet normal 0 0 -1
outer loop
vertex -0.375 -7.9 -0.375
vertex -20.5625 7.9 -0.375
vertex -0.375 0.14407 -0.375
endloop
endfacet
facet normal 0 0 -1
outer loop
vertex -0.375 0.14407 -0.375
vertex -20.5625 7.9 -0.375
vertex -0.375 7.9 -0.375
endloop
endfacet
facet normal 0 0 -1
outer loop
vertex 0.375 -0.14407 -0.375
vertex 20.5625 -7.9 -0.375
vertex 0.375 -7.9 -0.375
endloop
endfacet
facet normal 0 0 -1
outer loop
vertex 0.375 7.9 -0.375
vertex 20.5625 7.9 -0.375
vertex 20.5625 -7.9 -0.375
endloop
endfacet
facet normal 0 0 -1
outer loop
vertex 0.375 7.9 -0.375
vertex 20.5625 -7.9 -0.375
vertex 0.375 -0.14407 -0.375
endloop
endfacet
facet normal 0 0 -1
outer loop
vertex -0.375 0.14407 -0.375
vertex 0.375 -0.14407 -0.375
vertex 0.375 -7.9 -0.375
endloop
endfacet
facet normal 0 0 -1
outer loop
vertex -0.375 0.14407 -0.375
vertex 0.375 -7.9 -0.375
vertex -0.375 -7.9 -0.375
endloop
endfacet
facet normal 0 0 -1
outer loop
vertex -0.375 7.9 -0.375
vertex 0.375 7.9 -0.375
vertex 0.375 -0.14407 -0.375
endloop
endfacet
facet normal 0 0 -1
outer loop
vertex -0.375 7.9 -0.375
vertex 0.375 -0.14407 -0.375
vertex -0.375 0.14407 -0.375
endloop
endfacet
facet normal 1 0 0
outer loop
vertex -0.375 7.9 0.15
vertex -0.375 7.9 0.15094
vertex -0.375 -3.975 0.375
endloop
endfacet
facet normal 1 0 0
outer loop
vertex -0.375 7.9 0.15
vertex -0.375 -3.975 0.375
vertex -0.375 -7.9 0.375
endloop
endfacet
facet normal 1 0 0
outer loop
vertex -0.375 7.9 0.15
vertex -0.375 -7.9 0.375
vertex -0.375 -7.9 0.15
endloop
endfacet
facet normal 1 0 0
outer loop
vertex -0.375 -3.975 0.375
vertex -0.375 7.9 0.15094
vertex -0.375 7.9 0.375
endloop
endfacet
facet normal -1 0 0
outer loop
vertex 0.375 7.9 0.375
vertex 0.375 7.9 0.15
vertex 0.375 -7.9 0.15
endloop
endfacet
facet normal -1 0 0
outer loop
vertex 0.375 7.9 0.375
vertex 0.375 -7.9 0.15
vertex 0.375 -7.9 0.15094
endloop
endfacet
facet normal -1 0 0
outer loop
vertex 0.375 7.9 0.375
vertex 0.375 -7.9 0.15094
vertex 0.375 3.975 0.375
endloop
endfacet
facet normal -1 0 0
outer loop
vertex 0.375 3.975 0.375
vertex 0.375 -7.9 0.15094
vertex 0.375 -7.9 0.375
endloop
endfacet
facet normal 0 0 1
outer loop
vertex 0.37264 -7.9 0.15
vertex -0.37264 7.9 0.15
vertex -0.375 7.9 0.15
endloop
endfacet
facet normal 0 0 1
outer loop
vertex 0.37264 -7.9 0.15
vertex -0.375 7.9 0.15
vertex -0.375 -7.9 0.15
endloop
endfacet
facet normal 0 0 1
outer loop
vertex -0.37264 7.9 0.15
vertex 0.37264 -7.9 0.15
vertex 0.375 -7.9 0.15
endloop
endfacet
facet normal 0 0 1
outer loop
vertex -0.37264 7.9 0.15
vertex 0.375 -7.9 0.15
vertex 0.375 7.9 0.15
endloop
endfacet
endsolid JSxCAD
