<svg viewBox="-250 -250 500 500" width="500" height="500" xmlns="http://www.w3.org/2000/svg"><path d="M-37.01267356253188,30.115099936062485L-40.61657602704415,30.00703374963396L-38.61215056677835,34.67704000042711zM-35.97585565326059,32.538717117502536L-38.61215056677835,34.67704000042711L-35.00766992533602,34.80169190893707zM-37.01267356253188,30.115099936062485L-38.61215056677835,34.67704000042711L-35.97585565326059,32.538717117502536zM-35.00766992533602,34.80169190893707L-33.13137654551395,30.23148370549514L-35.97585565326059,32.538717117502536zM-33.13137654551395,30.23148370549514L-37.01267356253188,30.115099936062485L-35.97585565326059,32.538717117502536zM-91.15811207002845,-96.449119118935L-40.61657602704415,30.00703374963396L-37.01267356253188,30.115099936062485z" style="fill:rgb(49,63,205)"/><path d="M-44.603915898014954,36.312610988201754L-123.13395400851283,107.26557638580267L-42.57068108120615,41.02052730115704z" style="fill:rgb(217,127,217)"/><path d="M-91.15811207002845,-96.449119118935L-94.73827269789514,-96.08569833039786L-40.61657602704415,30.00703374963396zM-35.00766992533602,34.80169190893707L67.0455451949695,33.23536815731568L-33.13137654551395,30.23148370549514z" style="fill:rgb(49,63,205)"/><path d="M-87.33372599299939,-98.99465461248617L-90.91627642148829,-98.62289716215008L-94.73827269789514,-96.08569833039786zM-87.33372599299939,-98.99465461248617L-94.73827269789514,-96.08569833039786L-91.15811207002845,-96.449119118935z" style="fill:rgb(82,237,172)"/><path d="M-44.603915898014954,36.312610988201754L-99.53387502338278,-90.87417032581875L-122.23133174228437,99.68749837351868zM-44.603915898014954,36.312610988201754L-122.23133174228437,99.68749837351868L-123.13395400851283,107.26557638580267z" style="fill:rgb(217,127,217)"/><path d="M12.774008671065124,-106.9990073373718L-37.01267356253188,30.115099936062485L-33.13137654551395,30.23148370549514zM-35.00766992533602,34.80169190893707L69.04430829844011,38.40014731522637L67.0455451949695,33.23536815731568zM12.774008671065124,-106.9990073373718L-91.15811207002845,-96.449119118935L-37.01267356253188,30.115099936062485zM-129.02082496294838,101.94499693511914L-129.15813545584118,101.9296532383105L-126.81312555860158,106.83576552740908zM-125.48100879095527,102.34055288122948L-129.02082496294838,101.94499693511914L-126.81312555860158,106.83576552740908zM-125.48100879095527,102.34055288122948L-126.81312555860158,106.83576552740908L-123.13395400851283,107.26557638580267zM42.227241921103996,-30.893543501499597L-33.13137654551395,30.23148370549514L67.0455451949695,33.23536815731568z" style="fill:rgb(49,63,205)"/><path d="M-122.23133174228437,99.68749837351868L-125.48100879095527,102.34055288122948L-123.13395400851283,107.26557638580267z" style="fill:rgb(217,127,217)"/><path d="M-99.53387502338278,-90.87417032581875L-103.23142292370522,-90.51739098348119L-192.74496048847055,-31.101099261484027zM-101.78665744286167,-96.09044955215138L-105.35986784807196,-95.7249950742108L-195.24279176329725,-36.58245902559988zM-91.15811207002845,-96.449119118935L16.62592557455777,-109.78242897182612L-87.33372599299939,-98.99465461248617z" style="fill:rgb(82,237,172)"/><path d="M-122.23133174228437,99.68749837351868L-99.53387502338278,-90.87417032581875L-189.1375314404783,-31.233314123352528z" style="fill:rgb(217,127,217)"/><path d="M-129.02082496294838,101.94499693511914L-192.74496048847055,-31.101099261484027L-129.15813545584118,101.9296532383105z" style="fill:rgb(49,63,205)"/><path d="M-44.603915898014954,36.312610988201754L-125.48100879095527,102.34055288122948L-21.923851506991554,113.91250823836013z" style="fill:rgb(82,237,172)"/><path d="M12.774008671065124,-106.9990073373718L-33.13137654551395,30.23148370549514L42.227241921103996,-30.893543501499597zM-125.48100879095527,102.34055288122948L-189.1375314404783,-31.233314123352528L-129.02082496294838,101.94499693511914z" style="fill:rgb(49,63,205)"/><path d="M-122.23133174228437,99.68749837351868L-189.1375314404783,-31.233314123352528L-125.48100879095527,102.34055288122948z" style="fill:rgb(217,127,217)"/><path d="M73.61906378649866,38.55835710403553L67.0455451949695,33.23536815731568L69.04430829844011,38.40014731522637zM73.61906378649866,38.55835710403553L71.62149208597586,33.37258155416829L67.0455451949695,33.23536815731568z" style="fill:rgb(49,63,205)"/><path d="M-44.603915898014954,36.312610988201754L-21.923851506991554,113.91250823836013L59.470609696455554,40.10426443901308zM-99.53387502338278,-90.87417032581875L-192.74496048847055,-31.101099261484027L-189.1375314404783,-31.233314123352528z" style="fill:rgb(82,237,172)"/><path d="M56.64389283670144,42.66754562594875L61.50061450475194,45.29491180622368L59.470609696455554,40.10426443901308z" style="fill:rgb(217,127,217)"/><path d="M-101.78665744286167,-96.09044955215138L-195.24279176329725,-36.58245902559988L-191.75849379373815,-36.73311145752849z" style="fill:rgb(82,237,172)"/><path d="M67.0455451949695,33.23536815731568L71.62149208597586,33.37258155416829L45.761347156899,-33.76011729435302zM-129.02082496294838,101.94499693511914L-189.1375314404783,-31.233314123352528L-192.74496048847055,-31.101099261484027zM-123.17637193017934,107.17650740226243L-123.13395400851283,107.26557638580267L-19.543736582266394,119.36726833395228zM-21.923851506991554,113.91250823836013L-125.48100879095527,102.34055288122948L-123.17637193017934,107.17650740226243zM67.0455451949695,33.23536815731568L45.761347156899,-33.76011729435302L42.227241921103996,-30.893543501499597z" style="fill:rgb(49,63,205)"/><path d="M-91.15811207002845,-96.449119118935L12.774008671065124,-106.9990073373718L16.62592557455777,-109.78242897182612z" style="fill:rgb(82,237,172)"/><path d="M-189.18489917034606,-31.33285322612826L-192.62519613268643,-31.105489006429153L-189.1375314404783,-31.233314123352528zM-191.75849379373815,-36.73311145752849L-195.24279176329725,-36.58245902559988L-192.62519613268643,-31.105489006429153zM-191.75849379373815,-36.73311145752849L-192.62519613268643,-31.105489006429153L-189.18489917034606,-31.33285322612826z" style="fill:rgb(49,63,205)"/><path d="M56.64389283670144,42.66754562594875L-19.543736582266394,119.36726833395228L61.50061450475194,45.29491180622368zM64.05076876445747,40.27112913070411L-14.948670977044362,119.90407643525795L66.07969352821152,45.482982330342104z" style="fill:rgb(217,127,217)"/><path d="M42.227241921103996,-30.893543501499597L45.761347156899,-33.76011729435302L17.36937112627714,-107.46547134486018zM73.61906378649866,38.55835710403553L200.857095006211,37.24781360850746L71.62149208597586,33.37258155416829zM42.227241921103996,-30.893543501499597L17.36937112627714,-107.46547134486018L12.774008671065124,-106.9990073373718z" style="fill:rgb(49,63,205)"/><path d="M-101.78665744286167,-96.09044955215138L-191.75849379373815,-36.73311145752849L-89.58256915712138,-41.15094065667709z" style="fill:rgb(82,237,172)"/><path d="M-123.17637193017934,107.17650740226243L-19.543736582266394,119.36726833395228L-20.710154773908936,116.69408632263826zM-21.923851506991554,113.91250823836013L-123.17637193017934,107.17650740226243L-20.710154773908936,116.69408632263826z" style="fill:rgb(49,63,205)"/><path d="M17.36937112627714,-107.46547134486018L16.62592557455777,-109.78242897182612L12.774008671065124,-106.9990073373718zM17.36937112627714,-107.46547134486018L21.220733019214393,-110.25922722129445L16.62592557455777,-109.78242897182612z" style="fill:rgb(82,237,172)"/><path d="M64.05076876445747,40.27112913070411L8.924138250319517,-101.33937052261206L-14.033518784954298,111.42294010260974z" style="fill:rgb(217,127,217)"/><path d="M-101.78665744286167,-96.09044955215138L-89.58256915712138,-41.15094065667709L2.0539926585624175,-106.71065202794188z" style="fill:rgb(82,237,172)"/><path d="M56.64389283670144,42.66754562594875L-21.923851506991554,113.91250823836013L-19.543736582266394,119.36726833395228zM64.05076876445747,40.27112913070411L-14.033518784954298,111.42294010260974L-14.948670977044362,119.90407643525795z" style="fill:rgb(217,127,217)"/><path d="M71.62149208597586,33.37258155416829L149.08798497095032,-117.57062797650772L45.761347156899,-33.76011729435302zM-189.18489917034606,-31.33285322612826L-189.1375314404783,-31.233314123352528L-86.89038197206541,-34.98074960061347zM-89.58256915712138,-41.15094065667709L-191.75849379373815,-36.73311145752849L-189.18489917034606,-31.33285322612826zM73.61906378649866,38.55835710403553L202.7890180172777,43.02546714970696L200.857095006211,37.24781360850746zM-21.752269652848845,113.93167159648536L-21.923851506991554,113.91250823836013L-19.543736582266394,119.36726833395228zM-17.329158964139946,114.42594005313177L-21.752269652848845,113.93167159648536L-19.543736582266394,119.36726833395228zM-17.329158964139946,114.42594005313177L-19.543736582266394,119.36726833395228L-14.948670977044362,119.90407643525795zM45.761347156899,-33.76011729435302L148.03188157115596,-120.72871239600985L17.36937112627714,-107.46547134486018z" style="fill:rgb(49,63,205)"/><path d="M-14.033518784954298,111.42294010260974L-17.329158964139946,114.42594005313177L-14.948670977044362,119.90407643525795z" style="fill:rgb(217,127,217)"/><path d="M8.924138250319517,-101.33937052261206L4.327998002017947,-100.89588528837243L-86.89038197206541,-34.98074960061347zM-89.58256915712138,-41.15094065667709L6.650238335667699,-107.18072896408336L2.0539926585624175,-106.71065202794188zM17.36937112627714,-107.46547134486018L151.80471160096843,-123.8097961190325L21.220733019214393,-110.25922722129445z" style="fill:rgb(82,237,172)"/><path d="M71.62149208597586,33.37258155416829L200.857095006211,37.24781360850746L149.08798497095032,-117.57062797650772z" style="fill:rgb(49,63,205)"/><path d="M-14.033518784954298,111.42294010260974L8.924138250319517,-101.33937052261206L-82.32440159650434,-35.1480962399752z" style="fill:rgb(217,127,217)"/><path d="M-21.752269652848845,113.93167159648536L-86.89038197206541,-34.98074960061347L-21.923851506991554,113.91250823836013z" style="fill:rgb(49,63,205)"/><path d="M113.88235920856916,129.08810070935348L64.05076876445747,40.27112913070411L-17.329158964139946,114.42594005313177z" style="fill:rgb(82,237,172)"/><path d="M-17.329158964139946,114.42594005313177L-82.32440159650434,-35.1480962399752L-21.752269652848845,113.93167159648536zM-189.18489917034606,-31.33285322612826L-86.89038197206541,-34.98074960061347L-88.20959459136444,-38.00431545487396z" style="fill:rgb(49,63,205)"/><path d="M-14.033518784954298,111.42294010260974L-82.32440159650434,-35.1480962399752L-17.329158964139946,114.42594005313177z" style="fill:rgb(217,127,217)"/><path d="M-89.58256915712138,-41.15094065667709L-189.18489917034606,-31.33285322612826L-88.20959459136444,-38.00431545487396z" style="fill:rgb(49,63,205)"/><path d="M209.74828914696477,33.870559164461916L208.34266337053867,43.217533379890895L211.66065971623638,39.658659566740724z" style="fill:rgb(217,127,217)"/><path d="M202.7890180172777,43.02546714970696L206.41494850986857,37.41446986407515L200.857095006211,37.24781360850746zM202.7890180172777,43.02546714970696L208.34266337053867,43.217533379890895L206.41494850986857,37.41446986407515z" style="fill:rgb(49,63,205)"/><path d="M209.74828914696477,33.870559164461916L206.54040493703064,37.2810841383389L208.34266337053867,43.217533379890895zM206.54040493703064,37.2810841383389L206.41494850986857,37.41446986407515L208.34266337053867,43.217533379890895z" style="fill:rgb(217,127,217)"/><path d="M113.88235920856916,129.08810070935348L193.526733486239,44.98820366105021L64.05076876445747,40.27112913070411zM8.924138250319517,-101.33937052261206L-86.89038197206541,-34.98074960061347L-82.32440159650434,-35.1480962399752z" style="fill:rgb(82,237,172)"/><path d="M190.7877711132349,47.88043514409406L195.4925680323671,50.79818771941846L193.526733486239,44.98820366105021z" style="fill:rgb(217,127,217)"/><path d="M-89.58256915712138,-41.15094065667709L-85.01855123601881,-41.34827728461682L6.650238335667699,-107.18072896408336z" style="fill:rgb(82,237,172)"/><path d="M45.761347156899,-33.76011729435302L149.08798497095032,-117.57062797650772L148.03188157115596,-120.72871239600985zM-21.752269652848845,113.93167159648536L-82.32440159650434,-35.1480962399752L-86.89038197206541,-34.98074960061347zM-14.948670977044362,119.90407643525795L113.92514360685064,129.19976654876777L-16.159883884659564,117.11671934635113zM113.92514360685064,129.19976654876777L-17.329158964139946,114.42594005313177L-16.159883884659564,117.11671934635113z" style="fill:rgb(49,63,205)"/><path d="M17.36937112627714,-107.46547134486018L148.03188157115596,-120.72871239600985L151.80471160096843,-123.8097961190325z" style="fill:rgb(82,237,172)"/><path d="M209.74828914696477,33.870559164461916L157.45622942461833,-124.39624811701184L206.54040493703064,37.2810841383389z" style="fill:rgb(217,127,217)"/><path d="M153.68952330052173,-121.30299646497843L200.857095006211,37.24781360850746L206.41494850986857,37.41446986407515z" style="fill:rgb(49,63,205)"/><path d="M206.54040493703064,37.2810841383389L153.68952330052173,-121.30299646497843L206.41494850986857,37.41446986407515z" style="fill:rgb(217,127,217)"/><path d="M-83.69515978717988,-38.302609447224256L-88.20959459136444,-38.00431545487396L-86.89038197206541,-34.98074960061347zM-83.69515978717988,-38.302609447224256L-89.58256915712138,-41.15094065667709L-88.20959459136444,-38.00431545487396zM-83.69515978717988,-38.302609447224256L-86.89038197206541,-34.98074960061347L-82.32440159650434,-35.1480962399752zM-83.69515978717988,-38.302609447224256L-85.01855123601881,-41.34827728461682L-89.58256915712138,-41.15094065667709z" style="fill:rgb(49,63,205)"/><path d="M190.7877711132349,47.88043514409406L116.23436130762336,135.22923605146258L195.4925680323671,50.79818771941846z" style="fill:rgb(217,127,217)"/><path d="M153.68952330052173,-121.30299646497843L149.08798497095032,-117.57062797650772L200.857095006211,37.24781360850746z" style="fill:rgb(49,63,205)"/><path d="M199.29329901229488,45.19829142515041L122.1353189173438,135.91860201905848L201.2548420061895,51.03485459814622zM206.54040493703064,37.2810841383389L157.45622942461833,-124.39624811701184L153.68952330052173,-121.30299646497843z" style="fill:rgb(217,127,217)"/><path d="M-14.948670977044362,119.90407643525795L116.23436130762336,135.22923605146258L113.92514360685064,129.19976654876777z" style="fill:rgb(49,63,205)"/><path d="M46.43141834085977,-47.031842773472235L6.650238335667699,-107.18072896408336L-85.01855123601881,-41.34827728461682z" style="fill:rgb(82,237,172)"/><path d="M113.92514360685064,129.19976654876777L113.88235920856916,129.08810070935348L-17.329158964139946,114.42594005313177z" style="fill:rgb(49,63,205)"/><path d="M151.80471160096843,-123.8097961190325L148.03188157115596,-120.72871239600985L153.68952330052173,-121.30299646497843zM151.80471160096843,-123.8097961190325L153.68952330052173,-121.30299646497843L157.45622942461833,-124.39624811701184z" style="fill:rgb(82,237,172)"/><path d="M149.08798497095032,-117.57062797650772L153.68952330052173,-121.30299646497843L148.03188157115596,-120.72871239600985z" style="fill:rgb(49,63,205)"/><path d="M199.29329901229488,45.19829142515041L145.61369585022166,-114.52865472189957L123.03795904943918,126.29010091594684z" style="fill:rgb(217,127,217)"/><path d="M46.43141834085977,-47.031842773472235L137.51285266288278,-120.56459591620182L6.650238335667699,-107.18072896408336z" style="fill:rgb(82,237,172)"/><path d="M190.7877711132349,47.88043514409406L113.88235920856916,129.08810070935348L116.23436130762336,135.22923605146258zM199.29329901229488,45.19829142515041L123.03795904943918,126.29010091594684L122.1353189173438,135.91860201905848z" style="fill:rgb(217,127,217)"/><path d="M-82.32440159650434,-35.1480962399752L46.480536249210516,-46.90346355571952L-83.69515978717988,-38.302609447224256zM46.480536249210516,-46.90346355571952L-85.01855123601881,-41.34827728461682L-83.69515978717988,-38.302609447224256zM114.10271251162699,129.1127229221502L113.88235920856916,129.08810070935348L116.23436130762336,135.22923605146258zM119.78637413192939,129.74784103168136L114.10271251162699,129.1127229221502L116.23436130762336,135.22923605146258zM119.78637413192939,129.74784103168136L116.23436130762336,135.22923605146258L122.1353189173438,135.91860201905848z" style="fill:rgb(49,63,205)"/><path d="M123.03795904943918,126.29010091594684L119.78637413192939,129.74784103168136L122.1353189173438,135.91860201905848z" style="fill:rgb(217,127,217)"/><path d="M145.61369585022166,-114.52865472189957L139.74667533551673,-113.96254123881666L49.137359677263014,-39.96626936912162zM46.43141834085977,-47.031842773472235L143.1868078498737,-121.14488514347505L137.51285266288278,-120.56459591620182z" style="fill:rgb(82,237,172)"/><path d="M145.41716163785605,-114.50969097919094L143.1868078498737,-121.14488514347505L54.901773490678266,-40.177540064727616zM123.03795904943918,126.29010091594684L145.61369585022166,-114.52865472189957L55.10166219159488,-40.18486576174803z" style="fill:rgb(217,127,217)"/><path d="M114.10271251162699,129.1127229221502L49.137359677263014,-39.96626936912162L113.88235920856916,129.08810070935348zM119.78637413192939,129.74784103168136L55.10166219159488,-40.18486576174803L114.10271251162699,129.1127229221502z" style="fill:rgb(49,63,205)"/><path d="M123.03795904943918,126.29010091594684L55.10166219159488,-40.18486576174803L119.78637413192939,129.74784103168136z" style="fill:rgb(217,127,217)"/><path d="M-82.32440159650434,-35.1480962399752L49.137359677263014,-39.96626936912162L46.480536249210516,-46.90346355571952zM46.480536249210516,-46.90346355571952L46.43141834085977,-47.031842773472235L-85.01855123601881,-41.34827728461682z" style="fill:rgb(49,63,205)"/><path d="M145.61369585022166,-114.52865472189957L49.137359677263014,-39.96626936912162L55.10166219159488,-40.18486576174803zM46.43141834085977,-47.031842773472235L52.197292098252134,-47.281144396792904L143.1868078498737,-121.14488514347505z" style="fill:rgb(82,237,172)"/><path d="M54.901773490678266,-40.177540064727616L143.1868078498737,-121.14488514347505L52.197292098252134,-47.281144396792904z" style="fill:rgb(217,127,217)"/><path d="M114.10271251162699,129.1127229221502L55.10166219159488,-40.18486576174803L49.137359677263014,-39.96626936912162zM49.137359677263014,-39.96626936912162L52.197292098252134,-47.281144396792904L46.480536249210516,-46.90346355571952zM49.137359677263014,-39.96626936912162L54.901773490678266,-40.177540064727616L52.197292098252134,-47.281144396792904zM46.480536249210516,-46.90346355571952L52.197292098252134,-47.281144396792904L46.43141834085977,-47.031842773472235z" style="fill:rgb(49,63,205)"/></svg>