<?xml version="1.0" encoding="UTF-8"?>
<!-- Generated by jsxcad -->
<!DOCTYPE svg PUBLIC "-//W3C//DTD SVG 1.1 Tiny//EN" "http://www.w3.org/Graphics/SVG/1.1/DTD/svg11-tiny.dtd">
<svg baseProfile="tiny" height="0.75 mm" width="41.125 mm" viewBox="0 0 41.125 0.75" version="1.1" stroke="black" stroke-width=".1" fill="none" xmlns="http://www.w3.org/2000/svg">
<path d="M40.5875 0.0098 L0 0.75 L40.5875 0.75 z"/>
<path d="M40.5875 0.0098 L40.5875 0 L0 0 z"/>
<path d="M40.5875 0.0098 L0 0 L0 0.75 z"/>
<path d="M40.5875 0.225 L40.5875 0.75 L41.125 0.75 z"/>
<path d="M40.5875 0.225 L41.125 0.75 L41.125 0.225 z"/>
<path d="M0 0.75 L0 0 L0 0.75 z"/>
<path d="M0 0.75 L0 0 L0 0 z"/>
<path d="M0 0 L40.5875 0.7402 L40.5875 0.75 z"/>
<path d="M0 0 L40.5875 0.75 L0 0.75 z"/>
<path d="M40.5875 0.7402 L0 0 L40.5875 0 z"/>
<path d="M40.5875 0.7402 L41.125 0.75 L40.5875 0.75 z"/>
<path d="M40.5875 0.225 L41.125 0.225 L41.125 0.75 z"/>
<path d="M40.5875 0.225 L41.125 0.75 L40.5875 0.7402 z"/>
<path d="M41.125 0.225 L41.125 0.225 L41.125 0.75 z"/>
<path d="M41.125 0.225 L41.125 0.75 L41.125 0.75 z"/>
<path d="M41.125 0.225 L41.125 0.225 L41.125 0.75 z"/>
<path d="M40.5875 0 L0 0 L0 0 z"/>
<path d="M40.5875 0 L0 0 L40.5875 0 z"/>
<path d="M40.5875 0 L0 0 L40.5875 0 z"/>
<path d="M40.5875 0.75 L0 0.75 L0 0.75 z"/>
<path d="M40.5875 0.75 L0 0.75 L40.5875 0.75 z"/>
<path d="M40.5875 0.75 L0 0.75 L40.5875 0.75 z"/>
<path d="M40.5875 0.75 L40.5875 0.75 L41.125 0.75 z"/>
<path d="M40.5875 0.75 L40.5875 0.75 L41.125 0.75 z"/>
<path d="M40.5875 0.75 L41.125 0.75 L41.125 0.75 z"/>
<path d="M40.5875 0.225 L40.5875 0.22406 L40.5875 0 z"/>
<path d="M40.5875 0.225 L40.5875 0 L40.5875 0 z"/>
<path d="M40.5875 0.225 L40.5875 0 L40.5875 0.225 z"/>
<path d="M40.5875 0 L40.5875 0.22406 L40.5875 0 z"/>
<path d="M41.125 0.225 L40.58986 0.225 L40.5875 0.225 z"/>
<path d="M41.125 0.225 L40.5875 0.225 L40.5875 0.225 z"/>
<path d="M41.125 0.225 L40.5875 0.225 L41.125 0.225 z"/>
<path d="M41.125 0.225 L41.125 0.225 L40.58986 0.225 z"/>
</svg>