<svg viewBox="-250 -250 500 500" width="500" height="500" xmlns="http://www.w3.org/2000/svg"><path d="M-37.82505667539596,30.778355992788466L-41.42882036084393,30.66782683759789L-39.42131146952881,35.34010502562088zM-36.786676646969816,33.20316273793898L-39.42131146952881,35.34010502562088L-35.81710439407483,35.467235948691986zM-37.82505667539596,30.778355992788466L-39.42131146952881,35.34010502562088L-36.786676646969816,33.20316273793898zM-33.944039573592576,30.897392967942192L-36.786676646969816,33.20316273793898L-35.81710439407483,35.467235948691986zM-37.82505667539596,30.778355992788466L-36.786676646969816,33.20316273793898L-33.944039573592576,30.897392967942192zM-92.05423441429855,-95.85266890597933L-41.42882036084393,30.66782683759789L-37.82505667539596,30.778355992788466z" style="fill:rgb(49,63,205)"/><path d="M-43.78129792126124,35.64099551656965L-122.18803313041964,106.48779828416396L-41.75106950545057,40.34661167370069z" style="fill:rgb(217,127,217)"/><path d="M-92.05423441429855,-95.85266890597933L-95.63384452641044,-95.4912175518419L-41.42882036084393,30.66782683759789zM-33.944039573592576,30.897392967942192L-35.81710439407483,35.467235948691986L68.23752715249412,39.13755088947004z" style="fill:rgb(49,63,205)"/><path d="M-88.22380402948681,-98.40222748000456L-91.80575731930703,-98.03241134170375L-95.63384452641044,-95.4912175518419z" style="fill:rgb(82,237,172)"/><path d="M-43.78129792126124,35.64099551656965L-98.62589181124368,-91.47850885169368L-121.28687697312466,98.91648152962236z" style="fill:rgb(217,127,217)"/><path d="M-88.22380402948681,-98.40222748000456L-95.63384452641044,-95.4912175518419L-92.05423441429855,-95.85266890597933z" style="fill:rgb(82,237,172)"/><path d="M-43.78129792126124,35.64099551656965L-121.28687697312466,98.91648152962236L-122.18803313041964,106.48779828416396z" style="fill:rgb(217,127,217)"/><path d="M11.871018278893601,-106.34652777287933L-37.82505667539596,30.778355992788466L-33.944039573592576,30.897392967942192zM-33.944039573592576,30.897392967942192L68.23752715249412,39.13755088947004L66.23536953646725,33.969996710404224zM11.871018278893601,-106.34652777287933L-92.05423441429855,-95.85266890597933L-37.82505667539596,30.778355992788466zM-128.07188666007383,101.17297587104088L-128.20929442724852,101.15775341695367L-125.86801631904585,106.06144992941532zM-124.53133897158459,101.56520944383409L-128.07188666007383,101.17297587104088L-125.86801631904585,106.06144992941532zM-124.53133897158459,101.56520944383409L-125.86801631904585,106.06144992941532L-122.18803313041964,106.48779828416396z" style="fill:rgb(49,63,205)"/><path d="M-121.28687697312466,98.91648152962236L-124.53133897158459,101.56520944383409L-122.18803313041964,106.48779828416396z" style="fill:rgb(217,127,217)"/><path d="M41.37533062334625,-30.194865671313735L-33.944039573592576,30.897392967942192L66.23536953646725,33.969996710404224z" style="fill:rgb(49,63,205)"/><path d="M-98.62589181124368,-91.47850885169368L-102.32406999278449,-91.1196408786457L-191.69019010762958,-31.801190351358123zM-100.87515975424967,-96.69181363512232L-104.44899616285572,-96.32437166180807L-194.18359191160945,-37.279436353907286zM11.871018278893601,-106.34652777287933L-88.22380402948681,-98.40222748000456L-92.05423441429855,-95.85266890597933z" style="fill:rgb(82,237,172)"/><path d="M-121.28687697312466,98.91648152962236L-98.62589181124368,-91.47850885169368L-188.08137733838882,-31.936265352729677z" style="fill:rgb(217,127,217)"/><path d="M-128.07188666007383,101.17297587104088L-191.69019010762958,-31.801190351358123L-128.20929442724852,101.15775341695367z" style="fill:rgb(49,63,205)"/><path d="M-43.78129792126124,35.64099551656965L-124.53133897158459,101.56520944383409L-20.96063010971578,113.03909059182006z" style="fill:rgb(82,237,172)"/><path d="M-124.53133897158459,101.56520944383409L-188.08137733838882,-31.936265352729677L-128.07188666007383,101.17297587104088z" style="fill:rgb(49,63,205)"/><path d="M-121.28687697312466,98.91648152962236L-188.08137733838882,-31.936265352729677L-124.53133897158459,101.56520944383409z" style="fill:rgb(217,127,217)"/><path d="M11.871018278893601,-106.34652777287933L-33.944039573592576,30.897392967942192L41.37533062334625,-30.194865671313735zM66.23536953646725,33.969996710404224L68.23752715249412,39.13755088947004L72.81276761132818,39.298933156068884zM66.23536953646725,33.969996710404224L72.81276761132818,39.298933156068884L70.81179793851528,34.11036040533832z" style="fill:rgb(49,63,205)"/><path d="M-43.78129792126124,35.64099551656965L-20.96063010971578,113.03909059182006L60.292060427721175,39.35940735587598zM-98.62589181124368,-91.47850885169368L-191.69019010762958,-31.801190351358123L-188.08137733838882,-31.936265352729677z" style="fill:rgb(82,237,172)"/><path d="M57.47007823319229,41.91839523542299L62.31859728749245,44.54726339537205L60.292060427721175,39.35940735587598z" style="fill:rgb(217,127,217)"/><path d="M-100.87515975424967,-96.69181363512232L-194.18359191160945,-37.279436353907286L-190.6979325333016,-37.43282700757139z" style="fill:rgb(82,237,172)"/><path d="M41.37533062334625,-30.194865671313735L66.23536953646725,33.969996710404224L70.81179793851528,34.11036040533832zM-128.07188666007383,101.17297587104088L-188.08137733838882,-31.936265352729677L-191.69019010762958,-31.801190351358123zM-122.23044855327198,106.3987731322954L-122.18803313041964,106.48779828416396L-18.584908222130213,118.49088343596846zM-20.96063010971578,113.03909059182006L-124.53133897158459,101.56520944383409L-122.23044855327198,106.3987731322954z" style="fill:rgb(49,63,205)"/><path d="M11.871018278893601,-106.34652777287933L15.72968883622827,-109.13482944583076L-88.22380402948681,-98.40222748000456z" style="fill:rgb(82,237,172)"/><path d="M41.37533062334625,-30.194865671313735L70.81179793851528,34.11036040533832L44.907863998022464,-33.06019638114215zM-188.12874326208328,-32.03574609456938L-191.57037938229317,-31.80567507326477L-188.08137733838882,-31.936265352729677zM-190.6979325333016,-37.43282700757139L-194.18359191160945,-37.279436353907286L-191.57037938229317,-31.80567507326477zM-190.6979325333016,-37.43282700757139L-191.57037938229317,-31.80567507326477L-188.12874326208328,-32.03574609456938z" style="fill:rgb(49,63,205)"/><path d="M57.47007823319229,41.91839523542299L-18.584908222130213,118.49088343596846L62.31859728749245,44.54726339537205zM64.87178665552449,39.52303528617821L-13.989706318371066,119.02326655864093L66.89722712864626,44.73207436210763z" style="fill:rgb(217,127,217)"/><path d="M11.871018278893601,-106.34652777287933L41.37533062334625,-30.194865671313735L44.907863998022464,-33.06019638114215zM70.81179793851528,34.11036040533832L72.81276761132818,39.298933156068884L202.00934486477001,43.856078353344486zM11.871018278893601,-106.34652777287933L44.907863998022464,-33.06019638114215L16.46649264710392,-106.81055608358089z" style="fill:rgb(49,63,205)"/><path d="M-100.87515975424967,-96.69181363512232L-190.6979325333016,-37.43282700757139L-88.49301753469383,-41.93047230136531z" style="fill:rgb(82,237,172)"/><path d="M-122.23044855327198,106.3987731322954L-18.584908222130213,118.49088343596846L-19.74913016018015,115.8191561397461zM-20.96063010971578,113.03909059182006L-122.23044855327198,106.3987731322954L-19.74913016018015,115.8191561397461zM44.907863998022464,-33.06019638114215L70.81179793851528,34.11036040533832L200.07371935857705,38.074951958856296z" style="fill:rgb(49,63,205)"/><path d="M11.871018278893601,-106.34652777287933L20.324637675600165,-109.60923156566497L15.72968883622827,-109.13482944583076z" style="fill:rgb(82,237,172)"/><path d="M64.87178665552449,39.52303528617821L9.840348993399983,-102.00394846265061L-13.076214342425793,110.55059422048335z" style="fill:rgb(217,127,217)"/><path d="M11.871018278893601,-106.34652777287933L16.46649264710392,-106.81055608358089L20.324637675600165,-109.60923156566497zM-100.87515975424967,-96.69181363512232L-88.49301753469383,-41.93047230136531L2.974194042140293,-107.36902646600875z" style="fill:rgb(82,237,172)"/><path d="M57.47007823319229,41.91839523542299L-20.96063010971578,113.03909059182006L-18.584908222130213,118.49088343596846zM64.87178665552449,39.52303528617821L-13.076214342425793,110.55059422048335L-13.989706318371066,119.02326655864093z" style="fill:rgb(217,127,217)"/><path d="M-188.12874326208328,-32.03574609456938L-188.08137733838882,-31.936265352729677L-85.80592165880626,-35.76435912266026zM-88.49301753469383,-41.93047230136531L-190.6979325333016,-37.43282700757139L-188.12874326208328,-32.03574609456938zM70.81179793851528,34.11036040533832L202.00934486477001,43.856078353344486L200.07371935857705,38.074951958856296zM-20.789043587101396,113.05809935722098L-20.96063010971578,113.03909059182006L-18.584908222130213,118.49088343596846zM-16.3657801890036,113.54812217017364L-20.789043587101396,113.05809935722098L-18.584908222130213,118.49088343596846zM-16.3657801890036,113.54812217017364L-18.584908222130213,118.49088343596846L-13.989706318371066,119.02326655864093z" style="fill:rgb(49,63,205)"/><path d="M-13.076214342425793,110.55059422048335L-16.3657801890036,113.54812217017364L-13.989706318371066,119.02326655864093z" style="fill:rgb(217,127,217)"/><path d="M16.46649264710392,-106.81055608358089L44.907863998022464,-33.06019638114215L148.20508680415722,-116.84567180348003z" style="fill:rgb(49,63,205)"/><path d="M9.840348993399983,-102.00394846265061L5.244264287799852,-101.55794934983373L-85.80592165880626,-35.76435912266026zM-88.49301753469383,-41.93047230136531L7.570401792300736,-107.84158297236918L2.974194042140293,-107.36902646600875zM16.46649264710392,-106.81055608358089L150.9272902559532,-123.09320667574268L20.324637675600165,-109.60923156566497z" style="fill:rgb(82,237,172)"/><path d="M-13.076214342425793,110.55059422048335L9.840348993399983,-102.00394846265061L-81.23915993609738,-35.93528958318728z" style="fill:rgb(217,127,217)"/><path d="M-20.789043587101396,113.05809935722098L-85.80592165880626,-35.76435912266026L-20.96063010971578,113.03909059182006z" style="fill:rgb(49,63,205)"/><path d="M114.83437988627983,128.08287849748817L64.87178665552449,39.52303528617821L-16.3657801890036,113.54812217017364z" style="fill:rgb(82,237,172)"/><path d="M44.907863998022464,-33.06019638114215L200.07371935857705,38.074951958856296L148.20508680415722,-116.84567180348003zM-16.3657801890036,113.54812217017364L-81.23915993609738,-35.93528958318728L-20.789043587101396,113.05809935722098zM-188.12874326208328,-32.03574609456938L-85.80592165880626,-35.76435912266026L-87.12268637956905,-38.78593428723878z" style="fill:rgb(49,63,205)"/><path d="M-13.076214342425793,110.55059422048335L-81.23915993609738,-35.93528958318728L-16.3657801890036,113.54812217017364z" style="fill:rgb(217,127,217)"/><path d="M-88.49301753469383,-41.93047230136531L-188.12874326208328,-32.03574609456938L-87.12268637956905,-38.78593428723878zM200.07371935857705,38.074951958856296L202.00934486477001,43.856078353344486L207.56467582269332,44.05203146268695z" style="fill:rgb(49,63,205)"/><path d="M208.9728580424139,34.694940018701224L207.56467582269332,44.05203146268695L210.8888605531739,40.48651988227049z" style="fill:rgb(217,127,217)"/><path d="M200.07371935857705,38.074951958856296L207.56467582269332,44.05203146268695L205.63328545712474,38.24547186634017z" style="fill:rgb(49,63,205)"/><path d="M208.9728580424139,34.694940018701224L205.75904563637266,38.11183295659995L207.56467582269332,44.05203146268695z" style="fill:rgb(217,127,217)"/><path d="M114.83437988627983,128.08287849748817L194.32234325395964,44.14814290158094L64.87178665552449,39.52303528617821z" style="fill:rgb(82,237,172)"/><path d="M205.75904563637266,38.11183295659995L205.63328545712474,38.24547186634017L207.56467582269332,44.05203146268695z" style="fill:rgb(217,127,217)"/><path d="M9.840348993399983,-102.00394846265061L-85.80592165880626,-35.76435912266026L-81.23915993609738,-35.93528958318728z" style="fill:rgb(82,237,172)"/><path d="M191.58842317232936,47.03493610523521L196.28437318144353,49.954629480005174L194.32234325395964,44.14814290158094z" style="fill:rgb(217,127,217)"/><path d="M-88.49301753469383,-41.93047230136531L-83.92819798151126,-42.1313524721655L7.570401792300736,-107.84158297236918z" style="fill:rgb(82,237,172)"/><path d="M-20.789043587101396,113.05809935722098L-81.23915993609738,-35.93528958318728L-85.80592165880626,-35.76435912266026zM-13.989706318371066,119.02326655864093L114.87697099949523,128.194473742215L-15.198631055456481,116.23743263471431zM114.87697099949523,128.194473742215L-16.3657801890036,113.54812217017364L-15.198631055456481,116.23743263471431z" style="fill:rgb(49,63,205)"/><path d="M16.46649264710392,-106.81055608358089L147.14699732264734,-120.00602818667882L150.9272902559532,-123.09320667574268z" style="fill:rgb(82,237,172)"/><path d="M208.9728580424139,34.694940018701224L156.58014386920635,-123.67683139792268L205.75904563637266,38.11183295659995z" style="fill:rgb(217,127,217)"/><path d="M16.46649264710392,-106.81055608358089L148.20508680415722,-116.84567180348003L147.14699732264734,-120.00602818667882zM152.80596504786766,-120.5774428053771L200.07371935857705,38.074951958856296L205.63328545712474,38.24547186634017z" style="fill:rgb(49,63,205)"/><path d="M205.75904563637266,38.11183295659995L152.80596504786766,-120.5774428053771L205.63328545712474,38.24547186634017z" style="fill:rgb(217,127,217)"/><path d="M-82.60726927685192,-39.08771146563706L-87.12268637956905,-38.78593428723878L-85.80592165880626,-35.76435912266026zM-82.60726927685192,-39.08771146563706L-88.49301753469383,-41.93047230136531L-87.12268637956905,-38.78593428723878zM-82.60726927685192,-39.08771146563706L-85.80592165880626,-35.76435912266026L-81.23915993609738,-35.93528958318728zM-82.60726927685192,-39.08771146563706L-83.92819798151126,-42.1313524721655L-88.49301753469383,-41.93047230136531z" style="fill:rgb(49,63,205)"/><path d="M191.58842317232936,47.03493610523521L117.18145669190491,134.22026086630433L196.28437318144353,49.954629480005174zM200.08718443574864,44.354113361258406L123.08115516493672,134.90377918658317L202.04493007721112,50.18714733840453z" style="fill:rgb(217,127,217)"/><path d="M152.80596504786766,-120.5774428053771L148.20508680415722,-116.84567180348003L200.07371935857705,38.074951958856296z" style="fill:rgb(49,63,205)"/><path d="M205.75904563637266,38.11183295659995L156.58014386920635,-123.67683139792268L152.80596504786766,-120.5774428053771z" style="fill:rgb(217,127,217)"/><path d="M-13.989706318371066,119.02326655864093L117.18145669190491,134.22026086630433L114.87697099949523,128.194473742215z" style="fill:rgb(49,63,205)"/><path d="M47.52675529781637,-47.91618037372782L7.570401792300736,-107.84158297236918L-83.92819798151126,-42.1313524721655z" style="fill:rgb(82,237,172)"/><path d="M114.87697099949523,128.194473742215L114.83437988627983,128.08287849748817L-16.3657801890036,113.54812217017364z" style="fill:rgb(49,63,205)"/><path d="M150.9272902559532,-123.09320667574268L147.14699732264734,-120.00602818667882L152.80596504786766,-120.5774428053771zM150.9272902559532,-123.09320667574268L152.80596504786766,-120.5774428053771L156.58014386920635,-123.67683139792268z" style="fill:rgb(82,237,172)"/><path d="M200.08718443574864,44.354113361258406L146.51186146448973,-115.2664136617243L123.98195191338593,125.2861947585537z" style="fill:rgb(217,127,217)"/><path d="M148.20508680415722,-116.84567180348003L152.80596504786766,-120.5774428053771L147.14699732264734,-120.00602818667882z" style="fill:rgb(49,63,205)"/><path d="M47.52675529781637,-47.91618037372782L138.41700517444716,-121.2945025182241L7.570401792300736,-107.84158297236918z" style="fill:rgb(82,237,172)"/><path d="M191.58842317232936,47.03493610523521L114.83437988627983,128.08287849748817L117.18145669190491,134.22026086630433zM200.08718443574864,44.354113361258406L123.98195191338593,125.2861947585537L123.08115516493672,134.90377918658317z" style="fill:rgb(217,127,217)"/><path d="M-81.23915993609738,-35.93528958318728L47.57586247180831,-47.787899292857645L-82.60726927685192,-39.08771146563706zM47.57586247180831,-47.787899292857645L-83.92819798151126,-42.1313524721655L-82.60726927685192,-39.08771146563706zM115.05468942875564,128.10728506483045L114.83437988627983,128.08287849748817L117.18145669190491,134.22026086630433zM120.73716454423318,128.73680604099883L115.05468942875564,128.10728506483045L117.18145669190491,134.22026086630433zM120.73716454423318,128.73680604099883L117.18145669190491,134.22026086630433L123.08115516493672,134.90377918658317z" style="fill:rgb(49,63,205)"/><path d="M123.98195191338593,125.2861947585537L120.73716454423318,128.73680604099883L123.08115516493672,134.90377918658317z" style="fill:rgb(217,127,217)"/><path d="M146.51186146448973,-115.2664136617243L140.64625116507818,-114.6972220059143L50.226851639390006,-40.85596325250846zM47.52675529781637,-47.91618037372782L144.08950127432107,-121.87771700323404L138.41700517444716,-121.2945025182241z" style="fill:rgb(82,237,172)"/><path d="M146.3154699608307,-115.24734792563417L144.08950127432107,-121.87771700323404L55.990655238543134,-41.071698663480475zM123.98195191338593,125.2861947585537L146.51186146448973,-115.2664136617243L56.190521568400754,-41.079179127162604z" style="fill:rgb(217,127,217)"/><path d="M115.05468942875564,128.10728506483045L50.226851639390006,-40.85596325250846L114.83437988627983,128.08287849748817zM120.73716454423318,128.73680604099883L56.190521568400754,-41.079179127162604L115.05468942875564,128.10728506483045z" style="fill:rgb(49,63,205)"/><path d="M123.98195191338593,125.2861947585537L56.190521568400754,-41.079179127162604L120.73716454423318,128.73680604099883z" style="fill:rgb(217,127,217)"/><path d="M-81.23915993609738,-35.93528958318728L50.226851639390006,-40.85596325250846L47.57586247180831,-47.787899292857645zM47.57586247180831,-47.787899292857645L47.52675529781637,-47.91618037372782L-83.92819798151126,-42.1313524721655z" style="fill:rgb(49,63,205)"/><path d="M146.51186146448973,-115.2664136617243L50.226851639390006,-40.85596325250846L56.190521568400754,-41.079179127162604zM47.52675529781637,-47.91618037372782L53.292047048448005,-48.16988849049582L144.08950127432107,-121.87771700323404z" style="fill:rgb(82,237,172)"/><path d="M55.990655238543134,-41.071698663480475L144.08950127432107,-121.87771700323404L53.292047048448005,-48.16988849049582z" style="fill:rgb(217,127,217)"/><path d="M115.05468942875564,128.10728506483045L56.190521568400754,-41.079179127162604L50.226851639390006,-40.85596325250846zM50.226851639390006,-40.85596325250846L53.292047048448005,-48.16988849049582L47.57586247180831,-47.787899292857645zM50.226851639390006,-40.85596325250846L55.990655238543134,-41.071698663480475L53.292047048448005,-48.16988849049582zM47.57586247180831,-47.787899292857645L53.292047048448005,-48.16988849049582L47.52675529781637,-47.91618037372782z" style="fill:rgb(49,63,205)"/></svg>