<?xml version="1.0" encoding="UTF-8"?>
<!-- Generated by jsxcad -->
<!DOCTYPE svg PUBLIC "-//W3C//DTD SVG 1.1 Tiny//EN" "http://www.w3.org/Graphics/SVG/1.1/DTD/svg11-tiny.dtd">
<svg baseProfile="tiny" height="20.525 mm" width="40 mm" viewBox="0 0 40 20.525" version="1.1" stroke="black" stroke-width=".1" fill="none" xmlns="http://www.w3.org/2000/svg">
<path d="M19.625 19.775 L19.625 10 L19.625 0 L20 0 L20.375 0 L20.375 10 L20.375 19.775 L29.8 19.775 L39.225 19.775 L39.225 10 L39.225 0 L39.6 0 L39.975 0 L39.975 10 L39.975 19.775 L39.975 19.8875 L39.975 20 L39.9875 20 L40 20 L40 20.15 L40 20.2625 L40 20.525 L39.9875 20.525 L39.975 20.525 L39.6 20.525 L39.225 20.525 L29.8 20.525 L20.375 20.525 L20 20.525 L19.625 20.525 L9.8125 20.525 L0 20.525 L0 20.2625 L0 20.15 L0 20 L0 19.93571 L0 19.775 L0.0125 19.775 L0.025 19.775 L0.025 19.85 L0.025 20 L0.4 20 L0.775 20 L0.775 19.85 L0.775 19.775 L10.2 19.775 z"/>
</svg>