solid JSxCAD
facet normal 0 -1 0
outer loop
vertex -12.575 -7.9 -0.22933
vertex -20.5625 -7.9 -0.375
vertex -12.575 -7.9 -0.375
endloop
endfacet
facet normal 0 -1 0
outer loop
vertex -12.575 -7.9 -0.22933
vertex -12.575 -7.9 0.375
vertex -20.5625 -7.9 0.375
endloop
endfacet
facet normal 0 -1 0
outer loop
vertex -12.575 -7.9 -0.22933
vertex -20.5625 -7.9 0.375
vertex -20.5625 -7.9 -0.375
endloop
endfacet
facet normal 0 -1 0
outer loop
vertex -11.825 -7.9 -0.21565
vertex -11.825 -7.9 -0.375
vertex 20.5625 -7.9 -0.375
endloop
endfacet
facet normal 0 -1 0
outer loop
vertex -11.825 -7.9 -0.21565
vertex 20.5625 -7.9 -0.375
vertex 20.5625 -7.9 0.375
endloop
endfacet
facet normal 0 -1 0
outer loop
vertex -11.825 -7.9 -0.21565
vertex 20.5625 -7.9 0.375
vertex -11.825 -7.9 0.375
endloop
endfacet
facet normal 0 -1 0
outer loop
vertex -11.825 -7.9 -0.21565
vertex -12.575 -7.9 -0.22933
vertex -12.575 -7.9 -0.375
endloop
endfacet
facet normal 0 -1 0
outer loop
vertex -11.825 -7.9 -0.21565
vertex -12.575 -7.9 -0.375
vertex -11.825 -7.9 -0.375
endloop
endfacet
facet normal 0 -1 0
outer loop
vertex -11.825 -7.9 0.15
vertex -12.575 -7.9 0.15
vertex -12.575 -7.9 -0.22933
endloop
endfacet
facet normal 0 -1 0
outer loop
vertex -11.825 -7.9 0.15
vertex -12.575 -7.9 -0.22933
vertex -11.825 -7.9 -0.21565
endloop
endfacet
facet normal -1 0 0
outer loop
vertex -20.5625 -7.9 -0.375
vertex -20.5625 -7.9 0.375
vertex -20.5625 7.9 -0.375
endloop
endfacet
facet normal -1 0 0
outer loop
vertex -20.5625 7.9 -0.375
vertex -20.5625 -7.9 0.375
vertex -20.5625 7.9 0.375
endloop
endfacet
facet normal 0 1 0
outer loop
vertex -20.5625 7.9 0.375
vertex -12.575 7.9 0.22933
vertex -12.575 7.9 -0.375
endloop
endfacet
facet normal 0 1 0
outer loop
vertex -20.5625 7.9 0.375
vertex -12.575 7.9 -0.375
vertex -20.5625 7.9 -0.375
endloop
endfacet
facet normal 0 1 0
outer loop
vertex -12.575 7.9 0.22933
vertex -20.5625 7.9 0.375
vertex -12.575 7.9 0.375
endloop
endfacet
facet normal 0 1 0
outer loop
vertex -11.825 7.9 0.21565
vertex 20.5625 7.9 -0.375
vertex -11.825 7.9 -0.375
endloop
endfacet
facet normal 0 1 0
outer loop
vertex -11.825 7.9 0.375
vertex 20.5625 7.9 0.375
vertex 20.5625 7.9 -0.375
endloop
endfacet
facet normal 0 1 0
outer loop
vertex -11.825 7.9 0.375
vertex 20.5625 7.9 -0.375
vertex -11.825 7.9 0.21565
endloop
endfacet
facet normal 0 1 0
outer loop
vertex -11.825 7.9 0.15
vertex -11.825 7.9 -0.375
vertex -12.575 7.9 -0.375
endloop
endfacet
facet normal 0 1 0
outer loop
vertex -11.825 7.9 0.15
vertex -12.575 7.9 -0.375
vertex -12.575 7.9 0.15
endloop
endfacet
facet normal 1 0 0
outer loop
vertex 20.5625 7.9 -0.375
vertex 20.5625 7.9 0.375
vertex 20.5625 -7.9 -0.375
endloop
endfacet
facet normal 1 0 0
outer loop
vertex 20.5625 -7.9 -0.375
vertex 20.5625 7.9 0.375
vertex 20.5625 -7.9 0.375
endloop
endfacet
facet normal 0 0 1
outer loop
vertex -12.575 7.9 0.375
vertex -20.5625 7.9 0.375
vertex -20.5625 -7.9 0.375
endloop
endfacet
facet normal 0 0 1
outer loop
vertex -12.575 7.9 0.375
vertex -20.5625 -7.9 0.375
vertex -12.575 -4.83125 0.375
endloop
endfacet
facet normal 0 0 1
outer loop
vertex -12.575 -4.83125 0.375
vertex -20.5625 -7.9 0.375
vertex -12.575 -7.9 0.375
endloop
endfacet
facet normal 0 0 1
outer loop
vertex -11.825 -4.5431 0.375
vertex 20.5625 7.9 0.375
vertex -11.825 7.9 0.375
endloop
endfacet
facet normal 0 0 1
outer loop
vertex -11.825 -7.9 0.375
vertex 20.5625 -7.9 0.375
vertex 20.5625 7.9 0.375
endloop
endfacet
facet normal 0 0 1
outer loop
vertex -11.825 -7.9 0.375
vertex 20.5625 7.9 0.375
vertex -11.825 -4.5431 0.375
endloop
endfacet
facet normal 0 0 -1
outer loop
vertex -12.575 -7.9 -0.375
vertex -20.5625 -7.9 -0.375
vertex -20.5625 7.9 -0.375
endloop
endfacet
facet normal 0 0 -1
outer loop
vertex -12.575 -7.9 -0.375
vertex -20.5625 7.9 -0.375
vertex -12.575 4.83125 -0.375
endloop
endfacet
facet normal 0 0 -1
outer loop
vertex -12.575 4.83125 -0.375
vertex -20.5625 7.9 -0.375
vertex -12.575 7.9 -0.375
endloop
endfacet
facet normal 0 0 -1
outer loop
vertex -11.825 4.5431 -0.375
vertex 20.5625 -7.9 -0.375
vertex -11.825 -7.9 -0.375
endloop
endfacet
facet normal 0 0 -1
outer loop
vertex -11.825 7.9 -0.375
vertex 20.5625 7.9 -0.375
vertex 20.5625 -7.9 -0.375
endloop
endfacet
facet normal 0 0 -1
outer loop
vertex -11.825 7.9 -0.375
vertex 20.5625 -7.9 -0.375
vertex -11.825 4.5431 -0.375
endloop
endfacet
facet normal 0 0 -1
outer loop
vertex -12.575 4.83125 -0.375
vertex -11.825 4.5431 -0.375
vertex -11.825 -7.9 -0.375
endloop
endfacet
facet normal 0 0 -1
outer loop
vertex -12.575 4.83125 -0.375
vertex -11.825 -7.9 -0.375
vertex -12.575 -7.9 -0.375
endloop
endfacet
facet normal 0 0 -1
outer loop
vertex -12.575 7.9 -0.375
vertex -11.825 7.9 -0.375
vertex -11.825 4.5431 -0.375
endloop
endfacet
facet normal 0 0 -1
outer loop
vertex -12.575 7.9 -0.375
vertex -11.825 4.5431 -0.375
vertex -12.575 4.83125 -0.375
endloop
endfacet
facet normal 1 0 0
outer loop
vertex -12.575 7.9 0.15
vertex -12.575 7.9 0.15094
vertex -12.575 -3.975 0.375
endloop
endfacet
facet normal 1 0 0
outer loop
vertex -12.575 7.9 0.15
vertex -12.575 -3.975 0.375
vertex -12.575 -7.9 0.375
endloop
endfacet
facet normal 1 0 0
outer loop
vertex -12.575 7.9 0.15
vertex -12.575 -7.9 0.375
vertex -12.575 -7.9 0.15
endloop
endfacet
facet normal 1 0 0
outer loop
vertex -12.575 -3.975 0.375
vertex -12.575 7.9 0.15094
vertex -12.575 7.9 0.375
endloop
endfacet
facet normal -1 0 0
outer loop
vertex -11.825 7.9 0.375
vertex -11.825 7.9 0.15
vertex -11.825 -7.9 0.15
endloop
endfacet
facet normal -1 0 0
outer loop
vertex -11.825 7.9 0.375
vertex -11.825 -7.9 0.15
vertex -11.825 -7.9 0.15094
endloop
endfacet
facet normal -1 0 0
outer loop
vertex -11.825 7.9 0.375
vertex -11.825 -7.9 0.15094
vertex -11.825 3.975 0.375
endloop
endfacet
facet normal -1 0 0
outer loop
vertex -11.825 3.975 0.375
vertex -11.825 -7.9 0.15094
vertex -11.825 -7.9 0.375
endloop
endfacet
facet normal 0 0 1
outer loop
vertex -11.82736 -7.9 0.15
vertex -12.57264 7.9 0.15
vertex -12.575 7.9 0.15
endloop
endfacet
facet normal 0 0 1
outer loop
vertex -11.82736 -7.9 0.15
vertex -12.575 7.9 0.15
vertex -12.575 -7.9 0.15
endloop
endfacet
facet normal 0 0 1
outer loop
vertex -12.57264 7.9 0.15
vertex -11.82736 -7.9 0.15
vertex -11.825 -7.9 0.15
endloop
endfacet
facet normal 0 0 1
outer loop
vertex -12.57264 7.9 0.15
vertex -11.825 -7.9 0.15
vertex -11.825 7.9 0.15
endloop
endfacet
endsolid JSxCAD
