<?xml version="1.0" encoding="UTF-8"?>
<!-- Generated by jsxcad -->
<!DOCTYPE svg PUBLIC "-//W3C//DTD SVG 1.1 Tiny//EN" "http://www.w3.org/Graphics/SVG/1.1/DTD/svg11-tiny.dtd">
<svg baseProfile="tiny" height="0.75 mm" width="41.125 mm" viewBox="0 0 41.125 0.75" version="1.1" stroke="black" stroke-width=".1" fill="none" xmlns="http://www.w3.org/2000/svg">
<path d="M0.375 0.74316 L0.375 0.75 L20.1875 0.75 z"/>
<path d="M0.375 0.74316 L20.1875 0.75 L20.1875 0.38184 z"/>
<path d="M20.1875 0 L0.375 0 L0.375 0.00709 z"/>
<path d="M20.1875 0 L0.375 0.00709 L20.1875 0.38184 z"/>
<path d="M0.375 0.00709 L0.375 0.74316 L20.1875 0.38184 z"/>
<path d="M20.9375 0.75 L40.75 0.75 L40.75 0.74291 z"/>
<path d="M20.9375 0.75 L40.75 0.74291 L20.9375 0.36816 z"/>
<path d="M40.75 0.74291 L40.75 0.00684 L20.9375 0.36816 z"/>
<path d="M40.75 0.00684 L40.75 0 L20.9375 0 z"/>
<path d="M40.75 0.00684 L20.9375 0 L20.9375 0.36816 z"/>
<path d="M20.9375 0.36816 L20.1875 0.38184 L20.1875 0.75 z"/>
<path d="M20.9375 0.36816 L20.1875 0.75 L20.9375 0.75 z"/>
<path d="M20.9375 0.225 L20.1875 0.225 L20.1875 0.38184 z"/>
<path d="M20.9375 0.225 L20.1875 0.38184 L20.9375 0.36816 z"/>
<path d="M40.75 0.75 L41.125 0.75 L40.75 0.74291 z"/>
<path d="M41.125 0.75 L41.125 0.225 L40.75 0.225 z"/>
<path d="M41.125 0.75 L40.75 0.225 L40.75 0.74291 z"/>
<path d="M0.375 0.74316 L0 0.75 L0.375 0.75 z"/>
<path d="M0 0.225 L0 0.75 L0.375 0.74316 z"/>
<path d="M0 0.225 L0.375 0.74316 L0.375 0.225 z"/>
<path d="M0 0.225 L0 0.225 L0 0.75 z"/>
<path d="M0 0.225 L0 0.75 L0 0.75 z"/>
<path d="M0 0.225 L0 0.225 L0 0.75 z"/>
<path d="M0.375 0.00684 L20.1875 0.36816 L20.1875 0.75 z"/>
<path d="M0.375 0.00684 L20.1875 0.75 L0.375 0.01393 z"/>
<path d="M0.375 0.01393 L20.1875 0.75 L0.375 0.75 z"/>
<path d="M0.375 0.00684 L0.375 0 L20.1875 0 z"/>
<path d="M0.375 0.00684 L20.1875 0 L20.1875 0.36816 z"/>
<path d="M40.75 0.74316 L40.75 0.75 L20.9375 0.75 z"/>
<path d="M40.75 0.74316 L20.9375 0.75 L20.9375 0.38184 z"/>
<path d="M40.75 0 L40.75 0.73607 L20.9375 0 z"/>
<path d="M40.75 0.73607 L40.75 0.74316 L20.9375 0.38184 z"/>
<path d="M40.75 0.73607 L20.9375 0.38184 L20.9375 0 z"/>
<path d="M20.9375 0.38184 L20.9375 0.75 L20.1875 0.75 z"/>
<path d="M20.9375 0.38184 L20.1875 0.75 L20.1875 0.36816 z"/>
<path d="M20.9375 0.225 L20.9375 0.38184 L20.1875 0.36816 z"/>
<path d="M20.9375 0.225 L20.1875 0.36816 L20.1875 0.225 z"/>
<path d="M40.75 0.74316 L41.125 0.75 L40.75 0.75 z"/>
<path d="M41.125 0.225 L41.125 0.75 L40.75 0.73607 z"/>
<path d="M41.125 0.225 L40.75 0.73607 L40.75 0.225 z"/>
<path d="M40.75 0.73607 L41.125 0.75 L40.75 0.74316 z"/>
<path d="M0.375 0.225 L0.375 0.75 L0 0.75 z"/>
<path d="M0.375 0.225 L0 0.75 L0 0.225 z"/>
<path d="M41.125 0.225 L41.125 0.225 L41.125 0.75 z"/>
<path d="M41.125 0.225 L41.125 0.75 L41.125 0.75 z"/>
<path d="M41.125 0.225 L41.125 0.225 L41.125 0.75 z"/>
<path d="M0.375 0 L0.375 0 L20.1875 0 z"/>
<path d="M0.375 0 L0.375 0 L20.1875 0 z"/>
<path d="M0.375 0 L20.1875 0 L20.1875 0 z"/>
<path d="M0.375 0 L0.375 0 L20.1875 0 z"/>
<path d="M0.375 0 L20.1875 0 L20.1875 0 z"/>
<path d="M40.75 0 L40.75 0 L20.9375 0 z"/>
<path d="M40.75 0 L20.9375 0 L20.9375 0 z"/>
<path d="M40.75 0 L40.75 0 L20.9375 0 z"/>
<path d="M40.75 0 L40.75 0 L20.9375 0 z"/>
<path d="M40.75 0 L20.9375 0 L20.9375 0 z"/>
<path d="M0.375 0.75 L0.375 0.75 L20.1875 0.75 z"/>
<path d="M0.375 0.75 L0.375 0.75 L20.1875 0.75 z"/>
<path d="M0.375 0.75 L20.1875 0.75 L20.1875 0.75 z"/>
<path d="M0.375 0.75 L0.375 0.75 L20.1875 0.75 z"/>
<path d="M0.375 0.75 L20.1875 0.75 L20.1875 0.75 z"/>
<path d="M40.75 0.75 L40.75 0.75 L20.9375 0.75 z"/>
<path d="M40.75 0.75 L20.9375 0.75 L20.9375 0.75 z"/>
<path d="M40.75 0.75 L40.75 0.75 L20.9375 0.75 z"/>
<path d="M40.75 0.75 L40.75 0.75 L20.9375 0.75 z"/>
<path d="M40.75 0.75 L20.9375 0.75 L20.9375 0.75 z"/>
<path d="M20.1875 0.75 L20.9375 0.75 L20.9375 0.75 z"/>
<path d="M20.1875 0.75 L20.9375 0.75 L20.1875 0.75 z"/>
<path d="M20.1875 0.75 L20.9375 0.75 L20.9375 0.75 z"/>
<path d="M20.1875 0.75 L20.9375 0.75 L20.1875 0.75 z"/>
<path d="M40.75 0.75 L41.125 0.75 L40.75 0.75 z"/>
<path d="M40.75 0.75 L41.125 0.75 L41.125 0.75 z"/>
<path d="M40.75 0.75 L41.125 0.75 L40.75 0.75 z"/>
<path d="M40.75 0.75 L41.125 0.75 L40.75 0.75 z"/>
<path d="M0.375 0.75 L0 0.75 L0 0.75 z"/>
<path d="M0.375 0.75 L0 0.75 L0.375 0.75 z"/>
<path d="M0.375 0.75 L0 0.75 L0.375 0.75 z"/>
<path d="M0.375 0.75 L0 0.75 L0.375 0.75 z"/>
<path d="M20.1875 0.225 L20.1875 0.22406 L20.1875 0 z"/>
<path d="M20.1875 0.225 L20.1875 0 L20.1875 0 z"/>
<path d="M20.1875 0.225 L20.1875 0 L20.1875 0.225 z"/>
<path d="M20.1875 0 L20.1875 0.22406 L20.1875 0 z"/>
<path d="M20.9375 0 L20.9375 0.225 L20.9375 0.225 z"/>
<path d="M20.9375 0 L20.9375 0.225 L20.9375 0.22406 z"/>
<path d="M20.9375 0 L20.9375 0.22406 L20.9375 0 z"/>
<path d="M20.9375 0 L20.9375 0.22406 L20.9375 0 z"/>
<path d="M20.93514 0.225 L20.18986 0.225 L20.1875 0.225 z"/>
<path d="M20.93514 0.225 L20.1875 0.225 L20.1875 0.225 z"/>
<path d="M20.18986 0.225 L20.93514 0.225 L20.9375 0.225 z"/>
<path d="M20.18986 0.225 L20.9375 0.225 L20.9375 0.225 z"/>
<path d="M40.75 0.225 L40.75 0.22406 L40.75 0 z"/>
<path d="M40.75 0.225 L40.75 0 L40.75 0 z"/>
<path d="M40.75 0.225 L40.75 0 L40.75 0.225 z"/>
<path d="M40.75 0 L40.75 0.22406 L40.75 0 z"/>
<path d="M41.125 0.225 L40.75236 0.225 L40.75 0.225 z"/>
<path d="M41.125 0.225 L40.75 0.225 L40.75 0.225 z"/>
<path d="M41.125 0.225 L40.75 0.225 L41.125 0.225 z"/>
<path d="M41.125 0.225 L41.125 0.225 L40.75236 0.225 z"/>
<path d="M0.375 0 L0.375 0.225 L0.375 0.225 z"/>
<path d="M0.375 0 L0.375 0.225 L0.375 0.22406 z"/>
<path d="M0.375 0 L0.375 0.22406 L0.375 0 z"/>
<path d="M0.375 0 L0.375 0.22406 L0.375 0 z"/>
<path d="M0 0.225 L0.37264 0.225 L0 0.225 z"/>
<path d="M0.37264 0.225 L0.375 0.225 L0.375 0.225 z"/>
<path d="M0.37264 0.225 L0.375 0.225 L0 0.225 z"/>
<path d="M0.37264 0.225 L0 0.225 L0 0.225 z"/>
</svg>