<?xml version="1.0" encoding="UTF-8"?>
<!-- Generated by jsxcad -->
<!DOCTYPE svg PUBLIC "-//W3C//DTD SVG 1.1 Tiny//EN" "http://www.w3.org/Graphics/SVG/1.1/DTD/svg11-tiny.dtd">
<svg baseProfile="tiny" height="16 mm" width="40.05 mm" viewBox="0 0 40.05 16" version="1.1" stroke="black" stroke-width=".1" fill="none" xmlns="http://www.w3.org/2000/svg">
<path d="M19.84031 16 L19.65 16 L19.65 12.06 L19.65 4.06 L19.65 0 L19.83469 0 L20.20969 0 L20.4 0 L20.4 3.94 L20.4 11.94 L20.4 16 L20.21531 16 z"/>
<path d="M0.75 3.94 L0.75 11.94 L0.75 16 L0.56531 16 L0.3875 16 L0.025 16 L0.0125 16 L0 16 L0 12.06 L0 4.06 L0 0 L0.0125 0 L0.025 0 L0.18469 0 L0.36118 0 L0.3875 0 L0.75 0 z"/>
<path d="M39.3 0 L39.66937 0 L39.675 0 L40.05 0 L40.05 7.88 L40.05 8 L40.05 16 L39.68063 16 L39.675 16 L39.3 16 L39.3 8.12 L39.3 8 z"/>
</svg>