<svg viewBox="-250 -250 500 500" width="500" height="500" xmlns="http://www.w3.org/2000/svg"><path d="M-37.83757380374917,34.59267159242381L-41.56508300445877,34.464175085175995L-121.3566425755823,99.6524914727211z" style="fill:rgb(82,237,172)"/><path d="M-37.033505036632235,36.46744005059484L-37.83757380374917,34.59267159242381L-116.74548396782805,102.01249157177323z" style="fill:rgb(217,127,217)"/><path d="M-37.83757380374917,34.59267159242381L-121.3566425755823,99.6524914727211L-117.67287546881315,100.05152242085107z" style="fill:rgb(82,237,172)"/><path d="M-116.74548396782805,102.01249157177323L-37.83757380374917,34.59267159242381L-117.67287546881315,100.05152242085107z" style="fill:rgb(217,127,217)"/><path d="M-120.43000981845594,101.60596332933238L-117.67287546881315,100.05152242085107L-121.3566425755823,99.6524914727211zM-116.74548396782805,102.01249157177323L-117.67287546881315,100.05152242085107L-120.43000981845594,101.60596332933238z" style="fill:rgb(49,63,205)"/><path d="M198.895983091025,39.31856626115694L-42.64936010101013,31.660882428958182L-122.62713008822234,96.72914132713784z" style="fill:rgb(82,237,172)"/><path d="M-116.78743736032169,101.92372064814849L-35.6580051602539,108.93550940526062L-117.67287546881315,100.05152242085107zM120.3461703374252,122.41842519460661L-122.62713008822234,96.72914132713784L-121.23429710822231,99.66573523660404zM-116.78743736032169,101.92372064814849L-116.74548396782805,102.01249157177323L122.62356132799287,128.4230206937942z" style="fill:rgb(49,63,205)"/><path d="M143.6125709063736,-125.48901834373608L-99.2069805399539,-99.77358035621867L-188.09051952255254,-41.28863598317684z" style="fill:rgb(82,237,172)"/><path d="M120.3461703374252,122.41842519460661L-121.23429710822231,99.66573523660404L-35.6580051602539,108.93550940526062zM-116.78743736032169,101.92372064814849L121.69711049247591,125.98047594301102L-35.6580051602539,108.93550940526062z" style="fill:rgb(49,63,205)"/><path d="M198.895983091025,39.31856626115694L-122.62713008822234,96.72914132713784L120.30407964629727,122.30722260820247z" style="fill:rgb(82,237,172)"/><path d="M198.9849760938307,43.93657476586856L200.83702569013388,45.10490224065029L200.06164834497628,42.79364145056021z" style="fill:rgb(217,127,217)"/><path d="M53.86572973649906,-52.86701057085629L-188.09051952255254,-41.28863598317684L-185.50308486097776,-35.833375239181706z" style="fill:rgb(49,63,205)"/><path d="M198.9849760938307,43.93657476586856L200.06164834497628,42.79364145056021L198.895983091025,39.31856626115694zM198.9849760938307,43.93657476586856L198.895983091025,39.31856626115694L196.19165939627152,42.1742209480957z" style="fill:rgb(217,127,217)"/><path d="M-116.78743736032169,101.92372064814849L122.62356132799287,128.4230206937942L121.69711049247591,125.98047594301102zM120.3461703374252,122.41842519460661L120.30407964629727,122.30722260820247L-122.62713008822234,96.72914132713784z" style="fill:rgb(49,63,205)"/><path d="M121.69711049247591,125.98047594301102L200.83702569013388,45.10490224065029L198.9849760938307,43.93657476586856zM120.30407964629727,122.30722260820247L198.9849760938307,43.93657476586856L196.19165939627152,42.1742209480957zM128.8721200576767,125.24896027903077L206.5874633064961,45.31371036686796L205.81383929989576,42.99193343585489zM129.40605998788584,119.51809172563293L205.81383929989576,42.99193343585489L204.65077253161735,39.50100948110775z" style="fill:rgb(217,127,217)"/><path d="M120.3461703374252,122.41842519460661L-35.6580051602539,108.93550940526062L121.69711049247591,125.98047594301102z" style="fill:rgb(49,63,205)"/><path d="M143.6125709063736,-125.48901834373608L-188.09051952255254,-41.28863598317684L53.81734367159016,-52.994734149107906z" style="fill:rgb(82,237,172)"/><path d="M204.65077253161735,39.50100948110775L151.6735641421803,-119.50606148803074L129.40605998788584,119.51809172563293zM121.69711049247591,125.98047594301102L122.62356132799287,128.4230206937942L200.83702569013388,45.10490224065029zM120.30407964629727,122.30722260820247L121.69711049247591,125.98047594301102L198.9849760938307,43.93657476586856zM129.40605998788584,119.51809172563293L128.8721200576767,125.24896027903077L205.81383929989576,42.99193343585489zM128.8721200576767,125.24896027903077L128.51590176817913,129.07314581168518L206.5874633064961,45.31371036686796z" style="fill:rgb(217,127,217)"/><path d="M53.86572973649906,-52.86701057085629L-185.50308486097776,-35.833375239181706L56.48330545101875,-45.96537278356751zM53.86572973649906,-52.86701057085629L53.81734367159016,-52.994734149107906L-188.09051952255254,-41.28863598317684zM121.69711049247591,125.98047594301102L122.62356132799287,128.4230206937942L121.78513494405217,125.99001089746476zM120.30407964629727,122.30722260820247L121.69711049247591,125.98047594301102L121.78513494405217,125.99001089746476zM121.78513494405217,125.99001089746476L122.62356132799287,128.4230206937942L128.51590176817913,129.07314581168518zM120.30407964629727,122.30722260820247L121.78513494405217,125.99001089746476L120.52401929397213,122.33038987949593zM120.52401929397213,122.33038987949593L121.78513494405217,125.99001089746476L127.59071819779025,126.61888232342055zM121.78513494405217,125.99001089746476L128.51590176817913,129.07314581168518L127.59071819779025,126.61888232342055z" style="fill:rgb(49,63,205)"/><path d="M127.59071819779025,126.61888232342055L128.51590176817913,129.07314581168518L128.8721200576767,125.24896027903077zM126.19958974316722,122.9279573281912L128.8721200576767,125.24896027903077L129.40605998788584,119.51809172563293z" style="fill:rgb(217,127,217)"/><path d="M120.52401929397213,122.33038987949593L127.59071819779025,126.61888232342055L126.19958974316722,122.9279573281912z" style="fill:rgb(49,63,205)"/><path d="M126.19958974316722,122.9279573281912L127.59071819779025,126.61888232342055L128.8721200576767,125.24896027903077z" style="fill:rgb(217,127,217)"/><path d="M151.6735641421803,-119.50606148803074L145.81628945522638,-118.9193215843503L56.48330545101875,-45.96537278356751z" style="fill:rgb(82,237,172)"/><path d="M151.4773627384866,-119.48640743407938L149.27711763731972,-126.08891361295716L62.243365630881456,-46.206552139461515z" style="fill:rgb(217,127,217)"/><path d="M143.6125709063736,-125.48901834373608L59.57904571885802,-53.27354686781849L149.27711763731972,-126.08891361295716z" style="fill:rgb(82,237,172)"/><path d="M129.40605998788584,119.51809172563293L151.6735641421803,-119.50606148803074L62.44308891794726,-46.21490989800536z" style="fill:rgb(217,127,217)"/><path d="M120.52401929397213,122.33038987949593L56.48330545101875,-45.96537278356751L120.30407964629727,122.30722260820247zM126.19958974316722,122.9279573281912L62.44308891794726,-46.21490989800536L120.52401929397213,122.33038987949593z" style="fill:rgb(49,63,205)"/><path d="M129.40605998788584,119.51809172563293L62.44308891794726,-46.21490989800536L126.19958974316722,122.9279573281912z" style="fill:rgb(217,127,217)"/><path d="M151.6735641421803,-119.50606148803074L56.48330545101875,-45.96537278356751L62.44308891794726,-46.21490989800536zM143.6125709063736,-125.48901834373608L53.81734367159016,-52.994734149107906L59.57904571885802,-53.27354686781849z" style="fill:rgb(82,237,172)"/><path d="M62.243365630881456,-46.206552139461515L149.27711763731972,-126.08891361295716L59.57904571885802,-53.27354686781849z" style="fill:rgb(217,127,217)"/><path d="M120.52401929397213,122.33038987949593L62.44308891794726,-46.21490989800536L56.48330545101875,-45.96537278356751zM59.57904571885802,-53.27354686781849L53.86572973649906,-52.86701057085629L56.48330545101875,-45.96537278356751zM59.57904571885802,-53.27354686781849L56.48330545101875,-45.96537278356751L62.243365630881456,-46.206552139461515zM53.86572973649906,-52.86701057085629L59.57904571885802,-53.27354686781849L53.81734367159016,-52.994734149107906z" style="fill:rgb(49,63,205)"/></svg>