solid JSxCAD
facet normal 0 -1 0
outer loop
vertex 20.125 -8 0.2
vertex 20.125 -8 20.2
vertex 19.375 -8 0.2
endloop
endfacet
facet normal 0 -1 0
outer loop
vertex 19.375 -8 0.2
vertex 20.125 -8 20.2
vertex 19.375 -8 20.2
endloop
endfacet
facet normal -1 0 0
outer loop
vertex 19.375 -8 0.2
vertex 19.375 -8 20.2
vertex 19.375 8 0.2
endloop
endfacet
facet normal -1 0 0
outer loop
vertex 19.375 8 0.2
vertex 19.375 -8 20.2
vertex 19.375 8 20.2
endloop
endfacet
facet normal 0 1 0
outer loop
vertex 19.375 8 0.2
vertex 19.375 8 20.2
vertex 20.125 8 0.2
endloop
endfacet
facet normal 0 1 0
outer loop
vertex 20.125 8 0.2
vertex 19.375 8 20.2
vertex 20.125 8 20.2
endloop
endfacet
facet normal 1 0 0
outer loop
vertex 20.125 8 0.2
vertex 20.125 8 20.2
vertex 20.125 -8 0.2
endloop
endfacet
facet normal 1 0 0
outer loop
vertex 20.125 -8 0.2
vertex 20.125 8 20.2
vertex 20.125 -8 20.2
endloop
endfacet
facet normal 0 0 1
outer loop
vertex 20.125 8 20.2
vertex 19.375 8 20.2
vertex 19.375 -8 20.2
endloop
endfacet
facet normal 0 0 1
outer loop
vertex 20.125 8 20.2
vertex 19.375 -8 20.2
vertex 20.125 -8 20.2
endloop
endfacet
facet normal 0 0 -1
outer loop
vertex 20.125 -8 0.2
vertex 19.375 -8 0.2
vertex 19.375 8 0.2
endloop
endfacet
facet normal 0 0 -1
outer loop
vertex 20.125 -8 0.2
vertex 19.375 8 0.2
vertex 20.125 8 0.2
endloop
endfacet
facet normal 0 0 -1
outer loop
vertex 19.375 -8 -0.375
vertex -20 -8 -0.375
vertex -20 8 -0.375
endloop
endfacet
facet normal 0 0 -1
outer loop
vertex 19.375 -8 -0.375
vertex -20 8 -0.375
vertex 19.375 8 -0.375
endloop
endfacet
facet normal 0 0 -1
outer loop
vertex 19.375 -8 -0.375
vertex 19.375 8 -0.375
vertex 20 8 -0.375
endloop
endfacet
facet normal 0 0 -1
outer loop
vertex 19.375 -8 -0.375
vertex 20 8 -0.375
vertex 20 -8 -0.375
endloop
endfacet
facet normal 0 0 1
outer loop
vertex -19.375 8 0.375
vertex -19.375 -8 0.375
vertex -0.375 -8 0.375
endloop
endfacet
facet normal 0 0 1
outer loop
vertex -19.375 8 0.375
vertex -0.375 -8 0.375
vertex -0.375 8 0.375
endloop
endfacet
facet normal 0 0 1
outer loop
vertex 19.375 -8 0.375
vertex 19.375 8 0.375
vertex 0.375 8 0.375
endloop
endfacet
facet normal 0 0 1
outer loop
vertex 19.375 -8 0.375
vertex 0.375 8 0.375
vertex 0.375 -8 0.375
endloop
endfacet
facet normal 0 -1 0
outer loop
vertex 19.375 -8 0.15
vertex 8 -8 0.15
vertex -20 -8 -0.375
endloop
endfacet
facet normal 0 -1 0
outer loop
vertex 19.375 -8 0.15
vertex -20 -8 -0.375
vertex 19.375 -8 -0.375
endloop
endfacet
facet normal 0 -1 0
outer loop
vertex -20 -8 0.15
vertex -20 -8 -0.375
vertex 8 -8 0.15
endloop
endfacet
facet normal 0 -1 0
outer loop
vertex -19.375 -8 0.375
vertex -19.375 -8 0.15
vertex -0.375 -8 0.15
endloop
endfacet
facet normal 0 -1 0
outer loop
vertex -19.375 -8 0.375
vertex -0.375 -8 0.15
vertex -0.375 -8 0.375
endloop
endfacet
facet normal 0 -1 0
outer loop
vertex 19.375 -8 0.36328
vertex 8 -8 0.15
vertex 19.375 -8 0.15
endloop
endfacet
facet normal 0 -1 0
outer loop
vertex 0.375 -8 0.15
vertex 8 -8 0.15
vertex 19.375 -8 0.36328
endloop
endfacet
facet normal 0 -1 0
outer loop
vertex 0.375 -8 0.15
vertex 19.375 -8 0.36328
vertex 19.375 -8 0.375
endloop
endfacet
facet normal 0 -1 0
outer loop
vertex 0.375 -8 0.15
vertex 19.375 -8 0.375
vertex 0.375 -8 0.375
endloop
endfacet
facet normal 0 -1 0
outer loop
vertex 19.375 -8 0.15
vertex 19.375 -8 -0.375
vertex 20 -8 -0.375
endloop
endfacet
facet normal 0 -1 0
outer loop
vertex 19.375 -8 0.15
vertex 20 -8 -0.375
vertex 20 -8 0.15
endloop
endfacet
facet normal 0 1 0
outer loop
vertex -8 8 0.15
vertex 19.375 8 -0.36328
vertex 19.375 8 -0.375
endloop
endfacet
facet normal 0 1 0
outer loop
vertex -8 8 0.15
vertex 19.375 8 -0.375
vertex -20 8 -0.375
endloop
endfacet
facet normal 0 1 0
outer loop
vertex -8 8 0.15
vertex -20 8 -0.375
vertex -20 8 0.15
endloop
endfacet
facet normal 0 1 0
outer loop
vertex 19.375 8 0.15
vertex 19.375 8 -0.36328
vertex -8 8 0.15
endloop
endfacet
facet normal 0 1 0
outer loop
vertex -19.375 8 0.36328
vertex -8 8 0.15
vertex -19.375 8 0.15
endloop
endfacet
facet normal 0 1 0
outer loop
vertex -19.375 8 0.375
vertex -0.375 8 0.375
vertex -0.375 8 0.15
endloop
endfacet
facet normal 0 1 0
outer loop
vertex -19.375 8 0.375
vertex -0.375 8 0.15
vertex -8 8 0.15
endloop
endfacet
facet normal 0 1 0
outer loop
vertex -19.375 8 0.375
vertex -8 8 0.15
vertex -19.375 8 0.36328
endloop
endfacet
facet normal 0 1 0
outer loop
vertex 19.375 8 0.375
vertex 19.375 8 0.15
vertex 0.375 8 0.15
endloop
endfacet
facet normal 0 1 0
outer loop
vertex 19.375 8 0.375
vertex 0.375 8 0.15
vertex 0.375 8 0.375
endloop
endfacet
facet normal 0 1 0
outer loop
vertex 19.375 8 -0.36328
vertex 20 8 -0.375
vertex 19.375 8 -0.375
endloop
endfacet
facet normal 0 1 0
outer loop
vertex 19.375 8 0.15
vertex 20 8 0.15
vertex 20 8 -0.375
endloop
endfacet
facet normal 0 1 0
outer loop
vertex 19.375 8 0.15
vertex 20 8 -0.375
vertex 19.375 8 -0.36328
endloop
endfacet
facet normal 0 0 1
outer loop
vertex 0.375 8 0.15
vertex -0.375 8 0.15
vertex -0.375 -8 0.15
endloop
endfacet
facet normal 0 0 1
outer loop
vertex 0.375 8 0.15
vertex -0.375 -8 0.15
vertex 0.375 -8 0.15
endloop
endfacet
facet normal 0 0 1
outer loop
vertex -20 8 0.15
vertex -20 -8 0.15
vertex -19.375 -8 0.15
endloop
endfacet
facet normal 0 0 1
outer loop
vertex -20 8 0.15
vertex -19.375 -8 0.15
vertex -19.375 8 0.15
endloop
endfacet
facet normal 0 0 1
outer loop
vertex 20 8 0.15
vertex 19.375 8 0.15
vertex 19.375 -8 0.15
endloop
endfacet
facet normal 0 0 1
outer loop
vertex 20 8 0.15
vertex 19.375 -8 0.15
vertex 20 -8 0.15
endloop
endfacet
facet normal 1 0 0
outer loop
vertex -0.375 -4 0.375
vertex -0.375 -8 0.375
vertex -0.375 -8 0.15
endloop
endfacet
facet normal 1 0 0
outer loop
vertex -0.375 -4 0.375
vertex -0.375 -8 0.15
vertex -0.375 8 0.15
endloop
endfacet
facet normal 1 0 0
outer loop
vertex -0.375 -4 0.375
vertex -0.375 8 0.15
vertex -0.375 8 0.375
endloop
endfacet
facet normal -1 0 0
outer loop
vertex 0.375 4 0.375
vertex 0.375 8 0.375
vertex 0.375 8 0.15
endloop
endfacet
facet normal -1 0 0
outer loop
vertex 0.375 4 0.375
vertex 0.375 8 0.15
vertex 0.375 -8 0.15
endloop
endfacet
facet normal -1 0 0
outer loop
vertex 0.375 4 0.375
vertex 0.375 -8 0.15
vertex 0.375 -8 0.375
endloop
endfacet
facet normal 1 0 0
outer loop
vertex 19.375 -4 0.375
vertex 19.375 -8 0.375
vertex 19.375 -8 0.15
endloop
endfacet
facet normal 1 0 0
outer loop
vertex 19.375 -4 0.375
vertex 19.375 -8 0.15
vertex 19.375 8 0.15
endloop
endfacet
facet normal 1 0 0
outer loop
vertex 19.375 -4 0.375
vertex 19.375 8 0.15
vertex 19.375 8 0.375
endloop
endfacet
facet normal -1 0 0
outer loop
vertex -19.375 4 0.375
vertex -19.375 8 0.375
vertex -19.375 8 0.15
endloop
endfacet
facet normal -1 0 0
outer loop
vertex -19.375 4 0.375
vertex -19.375 8 0.15
vertex -19.375 -8 0.15
endloop
endfacet
facet normal -1 0 0
outer loop
vertex -19.375 4 0.375
vertex -19.375 -8 0.15
vertex -19.375 -8 0.375
endloop
endfacet
facet normal 1 0 0
outer loop
vertex 20 8 0.15
vertex 20 3.2 0.15
vertex 20 -8 -0.375
endloop
endfacet
facet normal 1 0 0
outer loop
vertex 20 8 0.15
vertex 20 -8 -0.375
vertex 20 8 -0.375
endloop
endfacet
facet normal 1 0 0
outer loop
vertex 20 3.2 0.15
vertex 20 -8 0.15
vertex 20 -8 -0.375
endloop
endfacet
facet normal -1 0 0
outer loop
vertex -20 -8 0.15
vertex -20 -3.2 0.15
vertex -20 8 -0.375
endloop
endfacet
facet normal -1 0 0
outer loop
vertex -20 -8 0.15
vertex -20 8 -0.375
vertex -20 -8 -0.375
endloop
endfacet
facet normal -1 0 0
outer loop
vertex -20 -3.2 0.15
vertex -20 8 0.15
vertex -20 8 -0.375
endloop
endfacet
facet normal -1 0 0
outer loop
vertex -0.375 -8 0.375
vertex -0.375 -8 20.375
vertex -0.375 8 0.375
endloop
endfacet
facet normal -1 0 0
outer loop
vertex -0.375 8 0.375
vertex -0.375 -8 20.375
vertex -0.375 8 20.375
endloop
endfacet
facet normal 1 0 0
outer loop
vertex 0.375 8 0.375
vertex 0.375 8 20.375
vertex 0.375 -8 0.375
endloop
endfacet
facet normal 1 0 0
outer loop
vertex 0.375 -8 0.375
vertex 0.375 8 20.375
vertex 0.375 -8 20.375
endloop
endfacet
facet normal 0 -1 0
outer loop
vertex 0.375 -8 0.375
vertex 0.375 -8 20.375
vertex -0.375 -8 0.375
endloop
endfacet
facet normal 0 -1 0
outer loop
vertex -0.375 -8 0.375
vertex 0.375 -8 20.375
vertex -0.375 -8 20.375
endloop
endfacet
facet normal 0 1 0
outer loop
vertex -0.375 8 0.375
vertex -0.375 8 20.375
vertex 0.375 8 0.375
endloop
endfacet
facet normal 0 1 0
outer loop
vertex 0.375 8 0.375
vertex -0.375 8 20.375
vertex 0.375 8 20.375
endloop
endfacet
facet normal 0 0 -1
outer loop
vertex 0.375 -8 0.375
vertex -0.375 -8 0.375
vertex -0.375 8 0.375
endloop
endfacet
facet normal 0 0 -1
outer loop
vertex 0.375 -8 0.375
vertex -0.375 8 0.375
vertex 0.375 8 0.375
endloop
endfacet
facet normal 0 0 1
outer loop
vertex 0.375 8 20.375
vertex -0.375 8 20.375
vertex -0.375 -8 20.375
endloop
endfacet
facet normal 0 0 1
outer loop
vertex 0.375 8 20.375
vertex -0.375 -8 20.375
vertex 0.375 -8 20.375
endloop
endfacet
endsolid JSxCAD
